G04 EAGLE Gerber RS-274X export*
G75*
%MOMM*%
%FSLAX34Y34*%
%LPD*%
%INSoldermask Bottom*%
%IPPOS*%
%AMOC8*
5,1,8,0,0,1.08239X$1,22.5*%
G01*
%ADD10C,3.429000*%
%ADD11C,0.228344*%
%ADD12C,2.006600*%
%ADD13C,1.127000*%
%ADD14C,1.270000*%
%ADD15C,1.627000*%

G36*
X1449135Y852817D02*
X1449135Y852817D01*
X1449201Y852819D01*
X1449244Y852837D01*
X1449291Y852845D01*
X1449348Y852879D01*
X1449408Y852904D01*
X1449443Y852935D01*
X1449484Y852960D01*
X1449526Y853011D01*
X1449574Y853055D01*
X1449596Y853097D01*
X1449625Y853134D01*
X1449646Y853196D01*
X1449677Y853255D01*
X1449685Y853309D01*
X1449697Y853346D01*
X1449696Y853386D01*
X1449704Y853440D01*
X1449704Y857250D01*
X1449693Y857315D01*
X1449691Y857381D01*
X1449673Y857424D01*
X1449665Y857471D01*
X1449631Y857528D01*
X1449606Y857588D01*
X1449575Y857623D01*
X1449550Y857664D01*
X1449499Y857706D01*
X1449455Y857754D01*
X1449413Y857776D01*
X1449376Y857805D01*
X1449314Y857826D01*
X1449255Y857857D01*
X1449201Y857865D01*
X1449164Y857877D01*
X1449124Y857876D01*
X1449070Y857884D01*
X1446530Y857884D01*
X1446465Y857873D01*
X1446399Y857871D01*
X1446356Y857853D01*
X1446309Y857845D01*
X1446252Y857811D01*
X1446192Y857786D01*
X1446157Y857755D01*
X1446116Y857730D01*
X1446075Y857679D01*
X1446026Y857635D01*
X1446004Y857593D01*
X1445975Y857556D01*
X1445954Y857494D01*
X1445923Y857435D01*
X1445915Y857381D01*
X1445903Y857344D01*
X1445903Y857340D01*
X1445903Y857339D01*
X1445904Y857304D01*
X1445896Y857250D01*
X1445896Y853440D01*
X1445907Y853375D01*
X1445909Y853309D01*
X1445927Y853266D01*
X1445935Y853219D01*
X1445969Y853162D01*
X1445994Y853102D01*
X1446025Y853067D01*
X1446050Y853026D01*
X1446101Y852985D01*
X1446145Y852936D01*
X1446187Y852914D01*
X1446224Y852885D01*
X1446286Y852864D01*
X1446345Y852833D01*
X1446399Y852825D01*
X1446436Y852813D01*
X1446476Y852814D01*
X1446530Y852806D01*
X1449070Y852806D01*
X1449135Y852817D01*
G37*
G36*
X671895Y852817D02*
X671895Y852817D01*
X671961Y852819D01*
X672004Y852837D01*
X672051Y852845D01*
X672108Y852879D01*
X672168Y852904D01*
X672203Y852935D01*
X672244Y852960D01*
X672286Y853011D01*
X672334Y853055D01*
X672356Y853097D01*
X672385Y853134D01*
X672406Y853196D01*
X672437Y853255D01*
X672445Y853309D01*
X672457Y853346D01*
X672456Y853386D01*
X672464Y853440D01*
X672464Y857250D01*
X672453Y857315D01*
X672451Y857381D01*
X672433Y857424D01*
X672425Y857471D01*
X672391Y857528D01*
X672366Y857588D01*
X672335Y857623D01*
X672310Y857664D01*
X672259Y857706D01*
X672215Y857754D01*
X672173Y857776D01*
X672136Y857805D01*
X672074Y857826D01*
X672015Y857857D01*
X671961Y857865D01*
X671924Y857877D01*
X671884Y857876D01*
X671830Y857884D01*
X669290Y857884D01*
X669225Y857873D01*
X669159Y857871D01*
X669116Y857853D01*
X669069Y857845D01*
X669012Y857811D01*
X668952Y857786D01*
X668917Y857755D01*
X668876Y857730D01*
X668835Y857679D01*
X668786Y857635D01*
X668764Y857593D01*
X668735Y857556D01*
X668714Y857494D01*
X668683Y857435D01*
X668675Y857381D01*
X668663Y857344D01*
X668663Y857340D01*
X668663Y857339D01*
X668664Y857304D01*
X668656Y857250D01*
X668656Y853440D01*
X668667Y853375D01*
X668669Y853309D01*
X668687Y853266D01*
X668695Y853219D01*
X668729Y853162D01*
X668754Y853102D01*
X668785Y853067D01*
X668810Y853026D01*
X668861Y852985D01*
X668905Y852936D01*
X668947Y852914D01*
X668984Y852885D01*
X669046Y852864D01*
X669105Y852833D01*
X669159Y852825D01*
X669196Y852813D01*
X669236Y852814D01*
X669290Y852806D01*
X671830Y852806D01*
X671895Y852817D01*
G37*
G36*
X1190055Y852817D02*
X1190055Y852817D01*
X1190121Y852819D01*
X1190164Y852837D01*
X1190211Y852845D01*
X1190268Y852879D01*
X1190328Y852904D01*
X1190363Y852935D01*
X1190404Y852960D01*
X1190446Y853011D01*
X1190494Y853055D01*
X1190516Y853097D01*
X1190545Y853134D01*
X1190566Y853196D01*
X1190597Y853255D01*
X1190605Y853309D01*
X1190617Y853346D01*
X1190616Y853386D01*
X1190624Y853440D01*
X1190624Y857250D01*
X1190613Y857315D01*
X1190611Y857381D01*
X1190593Y857424D01*
X1190585Y857471D01*
X1190551Y857528D01*
X1190526Y857588D01*
X1190495Y857623D01*
X1190470Y857664D01*
X1190419Y857706D01*
X1190375Y857754D01*
X1190333Y857776D01*
X1190296Y857805D01*
X1190234Y857826D01*
X1190175Y857857D01*
X1190121Y857865D01*
X1190084Y857877D01*
X1190044Y857876D01*
X1189990Y857884D01*
X1187450Y857884D01*
X1187385Y857873D01*
X1187319Y857871D01*
X1187276Y857853D01*
X1187229Y857845D01*
X1187172Y857811D01*
X1187112Y857786D01*
X1187077Y857755D01*
X1187036Y857730D01*
X1186995Y857679D01*
X1186946Y857635D01*
X1186924Y857593D01*
X1186895Y857556D01*
X1186874Y857494D01*
X1186843Y857435D01*
X1186835Y857381D01*
X1186823Y857344D01*
X1186823Y857340D01*
X1186823Y857339D01*
X1186824Y857304D01*
X1186816Y857250D01*
X1186816Y853440D01*
X1186827Y853375D01*
X1186829Y853309D01*
X1186847Y853266D01*
X1186855Y853219D01*
X1186889Y853162D01*
X1186914Y853102D01*
X1186945Y853067D01*
X1186970Y853026D01*
X1187021Y852985D01*
X1187065Y852936D01*
X1187107Y852914D01*
X1187144Y852885D01*
X1187206Y852864D01*
X1187265Y852833D01*
X1187319Y852825D01*
X1187356Y852813D01*
X1187396Y852814D01*
X1187450Y852806D01*
X1189990Y852806D01*
X1190055Y852817D01*
G37*
G36*
X412815Y852817D02*
X412815Y852817D01*
X412881Y852819D01*
X412924Y852837D01*
X412971Y852845D01*
X413028Y852879D01*
X413088Y852904D01*
X413123Y852935D01*
X413164Y852960D01*
X413206Y853011D01*
X413254Y853055D01*
X413276Y853097D01*
X413305Y853134D01*
X413326Y853196D01*
X413357Y853255D01*
X413365Y853309D01*
X413377Y853346D01*
X413376Y853386D01*
X413384Y853440D01*
X413384Y857250D01*
X413373Y857315D01*
X413371Y857381D01*
X413353Y857424D01*
X413345Y857471D01*
X413311Y857528D01*
X413286Y857588D01*
X413255Y857623D01*
X413230Y857664D01*
X413179Y857706D01*
X413135Y857754D01*
X413093Y857776D01*
X413056Y857805D01*
X412994Y857826D01*
X412935Y857857D01*
X412881Y857865D01*
X412844Y857877D01*
X412804Y857876D01*
X412750Y857884D01*
X410210Y857884D01*
X410145Y857873D01*
X410079Y857871D01*
X410036Y857853D01*
X409989Y857845D01*
X409932Y857811D01*
X409872Y857786D01*
X409837Y857755D01*
X409796Y857730D01*
X409755Y857679D01*
X409706Y857635D01*
X409684Y857593D01*
X409655Y857556D01*
X409634Y857494D01*
X409603Y857435D01*
X409595Y857381D01*
X409583Y857344D01*
X409583Y857340D01*
X409583Y857339D01*
X409584Y857304D01*
X409576Y857250D01*
X409576Y853440D01*
X409587Y853375D01*
X409589Y853309D01*
X409607Y853266D01*
X409615Y853219D01*
X409649Y853162D01*
X409674Y853102D01*
X409705Y853067D01*
X409730Y853026D01*
X409781Y852985D01*
X409825Y852936D01*
X409867Y852914D01*
X409904Y852885D01*
X409966Y852864D01*
X410025Y852833D01*
X410079Y852825D01*
X410116Y852813D01*
X410156Y852814D01*
X410210Y852806D01*
X412750Y852806D01*
X412815Y852817D01*
G37*
G36*
X930975Y852817D02*
X930975Y852817D01*
X931041Y852819D01*
X931084Y852837D01*
X931131Y852845D01*
X931188Y852879D01*
X931248Y852904D01*
X931283Y852935D01*
X931324Y852960D01*
X931366Y853011D01*
X931414Y853055D01*
X931436Y853097D01*
X931465Y853134D01*
X931486Y853196D01*
X931517Y853255D01*
X931525Y853309D01*
X931537Y853346D01*
X931536Y853386D01*
X931544Y853440D01*
X931544Y857250D01*
X931533Y857315D01*
X931531Y857381D01*
X931513Y857424D01*
X931505Y857471D01*
X931471Y857528D01*
X931446Y857588D01*
X931415Y857623D01*
X931390Y857664D01*
X931339Y857706D01*
X931295Y857754D01*
X931253Y857776D01*
X931216Y857805D01*
X931154Y857826D01*
X931095Y857857D01*
X931041Y857865D01*
X931004Y857877D01*
X930964Y857876D01*
X930910Y857884D01*
X928370Y857884D01*
X928305Y857873D01*
X928239Y857871D01*
X928196Y857853D01*
X928149Y857845D01*
X928092Y857811D01*
X928032Y857786D01*
X927997Y857755D01*
X927956Y857730D01*
X927915Y857679D01*
X927866Y857635D01*
X927844Y857593D01*
X927815Y857556D01*
X927794Y857494D01*
X927763Y857435D01*
X927755Y857381D01*
X927743Y857344D01*
X927743Y857340D01*
X927743Y857339D01*
X927744Y857304D01*
X927736Y857250D01*
X927736Y853440D01*
X927747Y853375D01*
X927749Y853309D01*
X927767Y853266D01*
X927775Y853219D01*
X927809Y853162D01*
X927834Y853102D01*
X927865Y853067D01*
X927890Y853026D01*
X927941Y852985D01*
X927985Y852936D01*
X928027Y852914D01*
X928064Y852885D01*
X928126Y852864D01*
X928185Y852833D01*
X928239Y852825D01*
X928276Y852813D01*
X928316Y852814D01*
X928370Y852806D01*
X930910Y852806D01*
X930975Y852817D01*
G37*
G36*
X153735Y852817D02*
X153735Y852817D01*
X153801Y852819D01*
X153844Y852837D01*
X153891Y852845D01*
X153948Y852879D01*
X154008Y852904D01*
X154043Y852935D01*
X154084Y852960D01*
X154126Y853011D01*
X154174Y853055D01*
X154196Y853097D01*
X154225Y853134D01*
X154246Y853196D01*
X154277Y853255D01*
X154285Y853309D01*
X154297Y853346D01*
X154296Y853386D01*
X154304Y853440D01*
X154304Y857250D01*
X154293Y857315D01*
X154291Y857381D01*
X154273Y857424D01*
X154265Y857471D01*
X154231Y857528D01*
X154206Y857588D01*
X154175Y857623D01*
X154150Y857664D01*
X154099Y857706D01*
X154055Y857754D01*
X154013Y857776D01*
X153976Y857805D01*
X153914Y857826D01*
X153855Y857857D01*
X153801Y857865D01*
X153764Y857877D01*
X153724Y857876D01*
X153670Y857884D01*
X151130Y857884D01*
X151065Y857873D01*
X150999Y857871D01*
X150956Y857853D01*
X150909Y857845D01*
X150852Y857811D01*
X150792Y857786D01*
X150757Y857755D01*
X150716Y857730D01*
X150675Y857679D01*
X150626Y857635D01*
X150604Y857593D01*
X150575Y857556D01*
X150554Y857494D01*
X150523Y857435D01*
X150515Y857381D01*
X150503Y857344D01*
X150503Y857340D01*
X150503Y857339D01*
X150504Y857304D01*
X150496Y857250D01*
X150496Y853440D01*
X150507Y853375D01*
X150509Y853309D01*
X150527Y853266D01*
X150535Y853219D01*
X150569Y853162D01*
X150594Y853102D01*
X150625Y853067D01*
X150650Y853026D01*
X150701Y852985D01*
X150745Y852936D01*
X150787Y852914D01*
X150824Y852885D01*
X150886Y852864D01*
X150945Y852833D01*
X150999Y852825D01*
X151036Y852813D01*
X151076Y852814D01*
X151130Y852806D01*
X153670Y852806D01*
X153735Y852817D01*
G37*
G36*
X1190055Y862977D02*
X1190055Y862977D01*
X1190121Y862979D01*
X1190164Y862997D01*
X1190211Y863005D01*
X1190268Y863039D01*
X1190328Y863064D01*
X1190363Y863095D01*
X1190404Y863120D01*
X1190446Y863171D01*
X1190494Y863215D01*
X1190516Y863257D01*
X1190545Y863294D01*
X1190566Y863356D01*
X1190597Y863415D01*
X1190605Y863469D01*
X1190617Y863506D01*
X1190616Y863546D01*
X1190624Y863600D01*
X1190624Y867410D01*
X1190613Y867475D01*
X1190611Y867541D01*
X1190593Y867584D01*
X1190585Y867631D01*
X1190551Y867688D01*
X1190526Y867748D01*
X1190495Y867783D01*
X1190470Y867824D01*
X1190419Y867866D01*
X1190375Y867914D01*
X1190333Y867936D01*
X1190296Y867965D01*
X1190234Y867986D01*
X1190175Y868017D01*
X1190121Y868025D01*
X1190084Y868037D01*
X1190044Y868036D01*
X1189990Y868044D01*
X1187450Y868044D01*
X1187385Y868033D01*
X1187319Y868031D01*
X1187276Y868013D01*
X1187229Y868005D01*
X1187172Y867971D01*
X1187112Y867946D01*
X1187077Y867915D01*
X1187036Y867890D01*
X1186995Y867839D01*
X1186946Y867795D01*
X1186924Y867753D01*
X1186895Y867716D01*
X1186874Y867654D01*
X1186843Y867595D01*
X1186835Y867541D01*
X1186823Y867504D01*
X1186823Y867500D01*
X1186823Y867499D01*
X1186824Y867464D01*
X1186816Y867410D01*
X1186816Y863600D01*
X1186827Y863535D01*
X1186829Y863469D01*
X1186847Y863426D01*
X1186855Y863379D01*
X1186889Y863322D01*
X1186914Y863262D01*
X1186945Y863227D01*
X1186970Y863186D01*
X1187021Y863145D01*
X1187065Y863096D01*
X1187107Y863074D01*
X1187144Y863045D01*
X1187206Y863024D01*
X1187265Y862993D01*
X1187319Y862985D01*
X1187356Y862973D01*
X1187396Y862974D01*
X1187450Y862966D01*
X1189990Y862966D01*
X1190055Y862977D01*
G37*
G36*
X671895Y862977D02*
X671895Y862977D01*
X671961Y862979D01*
X672004Y862997D01*
X672051Y863005D01*
X672108Y863039D01*
X672168Y863064D01*
X672203Y863095D01*
X672244Y863120D01*
X672286Y863171D01*
X672334Y863215D01*
X672356Y863257D01*
X672385Y863294D01*
X672406Y863356D01*
X672437Y863415D01*
X672445Y863469D01*
X672457Y863506D01*
X672456Y863546D01*
X672464Y863600D01*
X672464Y867410D01*
X672453Y867475D01*
X672451Y867541D01*
X672433Y867584D01*
X672425Y867631D01*
X672391Y867688D01*
X672366Y867748D01*
X672335Y867783D01*
X672310Y867824D01*
X672259Y867866D01*
X672215Y867914D01*
X672173Y867936D01*
X672136Y867965D01*
X672074Y867986D01*
X672015Y868017D01*
X671961Y868025D01*
X671924Y868037D01*
X671884Y868036D01*
X671830Y868044D01*
X669290Y868044D01*
X669225Y868033D01*
X669159Y868031D01*
X669116Y868013D01*
X669069Y868005D01*
X669012Y867971D01*
X668952Y867946D01*
X668917Y867915D01*
X668876Y867890D01*
X668835Y867839D01*
X668786Y867795D01*
X668764Y867753D01*
X668735Y867716D01*
X668714Y867654D01*
X668683Y867595D01*
X668675Y867541D01*
X668663Y867504D01*
X668663Y867500D01*
X668663Y867499D01*
X668664Y867464D01*
X668656Y867410D01*
X668656Y863600D01*
X668667Y863535D01*
X668669Y863469D01*
X668687Y863426D01*
X668695Y863379D01*
X668729Y863322D01*
X668754Y863262D01*
X668785Y863227D01*
X668810Y863186D01*
X668861Y863145D01*
X668905Y863096D01*
X668947Y863074D01*
X668984Y863045D01*
X669046Y863024D01*
X669105Y862993D01*
X669159Y862985D01*
X669196Y862973D01*
X669236Y862974D01*
X669290Y862966D01*
X671830Y862966D01*
X671895Y862977D01*
G37*
G36*
X153735Y862977D02*
X153735Y862977D01*
X153801Y862979D01*
X153844Y862997D01*
X153891Y863005D01*
X153948Y863039D01*
X154008Y863064D01*
X154043Y863095D01*
X154084Y863120D01*
X154126Y863171D01*
X154174Y863215D01*
X154196Y863257D01*
X154225Y863294D01*
X154246Y863356D01*
X154277Y863415D01*
X154285Y863469D01*
X154297Y863506D01*
X154296Y863546D01*
X154304Y863600D01*
X154304Y867410D01*
X154293Y867475D01*
X154291Y867541D01*
X154273Y867584D01*
X154265Y867631D01*
X154231Y867688D01*
X154206Y867748D01*
X154175Y867783D01*
X154150Y867824D01*
X154099Y867866D01*
X154055Y867914D01*
X154013Y867936D01*
X153976Y867965D01*
X153914Y867986D01*
X153855Y868017D01*
X153801Y868025D01*
X153764Y868037D01*
X153724Y868036D01*
X153670Y868044D01*
X151130Y868044D01*
X151065Y868033D01*
X150999Y868031D01*
X150956Y868013D01*
X150909Y868005D01*
X150852Y867971D01*
X150792Y867946D01*
X150757Y867915D01*
X150716Y867890D01*
X150675Y867839D01*
X150626Y867795D01*
X150604Y867753D01*
X150575Y867716D01*
X150554Y867654D01*
X150523Y867595D01*
X150515Y867541D01*
X150503Y867504D01*
X150503Y867500D01*
X150503Y867499D01*
X150504Y867464D01*
X150496Y867410D01*
X150496Y863600D01*
X150507Y863535D01*
X150509Y863469D01*
X150527Y863426D01*
X150535Y863379D01*
X150569Y863322D01*
X150594Y863262D01*
X150625Y863227D01*
X150650Y863186D01*
X150701Y863145D01*
X150745Y863096D01*
X150787Y863074D01*
X150824Y863045D01*
X150886Y863024D01*
X150945Y862993D01*
X150999Y862985D01*
X151036Y862973D01*
X151076Y862974D01*
X151130Y862966D01*
X153670Y862966D01*
X153735Y862977D01*
G37*
G36*
X930975Y862977D02*
X930975Y862977D01*
X931041Y862979D01*
X931084Y862997D01*
X931131Y863005D01*
X931188Y863039D01*
X931248Y863064D01*
X931283Y863095D01*
X931324Y863120D01*
X931366Y863171D01*
X931414Y863215D01*
X931436Y863257D01*
X931465Y863294D01*
X931486Y863356D01*
X931517Y863415D01*
X931525Y863469D01*
X931537Y863506D01*
X931536Y863546D01*
X931544Y863600D01*
X931544Y867410D01*
X931533Y867475D01*
X931531Y867541D01*
X931513Y867584D01*
X931505Y867631D01*
X931471Y867688D01*
X931446Y867748D01*
X931415Y867783D01*
X931390Y867824D01*
X931339Y867866D01*
X931295Y867914D01*
X931253Y867936D01*
X931216Y867965D01*
X931154Y867986D01*
X931095Y868017D01*
X931041Y868025D01*
X931004Y868037D01*
X930964Y868036D01*
X930910Y868044D01*
X928370Y868044D01*
X928305Y868033D01*
X928239Y868031D01*
X928196Y868013D01*
X928149Y868005D01*
X928092Y867971D01*
X928032Y867946D01*
X927997Y867915D01*
X927956Y867890D01*
X927915Y867839D01*
X927866Y867795D01*
X927844Y867753D01*
X927815Y867716D01*
X927794Y867654D01*
X927763Y867595D01*
X927755Y867541D01*
X927743Y867504D01*
X927743Y867500D01*
X927743Y867499D01*
X927744Y867464D01*
X927736Y867410D01*
X927736Y863600D01*
X927747Y863535D01*
X927749Y863469D01*
X927767Y863426D01*
X927775Y863379D01*
X927809Y863322D01*
X927834Y863262D01*
X927865Y863227D01*
X927890Y863186D01*
X927941Y863145D01*
X927985Y863096D01*
X928027Y863074D01*
X928064Y863045D01*
X928126Y863024D01*
X928185Y862993D01*
X928239Y862985D01*
X928276Y862973D01*
X928316Y862974D01*
X928370Y862966D01*
X930910Y862966D01*
X930975Y862977D01*
G37*
G36*
X1449135Y862977D02*
X1449135Y862977D01*
X1449201Y862979D01*
X1449244Y862997D01*
X1449291Y863005D01*
X1449348Y863039D01*
X1449408Y863064D01*
X1449443Y863095D01*
X1449484Y863120D01*
X1449526Y863171D01*
X1449574Y863215D01*
X1449596Y863257D01*
X1449625Y863294D01*
X1449646Y863356D01*
X1449677Y863415D01*
X1449685Y863469D01*
X1449697Y863506D01*
X1449696Y863546D01*
X1449704Y863600D01*
X1449704Y867410D01*
X1449693Y867475D01*
X1449691Y867541D01*
X1449673Y867584D01*
X1449665Y867631D01*
X1449631Y867688D01*
X1449606Y867748D01*
X1449575Y867783D01*
X1449550Y867824D01*
X1449499Y867866D01*
X1449455Y867914D01*
X1449413Y867936D01*
X1449376Y867965D01*
X1449314Y867986D01*
X1449255Y868017D01*
X1449201Y868025D01*
X1449164Y868037D01*
X1449124Y868036D01*
X1449070Y868044D01*
X1446530Y868044D01*
X1446465Y868033D01*
X1446399Y868031D01*
X1446356Y868013D01*
X1446309Y868005D01*
X1446252Y867971D01*
X1446192Y867946D01*
X1446157Y867915D01*
X1446116Y867890D01*
X1446075Y867839D01*
X1446026Y867795D01*
X1446004Y867753D01*
X1445975Y867716D01*
X1445954Y867654D01*
X1445923Y867595D01*
X1445915Y867541D01*
X1445903Y867504D01*
X1445903Y867500D01*
X1445903Y867499D01*
X1445904Y867464D01*
X1445896Y867410D01*
X1445896Y863600D01*
X1445907Y863535D01*
X1445909Y863469D01*
X1445927Y863426D01*
X1445935Y863379D01*
X1445969Y863322D01*
X1445994Y863262D01*
X1446025Y863227D01*
X1446050Y863186D01*
X1446101Y863145D01*
X1446145Y863096D01*
X1446187Y863074D01*
X1446224Y863045D01*
X1446286Y863024D01*
X1446345Y862993D01*
X1446399Y862985D01*
X1446436Y862973D01*
X1446476Y862974D01*
X1446530Y862966D01*
X1449070Y862966D01*
X1449135Y862977D01*
G37*
G36*
X412815Y862977D02*
X412815Y862977D01*
X412881Y862979D01*
X412924Y862997D01*
X412971Y863005D01*
X413028Y863039D01*
X413088Y863064D01*
X413123Y863095D01*
X413164Y863120D01*
X413206Y863171D01*
X413254Y863215D01*
X413276Y863257D01*
X413305Y863294D01*
X413326Y863356D01*
X413357Y863415D01*
X413365Y863469D01*
X413377Y863506D01*
X413376Y863546D01*
X413384Y863600D01*
X413384Y867410D01*
X413373Y867475D01*
X413371Y867541D01*
X413353Y867584D01*
X413345Y867631D01*
X413311Y867688D01*
X413286Y867748D01*
X413255Y867783D01*
X413230Y867824D01*
X413179Y867866D01*
X413135Y867914D01*
X413093Y867936D01*
X413056Y867965D01*
X412994Y867986D01*
X412935Y868017D01*
X412881Y868025D01*
X412844Y868037D01*
X412804Y868036D01*
X412750Y868044D01*
X410210Y868044D01*
X410145Y868033D01*
X410079Y868031D01*
X410036Y868013D01*
X409989Y868005D01*
X409932Y867971D01*
X409872Y867946D01*
X409837Y867915D01*
X409796Y867890D01*
X409755Y867839D01*
X409706Y867795D01*
X409684Y867753D01*
X409655Y867716D01*
X409634Y867654D01*
X409603Y867595D01*
X409595Y867541D01*
X409583Y867504D01*
X409583Y867500D01*
X409583Y867499D01*
X409584Y867464D01*
X409576Y867410D01*
X409576Y863600D01*
X409587Y863535D01*
X409589Y863469D01*
X409607Y863426D01*
X409615Y863379D01*
X409649Y863322D01*
X409674Y863262D01*
X409705Y863227D01*
X409730Y863186D01*
X409781Y863145D01*
X409825Y863096D01*
X409867Y863074D01*
X409904Y863045D01*
X409966Y863024D01*
X410025Y862993D01*
X410079Y862985D01*
X410116Y862973D01*
X410156Y862974D01*
X410210Y862966D01*
X412750Y862966D01*
X412815Y862977D01*
G37*
G36*
X1449135Y75577D02*
X1449135Y75577D01*
X1449201Y75579D01*
X1449244Y75597D01*
X1449291Y75605D01*
X1449348Y75639D01*
X1449408Y75664D01*
X1449443Y75695D01*
X1449484Y75720D01*
X1449526Y75771D01*
X1449574Y75815D01*
X1449596Y75857D01*
X1449625Y75894D01*
X1449646Y75956D01*
X1449677Y76015D01*
X1449685Y76069D01*
X1449697Y76106D01*
X1449696Y76146D01*
X1449704Y76200D01*
X1449704Y80010D01*
X1449693Y80075D01*
X1449691Y80141D01*
X1449673Y80184D01*
X1449665Y80231D01*
X1449631Y80288D01*
X1449606Y80348D01*
X1449575Y80383D01*
X1449550Y80424D01*
X1449499Y80466D01*
X1449455Y80514D01*
X1449413Y80536D01*
X1449376Y80565D01*
X1449314Y80586D01*
X1449255Y80617D01*
X1449201Y80625D01*
X1449164Y80637D01*
X1449124Y80636D01*
X1449070Y80644D01*
X1446530Y80644D01*
X1446465Y80633D01*
X1446399Y80631D01*
X1446356Y80613D01*
X1446309Y80605D01*
X1446252Y80571D01*
X1446192Y80546D01*
X1446157Y80515D01*
X1446116Y80490D01*
X1446075Y80439D01*
X1446026Y80395D01*
X1446004Y80353D01*
X1445975Y80316D01*
X1445954Y80254D01*
X1445923Y80195D01*
X1445915Y80141D01*
X1445903Y80104D01*
X1445903Y80100D01*
X1445903Y80099D01*
X1445904Y80064D01*
X1445896Y80010D01*
X1445896Y76200D01*
X1445907Y76135D01*
X1445909Y76069D01*
X1445927Y76026D01*
X1445935Y75979D01*
X1445969Y75922D01*
X1445994Y75862D01*
X1446025Y75827D01*
X1446050Y75786D01*
X1446101Y75745D01*
X1446145Y75696D01*
X1446187Y75674D01*
X1446224Y75645D01*
X1446286Y75624D01*
X1446345Y75593D01*
X1446399Y75585D01*
X1446436Y75573D01*
X1446476Y75574D01*
X1446530Y75566D01*
X1449070Y75566D01*
X1449135Y75577D01*
G37*
G36*
X1449135Y85737D02*
X1449135Y85737D01*
X1449201Y85739D01*
X1449244Y85757D01*
X1449291Y85765D01*
X1449348Y85799D01*
X1449408Y85824D01*
X1449443Y85855D01*
X1449484Y85880D01*
X1449526Y85931D01*
X1449574Y85975D01*
X1449596Y86017D01*
X1449625Y86054D01*
X1449646Y86116D01*
X1449677Y86175D01*
X1449685Y86229D01*
X1449697Y86266D01*
X1449696Y86306D01*
X1449704Y86360D01*
X1449704Y90170D01*
X1449693Y90235D01*
X1449691Y90301D01*
X1449673Y90344D01*
X1449665Y90391D01*
X1449631Y90448D01*
X1449606Y90508D01*
X1449575Y90543D01*
X1449550Y90584D01*
X1449499Y90626D01*
X1449455Y90674D01*
X1449413Y90696D01*
X1449376Y90725D01*
X1449314Y90746D01*
X1449255Y90777D01*
X1449201Y90785D01*
X1449164Y90797D01*
X1449124Y90796D01*
X1449070Y90804D01*
X1446530Y90804D01*
X1446465Y90793D01*
X1446399Y90791D01*
X1446356Y90773D01*
X1446309Y90765D01*
X1446252Y90731D01*
X1446192Y90706D01*
X1446157Y90675D01*
X1446116Y90650D01*
X1446075Y90599D01*
X1446026Y90555D01*
X1446004Y90513D01*
X1445975Y90476D01*
X1445954Y90414D01*
X1445923Y90355D01*
X1445915Y90301D01*
X1445903Y90264D01*
X1445903Y90260D01*
X1445903Y90259D01*
X1445904Y90224D01*
X1445896Y90170D01*
X1445896Y86360D01*
X1445907Y86295D01*
X1445909Y86229D01*
X1445927Y86186D01*
X1445935Y86139D01*
X1445969Y86082D01*
X1445994Y86022D01*
X1446025Y85987D01*
X1446050Y85946D01*
X1446101Y85905D01*
X1446145Y85856D01*
X1446187Y85834D01*
X1446224Y85805D01*
X1446286Y85784D01*
X1446345Y85753D01*
X1446399Y85745D01*
X1446436Y85733D01*
X1446476Y85734D01*
X1446530Y85726D01*
X1449070Y85726D01*
X1449135Y85737D01*
G37*
G36*
X1190055Y85737D02*
X1190055Y85737D01*
X1190121Y85739D01*
X1190164Y85757D01*
X1190211Y85765D01*
X1190268Y85799D01*
X1190328Y85824D01*
X1190363Y85855D01*
X1190404Y85880D01*
X1190446Y85931D01*
X1190494Y85975D01*
X1190516Y86017D01*
X1190545Y86054D01*
X1190566Y86116D01*
X1190597Y86175D01*
X1190605Y86229D01*
X1190617Y86266D01*
X1190616Y86306D01*
X1190624Y86360D01*
X1190624Y90170D01*
X1190613Y90235D01*
X1190611Y90301D01*
X1190593Y90344D01*
X1190585Y90391D01*
X1190551Y90448D01*
X1190526Y90508D01*
X1190495Y90543D01*
X1190470Y90584D01*
X1190419Y90626D01*
X1190375Y90674D01*
X1190333Y90696D01*
X1190296Y90725D01*
X1190234Y90746D01*
X1190175Y90777D01*
X1190121Y90785D01*
X1190084Y90797D01*
X1190044Y90796D01*
X1189990Y90804D01*
X1187450Y90804D01*
X1187385Y90793D01*
X1187319Y90791D01*
X1187276Y90773D01*
X1187229Y90765D01*
X1187172Y90731D01*
X1187112Y90706D01*
X1187077Y90675D01*
X1187036Y90650D01*
X1186995Y90599D01*
X1186946Y90555D01*
X1186924Y90513D01*
X1186895Y90476D01*
X1186874Y90414D01*
X1186843Y90355D01*
X1186835Y90301D01*
X1186823Y90264D01*
X1186823Y90260D01*
X1186823Y90259D01*
X1186824Y90224D01*
X1186816Y90170D01*
X1186816Y86360D01*
X1186827Y86295D01*
X1186829Y86229D01*
X1186847Y86186D01*
X1186855Y86139D01*
X1186889Y86082D01*
X1186914Y86022D01*
X1186945Y85987D01*
X1186970Y85946D01*
X1187021Y85905D01*
X1187065Y85856D01*
X1187107Y85834D01*
X1187144Y85805D01*
X1187206Y85784D01*
X1187265Y85753D01*
X1187319Y85745D01*
X1187356Y85733D01*
X1187396Y85734D01*
X1187450Y85726D01*
X1189990Y85726D01*
X1190055Y85737D01*
G37*
G36*
X671895Y85737D02*
X671895Y85737D01*
X671961Y85739D01*
X672004Y85757D01*
X672051Y85765D01*
X672108Y85799D01*
X672168Y85824D01*
X672203Y85855D01*
X672244Y85880D01*
X672286Y85931D01*
X672334Y85975D01*
X672356Y86017D01*
X672385Y86054D01*
X672406Y86116D01*
X672437Y86175D01*
X672445Y86229D01*
X672457Y86266D01*
X672456Y86306D01*
X672464Y86360D01*
X672464Y90170D01*
X672453Y90235D01*
X672451Y90301D01*
X672433Y90344D01*
X672425Y90391D01*
X672391Y90448D01*
X672366Y90508D01*
X672335Y90543D01*
X672310Y90584D01*
X672259Y90626D01*
X672215Y90674D01*
X672173Y90696D01*
X672136Y90725D01*
X672074Y90746D01*
X672015Y90777D01*
X671961Y90785D01*
X671924Y90797D01*
X671884Y90796D01*
X671830Y90804D01*
X669290Y90804D01*
X669225Y90793D01*
X669159Y90791D01*
X669116Y90773D01*
X669069Y90765D01*
X669012Y90731D01*
X668952Y90706D01*
X668917Y90675D01*
X668876Y90650D01*
X668835Y90599D01*
X668786Y90555D01*
X668764Y90513D01*
X668735Y90476D01*
X668714Y90414D01*
X668683Y90355D01*
X668675Y90301D01*
X668663Y90264D01*
X668663Y90260D01*
X668663Y90259D01*
X668664Y90224D01*
X668656Y90170D01*
X668656Y86360D01*
X668667Y86295D01*
X668669Y86229D01*
X668687Y86186D01*
X668695Y86139D01*
X668729Y86082D01*
X668754Y86022D01*
X668785Y85987D01*
X668810Y85946D01*
X668861Y85905D01*
X668905Y85856D01*
X668947Y85834D01*
X668984Y85805D01*
X669046Y85784D01*
X669105Y85753D01*
X669159Y85745D01*
X669196Y85733D01*
X669236Y85734D01*
X669290Y85726D01*
X671830Y85726D01*
X671895Y85737D01*
G37*
G36*
X930975Y85737D02*
X930975Y85737D01*
X931041Y85739D01*
X931084Y85757D01*
X931131Y85765D01*
X931188Y85799D01*
X931248Y85824D01*
X931283Y85855D01*
X931324Y85880D01*
X931366Y85931D01*
X931414Y85975D01*
X931436Y86017D01*
X931465Y86054D01*
X931486Y86116D01*
X931517Y86175D01*
X931525Y86229D01*
X931537Y86266D01*
X931536Y86306D01*
X931544Y86360D01*
X931544Y90170D01*
X931533Y90235D01*
X931531Y90301D01*
X931513Y90344D01*
X931505Y90391D01*
X931471Y90448D01*
X931446Y90508D01*
X931415Y90543D01*
X931390Y90584D01*
X931339Y90626D01*
X931295Y90674D01*
X931253Y90696D01*
X931216Y90725D01*
X931154Y90746D01*
X931095Y90777D01*
X931041Y90785D01*
X931004Y90797D01*
X930964Y90796D01*
X930910Y90804D01*
X928370Y90804D01*
X928305Y90793D01*
X928239Y90791D01*
X928196Y90773D01*
X928149Y90765D01*
X928092Y90731D01*
X928032Y90706D01*
X927997Y90675D01*
X927956Y90650D01*
X927915Y90599D01*
X927866Y90555D01*
X927844Y90513D01*
X927815Y90476D01*
X927794Y90414D01*
X927763Y90355D01*
X927755Y90301D01*
X927743Y90264D01*
X927743Y90260D01*
X927743Y90259D01*
X927744Y90224D01*
X927736Y90170D01*
X927736Y86360D01*
X927747Y86295D01*
X927749Y86229D01*
X927767Y86186D01*
X927775Y86139D01*
X927809Y86082D01*
X927834Y86022D01*
X927865Y85987D01*
X927890Y85946D01*
X927941Y85905D01*
X927985Y85856D01*
X928027Y85834D01*
X928064Y85805D01*
X928126Y85784D01*
X928185Y85753D01*
X928239Y85745D01*
X928276Y85733D01*
X928316Y85734D01*
X928370Y85726D01*
X930910Y85726D01*
X930975Y85737D01*
G37*
G36*
X412815Y85737D02*
X412815Y85737D01*
X412881Y85739D01*
X412924Y85757D01*
X412971Y85765D01*
X413028Y85799D01*
X413088Y85824D01*
X413123Y85855D01*
X413164Y85880D01*
X413206Y85931D01*
X413254Y85975D01*
X413276Y86017D01*
X413305Y86054D01*
X413326Y86116D01*
X413357Y86175D01*
X413365Y86229D01*
X413377Y86266D01*
X413376Y86306D01*
X413384Y86360D01*
X413384Y90170D01*
X413373Y90235D01*
X413371Y90301D01*
X413353Y90344D01*
X413345Y90391D01*
X413311Y90448D01*
X413286Y90508D01*
X413255Y90543D01*
X413230Y90584D01*
X413179Y90626D01*
X413135Y90674D01*
X413093Y90696D01*
X413056Y90725D01*
X412994Y90746D01*
X412935Y90777D01*
X412881Y90785D01*
X412844Y90797D01*
X412804Y90796D01*
X412750Y90804D01*
X410210Y90804D01*
X410145Y90793D01*
X410079Y90791D01*
X410036Y90773D01*
X409989Y90765D01*
X409932Y90731D01*
X409872Y90706D01*
X409837Y90675D01*
X409796Y90650D01*
X409755Y90599D01*
X409706Y90555D01*
X409684Y90513D01*
X409655Y90476D01*
X409634Y90414D01*
X409603Y90355D01*
X409595Y90301D01*
X409583Y90264D01*
X409583Y90260D01*
X409583Y90259D01*
X409584Y90224D01*
X409576Y90170D01*
X409576Y86360D01*
X409587Y86295D01*
X409589Y86229D01*
X409607Y86186D01*
X409615Y86139D01*
X409649Y86082D01*
X409674Y86022D01*
X409705Y85987D01*
X409730Y85946D01*
X409781Y85905D01*
X409825Y85856D01*
X409867Y85834D01*
X409904Y85805D01*
X409966Y85784D01*
X410025Y85753D01*
X410079Y85745D01*
X410116Y85733D01*
X410156Y85734D01*
X410210Y85726D01*
X412750Y85726D01*
X412815Y85737D01*
G37*
G36*
X412815Y603897D02*
X412815Y603897D01*
X412881Y603899D01*
X412924Y603917D01*
X412971Y603925D01*
X413028Y603959D01*
X413088Y603984D01*
X413123Y604015D01*
X413164Y604040D01*
X413206Y604091D01*
X413254Y604135D01*
X413276Y604177D01*
X413305Y604214D01*
X413326Y604276D01*
X413357Y604335D01*
X413365Y604389D01*
X413377Y604426D01*
X413376Y604466D01*
X413384Y604520D01*
X413384Y608330D01*
X413373Y608395D01*
X413371Y608461D01*
X413353Y608504D01*
X413345Y608551D01*
X413311Y608608D01*
X413286Y608668D01*
X413255Y608703D01*
X413230Y608744D01*
X413179Y608786D01*
X413135Y608834D01*
X413093Y608856D01*
X413056Y608885D01*
X412994Y608906D01*
X412935Y608937D01*
X412881Y608945D01*
X412844Y608957D01*
X412804Y608956D01*
X412750Y608964D01*
X410210Y608964D01*
X410145Y608953D01*
X410079Y608951D01*
X410036Y608933D01*
X409989Y608925D01*
X409932Y608891D01*
X409872Y608866D01*
X409837Y608835D01*
X409796Y608810D01*
X409755Y608759D01*
X409706Y608715D01*
X409684Y608673D01*
X409655Y608636D01*
X409634Y608574D01*
X409603Y608515D01*
X409595Y608461D01*
X409583Y608424D01*
X409583Y608420D01*
X409583Y608419D01*
X409584Y608384D01*
X409576Y608330D01*
X409576Y604520D01*
X409587Y604455D01*
X409589Y604389D01*
X409607Y604346D01*
X409615Y604299D01*
X409649Y604242D01*
X409674Y604182D01*
X409705Y604147D01*
X409730Y604106D01*
X409781Y604065D01*
X409825Y604016D01*
X409867Y603994D01*
X409904Y603965D01*
X409966Y603944D01*
X410025Y603913D01*
X410079Y603905D01*
X410116Y603893D01*
X410156Y603894D01*
X410210Y603886D01*
X412750Y603886D01*
X412815Y603897D01*
G37*
G36*
X1449135Y603897D02*
X1449135Y603897D01*
X1449201Y603899D01*
X1449244Y603917D01*
X1449291Y603925D01*
X1449348Y603959D01*
X1449408Y603984D01*
X1449443Y604015D01*
X1449484Y604040D01*
X1449526Y604091D01*
X1449574Y604135D01*
X1449596Y604177D01*
X1449625Y604214D01*
X1449646Y604276D01*
X1449677Y604335D01*
X1449685Y604389D01*
X1449697Y604426D01*
X1449696Y604466D01*
X1449704Y604520D01*
X1449704Y608330D01*
X1449693Y608395D01*
X1449691Y608461D01*
X1449673Y608504D01*
X1449665Y608551D01*
X1449631Y608608D01*
X1449606Y608668D01*
X1449575Y608703D01*
X1449550Y608744D01*
X1449499Y608786D01*
X1449455Y608834D01*
X1449413Y608856D01*
X1449376Y608885D01*
X1449314Y608906D01*
X1449255Y608937D01*
X1449201Y608945D01*
X1449164Y608957D01*
X1449124Y608956D01*
X1449070Y608964D01*
X1446530Y608964D01*
X1446465Y608953D01*
X1446399Y608951D01*
X1446356Y608933D01*
X1446309Y608925D01*
X1446252Y608891D01*
X1446192Y608866D01*
X1446157Y608835D01*
X1446116Y608810D01*
X1446075Y608759D01*
X1446026Y608715D01*
X1446004Y608673D01*
X1445975Y608636D01*
X1445954Y608574D01*
X1445923Y608515D01*
X1445915Y608461D01*
X1445903Y608424D01*
X1445903Y608420D01*
X1445903Y608419D01*
X1445904Y608384D01*
X1445896Y608330D01*
X1445896Y604520D01*
X1445907Y604455D01*
X1445909Y604389D01*
X1445927Y604346D01*
X1445935Y604299D01*
X1445969Y604242D01*
X1445994Y604182D01*
X1446025Y604147D01*
X1446050Y604106D01*
X1446101Y604065D01*
X1446145Y604016D01*
X1446187Y603994D01*
X1446224Y603965D01*
X1446286Y603944D01*
X1446345Y603913D01*
X1446399Y603905D01*
X1446436Y603893D01*
X1446476Y603894D01*
X1446530Y603886D01*
X1449070Y603886D01*
X1449135Y603897D01*
G37*
G36*
X1190055Y603897D02*
X1190055Y603897D01*
X1190121Y603899D01*
X1190164Y603917D01*
X1190211Y603925D01*
X1190268Y603959D01*
X1190328Y603984D01*
X1190363Y604015D01*
X1190404Y604040D01*
X1190446Y604091D01*
X1190494Y604135D01*
X1190516Y604177D01*
X1190545Y604214D01*
X1190566Y604276D01*
X1190597Y604335D01*
X1190605Y604389D01*
X1190617Y604426D01*
X1190616Y604466D01*
X1190624Y604520D01*
X1190624Y608330D01*
X1190613Y608395D01*
X1190611Y608461D01*
X1190593Y608504D01*
X1190585Y608551D01*
X1190551Y608608D01*
X1190526Y608668D01*
X1190495Y608703D01*
X1190470Y608744D01*
X1190419Y608786D01*
X1190375Y608834D01*
X1190333Y608856D01*
X1190296Y608885D01*
X1190234Y608906D01*
X1190175Y608937D01*
X1190121Y608945D01*
X1190084Y608957D01*
X1190044Y608956D01*
X1189990Y608964D01*
X1187450Y608964D01*
X1187385Y608953D01*
X1187319Y608951D01*
X1187276Y608933D01*
X1187229Y608925D01*
X1187172Y608891D01*
X1187112Y608866D01*
X1187077Y608835D01*
X1187036Y608810D01*
X1186995Y608759D01*
X1186946Y608715D01*
X1186924Y608673D01*
X1186895Y608636D01*
X1186874Y608574D01*
X1186843Y608515D01*
X1186835Y608461D01*
X1186823Y608424D01*
X1186823Y608420D01*
X1186823Y608419D01*
X1186824Y608384D01*
X1186816Y608330D01*
X1186816Y604520D01*
X1186827Y604455D01*
X1186829Y604389D01*
X1186847Y604346D01*
X1186855Y604299D01*
X1186889Y604242D01*
X1186914Y604182D01*
X1186945Y604147D01*
X1186970Y604106D01*
X1187021Y604065D01*
X1187065Y604016D01*
X1187107Y603994D01*
X1187144Y603965D01*
X1187206Y603944D01*
X1187265Y603913D01*
X1187319Y603905D01*
X1187356Y603893D01*
X1187396Y603894D01*
X1187450Y603886D01*
X1189990Y603886D01*
X1190055Y603897D01*
G37*
G36*
X671895Y603897D02*
X671895Y603897D01*
X671961Y603899D01*
X672004Y603917D01*
X672051Y603925D01*
X672108Y603959D01*
X672168Y603984D01*
X672203Y604015D01*
X672244Y604040D01*
X672286Y604091D01*
X672334Y604135D01*
X672356Y604177D01*
X672385Y604214D01*
X672406Y604276D01*
X672437Y604335D01*
X672445Y604389D01*
X672457Y604426D01*
X672456Y604466D01*
X672464Y604520D01*
X672464Y608330D01*
X672453Y608395D01*
X672451Y608461D01*
X672433Y608504D01*
X672425Y608551D01*
X672391Y608608D01*
X672366Y608668D01*
X672335Y608703D01*
X672310Y608744D01*
X672259Y608786D01*
X672215Y608834D01*
X672173Y608856D01*
X672136Y608885D01*
X672074Y608906D01*
X672015Y608937D01*
X671961Y608945D01*
X671924Y608957D01*
X671884Y608956D01*
X671830Y608964D01*
X669290Y608964D01*
X669225Y608953D01*
X669159Y608951D01*
X669116Y608933D01*
X669069Y608925D01*
X669012Y608891D01*
X668952Y608866D01*
X668917Y608835D01*
X668876Y608810D01*
X668835Y608759D01*
X668786Y608715D01*
X668764Y608673D01*
X668735Y608636D01*
X668714Y608574D01*
X668683Y608515D01*
X668675Y608461D01*
X668663Y608424D01*
X668663Y608420D01*
X668663Y608419D01*
X668664Y608384D01*
X668656Y608330D01*
X668656Y604520D01*
X668667Y604455D01*
X668669Y604389D01*
X668687Y604346D01*
X668695Y604299D01*
X668729Y604242D01*
X668754Y604182D01*
X668785Y604147D01*
X668810Y604106D01*
X668861Y604065D01*
X668905Y604016D01*
X668947Y603994D01*
X668984Y603965D01*
X669046Y603944D01*
X669105Y603913D01*
X669159Y603905D01*
X669196Y603893D01*
X669236Y603894D01*
X669290Y603886D01*
X671830Y603886D01*
X671895Y603897D01*
G37*
G36*
X930975Y603897D02*
X930975Y603897D01*
X931041Y603899D01*
X931084Y603917D01*
X931131Y603925D01*
X931188Y603959D01*
X931248Y603984D01*
X931283Y604015D01*
X931324Y604040D01*
X931366Y604091D01*
X931414Y604135D01*
X931436Y604177D01*
X931465Y604214D01*
X931486Y604276D01*
X931517Y604335D01*
X931525Y604389D01*
X931537Y604426D01*
X931536Y604466D01*
X931544Y604520D01*
X931544Y608330D01*
X931533Y608395D01*
X931531Y608461D01*
X931513Y608504D01*
X931505Y608551D01*
X931471Y608608D01*
X931446Y608668D01*
X931415Y608703D01*
X931390Y608744D01*
X931339Y608786D01*
X931295Y608834D01*
X931253Y608856D01*
X931216Y608885D01*
X931154Y608906D01*
X931095Y608937D01*
X931041Y608945D01*
X931004Y608957D01*
X930964Y608956D01*
X930910Y608964D01*
X928370Y608964D01*
X928305Y608953D01*
X928239Y608951D01*
X928196Y608933D01*
X928149Y608925D01*
X928092Y608891D01*
X928032Y608866D01*
X927997Y608835D01*
X927956Y608810D01*
X927915Y608759D01*
X927866Y608715D01*
X927844Y608673D01*
X927815Y608636D01*
X927794Y608574D01*
X927763Y608515D01*
X927755Y608461D01*
X927743Y608424D01*
X927743Y608420D01*
X927743Y608419D01*
X927744Y608384D01*
X927736Y608330D01*
X927736Y604520D01*
X927747Y604455D01*
X927749Y604389D01*
X927767Y604346D01*
X927775Y604299D01*
X927809Y604242D01*
X927834Y604182D01*
X927865Y604147D01*
X927890Y604106D01*
X927941Y604065D01*
X927985Y604016D01*
X928027Y603994D01*
X928064Y603965D01*
X928126Y603944D01*
X928185Y603913D01*
X928239Y603905D01*
X928276Y603893D01*
X928316Y603894D01*
X928370Y603886D01*
X930910Y603886D01*
X930975Y603897D01*
G37*
G36*
X153735Y603897D02*
X153735Y603897D01*
X153801Y603899D01*
X153844Y603917D01*
X153891Y603925D01*
X153948Y603959D01*
X154008Y603984D01*
X154043Y604015D01*
X154084Y604040D01*
X154126Y604091D01*
X154174Y604135D01*
X154196Y604177D01*
X154225Y604214D01*
X154246Y604276D01*
X154277Y604335D01*
X154285Y604389D01*
X154297Y604426D01*
X154296Y604466D01*
X154304Y604520D01*
X154304Y608330D01*
X154293Y608395D01*
X154291Y608461D01*
X154273Y608504D01*
X154265Y608551D01*
X154231Y608608D01*
X154206Y608668D01*
X154175Y608703D01*
X154150Y608744D01*
X154099Y608786D01*
X154055Y608834D01*
X154013Y608856D01*
X153976Y608885D01*
X153914Y608906D01*
X153855Y608937D01*
X153801Y608945D01*
X153764Y608957D01*
X153724Y608956D01*
X153670Y608964D01*
X151130Y608964D01*
X151065Y608953D01*
X150999Y608951D01*
X150956Y608933D01*
X150909Y608925D01*
X150852Y608891D01*
X150792Y608866D01*
X150757Y608835D01*
X150716Y608810D01*
X150675Y608759D01*
X150626Y608715D01*
X150604Y608673D01*
X150575Y608636D01*
X150554Y608574D01*
X150523Y608515D01*
X150515Y608461D01*
X150503Y608424D01*
X150503Y608420D01*
X150503Y608419D01*
X150504Y608384D01*
X150496Y608330D01*
X150496Y604520D01*
X150507Y604455D01*
X150509Y604389D01*
X150527Y604346D01*
X150535Y604299D01*
X150569Y604242D01*
X150594Y604182D01*
X150625Y604147D01*
X150650Y604106D01*
X150701Y604065D01*
X150745Y604016D01*
X150787Y603994D01*
X150824Y603965D01*
X150886Y603944D01*
X150945Y603913D01*
X150999Y603905D01*
X151036Y603893D01*
X151076Y603894D01*
X151130Y603886D01*
X153670Y603886D01*
X153735Y603897D01*
G37*
G36*
X930975Y593737D02*
X930975Y593737D01*
X931041Y593739D01*
X931084Y593757D01*
X931131Y593765D01*
X931188Y593799D01*
X931248Y593824D01*
X931283Y593855D01*
X931324Y593880D01*
X931366Y593931D01*
X931414Y593975D01*
X931436Y594017D01*
X931465Y594054D01*
X931486Y594116D01*
X931517Y594175D01*
X931525Y594229D01*
X931537Y594266D01*
X931536Y594306D01*
X931544Y594360D01*
X931544Y598170D01*
X931533Y598235D01*
X931531Y598301D01*
X931513Y598344D01*
X931505Y598391D01*
X931471Y598448D01*
X931446Y598508D01*
X931415Y598543D01*
X931390Y598584D01*
X931339Y598626D01*
X931295Y598674D01*
X931253Y598696D01*
X931216Y598725D01*
X931154Y598746D01*
X931095Y598777D01*
X931041Y598785D01*
X931004Y598797D01*
X930964Y598796D01*
X930910Y598804D01*
X928370Y598804D01*
X928305Y598793D01*
X928239Y598791D01*
X928196Y598773D01*
X928149Y598765D01*
X928092Y598731D01*
X928032Y598706D01*
X927997Y598675D01*
X927956Y598650D01*
X927915Y598599D01*
X927866Y598555D01*
X927844Y598513D01*
X927815Y598476D01*
X927794Y598414D01*
X927763Y598355D01*
X927755Y598301D01*
X927743Y598264D01*
X927743Y598260D01*
X927743Y598259D01*
X927744Y598224D01*
X927736Y598170D01*
X927736Y594360D01*
X927747Y594295D01*
X927749Y594229D01*
X927767Y594186D01*
X927775Y594139D01*
X927809Y594082D01*
X927834Y594022D01*
X927865Y593987D01*
X927890Y593946D01*
X927941Y593905D01*
X927985Y593856D01*
X928027Y593834D01*
X928064Y593805D01*
X928126Y593784D01*
X928185Y593753D01*
X928239Y593745D01*
X928276Y593733D01*
X928316Y593734D01*
X928370Y593726D01*
X930910Y593726D01*
X930975Y593737D01*
G37*
G36*
X153735Y593737D02*
X153735Y593737D01*
X153801Y593739D01*
X153844Y593757D01*
X153891Y593765D01*
X153948Y593799D01*
X154008Y593824D01*
X154043Y593855D01*
X154084Y593880D01*
X154126Y593931D01*
X154174Y593975D01*
X154196Y594017D01*
X154225Y594054D01*
X154246Y594116D01*
X154277Y594175D01*
X154285Y594229D01*
X154297Y594266D01*
X154296Y594306D01*
X154304Y594360D01*
X154304Y598170D01*
X154293Y598235D01*
X154291Y598301D01*
X154273Y598344D01*
X154265Y598391D01*
X154231Y598448D01*
X154206Y598508D01*
X154175Y598543D01*
X154150Y598584D01*
X154099Y598626D01*
X154055Y598674D01*
X154013Y598696D01*
X153976Y598725D01*
X153914Y598746D01*
X153855Y598777D01*
X153801Y598785D01*
X153764Y598797D01*
X153724Y598796D01*
X153670Y598804D01*
X151130Y598804D01*
X151065Y598793D01*
X150999Y598791D01*
X150956Y598773D01*
X150909Y598765D01*
X150852Y598731D01*
X150792Y598706D01*
X150757Y598675D01*
X150716Y598650D01*
X150675Y598599D01*
X150626Y598555D01*
X150604Y598513D01*
X150575Y598476D01*
X150554Y598414D01*
X150523Y598355D01*
X150515Y598301D01*
X150503Y598264D01*
X150503Y598260D01*
X150503Y598259D01*
X150504Y598224D01*
X150496Y598170D01*
X150496Y594360D01*
X150507Y594295D01*
X150509Y594229D01*
X150527Y594186D01*
X150535Y594139D01*
X150569Y594082D01*
X150594Y594022D01*
X150625Y593987D01*
X150650Y593946D01*
X150701Y593905D01*
X150745Y593856D01*
X150787Y593834D01*
X150824Y593805D01*
X150886Y593784D01*
X150945Y593753D01*
X150999Y593745D01*
X151036Y593733D01*
X151076Y593734D01*
X151130Y593726D01*
X153670Y593726D01*
X153735Y593737D01*
G37*
G36*
X1190055Y593737D02*
X1190055Y593737D01*
X1190121Y593739D01*
X1190164Y593757D01*
X1190211Y593765D01*
X1190268Y593799D01*
X1190328Y593824D01*
X1190363Y593855D01*
X1190404Y593880D01*
X1190446Y593931D01*
X1190494Y593975D01*
X1190516Y594017D01*
X1190545Y594054D01*
X1190566Y594116D01*
X1190597Y594175D01*
X1190605Y594229D01*
X1190617Y594266D01*
X1190616Y594306D01*
X1190624Y594360D01*
X1190624Y598170D01*
X1190613Y598235D01*
X1190611Y598301D01*
X1190593Y598344D01*
X1190585Y598391D01*
X1190551Y598448D01*
X1190526Y598508D01*
X1190495Y598543D01*
X1190470Y598584D01*
X1190419Y598626D01*
X1190375Y598674D01*
X1190333Y598696D01*
X1190296Y598725D01*
X1190234Y598746D01*
X1190175Y598777D01*
X1190121Y598785D01*
X1190084Y598797D01*
X1190044Y598796D01*
X1189990Y598804D01*
X1187450Y598804D01*
X1187385Y598793D01*
X1187319Y598791D01*
X1187276Y598773D01*
X1187229Y598765D01*
X1187172Y598731D01*
X1187112Y598706D01*
X1187077Y598675D01*
X1187036Y598650D01*
X1186995Y598599D01*
X1186946Y598555D01*
X1186924Y598513D01*
X1186895Y598476D01*
X1186874Y598414D01*
X1186843Y598355D01*
X1186835Y598301D01*
X1186823Y598264D01*
X1186823Y598260D01*
X1186823Y598259D01*
X1186824Y598224D01*
X1186816Y598170D01*
X1186816Y594360D01*
X1186827Y594295D01*
X1186829Y594229D01*
X1186847Y594186D01*
X1186855Y594139D01*
X1186889Y594082D01*
X1186914Y594022D01*
X1186945Y593987D01*
X1186970Y593946D01*
X1187021Y593905D01*
X1187065Y593856D01*
X1187107Y593834D01*
X1187144Y593805D01*
X1187206Y593784D01*
X1187265Y593753D01*
X1187319Y593745D01*
X1187356Y593733D01*
X1187396Y593734D01*
X1187450Y593726D01*
X1189990Y593726D01*
X1190055Y593737D01*
G37*
G36*
X671895Y593737D02*
X671895Y593737D01*
X671961Y593739D01*
X672004Y593757D01*
X672051Y593765D01*
X672108Y593799D01*
X672168Y593824D01*
X672203Y593855D01*
X672244Y593880D01*
X672286Y593931D01*
X672334Y593975D01*
X672356Y594017D01*
X672385Y594054D01*
X672406Y594116D01*
X672437Y594175D01*
X672445Y594229D01*
X672457Y594266D01*
X672456Y594306D01*
X672464Y594360D01*
X672464Y598170D01*
X672453Y598235D01*
X672451Y598301D01*
X672433Y598344D01*
X672425Y598391D01*
X672391Y598448D01*
X672366Y598508D01*
X672335Y598543D01*
X672310Y598584D01*
X672259Y598626D01*
X672215Y598674D01*
X672173Y598696D01*
X672136Y598725D01*
X672074Y598746D01*
X672015Y598777D01*
X671961Y598785D01*
X671924Y598797D01*
X671884Y598796D01*
X671830Y598804D01*
X669290Y598804D01*
X669225Y598793D01*
X669159Y598791D01*
X669116Y598773D01*
X669069Y598765D01*
X669012Y598731D01*
X668952Y598706D01*
X668917Y598675D01*
X668876Y598650D01*
X668835Y598599D01*
X668786Y598555D01*
X668764Y598513D01*
X668735Y598476D01*
X668714Y598414D01*
X668683Y598355D01*
X668675Y598301D01*
X668663Y598264D01*
X668663Y598260D01*
X668663Y598259D01*
X668664Y598224D01*
X668656Y598170D01*
X668656Y594360D01*
X668667Y594295D01*
X668669Y594229D01*
X668687Y594186D01*
X668695Y594139D01*
X668729Y594082D01*
X668754Y594022D01*
X668785Y593987D01*
X668810Y593946D01*
X668861Y593905D01*
X668905Y593856D01*
X668947Y593834D01*
X668984Y593805D01*
X669046Y593784D01*
X669105Y593753D01*
X669159Y593745D01*
X669196Y593733D01*
X669236Y593734D01*
X669290Y593726D01*
X671830Y593726D01*
X671895Y593737D01*
G37*
G36*
X412815Y593737D02*
X412815Y593737D01*
X412881Y593739D01*
X412924Y593757D01*
X412971Y593765D01*
X413028Y593799D01*
X413088Y593824D01*
X413123Y593855D01*
X413164Y593880D01*
X413206Y593931D01*
X413254Y593975D01*
X413276Y594017D01*
X413305Y594054D01*
X413326Y594116D01*
X413357Y594175D01*
X413365Y594229D01*
X413377Y594266D01*
X413376Y594306D01*
X413384Y594360D01*
X413384Y598170D01*
X413373Y598235D01*
X413371Y598301D01*
X413353Y598344D01*
X413345Y598391D01*
X413311Y598448D01*
X413286Y598508D01*
X413255Y598543D01*
X413230Y598584D01*
X413179Y598626D01*
X413135Y598674D01*
X413093Y598696D01*
X413056Y598725D01*
X412994Y598746D01*
X412935Y598777D01*
X412881Y598785D01*
X412844Y598797D01*
X412804Y598796D01*
X412750Y598804D01*
X410210Y598804D01*
X410145Y598793D01*
X410079Y598791D01*
X410036Y598773D01*
X409989Y598765D01*
X409932Y598731D01*
X409872Y598706D01*
X409837Y598675D01*
X409796Y598650D01*
X409755Y598599D01*
X409706Y598555D01*
X409684Y598513D01*
X409655Y598476D01*
X409634Y598414D01*
X409603Y598355D01*
X409595Y598301D01*
X409583Y598264D01*
X409583Y598260D01*
X409583Y598259D01*
X409584Y598224D01*
X409576Y598170D01*
X409576Y594360D01*
X409587Y594295D01*
X409589Y594229D01*
X409607Y594186D01*
X409615Y594139D01*
X409649Y594082D01*
X409674Y594022D01*
X409705Y593987D01*
X409730Y593946D01*
X409781Y593905D01*
X409825Y593856D01*
X409867Y593834D01*
X409904Y593805D01*
X409966Y593784D01*
X410025Y593753D01*
X410079Y593745D01*
X410116Y593733D01*
X410156Y593734D01*
X410210Y593726D01*
X412750Y593726D01*
X412815Y593737D01*
G37*
G36*
X1449135Y593737D02*
X1449135Y593737D01*
X1449201Y593739D01*
X1449244Y593757D01*
X1449291Y593765D01*
X1449348Y593799D01*
X1449408Y593824D01*
X1449443Y593855D01*
X1449484Y593880D01*
X1449526Y593931D01*
X1449574Y593975D01*
X1449596Y594017D01*
X1449625Y594054D01*
X1449646Y594116D01*
X1449677Y594175D01*
X1449685Y594229D01*
X1449697Y594266D01*
X1449696Y594306D01*
X1449704Y594360D01*
X1449704Y598170D01*
X1449693Y598235D01*
X1449691Y598301D01*
X1449673Y598344D01*
X1449665Y598391D01*
X1449631Y598448D01*
X1449606Y598508D01*
X1449575Y598543D01*
X1449550Y598584D01*
X1449499Y598626D01*
X1449455Y598674D01*
X1449413Y598696D01*
X1449376Y598725D01*
X1449314Y598746D01*
X1449255Y598777D01*
X1449201Y598785D01*
X1449164Y598797D01*
X1449124Y598796D01*
X1449070Y598804D01*
X1446530Y598804D01*
X1446465Y598793D01*
X1446399Y598791D01*
X1446356Y598773D01*
X1446309Y598765D01*
X1446252Y598731D01*
X1446192Y598706D01*
X1446157Y598675D01*
X1446116Y598650D01*
X1446075Y598599D01*
X1446026Y598555D01*
X1446004Y598513D01*
X1445975Y598476D01*
X1445954Y598414D01*
X1445923Y598355D01*
X1445915Y598301D01*
X1445903Y598264D01*
X1445903Y598260D01*
X1445903Y598259D01*
X1445904Y598224D01*
X1445896Y598170D01*
X1445896Y594360D01*
X1445907Y594295D01*
X1445909Y594229D01*
X1445927Y594186D01*
X1445935Y594139D01*
X1445969Y594082D01*
X1445994Y594022D01*
X1446025Y593987D01*
X1446050Y593946D01*
X1446101Y593905D01*
X1446145Y593856D01*
X1446187Y593834D01*
X1446224Y593805D01*
X1446286Y593784D01*
X1446345Y593753D01*
X1446399Y593745D01*
X1446436Y593733D01*
X1446476Y593734D01*
X1446530Y593726D01*
X1449070Y593726D01*
X1449135Y593737D01*
G37*
G36*
X153735Y85737D02*
X153735Y85737D01*
X153801Y85739D01*
X153844Y85757D01*
X153891Y85765D01*
X153948Y85799D01*
X154008Y85824D01*
X154043Y85855D01*
X154084Y85880D01*
X154126Y85931D01*
X154174Y85975D01*
X154196Y86017D01*
X154225Y86054D01*
X154246Y86116D01*
X154277Y86175D01*
X154285Y86229D01*
X154297Y86266D01*
X154296Y86306D01*
X154304Y86360D01*
X154304Y90170D01*
X154293Y90235D01*
X154291Y90301D01*
X154273Y90344D01*
X154265Y90391D01*
X154231Y90448D01*
X154206Y90508D01*
X154175Y90543D01*
X154150Y90584D01*
X154099Y90626D01*
X154055Y90674D01*
X154013Y90696D01*
X153976Y90725D01*
X153914Y90746D01*
X153855Y90777D01*
X153801Y90785D01*
X153764Y90797D01*
X153724Y90796D01*
X153670Y90804D01*
X151130Y90804D01*
X151065Y90793D01*
X150999Y90791D01*
X150956Y90773D01*
X150909Y90765D01*
X150852Y90731D01*
X150792Y90706D01*
X150757Y90675D01*
X150716Y90650D01*
X150675Y90599D01*
X150626Y90555D01*
X150604Y90513D01*
X150575Y90476D01*
X150554Y90414D01*
X150523Y90355D01*
X150515Y90301D01*
X150503Y90264D01*
X150503Y90260D01*
X150503Y90259D01*
X150504Y90224D01*
X150496Y90170D01*
X150496Y86360D01*
X150507Y86295D01*
X150509Y86229D01*
X150527Y86186D01*
X150535Y86139D01*
X150569Y86082D01*
X150594Y86022D01*
X150625Y85987D01*
X150650Y85946D01*
X150701Y85905D01*
X150745Y85856D01*
X150787Y85834D01*
X150824Y85805D01*
X150886Y85784D01*
X150945Y85753D01*
X150999Y85745D01*
X151036Y85733D01*
X151076Y85734D01*
X151130Y85726D01*
X153670Y85726D01*
X153735Y85737D01*
G37*
G36*
X671895Y75577D02*
X671895Y75577D01*
X671961Y75579D01*
X672004Y75597D01*
X672051Y75605D01*
X672108Y75639D01*
X672168Y75664D01*
X672203Y75695D01*
X672244Y75720D01*
X672286Y75771D01*
X672334Y75815D01*
X672356Y75857D01*
X672385Y75894D01*
X672406Y75956D01*
X672437Y76015D01*
X672445Y76069D01*
X672457Y76106D01*
X672456Y76146D01*
X672464Y76200D01*
X672464Y80010D01*
X672453Y80075D01*
X672451Y80141D01*
X672433Y80184D01*
X672425Y80231D01*
X672391Y80288D01*
X672366Y80348D01*
X672335Y80383D01*
X672310Y80424D01*
X672259Y80466D01*
X672215Y80514D01*
X672173Y80536D01*
X672136Y80565D01*
X672074Y80586D01*
X672015Y80617D01*
X671961Y80625D01*
X671924Y80637D01*
X671884Y80636D01*
X671830Y80644D01*
X669290Y80644D01*
X669225Y80633D01*
X669159Y80631D01*
X669116Y80613D01*
X669069Y80605D01*
X669012Y80571D01*
X668952Y80546D01*
X668917Y80515D01*
X668876Y80490D01*
X668835Y80439D01*
X668786Y80395D01*
X668764Y80353D01*
X668735Y80316D01*
X668714Y80254D01*
X668683Y80195D01*
X668675Y80141D01*
X668663Y80104D01*
X668663Y80100D01*
X668663Y80099D01*
X668664Y80064D01*
X668656Y80010D01*
X668656Y76200D01*
X668667Y76135D01*
X668669Y76069D01*
X668687Y76026D01*
X668695Y75979D01*
X668729Y75922D01*
X668754Y75862D01*
X668785Y75827D01*
X668810Y75786D01*
X668861Y75745D01*
X668905Y75696D01*
X668947Y75674D01*
X668984Y75645D01*
X669046Y75624D01*
X669105Y75593D01*
X669159Y75585D01*
X669196Y75573D01*
X669236Y75574D01*
X669290Y75566D01*
X671830Y75566D01*
X671895Y75577D01*
G37*
G36*
X1190055Y75577D02*
X1190055Y75577D01*
X1190121Y75579D01*
X1190164Y75597D01*
X1190211Y75605D01*
X1190268Y75639D01*
X1190328Y75664D01*
X1190363Y75695D01*
X1190404Y75720D01*
X1190446Y75771D01*
X1190494Y75815D01*
X1190516Y75857D01*
X1190545Y75894D01*
X1190566Y75956D01*
X1190597Y76015D01*
X1190605Y76069D01*
X1190617Y76106D01*
X1190616Y76146D01*
X1190624Y76200D01*
X1190624Y80010D01*
X1190613Y80075D01*
X1190611Y80141D01*
X1190593Y80184D01*
X1190585Y80231D01*
X1190551Y80288D01*
X1190526Y80348D01*
X1190495Y80383D01*
X1190470Y80424D01*
X1190419Y80466D01*
X1190375Y80514D01*
X1190333Y80536D01*
X1190296Y80565D01*
X1190234Y80586D01*
X1190175Y80617D01*
X1190121Y80625D01*
X1190084Y80637D01*
X1190044Y80636D01*
X1189990Y80644D01*
X1187450Y80644D01*
X1187385Y80633D01*
X1187319Y80631D01*
X1187276Y80613D01*
X1187229Y80605D01*
X1187172Y80571D01*
X1187112Y80546D01*
X1187077Y80515D01*
X1187036Y80490D01*
X1186995Y80439D01*
X1186946Y80395D01*
X1186924Y80353D01*
X1186895Y80316D01*
X1186874Y80254D01*
X1186843Y80195D01*
X1186835Y80141D01*
X1186823Y80104D01*
X1186823Y80100D01*
X1186823Y80099D01*
X1186824Y80064D01*
X1186816Y80010D01*
X1186816Y76200D01*
X1186827Y76135D01*
X1186829Y76069D01*
X1186847Y76026D01*
X1186855Y75979D01*
X1186889Y75922D01*
X1186914Y75862D01*
X1186945Y75827D01*
X1186970Y75786D01*
X1187021Y75745D01*
X1187065Y75696D01*
X1187107Y75674D01*
X1187144Y75645D01*
X1187206Y75624D01*
X1187265Y75593D01*
X1187319Y75585D01*
X1187356Y75573D01*
X1187396Y75574D01*
X1187450Y75566D01*
X1189990Y75566D01*
X1190055Y75577D01*
G37*
G36*
X412815Y75577D02*
X412815Y75577D01*
X412881Y75579D01*
X412924Y75597D01*
X412971Y75605D01*
X413028Y75639D01*
X413088Y75664D01*
X413123Y75695D01*
X413164Y75720D01*
X413206Y75771D01*
X413254Y75815D01*
X413276Y75857D01*
X413305Y75894D01*
X413326Y75956D01*
X413357Y76015D01*
X413365Y76069D01*
X413377Y76106D01*
X413376Y76146D01*
X413384Y76200D01*
X413384Y80010D01*
X413373Y80075D01*
X413371Y80141D01*
X413353Y80184D01*
X413345Y80231D01*
X413311Y80288D01*
X413286Y80348D01*
X413255Y80383D01*
X413230Y80424D01*
X413179Y80466D01*
X413135Y80514D01*
X413093Y80536D01*
X413056Y80565D01*
X412994Y80586D01*
X412935Y80617D01*
X412881Y80625D01*
X412844Y80637D01*
X412804Y80636D01*
X412750Y80644D01*
X410210Y80644D01*
X410145Y80633D01*
X410079Y80631D01*
X410036Y80613D01*
X409989Y80605D01*
X409932Y80571D01*
X409872Y80546D01*
X409837Y80515D01*
X409796Y80490D01*
X409755Y80439D01*
X409706Y80395D01*
X409684Y80353D01*
X409655Y80316D01*
X409634Y80254D01*
X409603Y80195D01*
X409595Y80141D01*
X409583Y80104D01*
X409583Y80100D01*
X409583Y80099D01*
X409584Y80064D01*
X409576Y80010D01*
X409576Y76200D01*
X409587Y76135D01*
X409589Y76069D01*
X409607Y76026D01*
X409615Y75979D01*
X409649Y75922D01*
X409674Y75862D01*
X409705Y75827D01*
X409730Y75786D01*
X409781Y75745D01*
X409825Y75696D01*
X409867Y75674D01*
X409904Y75645D01*
X409966Y75624D01*
X410025Y75593D01*
X410079Y75585D01*
X410116Y75573D01*
X410156Y75574D01*
X410210Y75566D01*
X412750Y75566D01*
X412815Y75577D01*
G37*
G36*
X930975Y75577D02*
X930975Y75577D01*
X931041Y75579D01*
X931084Y75597D01*
X931131Y75605D01*
X931188Y75639D01*
X931248Y75664D01*
X931283Y75695D01*
X931324Y75720D01*
X931366Y75771D01*
X931414Y75815D01*
X931436Y75857D01*
X931465Y75894D01*
X931486Y75956D01*
X931517Y76015D01*
X931525Y76069D01*
X931537Y76106D01*
X931536Y76146D01*
X931544Y76200D01*
X931544Y80010D01*
X931533Y80075D01*
X931531Y80141D01*
X931513Y80184D01*
X931505Y80231D01*
X931471Y80288D01*
X931446Y80348D01*
X931415Y80383D01*
X931390Y80424D01*
X931339Y80466D01*
X931295Y80514D01*
X931253Y80536D01*
X931216Y80565D01*
X931154Y80586D01*
X931095Y80617D01*
X931041Y80625D01*
X931004Y80637D01*
X930964Y80636D01*
X930910Y80644D01*
X928370Y80644D01*
X928305Y80633D01*
X928239Y80631D01*
X928196Y80613D01*
X928149Y80605D01*
X928092Y80571D01*
X928032Y80546D01*
X927997Y80515D01*
X927956Y80490D01*
X927915Y80439D01*
X927866Y80395D01*
X927844Y80353D01*
X927815Y80316D01*
X927794Y80254D01*
X927763Y80195D01*
X927755Y80141D01*
X927743Y80104D01*
X927743Y80100D01*
X927743Y80099D01*
X927744Y80064D01*
X927736Y80010D01*
X927736Y76200D01*
X927747Y76135D01*
X927749Y76069D01*
X927767Y76026D01*
X927775Y75979D01*
X927809Y75922D01*
X927834Y75862D01*
X927865Y75827D01*
X927890Y75786D01*
X927941Y75745D01*
X927985Y75696D01*
X928027Y75674D01*
X928064Y75645D01*
X928126Y75624D01*
X928185Y75593D01*
X928239Y75585D01*
X928276Y75573D01*
X928316Y75574D01*
X928370Y75566D01*
X930910Y75566D01*
X930975Y75577D01*
G37*
G36*
X153735Y75577D02*
X153735Y75577D01*
X153801Y75579D01*
X153844Y75597D01*
X153891Y75605D01*
X153948Y75639D01*
X154008Y75664D01*
X154043Y75695D01*
X154084Y75720D01*
X154126Y75771D01*
X154174Y75815D01*
X154196Y75857D01*
X154225Y75894D01*
X154246Y75956D01*
X154277Y76015D01*
X154285Y76069D01*
X154297Y76106D01*
X154296Y76146D01*
X154304Y76200D01*
X154304Y80010D01*
X154293Y80075D01*
X154291Y80141D01*
X154273Y80184D01*
X154265Y80231D01*
X154231Y80288D01*
X154206Y80348D01*
X154175Y80383D01*
X154150Y80424D01*
X154099Y80466D01*
X154055Y80514D01*
X154013Y80536D01*
X153976Y80565D01*
X153914Y80586D01*
X153855Y80617D01*
X153801Y80625D01*
X153764Y80637D01*
X153724Y80636D01*
X153670Y80644D01*
X151130Y80644D01*
X151065Y80633D01*
X150999Y80631D01*
X150956Y80613D01*
X150909Y80605D01*
X150852Y80571D01*
X150792Y80546D01*
X150757Y80515D01*
X150716Y80490D01*
X150675Y80439D01*
X150626Y80395D01*
X150604Y80353D01*
X150575Y80316D01*
X150554Y80254D01*
X150523Y80195D01*
X150515Y80141D01*
X150503Y80104D01*
X150503Y80100D01*
X150503Y80099D01*
X150504Y80064D01*
X150496Y80010D01*
X150496Y76200D01*
X150507Y76135D01*
X150509Y76069D01*
X150527Y76026D01*
X150535Y75979D01*
X150569Y75922D01*
X150594Y75862D01*
X150625Y75827D01*
X150650Y75786D01*
X150701Y75745D01*
X150745Y75696D01*
X150787Y75674D01*
X150824Y75645D01*
X150886Y75624D01*
X150945Y75593D01*
X150999Y75585D01*
X151036Y75573D01*
X151076Y75574D01*
X151130Y75566D01*
X153670Y75566D01*
X153735Y75577D01*
G37*
G36*
X930975Y344817D02*
X930975Y344817D01*
X931041Y344819D01*
X931084Y344837D01*
X931131Y344845D01*
X931188Y344879D01*
X931248Y344904D01*
X931283Y344935D01*
X931324Y344960D01*
X931366Y345011D01*
X931414Y345055D01*
X931436Y345097D01*
X931465Y345134D01*
X931486Y345196D01*
X931517Y345255D01*
X931525Y345309D01*
X931537Y345346D01*
X931536Y345386D01*
X931544Y345440D01*
X931544Y349250D01*
X931533Y349315D01*
X931531Y349381D01*
X931513Y349424D01*
X931505Y349471D01*
X931471Y349528D01*
X931446Y349588D01*
X931415Y349623D01*
X931390Y349664D01*
X931339Y349706D01*
X931295Y349754D01*
X931253Y349776D01*
X931216Y349805D01*
X931154Y349826D01*
X931095Y349857D01*
X931041Y349865D01*
X931004Y349877D01*
X930964Y349876D01*
X930910Y349884D01*
X928370Y349884D01*
X928305Y349873D01*
X928239Y349871D01*
X928196Y349853D01*
X928149Y349845D01*
X928092Y349811D01*
X928032Y349786D01*
X927997Y349755D01*
X927956Y349730D01*
X927915Y349679D01*
X927866Y349635D01*
X927844Y349593D01*
X927815Y349556D01*
X927794Y349494D01*
X927763Y349435D01*
X927755Y349381D01*
X927743Y349344D01*
X927743Y349340D01*
X927743Y349339D01*
X927744Y349304D01*
X927736Y349250D01*
X927736Y345440D01*
X927747Y345375D01*
X927749Y345309D01*
X927767Y345266D01*
X927775Y345219D01*
X927809Y345162D01*
X927834Y345102D01*
X927865Y345067D01*
X927890Y345026D01*
X927941Y344985D01*
X927985Y344936D01*
X928027Y344914D01*
X928064Y344885D01*
X928126Y344864D01*
X928185Y344833D01*
X928239Y344825D01*
X928276Y344813D01*
X928316Y344814D01*
X928370Y344806D01*
X930910Y344806D01*
X930975Y344817D01*
G37*
G36*
X1449135Y344817D02*
X1449135Y344817D01*
X1449201Y344819D01*
X1449244Y344837D01*
X1449291Y344845D01*
X1449348Y344879D01*
X1449408Y344904D01*
X1449443Y344935D01*
X1449484Y344960D01*
X1449526Y345011D01*
X1449574Y345055D01*
X1449596Y345097D01*
X1449625Y345134D01*
X1449646Y345196D01*
X1449677Y345255D01*
X1449685Y345309D01*
X1449697Y345346D01*
X1449696Y345386D01*
X1449704Y345440D01*
X1449704Y349250D01*
X1449693Y349315D01*
X1449691Y349381D01*
X1449673Y349424D01*
X1449665Y349471D01*
X1449631Y349528D01*
X1449606Y349588D01*
X1449575Y349623D01*
X1449550Y349664D01*
X1449499Y349706D01*
X1449455Y349754D01*
X1449413Y349776D01*
X1449376Y349805D01*
X1449314Y349826D01*
X1449255Y349857D01*
X1449201Y349865D01*
X1449164Y349877D01*
X1449124Y349876D01*
X1449070Y349884D01*
X1446530Y349884D01*
X1446465Y349873D01*
X1446399Y349871D01*
X1446356Y349853D01*
X1446309Y349845D01*
X1446252Y349811D01*
X1446192Y349786D01*
X1446157Y349755D01*
X1446116Y349730D01*
X1446075Y349679D01*
X1446026Y349635D01*
X1446004Y349593D01*
X1445975Y349556D01*
X1445954Y349494D01*
X1445923Y349435D01*
X1445915Y349381D01*
X1445903Y349344D01*
X1445903Y349340D01*
X1445903Y349339D01*
X1445904Y349304D01*
X1445896Y349250D01*
X1445896Y345440D01*
X1445907Y345375D01*
X1445909Y345309D01*
X1445927Y345266D01*
X1445935Y345219D01*
X1445969Y345162D01*
X1445994Y345102D01*
X1446025Y345067D01*
X1446050Y345026D01*
X1446101Y344985D01*
X1446145Y344936D01*
X1446187Y344914D01*
X1446224Y344885D01*
X1446286Y344864D01*
X1446345Y344833D01*
X1446399Y344825D01*
X1446436Y344813D01*
X1446476Y344814D01*
X1446530Y344806D01*
X1449070Y344806D01*
X1449135Y344817D01*
G37*
G36*
X412815Y344817D02*
X412815Y344817D01*
X412881Y344819D01*
X412924Y344837D01*
X412971Y344845D01*
X413028Y344879D01*
X413088Y344904D01*
X413123Y344935D01*
X413164Y344960D01*
X413206Y345011D01*
X413254Y345055D01*
X413276Y345097D01*
X413305Y345134D01*
X413326Y345196D01*
X413357Y345255D01*
X413365Y345309D01*
X413377Y345346D01*
X413376Y345386D01*
X413384Y345440D01*
X413384Y349250D01*
X413373Y349315D01*
X413371Y349381D01*
X413353Y349424D01*
X413345Y349471D01*
X413311Y349528D01*
X413286Y349588D01*
X413255Y349623D01*
X413230Y349664D01*
X413179Y349706D01*
X413135Y349754D01*
X413093Y349776D01*
X413056Y349805D01*
X412994Y349826D01*
X412935Y349857D01*
X412881Y349865D01*
X412844Y349877D01*
X412804Y349876D01*
X412750Y349884D01*
X410210Y349884D01*
X410145Y349873D01*
X410079Y349871D01*
X410036Y349853D01*
X409989Y349845D01*
X409932Y349811D01*
X409872Y349786D01*
X409837Y349755D01*
X409796Y349730D01*
X409755Y349679D01*
X409706Y349635D01*
X409684Y349593D01*
X409655Y349556D01*
X409634Y349494D01*
X409603Y349435D01*
X409595Y349381D01*
X409583Y349344D01*
X409583Y349340D01*
X409583Y349339D01*
X409584Y349304D01*
X409576Y349250D01*
X409576Y345440D01*
X409587Y345375D01*
X409589Y345309D01*
X409607Y345266D01*
X409615Y345219D01*
X409649Y345162D01*
X409674Y345102D01*
X409705Y345067D01*
X409730Y345026D01*
X409781Y344985D01*
X409825Y344936D01*
X409867Y344914D01*
X409904Y344885D01*
X409966Y344864D01*
X410025Y344833D01*
X410079Y344825D01*
X410116Y344813D01*
X410156Y344814D01*
X410210Y344806D01*
X412750Y344806D01*
X412815Y344817D01*
G37*
G36*
X153735Y344817D02*
X153735Y344817D01*
X153801Y344819D01*
X153844Y344837D01*
X153891Y344845D01*
X153948Y344879D01*
X154008Y344904D01*
X154043Y344935D01*
X154084Y344960D01*
X154126Y345011D01*
X154174Y345055D01*
X154196Y345097D01*
X154225Y345134D01*
X154246Y345196D01*
X154277Y345255D01*
X154285Y345309D01*
X154297Y345346D01*
X154296Y345386D01*
X154304Y345440D01*
X154304Y349250D01*
X154293Y349315D01*
X154291Y349381D01*
X154273Y349424D01*
X154265Y349471D01*
X154231Y349528D01*
X154206Y349588D01*
X154175Y349623D01*
X154150Y349664D01*
X154099Y349706D01*
X154055Y349754D01*
X154013Y349776D01*
X153976Y349805D01*
X153914Y349826D01*
X153855Y349857D01*
X153801Y349865D01*
X153764Y349877D01*
X153724Y349876D01*
X153670Y349884D01*
X151130Y349884D01*
X151065Y349873D01*
X150999Y349871D01*
X150956Y349853D01*
X150909Y349845D01*
X150852Y349811D01*
X150792Y349786D01*
X150757Y349755D01*
X150716Y349730D01*
X150675Y349679D01*
X150626Y349635D01*
X150604Y349593D01*
X150575Y349556D01*
X150554Y349494D01*
X150523Y349435D01*
X150515Y349381D01*
X150503Y349344D01*
X150503Y349340D01*
X150503Y349339D01*
X150504Y349304D01*
X150496Y349250D01*
X150496Y345440D01*
X150507Y345375D01*
X150509Y345309D01*
X150527Y345266D01*
X150535Y345219D01*
X150569Y345162D01*
X150594Y345102D01*
X150625Y345067D01*
X150650Y345026D01*
X150701Y344985D01*
X150745Y344936D01*
X150787Y344914D01*
X150824Y344885D01*
X150886Y344864D01*
X150945Y344833D01*
X150999Y344825D01*
X151036Y344813D01*
X151076Y344814D01*
X151130Y344806D01*
X153670Y344806D01*
X153735Y344817D01*
G37*
G36*
X671895Y344817D02*
X671895Y344817D01*
X671961Y344819D01*
X672004Y344837D01*
X672051Y344845D01*
X672108Y344879D01*
X672168Y344904D01*
X672203Y344935D01*
X672244Y344960D01*
X672286Y345011D01*
X672334Y345055D01*
X672356Y345097D01*
X672385Y345134D01*
X672406Y345196D01*
X672437Y345255D01*
X672445Y345309D01*
X672457Y345346D01*
X672456Y345386D01*
X672464Y345440D01*
X672464Y349250D01*
X672453Y349315D01*
X672451Y349381D01*
X672433Y349424D01*
X672425Y349471D01*
X672391Y349528D01*
X672366Y349588D01*
X672335Y349623D01*
X672310Y349664D01*
X672259Y349706D01*
X672215Y349754D01*
X672173Y349776D01*
X672136Y349805D01*
X672074Y349826D01*
X672015Y349857D01*
X671961Y349865D01*
X671924Y349877D01*
X671884Y349876D01*
X671830Y349884D01*
X669290Y349884D01*
X669225Y349873D01*
X669159Y349871D01*
X669116Y349853D01*
X669069Y349845D01*
X669012Y349811D01*
X668952Y349786D01*
X668917Y349755D01*
X668876Y349730D01*
X668835Y349679D01*
X668786Y349635D01*
X668764Y349593D01*
X668735Y349556D01*
X668714Y349494D01*
X668683Y349435D01*
X668675Y349381D01*
X668663Y349344D01*
X668663Y349340D01*
X668663Y349339D01*
X668664Y349304D01*
X668656Y349250D01*
X668656Y345440D01*
X668667Y345375D01*
X668669Y345309D01*
X668687Y345266D01*
X668695Y345219D01*
X668729Y345162D01*
X668754Y345102D01*
X668785Y345067D01*
X668810Y345026D01*
X668861Y344985D01*
X668905Y344936D01*
X668947Y344914D01*
X668984Y344885D01*
X669046Y344864D01*
X669105Y344833D01*
X669159Y344825D01*
X669196Y344813D01*
X669236Y344814D01*
X669290Y344806D01*
X671830Y344806D01*
X671895Y344817D01*
G37*
G36*
X1190055Y344817D02*
X1190055Y344817D01*
X1190121Y344819D01*
X1190164Y344837D01*
X1190211Y344845D01*
X1190268Y344879D01*
X1190328Y344904D01*
X1190363Y344935D01*
X1190404Y344960D01*
X1190446Y345011D01*
X1190494Y345055D01*
X1190516Y345097D01*
X1190545Y345134D01*
X1190566Y345196D01*
X1190597Y345255D01*
X1190605Y345309D01*
X1190617Y345346D01*
X1190616Y345386D01*
X1190624Y345440D01*
X1190624Y349250D01*
X1190613Y349315D01*
X1190611Y349381D01*
X1190593Y349424D01*
X1190585Y349471D01*
X1190551Y349528D01*
X1190526Y349588D01*
X1190495Y349623D01*
X1190470Y349664D01*
X1190419Y349706D01*
X1190375Y349754D01*
X1190333Y349776D01*
X1190296Y349805D01*
X1190234Y349826D01*
X1190175Y349857D01*
X1190121Y349865D01*
X1190084Y349877D01*
X1190044Y349876D01*
X1189990Y349884D01*
X1187450Y349884D01*
X1187385Y349873D01*
X1187319Y349871D01*
X1187276Y349853D01*
X1187229Y349845D01*
X1187172Y349811D01*
X1187112Y349786D01*
X1187077Y349755D01*
X1187036Y349730D01*
X1186995Y349679D01*
X1186946Y349635D01*
X1186924Y349593D01*
X1186895Y349556D01*
X1186874Y349494D01*
X1186843Y349435D01*
X1186835Y349381D01*
X1186823Y349344D01*
X1186823Y349340D01*
X1186823Y349339D01*
X1186824Y349304D01*
X1186816Y349250D01*
X1186816Y345440D01*
X1186827Y345375D01*
X1186829Y345309D01*
X1186847Y345266D01*
X1186855Y345219D01*
X1186889Y345162D01*
X1186914Y345102D01*
X1186945Y345067D01*
X1186970Y345026D01*
X1187021Y344985D01*
X1187065Y344936D01*
X1187107Y344914D01*
X1187144Y344885D01*
X1187206Y344864D01*
X1187265Y344833D01*
X1187319Y344825D01*
X1187356Y344813D01*
X1187396Y344814D01*
X1187450Y344806D01*
X1189990Y344806D01*
X1190055Y344817D01*
G37*
G36*
X1449135Y334657D02*
X1449135Y334657D01*
X1449201Y334659D01*
X1449244Y334677D01*
X1449291Y334685D01*
X1449348Y334719D01*
X1449408Y334744D01*
X1449443Y334775D01*
X1449484Y334800D01*
X1449526Y334851D01*
X1449574Y334895D01*
X1449596Y334937D01*
X1449625Y334974D01*
X1449646Y335036D01*
X1449677Y335095D01*
X1449685Y335149D01*
X1449697Y335186D01*
X1449696Y335226D01*
X1449704Y335280D01*
X1449704Y339090D01*
X1449693Y339155D01*
X1449691Y339221D01*
X1449673Y339264D01*
X1449665Y339311D01*
X1449631Y339368D01*
X1449606Y339428D01*
X1449575Y339463D01*
X1449550Y339504D01*
X1449499Y339546D01*
X1449455Y339594D01*
X1449413Y339616D01*
X1449376Y339645D01*
X1449314Y339666D01*
X1449255Y339697D01*
X1449201Y339705D01*
X1449164Y339717D01*
X1449124Y339716D01*
X1449070Y339724D01*
X1446530Y339724D01*
X1446465Y339713D01*
X1446399Y339711D01*
X1446356Y339693D01*
X1446309Y339685D01*
X1446252Y339651D01*
X1446192Y339626D01*
X1446157Y339595D01*
X1446116Y339570D01*
X1446075Y339519D01*
X1446026Y339475D01*
X1446004Y339433D01*
X1445975Y339396D01*
X1445954Y339334D01*
X1445923Y339275D01*
X1445915Y339221D01*
X1445903Y339184D01*
X1445903Y339180D01*
X1445903Y339179D01*
X1445904Y339144D01*
X1445896Y339090D01*
X1445896Y335280D01*
X1445907Y335215D01*
X1445909Y335149D01*
X1445927Y335106D01*
X1445935Y335059D01*
X1445969Y335002D01*
X1445994Y334942D01*
X1446025Y334907D01*
X1446050Y334866D01*
X1446101Y334825D01*
X1446145Y334776D01*
X1446187Y334754D01*
X1446224Y334725D01*
X1446286Y334704D01*
X1446345Y334673D01*
X1446399Y334665D01*
X1446436Y334653D01*
X1446476Y334654D01*
X1446530Y334646D01*
X1449070Y334646D01*
X1449135Y334657D01*
G37*
G36*
X412815Y334657D02*
X412815Y334657D01*
X412881Y334659D01*
X412924Y334677D01*
X412971Y334685D01*
X413028Y334719D01*
X413088Y334744D01*
X413123Y334775D01*
X413164Y334800D01*
X413206Y334851D01*
X413254Y334895D01*
X413276Y334937D01*
X413305Y334974D01*
X413326Y335036D01*
X413357Y335095D01*
X413365Y335149D01*
X413377Y335186D01*
X413376Y335226D01*
X413384Y335280D01*
X413384Y339090D01*
X413373Y339155D01*
X413371Y339221D01*
X413353Y339264D01*
X413345Y339311D01*
X413311Y339368D01*
X413286Y339428D01*
X413255Y339463D01*
X413230Y339504D01*
X413179Y339546D01*
X413135Y339594D01*
X413093Y339616D01*
X413056Y339645D01*
X412994Y339666D01*
X412935Y339697D01*
X412881Y339705D01*
X412844Y339717D01*
X412804Y339716D01*
X412750Y339724D01*
X410210Y339724D01*
X410145Y339713D01*
X410079Y339711D01*
X410036Y339693D01*
X409989Y339685D01*
X409932Y339651D01*
X409872Y339626D01*
X409837Y339595D01*
X409796Y339570D01*
X409755Y339519D01*
X409706Y339475D01*
X409684Y339433D01*
X409655Y339396D01*
X409634Y339334D01*
X409603Y339275D01*
X409595Y339221D01*
X409583Y339184D01*
X409583Y339180D01*
X409583Y339179D01*
X409584Y339144D01*
X409576Y339090D01*
X409576Y335280D01*
X409587Y335215D01*
X409589Y335149D01*
X409607Y335106D01*
X409615Y335059D01*
X409649Y335002D01*
X409674Y334942D01*
X409705Y334907D01*
X409730Y334866D01*
X409781Y334825D01*
X409825Y334776D01*
X409867Y334754D01*
X409904Y334725D01*
X409966Y334704D01*
X410025Y334673D01*
X410079Y334665D01*
X410116Y334653D01*
X410156Y334654D01*
X410210Y334646D01*
X412750Y334646D01*
X412815Y334657D01*
G37*
G36*
X930975Y334657D02*
X930975Y334657D01*
X931041Y334659D01*
X931084Y334677D01*
X931131Y334685D01*
X931188Y334719D01*
X931248Y334744D01*
X931283Y334775D01*
X931324Y334800D01*
X931366Y334851D01*
X931414Y334895D01*
X931436Y334937D01*
X931465Y334974D01*
X931486Y335036D01*
X931517Y335095D01*
X931525Y335149D01*
X931537Y335186D01*
X931536Y335226D01*
X931544Y335280D01*
X931544Y339090D01*
X931533Y339155D01*
X931531Y339221D01*
X931513Y339264D01*
X931505Y339311D01*
X931471Y339368D01*
X931446Y339428D01*
X931415Y339463D01*
X931390Y339504D01*
X931339Y339546D01*
X931295Y339594D01*
X931253Y339616D01*
X931216Y339645D01*
X931154Y339666D01*
X931095Y339697D01*
X931041Y339705D01*
X931004Y339717D01*
X930964Y339716D01*
X930910Y339724D01*
X928370Y339724D01*
X928305Y339713D01*
X928239Y339711D01*
X928196Y339693D01*
X928149Y339685D01*
X928092Y339651D01*
X928032Y339626D01*
X927997Y339595D01*
X927956Y339570D01*
X927915Y339519D01*
X927866Y339475D01*
X927844Y339433D01*
X927815Y339396D01*
X927794Y339334D01*
X927763Y339275D01*
X927755Y339221D01*
X927743Y339184D01*
X927743Y339180D01*
X927743Y339179D01*
X927744Y339144D01*
X927736Y339090D01*
X927736Y335280D01*
X927747Y335215D01*
X927749Y335149D01*
X927767Y335106D01*
X927775Y335059D01*
X927809Y335002D01*
X927834Y334942D01*
X927865Y334907D01*
X927890Y334866D01*
X927941Y334825D01*
X927985Y334776D01*
X928027Y334754D01*
X928064Y334725D01*
X928126Y334704D01*
X928185Y334673D01*
X928239Y334665D01*
X928276Y334653D01*
X928316Y334654D01*
X928370Y334646D01*
X930910Y334646D01*
X930975Y334657D01*
G37*
G36*
X671895Y334657D02*
X671895Y334657D01*
X671961Y334659D01*
X672004Y334677D01*
X672051Y334685D01*
X672108Y334719D01*
X672168Y334744D01*
X672203Y334775D01*
X672244Y334800D01*
X672286Y334851D01*
X672334Y334895D01*
X672356Y334937D01*
X672385Y334974D01*
X672406Y335036D01*
X672437Y335095D01*
X672445Y335149D01*
X672457Y335186D01*
X672456Y335226D01*
X672464Y335280D01*
X672464Y339090D01*
X672453Y339155D01*
X672451Y339221D01*
X672433Y339264D01*
X672425Y339311D01*
X672391Y339368D01*
X672366Y339428D01*
X672335Y339463D01*
X672310Y339504D01*
X672259Y339546D01*
X672215Y339594D01*
X672173Y339616D01*
X672136Y339645D01*
X672074Y339666D01*
X672015Y339697D01*
X671961Y339705D01*
X671924Y339717D01*
X671884Y339716D01*
X671830Y339724D01*
X669290Y339724D01*
X669225Y339713D01*
X669159Y339711D01*
X669116Y339693D01*
X669069Y339685D01*
X669012Y339651D01*
X668952Y339626D01*
X668917Y339595D01*
X668876Y339570D01*
X668835Y339519D01*
X668786Y339475D01*
X668764Y339433D01*
X668735Y339396D01*
X668714Y339334D01*
X668683Y339275D01*
X668675Y339221D01*
X668663Y339184D01*
X668663Y339180D01*
X668663Y339179D01*
X668664Y339144D01*
X668656Y339090D01*
X668656Y335280D01*
X668667Y335215D01*
X668669Y335149D01*
X668687Y335106D01*
X668695Y335059D01*
X668729Y335002D01*
X668754Y334942D01*
X668785Y334907D01*
X668810Y334866D01*
X668861Y334825D01*
X668905Y334776D01*
X668947Y334754D01*
X668984Y334725D01*
X669046Y334704D01*
X669105Y334673D01*
X669159Y334665D01*
X669196Y334653D01*
X669236Y334654D01*
X669290Y334646D01*
X671830Y334646D01*
X671895Y334657D01*
G37*
G36*
X153735Y334657D02*
X153735Y334657D01*
X153801Y334659D01*
X153844Y334677D01*
X153891Y334685D01*
X153948Y334719D01*
X154008Y334744D01*
X154043Y334775D01*
X154084Y334800D01*
X154126Y334851D01*
X154174Y334895D01*
X154196Y334937D01*
X154225Y334974D01*
X154246Y335036D01*
X154277Y335095D01*
X154285Y335149D01*
X154297Y335186D01*
X154296Y335226D01*
X154304Y335280D01*
X154304Y339090D01*
X154293Y339155D01*
X154291Y339221D01*
X154273Y339264D01*
X154265Y339311D01*
X154231Y339368D01*
X154206Y339428D01*
X154175Y339463D01*
X154150Y339504D01*
X154099Y339546D01*
X154055Y339594D01*
X154013Y339616D01*
X153976Y339645D01*
X153914Y339666D01*
X153855Y339697D01*
X153801Y339705D01*
X153764Y339717D01*
X153724Y339716D01*
X153670Y339724D01*
X151130Y339724D01*
X151065Y339713D01*
X150999Y339711D01*
X150956Y339693D01*
X150909Y339685D01*
X150852Y339651D01*
X150792Y339626D01*
X150757Y339595D01*
X150716Y339570D01*
X150675Y339519D01*
X150626Y339475D01*
X150604Y339433D01*
X150575Y339396D01*
X150554Y339334D01*
X150523Y339275D01*
X150515Y339221D01*
X150503Y339184D01*
X150503Y339180D01*
X150503Y339179D01*
X150504Y339144D01*
X150496Y339090D01*
X150496Y335280D01*
X150507Y335215D01*
X150509Y335149D01*
X150527Y335106D01*
X150535Y335059D01*
X150569Y335002D01*
X150594Y334942D01*
X150625Y334907D01*
X150650Y334866D01*
X150701Y334825D01*
X150745Y334776D01*
X150787Y334754D01*
X150824Y334725D01*
X150886Y334704D01*
X150945Y334673D01*
X150999Y334665D01*
X151036Y334653D01*
X151076Y334654D01*
X151130Y334646D01*
X153670Y334646D01*
X153735Y334657D01*
G37*
G36*
X1190055Y334657D02*
X1190055Y334657D01*
X1190121Y334659D01*
X1190164Y334677D01*
X1190211Y334685D01*
X1190268Y334719D01*
X1190328Y334744D01*
X1190363Y334775D01*
X1190404Y334800D01*
X1190446Y334851D01*
X1190494Y334895D01*
X1190516Y334937D01*
X1190545Y334974D01*
X1190566Y335036D01*
X1190597Y335095D01*
X1190605Y335149D01*
X1190617Y335186D01*
X1190616Y335226D01*
X1190624Y335280D01*
X1190624Y339090D01*
X1190613Y339155D01*
X1190611Y339221D01*
X1190593Y339264D01*
X1190585Y339311D01*
X1190551Y339368D01*
X1190526Y339428D01*
X1190495Y339463D01*
X1190470Y339504D01*
X1190419Y339546D01*
X1190375Y339594D01*
X1190333Y339616D01*
X1190296Y339645D01*
X1190234Y339666D01*
X1190175Y339697D01*
X1190121Y339705D01*
X1190084Y339717D01*
X1190044Y339716D01*
X1189990Y339724D01*
X1187450Y339724D01*
X1187385Y339713D01*
X1187319Y339711D01*
X1187276Y339693D01*
X1187229Y339685D01*
X1187172Y339651D01*
X1187112Y339626D01*
X1187077Y339595D01*
X1187036Y339570D01*
X1186995Y339519D01*
X1186946Y339475D01*
X1186924Y339433D01*
X1186895Y339396D01*
X1186874Y339334D01*
X1186843Y339275D01*
X1186835Y339221D01*
X1186823Y339184D01*
X1186823Y339180D01*
X1186823Y339179D01*
X1186824Y339144D01*
X1186816Y339090D01*
X1186816Y335280D01*
X1186827Y335215D01*
X1186829Y335149D01*
X1186847Y335106D01*
X1186855Y335059D01*
X1186889Y335002D01*
X1186914Y334942D01*
X1186945Y334907D01*
X1186970Y334866D01*
X1187021Y334825D01*
X1187065Y334776D01*
X1187107Y334754D01*
X1187144Y334725D01*
X1187206Y334704D01*
X1187265Y334673D01*
X1187319Y334665D01*
X1187356Y334653D01*
X1187396Y334654D01*
X1187450Y334646D01*
X1189990Y334646D01*
X1190055Y334657D01*
G37*
G36*
X804610Y851547D02*
X804610Y851547D01*
X804676Y851549D01*
X804719Y851567D01*
X804766Y851575D01*
X804823Y851609D01*
X804883Y851634D01*
X804918Y851665D01*
X804959Y851690D01*
X805001Y851741D01*
X805049Y851785D01*
X805071Y851827D01*
X805100Y851864D01*
X805121Y851926D01*
X805152Y851985D01*
X805160Y852039D01*
X805172Y852076D01*
X805171Y852116D01*
X805179Y852170D01*
X805179Y854710D01*
X805168Y854775D01*
X805166Y854841D01*
X805148Y854884D01*
X805140Y854931D01*
X805106Y854988D01*
X805081Y855048D01*
X805050Y855083D01*
X805025Y855124D01*
X804974Y855166D01*
X804930Y855214D01*
X804888Y855236D01*
X804851Y855265D01*
X804789Y855286D01*
X804730Y855317D01*
X804676Y855325D01*
X804639Y855337D01*
X804599Y855336D01*
X804545Y855344D01*
X800735Y855344D01*
X800670Y855333D01*
X800604Y855331D01*
X800561Y855313D01*
X800514Y855305D01*
X800457Y855271D01*
X800397Y855246D01*
X800362Y855215D01*
X800321Y855190D01*
X800280Y855139D01*
X800231Y855095D01*
X800209Y855053D01*
X800180Y855016D01*
X800159Y854954D01*
X800128Y854895D01*
X800120Y854841D01*
X800108Y854804D01*
X800108Y854801D01*
X800109Y854764D01*
X800101Y854710D01*
X800101Y852170D01*
X800112Y852105D01*
X800114Y852039D01*
X800132Y851996D01*
X800140Y851949D01*
X800174Y851892D01*
X800199Y851832D01*
X800230Y851797D01*
X800255Y851756D01*
X800306Y851715D01*
X800350Y851666D01*
X800392Y851644D01*
X800429Y851615D01*
X800491Y851594D01*
X800550Y851563D01*
X800604Y851555D01*
X800641Y851543D01*
X800681Y851544D01*
X800735Y851536D01*
X804545Y851536D01*
X804610Y851547D01*
G37*
G36*
X1063690Y851547D02*
X1063690Y851547D01*
X1063756Y851549D01*
X1063799Y851567D01*
X1063846Y851575D01*
X1063903Y851609D01*
X1063963Y851634D01*
X1063998Y851665D01*
X1064039Y851690D01*
X1064081Y851741D01*
X1064129Y851785D01*
X1064151Y851827D01*
X1064180Y851864D01*
X1064201Y851926D01*
X1064232Y851985D01*
X1064240Y852039D01*
X1064252Y852076D01*
X1064251Y852116D01*
X1064259Y852170D01*
X1064259Y854710D01*
X1064248Y854775D01*
X1064246Y854841D01*
X1064228Y854884D01*
X1064220Y854931D01*
X1064186Y854988D01*
X1064161Y855048D01*
X1064130Y855083D01*
X1064105Y855124D01*
X1064054Y855166D01*
X1064010Y855214D01*
X1063968Y855236D01*
X1063931Y855265D01*
X1063869Y855286D01*
X1063810Y855317D01*
X1063756Y855325D01*
X1063719Y855337D01*
X1063679Y855336D01*
X1063625Y855344D01*
X1059815Y855344D01*
X1059750Y855333D01*
X1059684Y855331D01*
X1059641Y855313D01*
X1059594Y855305D01*
X1059537Y855271D01*
X1059477Y855246D01*
X1059442Y855215D01*
X1059401Y855190D01*
X1059360Y855139D01*
X1059311Y855095D01*
X1059289Y855053D01*
X1059260Y855016D01*
X1059239Y854954D01*
X1059208Y854895D01*
X1059200Y854841D01*
X1059188Y854804D01*
X1059188Y854801D01*
X1059189Y854764D01*
X1059181Y854710D01*
X1059181Y852170D01*
X1059192Y852105D01*
X1059194Y852039D01*
X1059212Y851996D01*
X1059220Y851949D01*
X1059254Y851892D01*
X1059279Y851832D01*
X1059310Y851797D01*
X1059335Y851756D01*
X1059386Y851715D01*
X1059430Y851666D01*
X1059472Y851644D01*
X1059509Y851615D01*
X1059571Y851594D01*
X1059630Y851563D01*
X1059684Y851555D01*
X1059721Y851543D01*
X1059761Y851544D01*
X1059815Y851536D01*
X1063625Y851536D01*
X1063690Y851547D01*
G37*
G36*
X1322770Y851547D02*
X1322770Y851547D01*
X1322836Y851549D01*
X1322879Y851567D01*
X1322926Y851575D01*
X1322983Y851609D01*
X1323043Y851634D01*
X1323078Y851665D01*
X1323119Y851690D01*
X1323161Y851741D01*
X1323209Y851785D01*
X1323231Y851827D01*
X1323260Y851864D01*
X1323281Y851926D01*
X1323312Y851985D01*
X1323320Y852039D01*
X1323332Y852076D01*
X1323331Y852116D01*
X1323339Y852170D01*
X1323339Y854710D01*
X1323328Y854775D01*
X1323326Y854841D01*
X1323308Y854884D01*
X1323300Y854931D01*
X1323266Y854988D01*
X1323241Y855048D01*
X1323210Y855083D01*
X1323185Y855124D01*
X1323134Y855166D01*
X1323090Y855214D01*
X1323048Y855236D01*
X1323011Y855265D01*
X1322949Y855286D01*
X1322890Y855317D01*
X1322836Y855325D01*
X1322799Y855337D01*
X1322759Y855336D01*
X1322705Y855344D01*
X1318895Y855344D01*
X1318830Y855333D01*
X1318764Y855331D01*
X1318721Y855313D01*
X1318674Y855305D01*
X1318617Y855271D01*
X1318557Y855246D01*
X1318522Y855215D01*
X1318481Y855190D01*
X1318440Y855139D01*
X1318391Y855095D01*
X1318369Y855053D01*
X1318340Y855016D01*
X1318319Y854954D01*
X1318288Y854895D01*
X1318280Y854841D01*
X1318268Y854804D01*
X1318268Y854801D01*
X1318269Y854764D01*
X1318261Y854710D01*
X1318261Y852170D01*
X1318272Y852105D01*
X1318274Y852039D01*
X1318292Y851996D01*
X1318300Y851949D01*
X1318334Y851892D01*
X1318359Y851832D01*
X1318390Y851797D01*
X1318415Y851756D01*
X1318466Y851715D01*
X1318510Y851666D01*
X1318552Y851644D01*
X1318589Y851615D01*
X1318651Y851594D01*
X1318710Y851563D01*
X1318764Y851555D01*
X1318801Y851543D01*
X1318841Y851544D01*
X1318895Y851536D01*
X1322705Y851536D01*
X1322770Y851547D01*
G37*
G36*
X286450Y851547D02*
X286450Y851547D01*
X286516Y851549D01*
X286559Y851567D01*
X286606Y851575D01*
X286663Y851609D01*
X286723Y851634D01*
X286758Y851665D01*
X286799Y851690D01*
X286841Y851741D01*
X286889Y851785D01*
X286911Y851827D01*
X286940Y851864D01*
X286961Y851926D01*
X286992Y851985D01*
X287000Y852039D01*
X287012Y852076D01*
X287011Y852116D01*
X287019Y852170D01*
X287019Y854710D01*
X287008Y854775D01*
X287006Y854841D01*
X286988Y854884D01*
X286980Y854931D01*
X286946Y854988D01*
X286921Y855048D01*
X286890Y855083D01*
X286865Y855124D01*
X286814Y855166D01*
X286770Y855214D01*
X286728Y855236D01*
X286691Y855265D01*
X286629Y855286D01*
X286570Y855317D01*
X286516Y855325D01*
X286479Y855337D01*
X286439Y855336D01*
X286385Y855344D01*
X282575Y855344D01*
X282510Y855333D01*
X282444Y855331D01*
X282401Y855313D01*
X282354Y855305D01*
X282297Y855271D01*
X282237Y855246D01*
X282202Y855215D01*
X282161Y855190D01*
X282120Y855139D01*
X282071Y855095D01*
X282049Y855053D01*
X282020Y855016D01*
X281999Y854954D01*
X281968Y854895D01*
X281960Y854841D01*
X281948Y854804D01*
X281948Y854801D01*
X281949Y854764D01*
X281941Y854710D01*
X281941Y852170D01*
X281952Y852105D01*
X281954Y852039D01*
X281972Y851996D01*
X281980Y851949D01*
X282014Y851892D01*
X282039Y851832D01*
X282070Y851797D01*
X282095Y851756D01*
X282146Y851715D01*
X282190Y851666D01*
X282232Y851644D01*
X282269Y851615D01*
X282331Y851594D01*
X282390Y851563D01*
X282444Y851555D01*
X282481Y851543D01*
X282521Y851544D01*
X282575Y851536D01*
X286385Y851536D01*
X286450Y851547D01*
G37*
G36*
X27370Y851547D02*
X27370Y851547D01*
X27436Y851549D01*
X27479Y851567D01*
X27526Y851575D01*
X27583Y851609D01*
X27643Y851634D01*
X27678Y851665D01*
X27719Y851690D01*
X27761Y851741D01*
X27809Y851785D01*
X27831Y851827D01*
X27860Y851864D01*
X27881Y851926D01*
X27912Y851985D01*
X27920Y852039D01*
X27932Y852076D01*
X27931Y852116D01*
X27939Y852170D01*
X27939Y854710D01*
X27928Y854775D01*
X27926Y854841D01*
X27908Y854884D01*
X27900Y854931D01*
X27866Y854988D01*
X27841Y855048D01*
X27810Y855083D01*
X27785Y855124D01*
X27734Y855166D01*
X27690Y855214D01*
X27648Y855236D01*
X27611Y855265D01*
X27549Y855286D01*
X27490Y855317D01*
X27436Y855325D01*
X27399Y855337D01*
X27359Y855336D01*
X27305Y855344D01*
X23495Y855344D01*
X23430Y855333D01*
X23364Y855331D01*
X23321Y855313D01*
X23274Y855305D01*
X23217Y855271D01*
X23157Y855246D01*
X23122Y855215D01*
X23081Y855190D01*
X23040Y855139D01*
X22991Y855095D01*
X22969Y855053D01*
X22940Y855016D01*
X22919Y854954D01*
X22888Y854895D01*
X22880Y854841D01*
X22868Y854804D01*
X22868Y854801D01*
X22869Y854764D01*
X22861Y854710D01*
X22861Y852170D01*
X22872Y852105D01*
X22874Y852039D01*
X22892Y851996D01*
X22900Y851949D01*
X22934Y851892D01*
X22959Y851832D01*
X22990Y851797D01*
X23015Y851756D01*
X23066Y851715D01*
X23110Y851666D01*
X23152Y851644D01*
X23189Y851615D01*
X23251Y851594D01*
X23310Y851563D01*
X23364Y851555D01*
X23401Y851543D01*
X23441Y851544D01*
X23495Y851536D01*
X27305Y851536D01*
X27370Y851547D01*
G37*
G36*
X545530Y851547D02*
X545530Y851547D01*
X545596Y851549D01*
X545639Y851567D01*
X545686Y851575D01*
X545743Y851609D01*
X545803Y851634D01*
X545838Y851665D01*
X545879Y851690D01*
X545921Y851741D01*
X545969Y851785D01*
X545991Y851827D01*
X546020Y851864D01*
X546041Y851926D01*
X546072Y851985D01*
X546080Y852039D01*
X546092Y852076D01*
X546091Y852116D01*
X546099Y852170D01*
X546099Y854710D01*
X546088Y854775D01*
X546086Y854841D01*
X546068Y854884D01*
X546060Y854931D01*
X546026Y854988D01*
X546001Y855048D01*
X545970Y855083D01*
X545945Y855124D01*
X545894Y855166D01*
X545850Y855214D01*
X545808Y855236D01*
X545771Y855265D01*
X545709Y855286D01*
X545650Y855317D01*
X545596Y855325D01*
X545559Y855337D01*
X545519Y855336D01*
X545465Y855344D01*
X541655Y855344D01*
X541590Y855333D01*
X541524Y855331D01*
X541481Y855313D01*
X541434Y855305D01*
X541377Y855271D01*
X541317Y855246D01*
X541282Y855215D01*
X541241Y855190D01*
X541200Y855139D01*
X541151Y855095D01*
X541129Y855053D01*
X541100Y855016D01*
X541079Y854954D01*
X541048Y854895D01*
X541040Y854841D01*
X541028Y854804D01*
X541028Y854801D01*
X541029Y854764D01*
X541021Y854710D01*
X541021Y852170D01*
X541032Y852105D01*
X541034Y852039D01*
X541052Y851996D01*
X541060Y851949D01*
X541094Y851892D01*
X541119Y851832D01*
X541150Y851797D01*
X541175Y851756D01*
X541226Y851715D01*
X541270Y851666D01*
X541312Y851644D01*
X541349Y851615D01*
X541411Y851594D01*
X541470Y851563D01*
X541524Y851555D01*
X541561Y851543D01*
X541601Y851544D01*
X541655Y851536D01*
X545465Y851536D01*
X545530Y851547D01*
G37*
G36*
X27370Y333387D02*
X27370Y333387D01*
X27436Y333389D01*
X27479Y333407D01*
X27526Y333415D01*
X27583Y333449D01*
X27643Y333474D01*
X27678Y333505D01*
X27719Y333530D01*
X27761Y333581D01*
X27809Y333625D01*
X27831Y333667D01*
X27860Y333704D01*
X27881Y333766D01*
X27912Y333825D01*
X27920Y333879D01*
X27932Y333916D01*
X27931Y333956D01*
X27939Y334010D01*
X27939Y336550D01*
X27928Y336615D01*
X27926Y336681D01*
X27908Y336724D01*
X27900Y336771D01*
X27866Y336828D01*
X27841Y336888D01*
X27810Y336923D01*
X27785Y336964D01*
X27734Y337006D01*
X27690Y337054D01*
X27648Y337076D01*
X27611Y337105D01*
X27549Y337126D01*
X27490Y337157D01*
X27436Y337165D01*
X27399Y337177D01*
X27359Y337176D01*
X27305Y337184D01*
X23495Y337184D01*
X23430Y337173D01*
X23364Y337171D01*
X23321Y337153D01*
X23274Y337145D01*
X23217Y337111D01*
X23157Y337086D01*
X23122Y337055D01*
X23081Y337030D01*
X23040Y336979D01*
X22991Y336935D01*
X22969Y336893D01*
X22940Y336856D01*
X22919Y336794D01*
X22888Y336735D01*
X22880Y336681D01*
X22868Y336644D01*
X22868Y336641D01*
X22869Y336604D01*
X22861Y336550D01*
X22861Y334010D01*
X22872Y333945D01*
X22874Y333879D01*
X22892Y333836D01*
X22900Y333789D01*
X22934Y333732D01*
X22959Y333672D01*
X22990Y333637D01*
X23015Y333596D01*
X23066Y333555D01*
X23110Y333506D01*
X23152Y333484D01*
X23189Y333455D01*
X23251Y333434D01*
X23310Y333403D01*
X23364Y333395D01*
X23401Y333383D01*
X23441Y333384D01*
X23495Y333376D01*
X27305Y333376D01*
X27370Y333387D01*
G37*
G36*
X804610Y333387D02*
X804610Y333387D01*
X804676Y333389D01*
X804719Y333407D01*
X804766Y333415D01*
X804823Y333449D01*
X804883Y333474D01*
X804918Y333505D01*
X804959Y333530D01*
X805001Y333581D01*
X805049Y333625D01*
X805071Y333667D01*
X805100Y333704D01*
X805121Y333766D01*
X805152Y333825D01*
X805160Y333879D01*
X805172Y333916D01*
X805171Y333956D01*
X805179Y334010D01*
X805179Y336550D01*
X805168Y336615D01*
X805166Y336681D01*
X805148Y336724D01*
X805140Y336771D01*
X805106Y336828D01*
X805081Y336888D01*
X805050Y336923D01*
X805025Y336964D01*
X804974Y337006D01*
X804930Y337054D01*
X804888Y337076D01*
X804851Y337105D01*
X804789Y337126D01*
X804730Y337157D01*
X804676Y337165D01*
X804639Y337177D01*
X804599Y337176D01*
X804545Y337184D01*
X800735Y337184D01*
X800670Y337173D01*
X800604Y337171D01*
X800561Y337153D01*
X800514Y337145D01*
X800457Y337111D01*
X800397Y337086D01*
X800362Y337055D01*
X800321Y337030D01*
X800280Y336979D01*
X800231Y336935D01*
X800209Y336893D01*
X800180Y336856D01*
X800159Y336794D01*
X800128Y336735D01*
X800120Y336681D01*
X800108Y336644D01*
X800108Y336641D01*
X800109Y336604D01*
X800101Y336550D01*
X800101Y334010D01*
X800112Y333945D01*
X800114Y333879D01*
X800132Y333836D01*
X800140Y333789D01*
X800174Y333732D01*
X800199Y333672D01*
X800230Y333637D01*
X800255Y333596D01*
X800306Y333555D01*
X800350Y333506D01*
X800392Y333484D01*
X800429Y333455D01*
X800491Y333434D01*
X800550Y333403D01*
X800604Y333395D01*
X800641Y333383D01*
X800681Y333384D01*
X800735Y333376D01*
X804545Y333376D01*
X804610Y333387D01*
G37*
G36*
X1322770Y333387D02*
X1322770Y333387D01*
X1322836Y333389D01*
X1322879Y333407D01*
X1322926Y333415D01*
X1322983Y333449D01*
X1323043Y333474D01*
X1323078Y333505D01*
X1323119Y333530D01*
X1323161Y333581D01*
X1323209Y333625D01*
X1323231Y333667D01*
X1323260Y333704D01*
X1323281Y333766D01*
X1323312Y333825D01*
X1323320Y333879D01*
X1323332Y333916D01*
X1323331Y333956D01*
X1323339Y334010D01*
X1323339Y336550D01*
X1323328Y336615D01*
X1323326Y336681D01*
X1323308Y336724D01*
X1323300Y336771D01*
X1323266Y336828D01*
X1323241Y336888D01*
X1323210Y336923D01*
X1323185Y336964D01*
X1323134Y337006D01*
X1323090Y337054D01*
X1323048Y337076D01*
X1323011Y337105D01*
X1322949Y337126D01*
X1322890Y337157D01*
X1322836Y337165D01*
X1322799Y337177D01*
X1322759Y337176D01*
X1322705Y337184D01*
X1318895Y337184D01*
X1318830Y337173D01*
X1318764Y337171D01*
X1318721Y337153D01*
X1318674Y337145D01*
X1318617Y337111D01*
X1318557Y337086D01*
X1318522Y337055D01*
X1318481Y337030D01*
X1318440Y336979D01*
X1318391Y336935D01*
X1318369Y336893D01*
X1318340Y336856D01*
X1318319Y336794D01*
X1318288Y336735D01*
X1318280Y336681D01*
X1318268Y336644D01*
X1318268Y336641D01*
X1318269Y336604D01*
X1318261Y336550D01*
X1318261Y334010D01*
X1318272Y333945D01*
X1318274Y333879D01*
X1318292Y333836D01*
X1318300Y333789D01*
X1318334Y333732D01*
X1318359Y333672D01*
X1318390Y333637D01*
X1318415Y333596D01*
X1318466Y333555D01*
X1318510Y333506D01*
X1318552Y333484D01*
X1318589Y333455D01*
X1318651Y333434D01*
X1318710Y333403D01*
X1318764Y333395D01*
X1318801Y333383D01*
X1318841Y333384D01*
X1318895Y333376D01*
X1322705Y333376D01*
X1322770Y333387D01*
G37*
G36*
X545530Y333387D02*
X545530Y333387D01*
X545596Y333389D01*
X545639Y333407D01*
X545686Y333415D01*
X545743Y333449D01*
X545803Y333474D01*
X545838Y333505D01*
X545879Y333530D01*
X545921Y333581D01*
X545969Y333625D01*
X545991Y333667D01*
X546020Y333704D01*
X546041Y333766D01*
X546072Y333825D01*
X546080Y333879D01*
X546092Y333916D01*
X546091Y333956D01*
X546099Y334010D01*
X546099Y336550D01*
X546088Y336615D01*
X546086Y336681D01*
X546068Y336724D01*
X546060Y336771D01*
X546026Y336828D01*
X546001Y336888D01*
X545970Y336923D01*
X545945Y336964D01*
X545894Y337006D01*
X545850Y337054D01*
X545808Y337076D01*
X545771Y337105D01*
X545709Y337126D01*
X545650Y337157D01*
X545596Y337165D01*
X545559Y337177D01*
X545519Y337176D01*
X545465Y337184D01*
X541655Y337184D01*
X541590Y337173D01*
X541524Y337171D01*
X541481Y337153D01*
X541434Y337145D01*
X541377Y337111D01*
X541317Y337086D01*
X541282Y337055D01*
X541241Y337030D01*
X541200Y336979D01*
X541151Y336935D01*
X541129Y336893D01*
X541100Y336856D01*
X541079Y336794D01*
X541048Y336735D01*
X541040Y336681D01*
X541028Y336644D01*
X541028Y336641D01*
X541029Y336604D01*
X541021Y336550D01*
X541021Y334010D01*
X541032Y333945D01*
X541034Y333879D01*
X541052Y333836D01*
X541060Y333789D01*
X541094Y333732D01*
X541119Y333672D01*
X541150Y333637D01*
X541175Y333596D01*
X541226Y333555D01*
X541270Y333506D01*
X541312Y333484D01*
X541349Y333455D01*
X541411Y333434D01*
X541470Y333403D01*
X541524Y333395D01*
X541561Y333383D01*
X541601Y333384D01*
X541655Y333376D01*
X545465Y333376D01*
X545530Y333387D01*
G37*
G36*
X1063690Y333387D02*
X1063690Y333387D01*
X1063756Y333389D01*
X1063799Y333407D01*
X1063846Y333415D01*
X1063903Y333449D01*
X1063963Y333474D01*
X1063998Y333505D01*
X1064039Y333530D01*
X1064081Y333581D01*
X1064129Y333625D01*
X1064151Y333667D01*
X1064180Y333704D01*
X1064201Y333766D01*
X1064232Y333825D01*
X1064240Y333879D01*
X1064252Y333916D01*
X1064251Y333956D01*
X1064259Y334010D01*
X1064259Y336550D01*
X1064248Y336615D01*
X1064246Y336681D01*
X1064228Y336724D01*
X1064220Y336771D01*
X1064186Y336828D01*
X1064161Y336888D01*
X1064130Y336923D01*
X1064105Y336964D01*
X1064054Y337006D01*
X1064010Y337054D01*
X1063968Y337076D01*
X1063931Y337105D01*
X1063869Y337126D01*
X1063810Y337157D01*
X1063756Y337165D01*
X1063719Y337177D01*
X1063679Y337176D01*
X1063625Y337184D01*
X1059815Y337184D01*
X1059750Y337173D01*
X1059684Y337171D01*
X1059641Y337153D01*
X1059594Y337145D01*
X1059537Y337111D01*
X1059477Y337086D01*
X1059442Y337055D01*
X1059401Y337030D01*
X1059360Y336979D01*
X1059311Y336935D01*
X1059289Y336893D01*
X1059260Y336856D01*
X1059239Y336794D01*
X1059208Y336735D01*
X1059200Y336681D01*
X1059188Y336644D01*
X1059188Y336641D01*
X1059189Y336604D01*
X1059181Y336550D01*
X1059181Y334010D01*
X1059192Y333945D01*
X1059194Y333879D01*
X1059212Y333836D01*
X1059220Y333789D01*
X1059254Y333732D01*
X1059279Y333672D01*
X1059310Y333637D01*
X1059335Y333596D01*
X1059386Y333555D01*
X1059430Y333506D01*
X1059472Y333484D01*
X1059509Y333455D01*
X1059571Y333434D01*
X1059630Y333403D01*
X1059684Y333395D01*
X1059721Y333383D01*
X1059761Y333384D01*
X1059815Y333376D01*
X1063625Y333376D01*
X1063690Y333387D01*
G37*
G36*
X286450Y333387D02*
X286450Y333387D01*
X286516Y333389D01*
X286559Y333407D01*
X286606Y333415D01*
X286663Y333449D01*
X286723Y333474D01*
X286758Y333505D01*
X286799Y333530D01*
X286841Y333581D01*
X286889Y333625D01*
X286911Y333667D01*
X286940Y333704D01*
X286961Y333766D01*
X286992Y333825D01*
X287000Y333879D01*
X287012Y333916D01*
X287011Y333956D01*
X287019Y334010D01*
X287019Y336550D01*
X287008Y336615D01*
X287006Y336681D01*
X286988Y336724D01*
X286980Y336771D01*
X286946Y336828D01*
X286921Y336888D01*
X286890Y336923D01*
X286865Y336964D01*
X286814Y337006D01*
X286770Y337054D01*
X286728Y337076D01*
X286691Y337105D01*
X286629Y337126D01*
X286570Y337157D01*
X286516Y337165D01*
X286479Y337177D01*
X286439Y337176D01*
X286385Y337184D01*
X282575Y337184D01*
X282510Y337173D01*
X282444Y337171D01*
X282401Y337153D01*
X282354Y337145D01*
X282297Y337111D01*
X282237Y337086D01*
X282202Y337055D01*
X282161Y337030D01*
X282120Y336979D01*
X282071Y336935D01*
X282049Y336893D01*
X282020Y336856D01*
X281999Y336794D01*
X281968Y336735D01*
X281960Y336681D01*
X281948Y336644D01*
X281948Y336641D01*
X281949Y336604D01*
X281941Y336550D01*
X281941Y334010D01*
X281952Y333945D01*
X281954Y333879D01*
X281972Y333836D01*
X281980Y333789D01*
X282014Y333732D01*
X282039Y333672D01*
X282070Y333637D01*
X282095Y333596D01*
X282146Y333555D01*
X282190Y333506D01*
X282232Y333484D01*
X282269Y333455D01*
X282331Y333434D01*
X282390Y333403D01*
X282444Y333395D01*
X282481Y333383D01*
X282521Y333384D01*
X282575Y333376D01*
X286385Y333376D01*
X286450Y333387D01*
G37*
G36*
X286450Y592467D02*
X286450Y592467D01*
X286516Y592469D01*
X286559Y592487D01*
X286606Y592495D01*
X286663Y592529D01*
X286723Y592554D01*
X286758Y592585D01*
X286799Y592610D01*
X286841Y592661D01*
X286889Y592705D01*
X286911Y592747D01*
X286940Y592784D01*
X286961Y592846D01*
X286992Y592905D01*
X287000Y592959D01*
X287012Y592996D01*
X287011Y593036D01*
X287019Y593090D01*
X287019Y595630D01*
X287008Y595695D01*
X287006Y595761D01*
X286988Y595804D01*
X286980Y595851D01*
X286946Y595908D01*
X286921Y595968D01*
X286890Y596003D01*
X286865Y596044D01*
X286814Y596086D01*
X286770Y596134D01*
X286728Y596156D01*
X286691Y596185D01*
X286629Y596206D01*
X286570Y596237D01*
X286516Y596245D01*
X286479Y596257D01*
X286439Y596256D01*
X286385Y596264D01*
X282575Y596264D01*
X282510Y596253D01*
X282444Y596251D01*
X282401Y596233D01*
X282354Y596225D01*
X282297Y596191D01*
X282237Y596166D01*
X282202Y596135D01*
X282161Y596110D01*
X282120Y596059D01*
X282071Y596015D01*
X282049Y595973D01*
X282020Y595936D01*
X281999Y595874D01*
X281968Y595815D01*
X281960Y595761D01*
X281948Y595724D01*
X281948Y595721D01*
X281949Y595684D01*
X281941Y595630D01*
X281941Y593090D01*
X281952Y593025D01*
X281954Y592959D01*
X281972Y592916D01*
X281980Y592869D01*
X282014Y592812D01*
X282039Y592752D01*
X282070Y592717D01*
X282095Y592676D01*
X282146Y592635D01*
X282190Y592586D01*
X282232Y592564D01*
X282269Y592535D01*
X282331Y592514D01*
X282390Y592483D01*
X282444Y592475D01*
X282481Y592463D01*
X282521Y592464D01*
X282575Y592456D01*
X286385Y592456D01*
X286450Y592467D01*
G37*
G36*
X1063690Y592467D02*
X1063690Y592467D01*
X1063756Y592469D01*
X1063799Y592487D01*
X1063846Y592495D01*
X1063903Y592529D01*
X1063963Y592554D01*
X1063998Y592585D01*
X1064039Y592610D01*
X1064081Y592661D01*
X1064129Y592705D01*
X1064151Y592747D01*
X1064180Y592784D01*
X1064201Y592846D01*
X1064232Y592905D01*
X1064240Y592959D01*
X1064252Y592996D01*
X1064251Y593036D01*
X1064259Y593090D01*
X1064259Y595630D01*
X1064248Y595695D01*
X1064246Y595761D01*
X1064228Y595804D01*
X1064220Y595851D01*
X1064186Y595908D01*
X1064161Y595968D01*
X1064130Y596003D01*
X1064105Y596044D01*
X1064054Y596086D01*
X1064010Y596134D01*
X1063968Y596156D01*
X1063931Y596185D01*
X1063869Y596206D01*
X1063810Y596237D01*
X1063756Y596245D01*
X1063719Y596257D01*
X1063679Y596256D01*
X1063625Y596264D01*
X1059815Y596264D01*
X1059750Y596253D01*
X1059684Y596251D01*
X1059641Y596233D01*
X1059594Y596225D01*
X1059537Y596191D01*
X1059477Y596166D01*
X1059442Y596135D01*
X1059401Y596110D01*
X1059360Y596059D01*
X1059311Y596015D01*
X1059289Y595973D01*
X1059260Y595936D01*
X1059239Y595874D01*
X1059208Y595815D01*
X1059200Y595761D01*
X1059188Y595724D01*
X1059188Y595721D01*
X1059189Y595684D01*
X1059181Y595630D01*
X1059181Y593090D01*
X1059192Y593025D01*
X1059194Y592959D01*
X1059212Y592916D01*
X1059220Y592869D01*
X1059254Y592812D01*
X1059279Y592752D01*
X1059310Y592717D01*
X1059335Y592676D01*
X1059386Y592635D01*
X1059430Y592586D01*
X1059472Y592564D01*
X1059509Y592535D01*
X1059571Y592514D01*
X1059630Y592483D01*
X1059684Y592475D01*
X1059721Y592463D01*
X1059761Y592464D01*
X1059815Y592456D01*
X1063625Y592456D01*
X1063690Y592467D01*
G37*
G36*
X27370Y592467D02*
X27370Y592467D01*
X27436Y592469D01*
X27479Y592487D01*
X27526Y592495D01*
X27583Y592529D01*
X27643Y592554D01*
X27678Y592585D01*
X27719Y592610D01*
X27761Y592661D01*
X27809Y592705D01*
X27831Y592747D01*
X27860Y592784D01*
X27881Y592846D01*
X27912Y592905D01*
X27920Y592959D01*
X27932Y592996D01*
X27931Y593036D01*
X27939Y593090D01*
X27939Y595630D01*
X27928Y595695D01*
X27926Y595761D01*
X27908Y595804D01*
X27900Y595851D01*
X27866Y595908D01*
X27841Y595968D01*
X27810Y596003D01*
X27785Y596044D01*
X27734Y596086D01*
X27690Y596134D01*
X27648Y596156D01*
X27611Y596185D01*
X27549Y596206D01*
X27490Y596237D01*
X27436Y596245D01*
X27399Y596257D01*
X27359Y596256D01*
X27305Y596264D01*
X23495Y596264D01*
X23430Y596253D01*
X23364Y596251D01*
X23321Y596233D01*
X23274Y596225D01*
X23217Y596191D01*
X23157Y596166D01*
X23122Y596135D01*
X23081Y596110D01*
X23040Y596059D01*
X22991Y596015D01*
X22969Y595973D01*
X22940Y595936D01*
X22919Y595874D01*
X22888Y595815D01*
X22880Y595761D01*
X22868Y595724D01*
X22868Y595721D01*
X22869Y595684D01*
X22861Y595630D01*
X22861Y593090D01*
X22872Y593025D01*
X22874Y592959D01*
X22892Y592916D01*
X22900Y592869D01*
X22934Y592812D01*
X22959Y592752D01*
X22990Y592717D01*
X23015Y592676D01*
X23066Y592635D01*
X23110Y592586D01*
X23152Y592564D01*
X23189Y592535D01*
X23251Y592514D01*
X23310Y592483D01*
X23364Y592475D01*
X23401Y592463D01*
X23441Y592464D01*
X23495Y592456D01*
X27305Y592456D01*
X27370Y592467D01*
G37*
G36*
X545530Y592467D02*
X545530Y592467D01*
X545596Y592469D01*
X545639Y592487D01*
X545686Y592495D01*
X545743Y592529D01*
X545803Y592554D01*
X545838Y592585D01*
X545879Y592610D01*
X545921Y592661D01*
X545969Y592705D01*
X545991Y592747D01*
X546020Y592784D01*
X546041Y592846D01*
X546072Y592905D01*
X546080Y592959D01*
X546092Y592996D01*
X546091Y593036D01*
X546099Y593090D01*
X546099Y595630D01*
X546088Y595695D01*
X546086Y595761D01*
X546068Y595804D01*
X546060Y595851D01*
X546026Y595908D01*
X546001Y595968D01*
X545970Y596003D01*
X545945Y596044D01*
X545894Y596086D01*
X545850Y596134D01*
X545808Y596156D01*
X545771Y596185D01*
X545709Y596206D01*
X545650Y596237D01*
X545596Y596245D01*
X545559Y596257D01*
X545519Y596256D01*
X545465Y596264D01*
X541655Y596264D01*
X541590Y596253D01*
X541524Y596251D01*
X541481Y596233D01*
X541434Y596225D01*
X541377Y596191D01*
X541317Y596166D01*
X541282Y596135D01*
X541241Y596110D01*
X541200Y596059D01*
X541151Y596015D01*
X541129Y595973D01*
X541100Y595936D01*
X541079Y595874D01*
X541048Y595815D01*
X541040Y595761D01*
X541028Y595724D01*
X541028Y595721D01*
X541029Y595684D01*
X541021Y595630D01*
X541021Y593090D01*
X541032Y593025D01*
X541034Y592959D01*
X541052Y592916D01*
X541060Y592869D01*
X541094Y592812D01*
X541119Y592752D01*
X541150Y592717D01*
X541175Y592676D01*
X541226Y592635D01*
X541270Y592586D01*
X541312Y592564D01*
X541349Y592535D01*
X541411Y592514D01*
X541470Y592483D01*
X541524Y592475D01*
X541561Y592463D01*
X541601Y592464D01*
X541655Y592456D01*
X545465Y592456D01*
X545530Y592467D01*
G37*
G36*
X804610Y592467D02*
X804610Y592467D01*
X804676Y592469D01*
X804719Y592487D01*
X804766Y592495D01*
X804823Y592529D01*
X804883Y592554D01*
X804918Y592585D01*
X804959Y592610D01*
X805001Y592661D01*
X805049Y592705D01*
X805071Y592747D01*
X805100Y592784D01*
X805121Y592846D01*
X805152Y592905D01*
X805160Y592959D01*
X805172Y592996D01*
X805171Y593036D01*
X805179Y593090D01*
X805179Y595630D01*
X805168Y595695D01*
X805166Y595761D01*
X805148Y595804D01*
X805140Y595851D01*
X805106Y595908D01*
X805081Y595968D01*
X805050Y596003D01*
X805025Y596044D01*
X804974Y596086D01*
X804930Y596134D01*
X804888Y596156D01*
X804851Y596185D01*
X804789Y596206D01*
X804730Y596237D01*
X804676Y596245D01*
X804639Y596257D01*
X804599Y596256D01*
X804545Y596264D01*
X800735Y596264D01*
X800670Y596253D01*
X800604Y596251D01*
X800561Y596233D01*
X800514Y596225D01*
X800457Y596191D01*
X800397Y596166D01*
X800362Y596135D01*
X800321Y596110D01*
X800280Y596059D01*
X800231Y596015D01*
X800209Y595973D01*
X800180Y595936D01*
X800159Y595874D01*
X800128Y595815D01*
X800120Y595761D01*
X800108Y595724D01*
X800108Y595721D01*
X800109Y595684D01*
X800101Y595630D01*
X800101Y593090D01*
X800112Y593025D01*
X800114Y592959D01*
X800132Y592916D01*
X800140Y592869D01*
X800174Y592812D01*
X800199Y592752D01*
X800230Y592717D01*
X800255Y592676D01*
X800306Y592635D01*
X800350Y592586D01*
X800392Y592564D01*
X800429Y592535D01*
X800491Y592514D01*
X800550Y592483D01*
X800604Y592475D01*
X800641Y592463D01*
X800681Y592464D01*
X800735Y592456D01*
X804545Y592456D01*
X804610Y592467D01*
G37*
G36*
X1322770Y592467D02*
X1322770Y592467D01*
X1322836Y592469D01*
X1322879Y592487D01*
X1322926Y592495D01*
X1322983Y592529D01*
X1323043Y592554D01*
X1323078Y592585D01*
X1323119Y592610D01*
X1323161Y592661D01*
X1323209Y592705D01*
X1323231Y592747D01*
X1323260Y592784D01*
X1323281Y592846D01*
X1323312Y592905D01*
X1323320Y592959D01*
X1323332Y592996D01*
X1323331Y593036D01*
X1323339Y593090D01*
X1323339Y595630D01*
X1323328Y595695D01*
X1323326Y595761D01*
X1323308Y595804D01*
X1323300Y595851D01*
X1323266Y595908D01*
X1323241Y595968D01*
X1323210Y596003D01*
X1323185Y596044D01*
X1323134Y596086D01*
X1323090Y596134D01*
X1323048Y596156D01*
X1323011Y596185D01*
X1322949Y596206D01*
X1322890Y596237D01*
X1322836Y596245D01*
X1322799Y596257D01*
X1322759Y596256D01*
X1322705Y596264D01*
X1318895Y596264D01*
X1318830Y596253D01*
X1318764Y596251D01*
X1318721Y596233D01*
X1318674Y596225D01*
X1318617Y596191D01*
X1318557Y596166D01*
X1318522Y596135D01*
X1318481Y596110D01*
X1318440Y596059D01*
X1318391Y596015D01*
X1318369Y595973D01*
X1318340Y595936D01*
X1318319Y595874D01*
X1318288Y595815D01*
X1318280Y595761D01*
X1318268Y595724D01*
X1318268Y595721D01*
X1318269Y595684D01*
X1318261Y595630D01*
X1318261Y593090D01*
X1318272Y593025D01*
X1318274Y592959D01*
X1318292Y592916D01*
X1318300Y592869D01*
X1318334Y592812D01*
X1318359Y592752D01*
X1318390Y592717D01*
X1318415Y592676D01*
X1318466Y592635D01*
X1318510Y592586D01*
X1318552Y592564D01*
X1318589Y592535D01*
X1318651Y592514D01*
X1318710Y592483D01*
X1318764Y592475D01*
X1318801Y592463D01*
X1318841Y592464D01*
X1318895Y592456D01*
X1322705Y592456D01*
X1322770Y592467D01*
G37*
G36*
X804610Y74307D02*
X804610Y74307D01*
X804676Y74309D01*
X804719Y74327D01*
X804766Y74335D01*
X804823Y74369D01*
X804883Y74394D01*
X804918Y74425D01*
X804959Y74450D01*
X805001Y74501D01*
X805049Y74545D01*
X805071Y74587D01*
X805100Y74624D01*
X805121Y74686D01*
X805152Y74745D01*
X805160Y74799D01*
X805172Y74836D01*
X805171Y74876D01*
X805179Y74930D01*
X805179Y77470D01*
X805168Y77535D01*
X805166Y77601D01*
X805148Y77644D01*
X805140Y77691D01*
X805106Y77748D01*
X805081Y77808D01*
X805050Y77843D01*
X805025Y77884D01*
X804974Y77926D01*
X804930Y77974D01*
X804888Y77996D01*
X804851Y78025D01*
X804789Y78046D01*
X804730Y78077D01*
X804676Y78085D01*
X804639Y78097D01*
X804599Y78096D01*
X804545Y78104D01*
X800735Y78104D01*
X800670Y78093D01*
X800604Y78091D01*
X800561Y78073D01*
X800514Y78065D01*
X800457Y78031D01*
X800397Y78006D01*
X800362Y77975D01*
X800321Y77950D01*
X800280Y77899D01*
X800231Y77855D01*
X800209Y77813D01*
X800180Y77776D01*
X800159Y77714D01*
X800128Y77655D01*
X800120Y77601D01*
X800108Y77564D01*
X800108Y77561D01*
X800109Y77524D01*
X800101Y77470D01*
X800101Y74930D01*
X800112Y74865D01*
X800114Y74799D01*
X800132Y74756D01*
X800140Y74709D01*
X800174Y74652D01*
X800199Y74592D01*
X800230Y74557D01*
X800255Y74516D01*
X800306Y74475D01*
X800350Y74426D01*
X800392Y74404D01*
X800429Y74375D01*
X800491Y74354D01*
X800550Y74323D01*
X800604Y74315D01*
X800641Y74303D01*
X800681Y74304D01*
X800735Y74296D01*
X804545Y74296D01*
X804610Y74307D01*
G37*
G36*
X1063690Y74307D02*
X1063690Y74307D01*
X1063756Y74309D01*
X1063799Y74327D01*
X1063846Y74335D01*
X1063903Y74369D01*
X1063963Y74394D01*
X1063998Y74425D01*
X1064039Y74450D01*
X1064081Y74501D01*
X1064129Y74545D01*
X1064151Y74587D01*
X1064180Y74624D01*
X1064201Y74686D01*
X1064232Y74745D01*
X1064240Y74799D01*
X1064252Y74836D01*
X1064251Y74876D01*
X1064259Y74930D01*
X1064259Y77470D01*
X1064248Y77535D01*
X1064246Y77601D01*
X1064228Y77644D01*
X1064220Y77691D01*
X1064186Y77748D01*
X1064161Y77808D01*
X1064130Y77843D01*
X1064105Y77884D01*
X1064054Y77926D01*
X1064010Y77974D01*
X1063968Y77996D01*
X1063931Y78025D01*
X1063869Y78046D01*
X1063810Y78077D01*
X1063756Y78085D01*
X1063719Y78097D01*
X1063679Y78096D01*
X1063625Y78104D01*
X1059815Y78104D01*
X1059750Y78093D01*
X1059684Y78091D01*
X1059641Y78073D01*
X1059594Y78065D01*
X1059537Y78031D01*
X1059477Y78006D01*
X1059442Y77975D01*
X1059401Y77950D01*
X1059360Y77899D01*
X1059311Y77855D01*
X1059289Y77813D01*
X1059260Y77776D01*
X1059239Y77714D01*
X1059208Y77655D01*
X1059200Y77601D01*
X1059188Y77564D01*
X1059188Y77561D01*
X1059189Y77524D01*
X1059181Y77470D01*
X1059181Y74930D01*
X1059192Y74865D01*
X1059194Y74799D01*
X1059212Y74756D01*
X1059220Y74709D01*
X1059254Y74652D01*
X1059279Y74592D01*
X1059310Y74557D01*
X1059335Y74516D01*
X1059386Y74475D01*
X1059430Y74426D01*
X1059472Y74404D01*
X1059509Y74375D01*
X1059571Y74354D01*
X1059630Y74323D01*
X1059684Y74315D01*
X1059721Y74303D01*
X1059761Y74304D01*
X1059815Y74296D01*
X1063625Y74296D01*
X1063690Y74307D01*
G37*
G36*
X286450Y74307D02*
X286450Y74307D01*
X286516Y74309D01*
X286559Y74327D01*
X286606Y74335D01*
X286663Y74369D01*
X286723Y74394D01*
X286758Y74425D01*
X286799Y74450D01*
X286841Y74501D01*
X286889Y74545D01*
X286911Y74587D01*
X286940Y74624D01*
X286961Y74686D01*
X286992Y74745D01*
X287000Y74799D01*
X287012Y74836D01*
X287011Y74876D01*
X287019Y74930D01*
X287019Y77470D01*
X287008Y77535D01*
X287006Y77601D01*
X286988Y77644D01*
X286980Y77691D01*
X286946Y77748D01*
X286921Y77808D01*
X286890Y77843D01*
X286865Y77884D01*
X286814Y77926D01*
X286770Y77974D01*
X286728Y77996D01*
X286691Y78025D01*
X286629Y78046D01*
X286570Y78077D01*
X286516Y78085D01*
X286479Y78097D01*
X286439Y78096D01*
X286385Y78104D01*
X282575Y78104D01*
X282510Y78093D01*
X282444Y78091D01*
X282401Y78073D01*
X282354Y78065D01*
X282297Y78031D01*
X282237Y78006D01*
X282202Y77975D01*
X282161Y77950D01*
X282120Y77899D01*
X282071Y77855D01*
X282049Y77813D01*
X282020Y77776D01*
X281999Y77714D01*
X281968Y77655D01*
X281960Y77601D01*
X281948Y77564D01*
X281948Y77561D01*
X281949Y77524D01*
X281941Y77470D01*
X281941Y74930D01*
X281952Y74865D01*
X281954Y74799D01*
X281972Y74756D01*
X281980Y74709D01*
X282014Y74652D01*
X282039Y74592D01*
X282070Y74557D01*
X282095Y74516D01*
X282146Y74475D01*
X282190Y74426D01*
X282232Y74404D01*
X282269Y74375D01*
X282331Y74354D01*
X282390Y74323D01*
X282444Y74315D01*
X282481Y74303D01*
X282521Y74304D01*
X282575Y74296D01*
X286385Y74296D01*
X286450Y74307D01*
G37*
G36*
X545530Y74307D02*
X545530Y74307D01*
X545596Y74309D01*
X545639Y74327D01*
X545686Y74335D01*
X545743Y74369D01*
X545803Y74394D01*
X545838Y74425D01*
X545879Y74450D01*
X545921Y74501D01*
X545969Y74545D01*
X545991Y74587D01*
X546020Y74624D01*
X546041Y74686D01*
X546072Y74745D01*
X546080Y74799D01*
X546092Y74836D01*
X546091Y74876D01*
X546099Y74930D01*
X546099Y77470D01*
X546088Y77535D01*
X546086Y77601D01*
X546068Y77644D01*
X546060Y77691D01*
X546026Y77748D01*
X546001Y77808D01*
X545970Y77843D01*
X545945Y77884D01*
X545894Y77926D01*
X545850Y77974D01*
X545808Y77996D01*
X545771Y78025D01*
X545709Y78046D01*
X545650Y78077D01*
X545596Y78085D01*
X545559Y78097D01*
X545519Y78096D01*
X545465Y78104D01*
X541655Y78104D01*
X541590Y78093D01*
X541524Y78091D01*
X541481Y78073D01*
X541434Y78065D01*
X541377Y78031D01*
X541317Y78006D01*
X541282Y77975D01*
X541241Y77950D01*
X541200Y77899D01*
X541151Y77855D01*
X541129Y77813D01*
X541100Y77776D01*
X541079Y77714D01*
X541048Y77655D01*
X541040Y77601D01*
X541028Y77564D01*
X541028Y77561D01*
X541029Y77524D01*
X541021Y77470D01*
X541021Y74930D01*
X541032Y74865D01*
X541034Y74799D01*
X541052Y74756D01*
X541060Y74709D01*
X541094Y74652D01*
X541119Y74592D01*
X541150Y74557D01*
X541175Y74516D01*
X541226Y74475D01*
X541270Y74426D01*
X541312Y74404D01*
X541349Y74375D01*
X541411Y74354D01*
X541470Y74323D01*
X541524Y74315D01*
X541561Y74303D01*
X541601Y74304D01*
X541655Y74296D01*
X545465Y74296D01*
X545530Y74307D01*
G37*
G36*
X1322770Y74307D02*
X1322770Y74307D01*
X1322836Y74309D01*
X1322879Y74327D01*
X1322926Y74335D01*
X1322983Y74369D01*
X1323043Y74394D01*
X1323078Y74425D01*
X1323119Y74450D01*
X1323161Y74501D01*
X1323209Y74545D01*
X1323231Y74587D01*
X1323260Y74624D01*
X1323281Y74686D01*
X1323312Y74745D01*
X1323320Y74799D01*
X1323332Y74836D01*
X1323331Y74876D01*
X1323339Y74930D01*
X1323339Y77470D01*
X1323328Y77535D01*
X1323326Y77601D01*
X1323308Y77644D01*
X1323300Y77691D01*
X1323266Y77748D01*
X1323241Y77808D01*
X1323210Y77843D01*
X1323185Y77884D01*
X1323134Y77926D01*
X1323090Y77974D01*
X1323048Y77996D01*
X1323011Y78025D01*
X1322949Y78046D01*
X1322890Y78077D01*
X1322836Y78085D01*
X1322799Y78097D01*
X1322759Y78096D01*
X1322705Y78104D01*
X1318895Y78104D01*
X1318830Y78093D01*
X1318764Y78091D01*
X1318721Y78073D01*
X1318674Y78065D01*
X1318617Y78031D01*
X1318557Y78006D01*
X1318522Y77975D01*
X1318481Y77950D01*
X1318440Y77899D01*
X1318391Y77855D01*
X1318369Y77813D01*
X1318340Y77776D01*
X1318319Y77714D01*
X1318288Y77655D01*
X1318280Y77601D01*
X1318268Y77564D01*
X1318268Y77561D01*
X1318269Y77524D01*
X1318261Y77470D01*
X1318261Y74930D01*
X1318272Y74865D01*
X1318274Y74799D01*
X1318292Y74756D01*
X1318300Y74709D01*
X1318334Y74652D01*
X1318359Y74592D01*
X1318390Y74557D01*
X1318415Y74516D01*
X1318466Y74475D01*
X1318510Y74426D01*
X1318552Y74404D01*
X1318589Y74375D01*
X1318651Y74354D01*
X1318710Y74323D01*
X1318764Y74315D01*
X1318801Y74303D01*
X1318841Y74304D01*
X1318895Y74296D01*
X1322705Y74296D01*
X1322770Y74307D01*
G37*
G36*
X27370Y74307D02*
X27370Y74307D01*
X27436Y74309D01*
X27479Y74327D01*
X27526Y74335D01*
X27583Y74369D01*
X27643Y74394D01*
X27678Y74425D01*
X27719Y74450D01*
X27761Y74501D01*
X27809Y74545D01*
X27831Y74587D01*
X27860Y74624D01*
X27881Y74686D01*
X27912Y74745D01*
X27920Y74799D01*
X27932Y74836D01*
X27931Y74876D01*
X27939Y74930D01*
X27939Y77470D01*
X27928Y77535D01*
X27926Y77601D01*
X27908Y77644D01*
X27900Y77691D01*
X27866Y77748D01*
X27841Y77808D01*
X27810Y77843D01*
X27785Y77884D01*
X27734Y77926D01*
X27690Y77974D01*
X27648Y77996D01*
X27611Y78025D01*
X27549Y78046D01*
X27490Y78077D01*
X27436Y78085D01*
X27399Y78097D01*
X27359Y78096D01*
X27305Y78104D01*
X23495Y78104D01*
X23430Y78093D01*
X23364Y78091D01*
X23321Y78073D01*
X23274Y78065D01*
X23217Y78031D01*
X23157Y78006D01*
X23122Y77975D01*
X23081Y77950D01*
X23040Y77899D01*
X22991Y77855D01*
X22969Y77813D01*
X22940Y77776D01*
X22919Y77714D01*
X22888Y77655D01*
X22880Y77601D01*
X22868Y77564D01*
X22868Y77561D01*
X22869Y77524D01*
X22861Y77470D01*
X22861Y74930D01*
X22872Y74865D01*
X22874Y74799D01*
X22892Y74756D01*
X22900Y74709D01*
X22934Y74652D01*
X22959Y74592D01*
X22990Y74557D01*
X23015Y74516D01*
X23066Y74475D01*
X23110Y74426D01*
X23152Y74404D01*
X23189Y74375D01*
X23251Y74354D01*
X23310Y74323D01*
X23364Y74315D01*
X23401Y74303D01*
X23441Y74304D01*
X23495Y74296D01*
X27305Y74296D01*
X27370Y74307D01*
G37*
D10*
X25400Y228600D03*
X228600Y228600D03*
D11*
X146556Y96395D02*
X146556Y90803D01*
X146556Y96395D02*
X158244Y96395D01*
X158244Y90803D01*
X146556Y90803D01*
X146556Y92972D02*
X158244Y92972D01*
X158244Y95141D02*
X146556Y95141D01*
X146556Y85981D02*
X146556Y80389D01*
X146556Y85981D02*
X158244Y85981D01*
X158244Y80389D01*
X146556Y80389D01*
X146556Y82558D02*
X158244Y82558D01*
X158244Y84727D02*
X146556Y84727D01*
X146556Y75567D02*
X146556Y69975D01*
X146556Y75567D02*
X158244Y75567D01*
X158244Y69975D01*
X146556Y69975D01*
X146556Y72144D02*
X158244Y72144D01*
X158244Y74313D02*
X146556Y74313D01*
D12*
X88900Y12700D03*
X114300Y12700D03*
X139700Y12700D03*
X165100Y12700D03*
D13*
X7620Y246380D03*
X246380Y7620D03*
D11*
X22989Y70356D02*
X17397Y70356D01*
X17397Y82044D01*
X22989Y82044D01*
X22989Y70356D01*
X22989Y72525D02*
X17397Y72525D01*
X17397Y74694D02*
X22989Y74694D01*
X22989Y76863D02*
X17397Y76863D01*
X17397Y79032D02*
X22989Y79032D01*
X22989Y81201D02*
X17397Y81201D01*
X27811Y70356D02*
X33403Y70356D01*
X27811Y70356D02*
X27811Y82044D01*
X33403Y82044D01*
X33403Y70356D01*
X33403Y72525D02*
X27811Y72525D01*
X27811Y74694D02*
X33403Y74694D01*
X33403Y76863D02*
X27811Y76863D01*
X27811Y79032D02*
X33403Y79032D01*
X33403Y81201D02*
X27811Y81201D01*
D10*
X228600Y25400D03*
X25400Y25400D03*
X284480Y228600D03*
X487680Y228600D03*
D11*
X405636Y96395D02*
X405636Y90803D01*
X405636Y96395D02*
X417324Y96395D01*
X417324Y90803D01*
X405636Y90803D01*
X405636Y92972D02*
X417324Y92972D01*
X417324Y95141D02*
X405636Y95141D01*
X405636Y85981D02*
X405636Y80389D01*
X405636Y85981D02*
X417324Y85981D01*
X417324Y80389D01*
X405636Y80389D01*
X405636Y82558D02*
X417324Y82558D01*
X417324Y84727D02*
X405636Y84727D01*
X405636Y75567D02*
X405636Y69975D01*
X405636Y75567D02*
X417324Y75567D01*
X417324Y69975D01*
X405636Y69975D01*
X405636Y72144D02*
X417324Y72144D01*
X417324Y74313D02*
X405636Y74313D01*
D12*
X347980Y12700D03*
X373380Y12700D03*
X398780Y12700D03*
X424180Y12700D03*
D13*
X266700Y246380D03*
X505460Y7620D03*
D11*
X282069Y70356D02*
X276477Y70356D01*
X276477Y82044D01*
X282069Y82044D01*
X282069Y70356D01*
X282069Y72525D02*
X276477Y72525D01*
X276477Y74694D02*
X282069Y74694D01*
X282069Y76863D02*
X276477Y76863D01*
X276477Y79032D02*
X282069Y79032D01*
X282069Y81201D02*
X276477Y81201D01*
X286891Y70356D02*
X292483Y70356D01*
X286891Y70356D02*
X286891Y82044D01*
X292483Y82044D01*
X292483Y70356D01*
X292483Y72525D02*
X286891Y72525D01*
X286891Y74694D02*
X292483Y74694D01*
X292483Y76863D02*
X286891Y76863D01*
X286891Y79032D02*
X292483Y79032D01*
X292483Y81201D02*
X286891Y81201D01*
D10*
X487680Y25400D03*
X284480Y25400D03*
X543560Y228600D03*
X746760Y228600D03*
D11*
X664716Y96395D02*
X664716Y90803D01*
X664716Y96395D02*
X676404Y96395D01*
X676404Y90803D01*
X664716Y90803D01*
X664716Y92972D02*
X676404Y92972D01*
X676404Y95141D02*
X664716Y95141D01*
X664716Y85981D02*
X664716Y80389D01*
X664716Y85981D02*
X676404Y85981D01*
X676404Y80389D01*
X664716Y80389D01*
X664716Y82558D02*
X676404Y82558D01*
X676404Y84727D02*
X664716Y84727D01*
X664716Y75567D02*
X664716Y69975D01*
X664716Y75567D02*
X676404Y75567D01*
X676404Y69975D01*
X664716Y69975D01*
X664716Y72144D02*
X676404Y72144D01*
X676404Y74313D02*
X664716Y74313D01*
D12*
X607060Y12700D03*
X632460Y12700D03*
X657860Y12700D03*
X683260Y12700D03*
D13*
X525780Y246380D03*
X764540Y7620D03*
D11*
X541149Y70356D02*
X535557Y70356D01*
X535557Y82044D01*
X541149Y82044D01*
X541149Y70356D01*
X541149Y72525D02*
X535557Y72525D01*
X535557Y74694D02*
X541149Y74694D01*
X541149Y76863D02*
X535557Y76863D01*
X535557Y79032D02*
X541149Y79032D01*
X541149Y81201D02*
X535557Y81201D01*
X545971Y70356D02*
X551563Y70356D01*
X545971Y70356D02*
X545971Y82044D01*
X551563Y82044D01*
X551563Y70356D01*
X551563Y72525D02*
X545971Y72525D01*
X545971Y74694D02*
X551563Y74694D01*
X551563Y76863D02*
X545971Y76863D01*
X545971Y79032D02*
X551563Y79032D01*
X551563Y81201D02*
X545971Y81201D01*
D10*
X746760Y25400D03*
X543560Y25400D03*
X802640Y228600D03*
X1005840Y228600D03*
D11*
X923796Y96395D02*
X923796Y90803D01*
X923796Y96395D02*
X935484Y96395D01*
X935484Y90803D01*
X923796Y90803D01*
X923796Y92972D02*
X935484Y92972D01*
X935484Y95141D02*
X923796Y95141D01*
X923796Y85981D02*
X923796Y80389D01*
X923796Y85981D02*
X935484Y85981D01*
X935484Y80389D01*
X923796Y80389D01*
X923796Y82558D02*
X935484Y82558D01*
X935484Y84727D02*
X923796Y84727D01*
X923796Y75567D02*
X923796Y69975D01*
X923796Y75567D02*
X935484Y75567D01*
X935484Y69975D01*
X923796Y69975D01*
X923796Y72144D02*
X935484Y72144D01*
X935484Y74313D02*
X923796Y74313D01*
D12*
X866140Y12700D03*
X891540Y12700D03*
X916940Y12700D03*
X942340Y12700D03*
D13*
X784860Y246380D03*
X1023620Y7620D03*
D11*
X800229Y70356D02*
X794637Y70356D01*
X794637Y82044D01*
X800229Y82044D01*
X800229Y70356D01*
X800229Y72525D02*
X794637Y72525D01*
X794637Y74694D02*
X800229Y74694D01*
X800229Y76863D02*
X794637Y76863D01*
X794637Y79032D02*
X800229Y79032D01*
X800229Y81201D02*
X794637Y81201D01*
X805051Y70356D02*
X810643Y70356D01*
X805051Y70356D02*
X805051Y82044D01*
X810643Y82044D01*
X810643Y70356D01*
X810643Y72525D02*
X805051Y72525D01*
X805051Y74694D02*
X810643Y74694D01*
X810643Y76863D02*
X805051Y76863D01*
X805051Y79032D02*
X810643Y79032D01*
X810643Y81201D02*
X805051Y81201D01*
D10*
X1005840Y25400D03*
X802640Y25400D03*
X1061720Y228600D03*
X1264920Y228600D03*
D11*
X1182876Y96395D02*
X1182876Y90803D01*
X1182876Y96395D02*
X1194564Y96395D01*
X1194564Y90803D01*
X1182876Y90803D01*
X1182876Y92972D02*
X1194564Y92972D01*
X1194564Y95141D02*
X1182876Y95141D01*
X1182876Y85981D02*
X1182876Y80389D01*
X1182876Y85981D02*
X1194564Y85981D01*
X1194564Y80389D01*
X1182876Y80389D01*
X1182876Y82558D02*
X1194564Y82558D01*
X1194564Y84727D02*
X1182876Y84727D01*
X1182876Y75567D02*
X1182876Y69975D01*
X1182876Y75567D02*
X1194564Y75567D01*
X1194564Y69975D01*
X1182876Y69975D01*
X1182876Y72144D02*
X1194564Y72144D01*
X1194564Y74313D02*
X1182876Y74313D01*
D12*
X1125220Y12700D03*
X1150620Y12700D03*
X1176020Y12700D03*
X1201420Y12700D03*
D13*
X1043940Y246380D03*
X1282700Y7620D03*
D11*
X1059309Y70356D02*
X1053717Y70356D01*
X1053717Y82044D01*
X1059309Y82044D01*
X1059309Y70356D01*
X1059309Y72525D02*
X1053717Y72525D01*
X1053717Y74694D02*
X1059309Y74694D01*
X1059309Y76863D02*
X1053717Y76863D01*
X1053717Y79032D02*
X1059309Y79032D01*
X1059309Y81201D02*
X1053717Y81201D01*
X1064131Y70356D02*
X1069723Y70356D01*
X1064131Y70356D02*
X1064131Y82044D01*
X1069723Y82044D01*
X1069723Y70356D01*
X1069723Y72525D02*
X1064131Y72525D01*
X1064131Y74694D02*
X1069723Y74694D01*
X1069723Y76863D02*
X1064131Y76863D01*
X1064131Y79032D02*
X1069723Y79032D01*
X1069723Y81201D02*
X1064131Y81201D01*
D10*
X1264920Y25400D03*
X1061720Y25400D03*
X1320800Y228600D03*
X1524000Y228600D03*
D11*
X1441956Y96395D02*
X1441956Y90803D01*
X1441956Y96395D02*
X1453644Y96395D01*
X1453644Y90803D01*
X1441956Y90803D01*
X1441956Y92972D02*
X1453644Y92972D01*
X1453644Y95141D02*
X1441956Y95141D01*
X1441956Y85981D02*
X1441956Y80389D01*
X1441956Y85981D02*
X1453644Y85981D01*
X1453644Y80389D01*
X1441956Y80389D01*
X1441956Y82558D02*
X1453644Y82558D01*
X1453644Y84727D02*
X1441956Y84727D01*
X1441956Y75567D02*
X1441956Y69975D01*
X1441956Y75567D02*
X1453644Y75567D01*
X1453644Y69975D01*
X1441956Y69975D01*
X1441956Y72144D02*
X1453644Y72144D01*
X1453644Y74313D02*
X1441956Y74313D01*
D12*
X1384300Y12700D03*
X1409700Y12700D03*
X1435100Y12700D03*
X1460500Y12700D03*
D13*
X1303020Y246380D03*
X1541780Y7620D03*
D11*
X1318389Y70356D02*
X1312797Y70356D01*
X1312797Y82044D01*
X1318389Y82044D01*
X1318389Y70356D01*
X1318389Y72525D02*
X1312797Y72525D01*
X1312797Y74694D02*
X1318389Y74694D01*
X1318389Y76863D02*
X1312797Y76863D01*
X1312797Y79032D02*
X1318389Y79032D01*
X1318389Y81201D02*
X1312797Y81201D01*
X1323211Y70356D02*
X1328803Y70356D01*
X1323211Y70356D02*
X1323211Y82044D01*
X1328803Y82044D01*
X1328803Y70356D01*
X1328803Y72525D02*
X1323211Y72525D01*
X1323211Y74694D02*
X1328803Y74694D01*
X1328803Y76863D02*
X1323211Y76863D01*
X1323211Y79032D02*
X1328803Y79032D01*
X1328803Y81201D02*
X1323211Y81201D01*
D10*
X1524000Y25400D03*
X1320800Y25400D03*
X25400Y487680D03*
X228600Y487680D03*
D11*
X146556Y355475D02*
X146556Y349883D01*
X146556Y355475D02*
X158244Y355475D01*
X158244Y349883D01*
X146556Y349883D01*
X146556Y352052D02*
X158244Y352052D01*
X158244Y354221D02*
X146556Y354221D01*
X146556Y345061D02*
X146556Y339469D01*
X146556Y345061D02*
X158244Y345061D01*
X158244Y339469D01*
X146556Y339469D01*
X146556Y341638D02*
X158244Y341638D01*
X158244Y343807D02*
X146556Y343807D01*
X146556Y334647D02*
X146556Y329055D01*
X146556Y334647D02*
X158244Y334647D01*
X158244Y329055D01*
X146556Y329055D01*
X146556Y331224D02*
X158244Y331224D01*
X158244Y333393D02*
X146556Y333393D01*
D12*
X88900Y271780D03*
X114300Y271780D03*
X139700Y271780D03*
X165100Y271780D03*
D13*
X7620Y505460D03*
X246380Y266700D03*
D11*
X22989Y329436D02*
X17397Y329436D01*
X17397Y341124D01*
X22989Y341124D01*
X22989Y329436D01*
X22989Y331605D02*
X17397Y331605D01*
X17397Y333774D02*
X22989Y333774D01*
X22989Y335943D02*
X17397Y335943D01*
X17397Y338112D02*
X22989Y338112D01*
X22989Y340281D02*
X17397Y340281D01*
X27811Y329436D02*
X33403Y329436D01*
X27811Y329436D02*
X27811Y341124D01*
X33403Y341124D01*
X33403Y329436D01*
X33403Y331605D02*
X27811Y331605D01*
X27811Y333774D02*
X33403Y333774D01*
X33403Y335943D02*
X27811Y335943D01*
X27811Y338112D02*
X33403Y338112D01*
X33403Y340281D02*
X27811Y340281D01*
D10*
X228600Y284480D03*
X25400Y284480D03*
X284480Y487680D03*
X487680Y487680D03*
D11*
X405636Y355475D02*
X405636Y349883D01*
X405636Y355475D02*
X417324Y355475D01*
X417324Y349883D01*
X405636Y349883D01*
X405636Y352052D02*
X417324Y352052D01*
X417324Y354221D02*
X405636Y354221D01*
X405636Y345061D02*
X405636Y339469D01*
X405636Y345061D02*
X417324Y345061D01*
X417324Y339469D01*
X405636Y339469D01*
X405636Y341638D02*
X417324Y341638D01*
X417324Y343807D02*
X405636Y343807D01*
X405636Y334647D02*
X405636Y329055D01*
X405636Y334647D02*
X417324Y334647D01*
X417324Y329055D01*
X405636Y329055D01*
X405636Y331224D02*
X417324Y331224D01*
X417324Y333393D02*
X405636Y333393D01*
D12*
X347980Y271780D03*
X373380Y271780D03*
X398780Y271780D03*
X424180Y271780D03*
D13*
X266700Y505460D03*
X505460Y266700D03*
D11*
X282069Y329436D02*
X276477Y329436D01*
X276477Y341124D01*
X282069Y341124D01*
X282069Y329436D01*
X282069Y331605D02*
X276477Y331605D01*
X276477Y333774D02*
X282069Y333774D01*
X282069Y335943D02*
X276477Y335943D01*
X276477Y338112D02*
X282069Y338112D01*
X282069Y340281D02*
X276477Y340281D01*
X286891Y329436D02*
X292483Y329436D01*
X286891Y329436D02*
X286891Y341124D01*
X292483Y341124D01*
X292483Y329436D01*
X292483Y331605D02*
X286891Y331605D01*
X286891Y333774D02*
X292483Y333774D01*
X292483Y335943D02*
X286891Y335943D01*
X286891Y338112D02*
X292483Y338112D01*
X292483Y340281D02*
X286891Y340281D01*
D10*
X487680Y284480D03*
X284480Y284480D03*
X543560Y487680D03*
X746760Y487680D03*
D11*
X664716Y355475D02*
X664716Y349883D01*
X664716Y355475D02*
X676404Y355475D01*
X676404Y349883D01*
X664716Y349883D01*
X664716Y352052D02*
X676404Y352052D01*
X676404Y354221D02*
X664716Y354221D01*
X664716Y345061D02*
X664716Y339469D01*
X664716Y345061D02*
X676404Y345061D01*
X676404Y339469D01*
X664716Y339469D01*
X664716Y341638D02*
X676404Y341638D01*
X676404Y343807D02*
X664716Y343807D01*
X664716Y334647D02*
X664716Y329055D01*
X664716Y334647D02*
X676404Y334647D01*
X676404Y329055D01*
X664716Y329055D01*
X664716Y331224D02*
X676404Y331224D01*
X676404Y333393D02*
X664716Y333393D01*
D12*
X607060Y271780D03*
X632460Y271780D03*
X657860Y271780D03*
X683260Y271780D03*
D13*
X525780Y505460D03*
X764540Y266700D03*
D11*
X541149Y329436D02*
X535557Y329436D01*
X535557Y341124D01*
X541149Y341124D01*
X541149Y329436D01*
X541149Y331605D02*
X535557Y331605D01*
X535557Y333774D02*
X541149Y333774D01*
X541149Y335943D02*
X535557Y335943D01*
X535557Y338112D02*
X541149Y338112D01*
X541149Y340281D02*
X535557Y340281D01*
X545971Y329436D02*
X551563Y329436D01*
X545971Y329436D02*
X545971Y341124D01*
X551563Y341124D01*
X551563Y329436D01*
X551563Y331605D02*
X545971Y331605D01*
X545971Y333774D02*
X551563Y333774D01*
X551563Y335943D02*
X545971Y335943D01*
X545971Y338112D02*
X551563Y338112D01*
X551563Y340281D02*
X545971Y340281D01*
D10*
X746760Y284480D03*
X543560Y284480D03*
X802640Y487680D03*
X1005840Y487680D03*
D11*
X923796Y355475D02*
X923796Y349883D01*
X923796Y355475D02*
X935484Y355475D01*
X935484Y349883D01*
X923796Y349883D01*
X923796Y352052D02*
X935484Y352052D01*
X935484Y354221D02*
X923796Y354221D01*
X923796Y345061D02*
X923796Y339469D01*
X923796Y345061D02*
X935484Y345061D01*
X935484Y339469D01*
X923796Y339469D01*
X923796Y341638D02*
X935484Y341638D01*
X935484Y343807D02*
X923796Y343807D01*
X923796Y334647D02*
X923796Y329055D01*
X923796Y334647D02*
X935484Y334647D01*
X935484Y329055D01*
X923796Y329055D01*
X923796Y331224D02*
X935484Y331224D01*
X935484Y333393D02*
X923796Y333393D01*
D12*
X866140Y271780D03*
X891540Y271780D03*
X916940Y271780D03*
X942340Y271780D03*
D13*
X784860Y505460D03*
X1023620Y266700D03*
D11*
X800229Y329436D02*
X794637Y329436D01*
X794637Y341124D01*
X800229Y341124D01*
X800229Y329436D01*
X800229Y331605D02*
X794637Y331605D01*
X794637Y333774D02*
X800229Y333774D01*
X800229Y335943D02*
X794637Y335943D01*
X794637Y338112D02*
X800229Y338112D01*
X800229Y340281D02*
X794637Y340281D01*
X805051Y329436D02*
X810643Y329436D01*
X805051Y329436D02*
X805051Y341124D01*
X810643Y341124D01*
X810643Y329436D01*
X810643Y331605D02*
X805051Y331605D01*
X805051Y333774D02*
X810643Y333774D01*
X810643Y335943D02*
X805051Y335943D01*
X805051Y338112D02*
X810643Y338112D01*
X810643Y340281D02*
X805051Y340281D01*
D10*
X1005840Y284480D03*
X802640Y284480D03*
X1061720Y487680D03*
X1264920Y487680D03*
D11*
X1182876Y355475D02*
X1182876Y349883D01*
X1182876Y355475D02*
X1194564Y355475D01*
X1194564Y349883D01*
X1182876Y349883D01*
X1182876Y352052D02*
X1194564Y352052D01*
X1194564Y354221D02*
X1182876Y354221D01*
X1182876Y345061D02*
X1182876Y339469D01*
X1182876Y345061D02*
X1194564Y345061D01*
X1194564Y339469D01*
X1182876Y339469D01*
X1182876Y341638D02*
X1194564Y341638D01*
X1194564Y343807D02*
X1182876Y343807D01*
X1182876Y334647D02*
X1182876Y329055D01*
X1182876Y334647D02*
X1194564Y334647D01*
X1194564Y329055D01*
X1182876Y329055D01*
X1182876Y331224D02*
X1194564Y331224D01*
X1194564Y333393D02*
X1182876Y333393D01*
D12*
X1125220Y271780D03*
X1150620Y271780D03*
X1176020Y271780D03*
X1201420Y271780D03*
D13*
X1043940Y505460D03*
X1282700Y266700D03*
D11*
X1059309Y329436D02*
X1053717Y329436D01*
X1053717Y341124D01*
X1059309Y341124D01*
X1059309Y329436D01*
X1059309Y331605D02*
X1053717Y331605D01*
X1053717Y333774D02*
X1059309Y333774D01*
X1059309Y335943D02*
X1053717Y335943D01*
X1053717Y338112D02*
X1059309Y338112D01*
X1059309Y340281D02*
X1053717Y340281D01*
X1064131Y329436D02*
X1069723Y329436D01*
X1064131Y329436D02*
X1064131Y341124D01*
X1069723Y341124D01*
X1069723Y329436D01*
X1069723Y331605D02*
X1064131Y331605D01*
X1064131Y333774D02*
X1069723Y333774D01*
X1069723Y335943D02*
X1064131Y335943D01*
X1064131Y338112D02*
X1069723Y338112D01*
X1069723Y340281D02*
X1064131Y340281D01*
D10*
X1264920Y284480D03*
X1061720Y284480D03*
X1320800Y487680D03*
X1524000Y487680D03*
D11*
X1441956Y355475D02*
X1441956Y349883D01*
X1441956Y355475D02*
X1453644Y355475D01*
X1453644Y349883D01*
X1441956Y349883D01*
X1441956Y352052D02*
X1453644Y352052D01*
X1453644Y354221D02*
X1441956Y354221D01*
X1441956Y345061D02*
X1441956Y339469D01*
X1441956Y345061D02*
X1453644Y345061D01*
X1453644Y339469D01*
X1441956Y339469D01*
X1441956Y341638D02*
X1453644Y341638D01*
X1453644Y343807D02*
X1441956Y343807D01*
X1441956Y334647D02*
X1441956Y329055D01*
X1441956Y334647D02*
X1453644Y334647D01*
X1453644Y329055D01*
X1441956Y329055D01*
X1441956Y331224D02*
X1453644Y331224D01*
X1453644Y333393D02*
X1441956Y333393D01*
D12*
X1384300Y271780D03*
X1409700Y271780D03*
X1435100Y271780D03*
X1460500Y271780D03*
D13*
X1303020Y505460D03*
X1541780Y266700D03*
D11*
X1318389Y329436D02*
X1312797Y329436D01*
X1312797Y341124D01*
X1318389Y341124D01*
X1318389Y329436D01*
X1318389Y331605D02*
X1312797Y331605D01*
X1312797Y333774D02*
X1318389Y333774D01*
X1318389Y335943D02*
X1312797Y335943D01*
X1312797Y338112D02*
X1318389Y338112D01*
X1318389Y340281D02*
X1312797Y340281D01*
X1323211Y329436D02*
X1328803Y329436D01*
X1323211Y329436D02*
X1323211Y341124D01*
X1328803Y341124D01*
X1328803Y329436D01*
X1328803Y331605D02*
X1323211Y331605D01*
X1323211Y333774D02*
X1328803Y333774D01*
X1328803Y335943D02*
X1323211Y335943D01*
X1323211Y338112D02*
X1328803Y338112D01*
X1328803Y340281D02*
X1323211Y340281D01*
D10*
X1524000Y284480D03*
X1320800Y284480D03*
X25400Y746760D03*
X228600Y746760D03*
D11*
X146556Y614555D02*
X146556Y608963D01*
X146556Y614555D02*
X158244Y614555D01*
X158244Y608963D01*
X146556Y608963D01*
X146556Y611132D02*
X158244Y611132D01*
X158244Y613301D02*
X146556Y613301D01*
X146556Y604141D02*
X146556Y598549D01*
X146556Y604141D02*
X158244Y604141D01*
X158244Y598549D01*
X146556Y598549D01*
X146556Y600718D02*
X158244Y600718D01*
X158244Y602887D02*
X146556Y602887D01*
X146556Y593727D02*
X146556Y588135D01*
X146556Y593727D02*
X158244Y593727D01*
X158244Y588135D01*
X146556Y588135D01*
X146556Y590304D02*
X158244Y590304D01*
X158244Y592473D02*
X146556Y592473D01*
D12*
X88900Y530860D03*
X114300Y530860D03*
X139700Y530860D03*
X165100Y530860D03*
D13*
X7620Y764540D03*
X246380Y525780D03*
D11*
X22989Y588516D02*
X17397Y588516D01*
X17397Y600204D01*
X22989Y600204D01*
X22989Y588516D01*
X22989Y590685D02*
X17397Y590685D01*
X17397Y592854D02*
X22989Y592854D01*
X22989Y595023D02*
X17397Y595023D01*
X17397Y597192D02*
X22989Y597192D01*
X22989Y599361D02*
X17397Y599361D01*
X27811Y588516D02*
X33403Y588516D01*
X27811Y588516D02*
X27811Y600204D01*
X33403Y600204D01*
X33403Y588516D01*
X33403Y590685D02*
X27811Y590685D01*
X27811Y592854D02*
X33403Y592854D01*
X33403Y595023D02*
X27811Y595023D01*
X27811Y597192D02*
X33403Y597192D01*
X33403Y599361D02*
X27811Y599361D01*
D10*
X228600Y543560D03*
X25400Y543560D03*
X284480Y746760D03*
X487680Y746760D03*
D11*
X405636Y614555D02*
X405636Y608963D01*
X405636Y614555D02*
X417324Y614555D01*
X417324Y608963D01*
X405636Y608963D01*
X405636Y611132D02*
X417324Y611132D01*
X417324Y613301D02*
X405636Y613301D01*
X405636Y604141D02*
X405636Y598549D01*
X405636Y604141D02*
X417324Y604141D01*
X417324Y598549D01*
X405636Y598549D01*
X405636Y600718D02*
X417324Y600718D01*
X417324Y602887D02*
X405636Y602887D01*
X405636Y593727D02*
X405636Y588135D01*
X405636Y593727D02*
X417324Y593727D01*
X417324Y588135D01*
X405636Y588135D01*
X405636Y590304D02*
X417324Y590304D01*
X417324Y592473D02*
X405636Y592473D01*
D12*
X347980Y530860D03*
X373380Y530860D03*
X398780Y530860D03*
X424180Y530860D03*
D13*
X266700Y764540D03*
X505460Y525780D03*
D11*
X282069Y588516D02*
X276477Y588516D01*
X276477Y600204D01*
X282069Y600204D01*
X282069Y588516D01*
X282069Y590685D02*
X276477Y590685D01*
X276477Y592854D02*
X282069Y592854D01*
X282069Y595023D02*
X276477Y595023D01*
X276477Y597192D02*
X282069Y597192D01*
X282069Y599361D02*
X276477Y599361D01*
X286891Y588516D02*
X292483Y588516D01*
X286891Y588516D02*
X286891Y600204D01*
X292483Y600204D01*
X292483Y588516D01*
X292483Y590685D02*
X286891Y590685D01*
X286891Y592854D02*
X292483Y592854D01*
X292483Y595023D02*
X286891Y595023D01*
X286891Y597192D02*
X292483Y597192D01*
X292483Y599361D02*
X286891Y599361D01*
D10*
X487680Y543560D03*
X284480Y543560D03*
X543560Y746760D03*
X746760Y746760D03*
D11*
X664716Y614555D02*
X664716Y608963D01*
X664716Y614555D02*
X676404Y614555D01*
X676404Y608963D01*
X664716Y608963D01*
X664716Y611132D02*
X676404Y611132D01*
X676404Y613301D02*
X664716Y613301D01*
X664716Y604141D02*
X664716Y598549D01*
X664716Y604141D02*
X676404Y604141D01*
X676404Y598549D01*
X664716Y598549D01*
X664716Y600718D02*
X676404Y600718D01*
X676404Y602887D02*
X664716Y602887D01*
X664716Y593727D02*
X664716Y588135D01*
X664716Y593727D02*
X676404Y593727D01*
X676404Y588135D01*
X664716Y588135D01*
X664716Y590304D02*
X676404Y590304D01*
X676404Y592473D02*
X664716Y592473D01*
D12*
X607060Y530860D03*
X632460Y530860D03*
X657860Y530860D03*
X683260Y530860D03*
D13*
X525780Y764540D03*
X764540Y525780D03*
D11*
X541149Y588516D02*
X535557Y588516D01*
X535557Y600204D01*
X541149Y600204D01*
X541149Y588516D01*
X541149Y590685D02*
X535557Y590685D01*
X535557Y592854D02*
X541149Y592854D01*
X541149Y595023D02*
X535557Y595023D01*
X535557Y597192D02*
X541149Y597192D01*
X541149Y599361D02*
X535557Y599361D01*
X545971Y588516D02*
X551563Y588516D01*
X545971Y588516D02*
X545971Y600204D01*
X551563Y600204D01*
X551563Y588516D01*
X551563Y590685D02*
X545971Y590685D01*
X545971Y592854D02*
X551563Y592854D01*
X551563Y595023D02*
X545971Y595023D01*
X545971Y597192D02*
X551563Y597192D01*
X551563Y599361D02*
X545971Y599361D01*
D10*
X746760Y543560D03*
X543560Y543560D03*
X802640Y746760D03*
X1005840Y746760D03*
D11*
X923796Y614555D02*
X923796Y608963D01*
X923796Y614555D02*
X935484Y614555D01*
X935484Y608963D01*
X923796Y608963D01*
X923796Y611132D02*
X935484Y611132D01*
X935484Y613301D02*
X923796Y613301D01*
X923796Y604141D02*
X923796Y598549D01*
X923796Y604141D02*
X935484Y604141D01*
X935484Y598549D01*
X923796Y598549D01*
X923796Y600718D02*
X935484Y600718D01*
X935484Y602887D02*
X923796Y602887D01*
X923796Y593727D02*
X923796Y588135D01*
X923796Y593727D02*
X935484Y593727D01*
X935484Y588135D01*
X923796Y588135D01*
X923796Y590304D02*
X935484Y590304D01*
X935484Y592473D02*
X923796Y592473D01*
D12*
X866140Y530860D03*
X891540Y530860D03*
X916940Y530860D03*
X942340Y530860D03*
D13*
X784860Y764540D03*
X1023620Y525780D03*
D11*
X800229Y588516D02*
X794637Y588516D01*
X794637Y600204D01*
X800229Y600204D01*
X800229Y588516D01*
X800229Y590685D02*
X794637Y590685D01*
X794637Y592854D02*
X800229Y592854D01*
X800229Y595023D02*
X794637Y595023D01*
X794637Y597192D02*
X800229Y597192D01*
X800229Y599361D02*
X794637Y599361D01*
X805051Y588516D02*
X810643Y588516D01*
X805051Y588516D02*
X805051Y600204D01*
X810643Y600204D01*
X810643Y588516D01*
X810643Y590685D02*
X805051Y590685D01*
X805051Y592854D02*
X810643Y592854D01*
X810643Y595023D02*
X805051Y595023D01*
X805051Y597192D02*
X810643Y597192D01*
X810643Y599361D02*
X805051Y599361D01*
D10*
X1005840Y543560D03*
X802640Y543560D03*
X1061720Y746760D03*
X1264920Y746760D03*
D11*
X1182876Y614555D02*
X1182876Y608963D01*
X1182876Y614555D02*
X1194564Y614555D01*
X1194564Y608963D01*
X1182876Y608963D01*
X1182876Y611132D02*
X1194564Y611132D01*
X1194564Y613301D02*
X1182876Y613301D01*
X1182876Y604141D02*
X1182876Y598549D01*
X1182876Y604141D02*
X1194564Y604141D01*
X1194564Y598549D01*
X1182876Y598549D01*
X1182876Y600718D02*
X1194564Y600718D01*
X1194564Y602887D02*
X1182876Y602887D01*
X1182876Y593727D02*
X1182876Y588135D01*
X1182876Y593727D02*
X1194564Y593727D01*
X1194564Y588135D01*
X1182876Y588135D01*
X1182876Y590304D02*
X1194564Y590304D01*
X1194564Y592473D02*
X1182876Y592473D01*
D12*
X1125220Y530860D03*
X1150620Y530860D03*
X1176020Y530860D03*
X1201420Y530860D03*
D13*
X1043940Y764540D03*
X1282700Y525780D03*
D11*
X1059309Y588516D02*
X1053717Y588516D01*
X1053717Y600204D01*
X1059309Y600204D01*
X1059309Y588516D01*
X1059309Y590685D02*
X1053717Y590685D01*
X1053717Y592854D02*
X1059309Y592854D01*
X1059309Y595023D02*
X1053717Y595023D01*
X1053717Y597192D02*
X1059309Y597192D01*
X1059309Y599361D02*
X1053717Y599361D01*
X1064131Y588516D02*
X1069723Y588516D01*
X1064131Y588516D02*
X1064131Y600204D01*
X1069723Y600204D01*
X1069723Y588516D01*
X1069723Y590685D02*
X1064131Y590685D01*
X1064131Y592854D02*
X1069723Y592854D01*
X1069723Y595023D02*
X1064131Y595023D01*
X1064131Y597192D02*
X1069723Y597192D01*
X1069723Y599361D02*
X1064131Y599361D01*
D10*
X1264920Y543560D03*
X1061720Y543560D03*
X1320800Y746760D03*
X1524000Y746760D03*
D11*
X1441956Y614555D02*
X1441956Y608963D01*
X1441956Y614555D02*
X1453644Y614555D01*
X1453644Y608963D01*
X1441956Y608963D01*
X1441956Y611132D02*
X1453644Y611132D01*
X1453644Y613301D02*
X1441956Y613301D01*
X1441956Y604141D02*
X1441956Y598549D01*
X1441956Y604141D02*
X1453644Y604141D01*
X1453644Y598549D01*
X1441956Y598549D01*
X1441956Y600718D02*
X1453644Y600718D01*
X1453644Y602887D02*
X1441956Y602887D01*
X1441956Y593727D02*
X1441956Y588135D01*
X1441956Y593727D02*
X1453644Y593727D01*
X1453644Y588135D01*
X1441956Y588135D01*
X1441956Y590304D02*
X1453644Y590304D01*
X1453644Y592473D02*
X1441956Y592473D01*
D12*
X1384300Y530860D03*
X1409700Y530860D03*
X1435100Y530860D03*
X1460500Y530860D03*
D13*
X1303020Y764540D03*
X1541780Y525780D03*
D11*
X1318389Y588516D02*
X1312797Y588516D01*
X1312797Y600204D01*
X1318389Y600204D01*
X1318389Y588516D01*
X1318389Y590685D02*
X1312797Y590685D01*
X1312797Y592854D02*
X1318389Y592854D01*
X1318389Y595023D02*
X1312797Y595023D01*
X1312797Y597192D02*
X1318389Y597192D01*
X1318389Y599361D02*
X1312797Y599361D01*
X1323211Y588516D02*
X1328803Y588516D01*
X1323211Y588516D02*
X1323211Y600204D01*
X1328803Y600204D01*
X1328803Y588516D01*
X1328803Y590685D02*
X1323211Y590685D01*
X1323211Y592854D02*
X1328803Y592854D01*
X1328803Y595023D02*
X1323211Y595023D01*
X1323211Y597192D02*
X1328803Y597192D01*
X1328803Y599361D02*
X1323211Y599361D01*
D10*
X1524000Y543560D03*
X1320800Y543560D03*
X25400Y1005840D03*
X228600Y1005840D03*
D11*
X146556Y873635D02*
X146556Y868043D01*
X146556Y873635D02*
X158244Y873635D01*
X158244Y868043D01*
X146556Y868043D01*
X146556Y870212D02*
X158244Y870212D01*
X158244Y872381D02*
X146556Y872381D01*
X146556Y863221D02*
X146556Y857629D01*
X146556Y863221D02*
X158244Y863221D01*
X158244Y857629D01*
X146556Y857629D01*
X146556Y859798D02*
X158244Y859798D01*
X158244Y861967D02*
X146556Y861967D01*
X146556Y852807D02*
X146556Y847215D01*
X146556Y852807D02*
X158244Y852807D01*
X158244Y847215D01*
X146556Y847215D01*
X146556Y849384D02*
X158244Y849384D01*
X158244Y851553D02*
X146556Y851553D01*
D12*
X88900Y789940D03*
X114300Y789940D03*
X139700Y789940D03*
X165100Y789940D03*
D13*
X7620Y1023620D03*
X246380Y784860D03*
D11*
X22989Y847596D02*
X17397Y847596D01*
X17397Y859284D01*
X22989Y859284D01*
X22989Y847596D01*
X22989Y849765D02*
X17397Y849765D01*
X17397Y851934D02*
X22989Y851934D01*
X22989Y854103D02*
X17397Y854103D01*
X17397Y856272D02*
X22989Y856272D01*
X22989Y858441D02*
X17397Y858441D01*
X27811Y847596D02*
X33403Y847596D01*
X27811Y847596D02*
X27811Y859284D01*
X33403Y859284D01*
X33403Y847596D01*
X33403Y849765D02*
X27811Y849765D01*
X27811Y851934D02*
X33403Y851934D01*
X33403Y854103D02*
X27811Y854103D01*
X27811Y856272D02*
X33403Y856272D01*
X33403Y858441D02*
X27811Y858441D01*
D10*
X228600Y802640D03*
X25400Y802640D03*
X284480Y1005840D03*
X487680Y1005840D03*
D11*
X405636Y873635D02*
X405636Y868043D01*
X405636Y873635D02*
X417324Y873635D01*
X417324Y868043D01*
X405636Y868043D01*
X405636Y870212D02*
X417324Y870212D01*
X417324Y872381D02*
X405636Y872381D01*
X405636Y863221D02*
X405636Y857629D01*
X405636Y863221D02*
X417324Y863221D01*
X417324Y857629D01*
X405636Y857629D01*
X405636Y859798D02*
X417324Y859798D01*
X417324Y861967D02*
X405636Y861967D01*
X405636Y852807D02*
X405636Y847215D01*
X405636Y852807D02*
X417324Y852807D01*
X417324Y847215D01*
X405636Y847215D01*
X405636Y849384D02*
X417324Y849384D01*
X417324Y851553D02*
X405636Y851553D01*
D12*
X347980Y789940D03*
X373380Y789940D03*
X398780Y789940D03*
X424180Y789940D03*
D13*
X266700Y1023620D03*
X505460Y784860D03*
D11*
X282069Y847596D02*
X276477Y847596D01*
X276477Y859284D01*
X282069Y859284D01*
X282069Y847596D01*
X282069Y849765D02*
X276477Y849765D01*
X276477Y851934D02*
X282069Y851934D01*
X282069Y854103D02*
X276477Y854103D01*
X276477Y856272D02*
X282069Y856272D01*
X282069Y858441D02*
X276477Y858441D01*
X286891Y847596D02*
X292483Y847596D01*
X286891Y847596D02*
X286891Y859284D01*
X292483Y859284D01*
X292483Y847596D01*
X292483Y849765D02*
X286891Y849765D01*
X286891Y851934D02*
X292483Y851934D01*
X292483Y854103D02*
X286891Y854103D01*
X286891Y856272D02*
X292483Y856272D01*
X292483Y858441D02*
X286891Y858441D01*
D10*
X487680Y802640D03*
X284480Y802640D03*
X543560Y1005840D03*
X746760Y1005840D03*
D11*
X664716Y873635D02*
X664716Y868043D01*
X664716Y873635D02*
X676404Y873635D01*
X676404Y868043D01*
X664716Y868043D01*
X664716Y870212D02*
X676404Y870212D01*
X676404Y872381D02*
X664716Y872381D01*
X664716Y863221D02*
X664716Y857629D01*
X664716Y863221D02*
X676404Y863221D01*
X676404Y857629D01*
X664716Y857629D01*
X664716Y859798D02*
X676404Y859798D01*
X676404Y861967D02*
X664716Y861967D01*
X664716Y852807D02*
X664716Y847215D01*
X664716Y852807D02*
X676404Y852807D01*
X676404Y847215D01*
X664716Y847215D01*
X664716Y849384D02*
X676404Y849384D01*
X676404Y851553D02*
X664716Y851553D01*
D12*
X607060Y789940D03*
X632460Y789940D03*
X657860Y789940D03*
X683260Y789940D03*
D13*
X525780Y1023620D03*
X764540Y784860D03*
D11*
X541149Y847596D02*
X535557Y847596D01*
X535557Y859284D01*
X541149Y859284D01*
X541149Y847596D01*
X541149Y849765D02*
X535557Y849765D01*
X535557Y851934D02*
X541149Y851934D01*
X541149Y854103D02*
X535557Y854103D01*
X535557Y856272D02*
X541149Y856272D01*
X541149Y858441D02*
X535557Y858441D01*
X545971Y847596D02*
X551563Y847596D01*
X545971Y847596D02*
X545971Y859284D01*
X551563Y859284D01*
X551563Y847596D01*
X551563Y849765D02*
X545971Y849765D01*
X545971Y851934D02*
X551563Y851934D01*
X551563Y854103D02*
X545971Y854103D01*
X545971Y856272D02*
X551563Y856272D01*
X551563Y858441D02*
X545971Y858441D01*
D10*
X746760Y802640D03*
X543560Y802640D03*
X802640Y1005840D03*
X1005840Y1005840D03*
D11*
X923796Y873635D02*
X923796Y868043D01*
X923796Y873635D02*
X935484Y873635D01*
X935484Y868043D01*
X923796Y868043D01*
X923796Y870212D02*
X935484Y870212D01*
X935484Y872381D02*
X923796Y872381D01*
X923796Y863221D02*
X923796Y857629D01*
X923796Y863221D02*
X935484Y863221D01*
X935484Y857629D01*
X923796Y857629D01*
X923796Y859798D02*
X935484Y859798D01*
X935484Y861967D02*
X923796Y861967D01*
X923796Y852807D02*
X923796Y847215D01*
X923796Y852807D02*
X935484Y852807D01*
X935484Y847215D01*
X923796Y847215D01*
X923796Y849384D02*
X935484Y849384D01*
X935484Y851553D02*
X923796Y851553D01*
D12*
X866140Y789940D03*
X891540Y789940D03*
X916940Y789940D03*
X942340Y789940D03*
D13*
X784860Y1023620D03*
X1023620Y784860D03*
D11*
X800229Y847596D02*
X794637Y847596D01*
X794637Y859284D01*
X800229Y859284D01*
X800229Y847596D01*
X800229Y849765D02*
X794637Y849765D01*
X794637Y851934D02*
X800229Y851934D01*
X800229Y854103D02*
X794637Y854103D01*
X794637Y856272D02*
X800229Y856272D01*
X800229Y858441D02*
X794637Y858441D01*
X805051Y847596D02*
X810643Y847596D01*
X805051Y847596D02*
X805051Y859284D01*
X810643Y859284D01*
X810643Y847596D01*
X810643Y849765D02*
X805051Y849765D01*
X805051Y851934D02*
X810643Y851934D01*
X810643Y854103D02*
X805051Y854103D01*
X805051Y856272D02*
X810643Y856272D01*
X810643Y858441D02*
X805051Y858441D01*
D10*
X1005840Y802640D03*
X802640Y802640D03*
X1061720Y1005840D03*
X1264920Y1005840D03*
D11*
X1182876Y873635D02*
X1182876Y868043D01*
X1182876Y873635D02*
X1194564Y873635D01*
X1194564Y868043D01*
X1182876Y868043D01*
X1182876Y870212D02*
X1194564Y870212D01*
X1194564Y872381D02*
X1182876Y872381D01*
X1182876Y863221D02*
X1182876Y857629D01*
X1182876Y863221D02*
X1194564Y863221D01*
X1194564Y857629D01*
X1182876Y857629D01*
X1182876Y859798D02*
X1194564Y859798D01*
X1194564Y861967D02*
X1182876Y861967D01*
X1182876Y852807D02*
X1182876Y847215D01*
X1182876Y852807D02*
X1194564Y852807D01*
X1194564Y847215D01*
X1182876Y847215D01*
X1182876Y849384D02*
X1194564Y849384D01*
X1194564Y851553D02*
X1182876Y851553D01*
D12*
X1125220Y789940D03*
X1150620Y789940D03*
X1176020Y789940D03*
X1201420Y789940D03*
D13*
X1043940Y1023620D03*
X1282700Y784860D03*
D11*
X1059309Y847596D02*
X1053717Y847596D01*
X1053717Y859284D01*
X1059309Y859284D01*
X1059309Y847596D01*
X1059309Y849765D02*
X1053717Y849765D01*
X1053717Y851934D02*
X1059309Y851934D01*
X1059309Y854103D02*
X1053717Y854103D01*
X1053717Y856272D02*
X1059309Y856272D01*
X1059309Y858441D02*
X1053717Y858441D01*
X1064131Y847596D02*
X1069723Y847596D01*
X1064131Y847596D02*
X1064131Y859284D01*
X1069723Y859284D01*
X1069723Y847596D01*
X1069723Y849765D02*
X1064131Y849765D01*
X1064131Y851934D02*
X1069723Y851934D01*
X1069723Y854103D02*
X1064131Y854103D01*
X1064131Y856272D02*
X1069723Y856272D01*
X1069723Y858441D02*
X1064131Y858441D01*
D10*
X1264920Y802640D03*
X1061720Y802640D03*
X1320800Y1005840D03*
X1524000Y1005840D03*
D11*
X1441956Y873635D02*
X1441956Y868043D01*
X1441956Y873635D02*
X1453644Y873635D01*
X1453644Y868043D01*
X1441956Y868043D01*
X1441956Y870212D02*
X1453644Y870212D01*
X1453644Y872381D02*
X1441956Y872381D01*
X1441956Y863221D02*
X1441956Y857629D01*
X1441956Y863221D02*
X1453644Y863221D01*
X1453644Y857629D01*
X1441956Y857629D01*
X1441956Y859798D02*
X1453644Y859798D01*
X1453644Y861967D02*
X1441956Y861967D01*
X1441956Y852807D02*
X1441956Y847215D01*
X1441956Y852807D02*
X1453644Y852807D01*
X1453644Y847215D01*
X1441956Y847215D01*
X1441956Y849384D02*
X1453644Y849384D01*
X1453644Y851553D02*
X1441956Y851553D01*
D12*
X1384300Y789940D03*
X1409700Y789940D03*
X1435100Y789940D03*
X1460500Y789940D03*
D13*
X1303020Y1023620D03*
X1541780Y784860D03*
D11*
X1318389Y847596D02*
X1312797Y847596D01*
X1312797Y859284D01*
X1318389Y859284D01*
X1318389Y847596D01*
X1318389Y849765D02*
X1312797Y849765D01*
X1312797Y851934D02*
X1318389Y851934D01*
X1318389Y854103D02*
X1312797Y854103D01*
X1312797Y856272D02*
X1318389Y856272D01*
X1318389Y858441D02*
X1312797Y858441D01*
X1323211Y847596D02*
X1328803Y847596D01*
X1323211Y847596D02*
X1323211Y859284D01*
X1328803Y859284D01*
X1328803Y847596D01*
X1328803Y849765D02*
X1323211Y849765D01*
X1323211Y851934D02*
X1328803Y851934D01*
X1328803Y854103D02*
X1323211Y854103D01*
X1323211Y856272D02*
X1328803Y856272D01*
X1328803Y858441D02*
X1323211Y858441D01*
D10*
X1524000Y802640D03*
X1320800Y802640D03*
D13*
X68580Y1052195D03*
X1480185Y1052195D03*
D14*
X59525Y-20955D02*
X59528Y-20733D01*
X59536Y-20511D01*
X59550Y-20289D01*
X59569Y-20067D01*
X59593Y-19847D01*
X59623Y-19626D01*
X59658Y-19407D01*
X59699Y-19188D01*
X59745Y-18971D01*
X59796Y-18755D01*
X59853Y-18540D01*
X59915Y-18326D01*
X59982Y-18115D01*
X60054Y-17904D01*
X60132Y-17696D01*
X60214Y-17490D01*
X60302Y-17286D01*
X60394Y-17083D01*
X60492Y-16884D01*
X60594Y-16687D01*
X60701Y-16492D01*
X60813Y-16300D01*
X60930Y-16111D01*
X61051Y-15924D01*
X61177Y-15741D01*
X61307Y-15561D01*
X61442Y-15384D01*
X61580Y-15211D01*
X61723Y-15041D01*
X61871Y-14874D01*
X62022Y-14711D01*
X62177Y-14552D01*
X62336Y-14397D01*
X62499Y-14246D01*
X62666Y-14098D01*
X62836Y-13955D01*
X63009Y-13817D01*
X63186Y-13682D01*
X63366Y-13552D01*
X63549Y-13426D01*
X63736Y-13305D01*
X63925Y-13188D01*
X64117Y-13076D01*
X64312Y-12969D01*
X64509Y-12867D01*
X64708Y-12769D01*
X64911Y-12677D01*
X65115Y-12589D01*
X65321Y-12507D01*
X65529Y-12429D01*
X65740Y-12357D01*
X65951Y-12290D01*
X66165Y-12228D01*
X66380Y-12171D01*
X66596Y-12120D01*
X66813Y-12074D01*
X67032Y-12033D01*
X67251Y-11998D01*
X67472Y-11968D01*
X67692Y-11944D01*
X67914Y-11925D01*
X68136Y-11911D01*
X68358Y-11903D01*
X68580Y-11900D01*
X68802Y-11903D01*
X69024Y-11911D01*
X69246Y-11925D01*
X69468Y-11944D01*
X69688Y-11968D01*
X69909Y-11998D01*
X70128Y-12033D01*
X70347Y-12074D01*
X70564Y-12120D01*
X70780Y-12171D01*
X70995Y-12228D01*
X71209Y-12290D01*
X71420Y-12357D01*
X71631Y-12429D01*
X71839Y-12507D01*
X72045Y-12589D01*
X72249Y-12677D01*
X72452Y-12769D01*
X72651Y-12867D01*
X72848Y-12969D01*
X73043Y-13076D01*
X73235Y-13188D01*
X73424Y-13305D01*
X73611Y-13426D01*
X73794Y-13552D01*
X73974Y-13682D01*
X74151Y-13817D01*
X74324Y-13955D01*
X74494Y-14098D01*
X74661Y-14246D01*
X74824Y-14397D01*
X74983Y-14552D01*
X75138Y-14711D01*
X75289Y-14874D01*
X75437Y-15041D01*
X75580Y-15211D01*
X75718Y-15384D01*
X75853Y-15561D01*
X75983Y-15741D01*
X76109Y-15924D01*
X76230Y-16111D01*
X76347Y-16300D01*
X76459Y-16492D01*
X76566Y-16687D01*
X76668Y-16884D01*
X76766Y-17083D01*
X76858Y-17286D01*
X76946Y-17490D01*
X77028Y-17696D01*
X77106Y-17904D01*
X77178Y-18115D01*
X77245Y-18326D01*
X77307Y-18540D01*
X77364Y-18755D01*
X77415Y-18971D01*
X77461Y-19188D01*
X77502Y-19407D01*
X77537Y-19626D01*
X77567Y-19847D01*
X77591Y-20067D01*
X77610Y-20289D01*
X77624Y-20511D01*
X77632Y-20733D01*
X77635Y-20955D01*
X77632Y-21177D01*
X77624Y-21399D01*
X77610Y-21621D01*
X77591Y-21843D01*
X77567Y-22063D01*
X77537Y-22284D01*
X77502Y-22503D01*
X77461Y-22722D01*
X77415Y-22939D01*
X77364Y-23155D01*
X77307Y-23370D01*
X77245Y-23584D01*
X77178Y-23795D01*
X77106Y-24006D01*
X77028Y-24214D01*
X76946Y-24420D01*
X76858Y-24624D01*
X76766Y-24827D01*
X76668Y-25026D01*
X76566Y-25223D01*
X76459Y-25418D01*
X76347Y-25610D01*
X76230Y-25799D01*
X76109Y-25986D01*
X75983Y-26169D01*
X75853Y-26349D01*
X75718Y-26526D01*
X75580Y-26699D01*
X75437Y-26869D01*
X75289Y-27036D01*
X75138Y-27199D01*
X74983Y-27358D01*
X74824Y-27513D01*
X74661Y-27664D01*
X74494Y-27812D01*
X74324Y-27955D01*
X74151Y-28093D01*
X73974Y-28228D01*
X73794Y-28358D01*
X73611Y-28484D01*
X73424Y-28605D01*
X73235Y-28722D01*
X73043Y-28834D01*
X72848Y-28941D01*
X72651Y-29043D01*
X72452Y-29141D01*
X72249Y-29233D01*
X72045Y-29321D01*
X71839Y-29403D01*
X71631Y-29481D01*
X71420Y-29553D01*
X71209Y-29620D01*
X70995Y-29682D01*
X70780Y-29739D01*
X70564Y-29790D01*
X70347Y-29836D01*
X70128Y-29877D01*
X69909Y-29912D01*
X69688Y-29942D01*
X69468Y-29966D01*
X69246Y-29985D01*
X69024Y-29999D01*
X68802Y-30007D01*
X68580Y-30010D01*
X68358Y-30007D01*
X68136Y-29999D01*
X67914Y-29985D01*
X67692Y-29966D01*
X67472Y-29942D01*
X67251Y-29912D01*
X67032Y-29877D01*
X66813Y-29836D01*
X66596Y-29790D01*
X66380Y-29739D01*
X66165Y-29682D01*
X65951Y-29620D01*
X65740Y-29553D01*
X65529Y-29481D01*
X65321Y-29403D01*
X65115Y-29321D01*
X64911Y-29233D01*
X64708Y-29141D01*
X64509Y-29043D01*
X64312Y-28941D01*
X64117Y-28834D01*
X63925Y-28722D01*
X63736Y-28605D01*
X63549Y-28484D01*
X63366Y-28358D01*
X63186Y-28228D01*
X63009Y-28093D01*
X62836Y-27955D01*
X62666Y-27812D01*
X62499Y-27664D01*
X62336Y-27513D01*
X62177Y-27358D01*
X62022Y-27199D01*
X61871Y-27036D01*
X61723Y-26869D01*
X61580Y-26699D01*
X61442Y-26526D01*
X61307Y-26349D01*
X61177Y-26169D01*
X61051Y-25986D01*
X60930Y-25799D01*
X60813Y-25610D01*
X60701Y-25418D01*
X60594Y-25223D01*
X60492Y-25026D01*
X60394Y-24827D01*
X60302Y-24624D01*
X60214Y-24420D01*
X60132Y-24214D01*
X60054Y-24006D01*
X59982Y-23795D01*
X59915Y-23584D01*
X59853Y-23370D01*
X59796Y-23155D01*
X59745Y-22939D01*
X59699Y-22722D01*
X59658Y-22503D01*
X59623Y-22284D01*
X59593Y-22063D01*
X59569Y-21843D01*
X59550Y-21621D01*
X59536Y-21399D01*
X59528Y-21177D01*
X59525Y-20955D01*
D15*
X68580Y-20955D03*
M02*
