M48
;GenerationSoftware,Autodesk,EAGLE,9.6.2*%
;CreationDate,2021-11-05T11:13:11Z*%
FMAT,2
ICI,OFF
METRIC,TZ,000.000
T3C0.300
T2C1.016
T1C3.302
%
G90
M71
T1
X152400Y2540
X132080Y48768
X2540Y22860
X22860Y22860
X22860Y2540
X2540Y2540
X28448Y22860
X48768Y22860
X48768Y2540
X28448Y2540
X54356Y22860
X74676Y22860
X74676Y2540
X54356Y2540
X80264Y22860
X100584Y22860
X100584Y2540
X80264Y2540
X106172Y22860
X126492Y22860
X126492Y2540
X106172Y2540
X132080Y22860
X152400Y22860
X132080Y28448
X132080Y2540
X2540Y48768
X22860Y48768
X22860Y28448
X2540Y28448
X28448Y48768
X48768Y48768
X48768Y28448
X28448Y28448
X54356Y48768
X74676Y48768
X74676Y28448
X54356Y28448
X80264Y48768
X100584Y48768
X100584Y28448
X80264Y28448
X106172Y48768
X126492Y48768
X126492Y28448
X106172Y28448
X152400Y48768
X152400Y28448
X132080Y80264
X2540Y74676
X22860Y74676
X22860Y54356
X2540Y54356
X28448Y74676
X48768Y74676
X48768Y54356
X28448Y54356
X54356Y74676
X74676Y74676
X74676Y54356
X54356Y54356
X80264Y74676
X100584Y74676
X100584Y54356
X80264Y54356
X106172Y74676
X126492Y74676
X126492Y54356
X106172Y54356
X132080Y74676
X152400Y74676
X152400Y54356
X132080Y54356
X2540Y100584
X22860Y100584
X22860Y80264
X2540Y80264
X28448Y100584
X48768Y100584
X48768Y80264
X28448Y80264
X54356Y100584
X74676Y100584
X74676Y80264
X54356Y80264
X80264Y100584
X100584Y100584
X100584Y80264
X80264Y80264
X106172Y100584
X126492Y100584
X126492Y80264
X106172Y80264
X132080Y100584
X152400Y100584
X152400Y80264
T2
X146050Y78994
X8890Y1270
X11430Y1270
X13970Y1270
X16510Y1270
X34798Y1270
X37338Y1270
X39878Y1270
X42418Y1270
X60706Y1270
X63246Y1270
X65786Y1270
X68326Y1270
X86614Y1270
X89154Y1270
X91694Y1270
X94234Y1270
X112522Y1270
X115062Y1270
X117602Y1270
X120142Y1270
X138430Y1270
X140970Y1270
X143510Y1270
X146050Y1270
X8890Y27178
X11430Y27178
X13970Y27178
X16510Y27178
X34798Y27178
X37338Y27178
X39878Y27178
X42418Y27178
X60706Y27178
X63246Y27178
X65786Y27178
X68326Y27178
X86614Y27178
X89154Y27178
X91694Y27178
X94234Y27178
X112522Y27178
X115062Y27178
X117602Y27178
X120142Y27178
X138430Y27178
X140970Y27178
X143510Y27178
X146050Y27178
X8890Y53086
X11430Y53086
X13970Y53086
X16510Y53086
X34798Y53086
X37338Y53086
X39878Y53086
X42418Y53086
X60706Y53086
X63246Y53086
X65786Y53086
X68326Y53086
X86614Y53086
X89154Y53086
X91694Y53086
X94234Y53086
X112522Y53086
X115062Y53086
X117602Y53086
X120142Y53086
X138430Y53086
X140970Y53086
X143510Y53086
X146050Y53086
X8890Y78994
X11430Y78994
X13970Y78994
X16510Y78994
X34798Y78994
X37338Y78994
X39878Y78994
X42418Y78994
X60706Y78994
X63246Y78994
X65786Y78994
X68326Y78994
X86614Y78994
X89154Y78994
X91694Y78994
X94234Y78994
X112522Y78994
X115062Y78994
X117602Y78994
X120142Y78994
X138430Y78994
X140970Y78994
X143510Y78994
T3
X112522Y12700
X112522Y10160
X120142Y10160
X120142Y12700
X120142Y9335
X117602Y7620
X104711Y8270
X109982Y12192
X118237Y14605
X109982Y11176
X114427Y13970
X122682Y13970
X118872Y13970
X137795Y8255
X146431Y8001
X130238Y6985
X133350Y14224
X135890Y14224
X142875Y10478
X142875Y13271
X148590Y11176
X149860Y10160
X142240Y7620
X140970Y7620
X134620Y8890
X134620Y6350
X137160Y6350
X139700Y5080
X142240Y5080
X144780Y5080
X148590Y8890
X149860Y6350
X147320Y3810
X137160Y3810
X132080Y12700
X152400Y12700
X148590Y15240
X142240Y15240
X138430Y15240
X146050Y15240
X144780Y2540
X138430Y12700
X138430Y10160
X146050Y10160
X146050Y12700
X146050Y9335
X143510Y7620
X130619Y8270
X135890Y12192
X144145Y14605
X135890Y11176
X140335Y13970
X148590Y13970
X144780Y13970
X8255Y34163
X16891Y33909
X698Y32893
X3810Y40132
X6350Y40132
X13335Y36386
X13335Y39180
X19050Y37084
X20320Y36068
X12700Y33528
X11430Y33528
X5080Y34798
X5080Y32258
X7620Y32258
X10160Y30988
X12700Y30988
X15240Y30988
X19050Y34798
X20320Y32258
X17780Y29718
X7620Y29718
X2540Y38608
X22860Y38608
X19050Y41148
X12700Y41148
X8890Y41148
X16510Y41148
X15240Y28448
X8890Y38608
X8890Y36068
X16510Y36068
X16510Y38608
X16510Y35243
X13970Y33528
X1080Y34178
X6350Y38100
X14605Y40513
X6350Y37084
X10795Y39878
X19050Y39878
X15240Y39878
X34163Y34163
X42799Y33909
X26606Y32893
X29718Y40132
X32258Y40132
X39243Y36386
X39243Y39180
X44958Y37084
X46228Y36068
X38608Y33528
X37338Y33528
X30988Y34798
X30988Y32258
X33528Y32258
X36068Y30988
X38608Y30988
X41148Y30988
X44958Y34798
X46228Y32258
X43688Y29718
X33528Y29718
X28448Y38608
X48768Y38608
X44958Y41148
X38608Y41148
X34798Y41148
X42418Y41148
X41148Y28448
X34798Y38608
X34798Y36068
X42418Y36068
X42418Y38608
X42418Y35243
X39878Y33528
X26987Y34178
X32258Y38100
X40513Y40513
X32258Y37084
X36703Y39878
X44958Y39878
X41148Y39878
X60071Y34163
X68707Y33909
X52514Y32893
X55626Y40132
X58166Y40132
X65151Y36386
X65151Y39180
X70866Y37084
X72136Y36068
X64516Y33528
X63246Y33528
X56896Y34798
X56896Y32258
X59436Y32258
X61976Y30988
X64516Y30988
X67056Y30988
X70866Y34798
X72136Y32258
X69596Y29718
X59436Y29718
X54356Y38608
X74676Y38608
X70866Y41148
X64516Y41148
X60706Y41148
X68326Y41148
X67056Y28448
X60706Y38608
X60706Y36068
X68326Y36068
X68326Y38608
X68326Y35243
X65786Y33528
X52895Y34178
X58166Y38100
X66421Y40513
X58166Y37084
X62611Y39878
X70866Y39878
X67056Y39878
X85979Y34163
X94615Y33909
X78423Y32893
X81534Y40132
X84074Y40132
X91059Y36386
X91059Y39180
X96774Y37084
X98044Y36068
X90424Y33528
X89154Y33528
X82804Y34798
X82804Y32258
X85344Y32258
X87884Y30988
X90424Y30988
X92964Y30988
X96774Y34798
X98044Y32258
X95504Y29718
X85344Y29718
X80264Y38608
X100584Y38608
X96774Y41148
X90424Y41148
X86614Y41148
X94234Y41148
X92964Y28448
X86614Y38608
X86614Y36068
X94234Y36068
X94234Y38608
X94234Y35243
X91694Y33528
X78804Y34178
X84074Y38100
X92329Y40513
X84074Y37084
X88519Y39878
X96774Y39878
X92964Y39878
X111887Y34163
X120523Y33909
X104330Y32893
X107442Y40132
X109982Y40132
X116967Y36386
X116967Y39180
X122682Y37084
X123952Y36068
X116332Y33528
X115062Y33528
X108712Y34798
X108712Y32258
X111252Y32258
X113792Y30988
X116332Y30988
X118872Y30988
X122682Y34798
X123952Y32258
X121412Y29718
X111252Y29718
X106172Y38608
X126492Y38608
X122682Y41148
X116332Y41148
X112522Y41148
X120142Y41148
X118872Y28448
X112522Y38608
X112522Y36068
X120142Y36068
X120142Y38608
X120142Y35243
X117602Y33528
X104711Y34178
X109982Y38100
X118237Y40513
X109982Y37084
X114427Y39878
X122682Y39878
X118872Y39878
X137795Y34163
X146431Y33909
X130238Y32893
X133350Y40132
X135890Y40132
X142875Y36386
X142875Y39180
X148590Y37084
X149860Y36068
X142240Y33528
X140970Y33528
X134620Y34798
X134620Y32258
X137160Y32258
X139700Y30988
X142240Y30988
X144780Y30988
X148590Y34798
X149860Y32258
X147320Y29718
X137160Y29718
X132080Y38608
X152400Y38608
X148590Y41148
X142240Y41148
X138430Y41148
X146050Y41148
X144780Y28448
X138430Y38608
X138430Y36068
X146050Y36068
X146050Y38608
X146050Y35243
X143510Y33528
X130619Y34178
X135890Y38100
X144145Y40513
X135890Y37084
X140335Y39878
X148590Y39878
X144780Y39878
X8255Y60071
X16891Y59817
X698Y58801
X3810Y66040
X6350Y66040
X13335Y62293
X13335Y65087
X19050Y62992
X20320Y61976
X12700Y59436
X11430Y59436
X5080Y60706
X5080Y58166
X7620Y58166
X10160Y56896
X12700Y56896
X15240Y56896
X19050Y60706
X20320Y58166
X17780Y55626
X7620Y55626
X2540Y64516
X22860Y64516
X19050Y67056
X12700Y67056
X8890Y67056
X16510Y67056
X15240Y54356
X8890Y64516
X8890Y61976
X16510Y61976
X16510Y64516
X16510Y61150
X13970Y59436
X1080Y60086
X6350Y64008
X14605Y66421
X6350Y62992
X10795Y65786
X19050Y65786
X15240Y65786
X34163Y60071
X42799Y59817
X26606Y58801
X29718Y66040
X32258Y66040
X39243Y62293
X39243Y65087
X44958Y62992
X46228Y61976
X38608Y59436
X37338Y59436
X30988Y60706
X30988Y58166
X33528Y58166
X36068Y56896
X38608Y56896
X41148Y56896
X44958Y60706
X46228Y58166
X43688Y55626
X33528Y55626
X28448Y64516
X48768Y64516
X44958Y67056
X38608Y67056
X34798Y67056
X42418Y67056
X41148Y54356
X34798Y64516
X34798Y61976
X42418Y61976
X42418Y64516
X42418Y61150
X39878Y59436
X26987Y60086
X32258Y64008
X40513Y66421
X32258Y62992
X36703Y65786
X44958Y65786
X41148Y65786
X60071Y60071
X68707Y59817
X52514Y58801
X55626Y66040
X58166Y66040
X65151Y62293
X65151Y65087
X70866Y62992
X72136Y61976
X64516Y59436
X63246Y59436
X56896Y60706
X56896Y58166
X59436Y58166
X90424Y15240
X64516Y56896
X67056Y56896
X70866Y60706
X72136Y58166
X69596Y55626
X59436Y55626
X54356Y64516
X74676Y64516
X70866Y67056
X64516Y67056
X60706Y67056
X68326Y67056
X67056Y54356
X60706Y64516
X60706Y61976
X68326Y61976
X68326Y64516
X68326Y61150
X65786Y59436
X52895Y60086
X58166Y64008
X66421Y66421
X58166Y62992
X62611Y65786
X70866Y65786
X67056Y65786
X85979Y60071
X94615Y59817
X78423Y58801
X81534Y66040
X84074Y66040
X91059Y62293
X91059Y65087
X96774Y62992
X98044Y61976
X90424Y59436
X89154Y59436
X82804Y60706
X82804Y58166
X85344Y58166
X87884Y56896
X90424Y56896
X92964Y56896
X96774Y60706
X98044Y58166
X95504Y55626
X85344Y55626
X80264Y64516
X100584Y64516
X96774Y67056
X90424Y67056
X86614Y67056
X94234Y67056
X92964Y54356
X86614Y64516
X86614Y61976
X94234Y61976
X94234Y64516
X94234Y61150
X91694Y59436
X78804Y60086
X84074Y64008
X92329Y66421
X84074Y62992
X88519Y65786
X96774Y65786
X92964Y65786
X111887Y60071
X120523Y59817
X104330Y58801
X107442Y66040
X109982Y66040
X116967Y62293
X116967Y65087
X122682Y62992
X123952Y61976
X116332Y59436
X115062Y59436
X108712Y60706
X108712Y58166
X111252Y58166
X113792Y56896
X116332Y56896
X118872Y56896
X122682Y60706
X123952Y58166
X121412Y55626
X111252Y55626
X106172Y64516
X126492Y64516
X122682Y67056
X116332Y67056
X112522Y67056
X120142Y67056
X118872Y54356
X112522Y64516
X112522Y61976
X120142Y61976
X120142Y64516
X120142Y61150
X117602Y59436
X104711Y60086
X109982Y64008
X118237Y66421
X109982Y62992
X114427Y65786
X122682Y65786
X118872Y65786
X137795Y60071
X146431Y59817
X130238Y58801
X133350Y66040
X135890Y66040
X142875Y62293
X142875Y65087
X148590Y62992
X149860Y61976
X142240Y59436
X140970Y59436
X134620Y60706
X134620Y58166
X137160Y58166
X139700Y56896
X142240Y56896
X144780Y56896
X148590Y60706
X149860Y58166
X147320Y55626
X137160Y55626
X132080Y64516
X152400Y64516
X148590Y67056
X142240Y67056
X138430Y67056
X146050Y67056
X144780Y54356
X138430Y64516
X138430Y61976
X146050Y61976
X146050Y64516
X146050Y61150
X143510Y59436
X130619Y60086
X135890Y64008
X144145Y66421
X135890Y62992
X140335Y65786
X148590Y65786
X144780Y65786
X8255Y85979
X16891Y85725
X698Y84709
X3810Y91948
X6350Y91948
X13335Y88201
X13335Y90995
X19050Y88900
X20320Y87884
X12700Y85344
X11430Y85344
X5080Y86614
X5080Y84074
X7620Y84074
X10160Y82804
X12700Y82804
X15240Y82804
X19050Y86614
X20320Y84074
X17780Y81534
X7620Y81534
X2540Y90424
X22860Y90424
X19050Y92964
X12700Y92964
X8890Y92964
X16510Y92964
X15240Y80264
X8890Y90424
X8890Y87884
X16510Y87884
X16510Y90424
X16510Y87059
X13970Y85344
X1080Y85994
X6350Y89916
X14605Y92329
X6350Y88900
X10795Y91694
X19050Y91694
X15240Y91694
X34163Y85979
X42799Y85725
X26606Y84709
X29718Y91948
X32258Y91948
X39243Y88201
X39243Y90995
X44958Y88900
X46228Y87884
X38608Y85344
X37338Y85344
X30988Y86614
X30988Y84074
X33528Y84074
X36068Y82804
X38608Y82804
X41148Y82804
X44958Y86614
X46228Y84074
X43688Y81534
X33528Y81534
X28448Y90424
X48768Y90424
X44958Y92964
X38608Y92964
X34798Y92964
X42418Y92964
X41148Y80264
X34798Y90424
X34798Y87884
X42418Y87884
X42418Y90424
X42418Y87059
X39878Y85344
X26987Y85994
X32258Y89916
X40513Y92329
X32258Y88900
X36703Y91694
X44958Y91694
X41148Y91694
X60071Y85979
X68707Y85725
X52514Y84709
X55626Y91948
X58166Y91948
X65151Y88201
X65151Y90995
X70866Y88900
X72136Y87884
X64516Y85344
X63246Y85344
X56896Y86614
X56896Y84074
X59436Y84074
X61976Y82804
X64516Y82804
X67056Y82804
X70866Y86614
X72136Y84074
X69596Y81534
X59436Y81534
X54356Y90424
X74676Y90424
X70866Y92964
X64516Y92964
X60706Y92964
X68326Y92964
X67056Y80264
X60706Y90424
X60706Y87884
X68326Y87884
X68326Y90424
X68326Y87059
X65786Y85344
X52895Y85994
X58166Y89916
X66421Y92329
X58166Y88900
X62611Y91694
X70866Y91694
X67056Y91694
X85979Y85979
X94615Y85725
X78423Y84709
X81534Y91948
X84074Y91948
X91059Y88201
X91059Y90995
X96774Y88900
X98044Y87884
X90424Y85344
X89154Y85344
X82804Y86614
X82804Y84074
X85344Y84074
X87884Y82804
X90424Y82804
X92964Y82804
X96774Y86614
X98044Y84074
X95504Y81534
X8255Y8255
X80264Y90424
X100584Y90424
X96774Y92964
X90424Y92964
X86614Y92964
X94234Y92964
X92964Y80264
X86614Y90424
X86614Y87884
X94234Y87884
X94234Y90424
X94234Y87059
X91694Y85344
X78804Y85994
X84074Y89916
X92329Y92329
X84074Y88900
X88519Y91694
X96774Y91694
X92964Y91694
X111887Y85979
X120523Y85725
X104330Y84709
X107442Y91948
X109982Y91948
X116967Y88201
X116967Y90995
X122682Y88900
X123952Y87884
X116332Y85344
X115062Y85344
X108712Y86614
X108712Y84074
X111252Y84074
X113792Y82804
X116332Y82804
X118872Y82804
X122682Y86614
X123952Y84074
X121412Y81534
X111252Y81534
X106172Y90424
X126492Y90424
X122682Y92964
X116332Y92964
X112522Y92964
X120142Y92964
X118872Y80264
X112522Y90424
X112522Y87884
X120142Y87884
X120142Y90424
X120142Y87059
X117602Y85344
X104711Y85994
X109982Y89916
X118237Y92329
X109982Y88900
X114427Y91694
X122682Y91694
X118872Y91694
X137795Y85979
X146431Y85725
X130238Y84709
X133350Y91948
X135890Y91948
X142875Y88201
X142875Y90995
X148590Y88900
X149860Y87884
X142240Y85344
X140970Y85344
X134620Y86614
X134620Y84074
X137160Y84074
X139700Y82804
X142240Y82804
X144780Y82804
X148590Y86614
X149860Y84074
X147320Y81534
X137160Y81534
X132080Y90424
X152400Y90424
X148590Y92964
X142240Y92964
X138430Y92964
X146050Y92964
X144780Y80264
X138430Y90424
X138430Y87884
X146050Y87884
X146050Y90424
X146050Y87059
X143510Y85344
X130619Y85994
X135890Y89916
X144145Y92329
X135890Y88900
X140335Y91694
X148590Y91694
X144780Y91694
X16891Y8001
X698Y6985
X3810Y14224
X6350Y14224
X13335Y10478
X13335Y13271
X19050Y11176
X20320Y10160
X12700Y7620
X11430Y7620
X5080Y8890
X5080Y6350
X7620Y6350
X10160Y5080
X12700Y5080
X15240Y5080
X19050Y8890
X20320Y6350
X17780Y3810
X7620Y3810
X2540Y12700
X22860Y12700
X19050Y15240
X12700Y15240
X8890Y15240
X16510Y15240
X15240Y2540
X8890Y12700
X8890Y10160
X16510Y10160
X16510Y12700
X16510Y9335
X13970Y7620
X1080Y8270
X6350Y12192
X14605Y14605
X6350Y11176
X10795Y13970
X19050Y13970
X15240Y13970
X34163Y8255
X42799Y8001
X26606Y6985
X29718Y14224
X61976Y56896
X32258Y14224
X39243Y10478
X39243Y13271
X44958Y11176
X46228Y10160
X38608Y7620
X37338Y7620
X30988Y8890
X30988Y6350
X33528Y6350
X36068Y5080
X38608Y5080
X41148Y5080
X44958Y8890
X46228Y6350
X43688Y3810
X33528Y3810
X28448Y12700
X48768Y12700
X44958Y15240
X38608Y15240
X34798Y15240
X42418Y15240
X41148Y2540
X34798Y12700
X34798Y10160
X42418Y10160
X42418Y12700
X42418Y9335
X39878Y7620
X26987Y8270
X32258Y12192
X40513Y14605
X32258Y11176
X36703Y13970
X44958Y13970
X41148Y13970
X60071Y8255
X68707Y8001
X52514Y6985
X55626Y14224
X58166Y14224
X65151Y10478
X65151Y13271
X70866Y11176
X72136Y10160
X64516Y7620
X63246Y7620
X56896Y8890
X56896Y6350
X59436Y6350
X61976Y5080
X64516Y5080
X67056Y5080
X70866Y8890
X72136Y6350
X69596Y3810
X59436Y3810
X54356Y12700
X74676Y12700
X70866Y15240
X64516Y15240
X60706Y15240
X68326Y15240
X67056Y2540
X60706Y12700
X60706Y10160
X68326Y10160
X68326Y12700
X68326Y9335
X65786Y7620
X52895Y8270
X58166Y12192
X66421Y14605
X58166Y11176
X62611Y13970
X70866Y13970
X67056Y13970
X85979Y8255
X94615Y8001
X78423Y6985
X81534Y14224
X84074Y14224
X91059Y10478
X91059Y13271
X96774Y11176
X98044Y10160
X90424Y7620
X89154Y7620
X82804Y8890
X82804Y6350
X85344Y6350
X87884Y5080
X90424Y5080
X92964Y5080
X96774Y8890
X98044Y6350
X95504Y3810
X85344Y3810
X80264Y12700
X100584Y12700
X96774Y15240
X86614Y15240
X94234Y15240
X92964Y2540
X86614Y12700
X86614Y10160
X94234Y10160
X94234Y12700
X94234Y9335
X91694Y7620
X78804Y8270
X84074Y12192
X92329Y14605
X84074Y11176
X88519Y13970
X96774Y13970
X92964Y13970
X111887Y8255
X120523Y8001
X104330Y6985
X107442Y14224
X109982Y14224
X116967Y10478
X116967Y13271
X122682Y11176
X123952Y10160
X116332Y7620
X115062Y7620
X108712Y8890
X108712Y6350
X111252Y6350
X113792Y5080
X116332Y5080
X118872Y5080
X122682Y8890
X123952Y6350
X121412Y3810
X111252Y3810
X106172Y12700
X126492Y12700
X122682Y15240
X116332Y15240
X112522Y15240
X120142Y15240
X118872Y2540
X85344Y81534
M30