G04 EAGLE Gerber RS-274X export*
G75*
%MOMM*%
%FSLAX34Y34*%
%LPD*%
%INSoldermask Top*%
%IPPOS*%
%AMOC8*
5,1,8,0,0,1.08239X$1,22.5*%
G01*
%ADD10C,3.429000*%
%ADD11C,1.127000*%
%ADD12C,0.225369*%
%ADD13C,0.225588*%
%ADD14C,2.006600*%
%ADD15C,0.428259*%
%ADD16C,0.231559*%
%ADD17C,1.270000*%
%ADD18C,1.627000*%


D10*
X25400Y228600D03*
X228600Y228600D03*
D11*
X246380Y7620D03*
X7620Y246380D03*
D12*
X137192Y96408D02*
X137192Y91392D01*
X137192Y96408D02*
X142208Y96408D01*
X142208Y91392D01*
X137192Y91392D01*
X137192Y93533D02*
X142208Y93533D01*
X142208Y95674D02*
X137192Y95674D01*
X137192Y86408D02*
X137192Y81392D01*
X137192Y86408D02*
X142208Y86408D01*
X142208Y81392D01*
X137192Y81392D01*
X137192Y83533D02*
X142208Y83533D01*
X142208Y85674D02*
X137192Y85674D01*
X149892Y91392D02*
X149892Y96408D01*
X154908Y96408D01*
X154908Y91392D01*
X149892Y91392D01*
X149892Y93533D02*
X154908Y93533D01*
X154908Y95674D02*
X149892Y95674D01*
X149892Y86408D02*
X149892Y81392D01*
X149892Y86408D02*
X154908Y86408D01*
X154908Y81392D01*
X149892Y81392D01*
X149892Y83533D02*
X154908Y83533D01*
X154908Y85674D02*
X149892Y85674D01*
D13*
X4543Y149493D02*
X4543Y160507D01*
X23557Y160507D01*
X23557Y149493D01*
X4543Y149493D01*
X4543Y151636D02*
X23557Y151636D01*
X23557Y153779D02*
X4543Y153779D01*
X4543Y155922D02*
X23557Y155922D01*
X23557Y158065D02*
X4543Y158065D01*
X4543Y160208D02*
X23557Y160208D01*
X4543Y104507D02*
X4543Y93493D01*
X4543Y104507D02*
X23557Y104507D01*
X23557Y93493D01*
X4543Y93493D01*
X4543Y95636D02*
X23557Y95636D01*
X23557Y97779D02*
X4543Y97779D01*
X4543Y99922D02*
X23557Y99922D01*
X23557Y102065D02*
X4543Y102065D01*
X4543Y104208D02*
X23557Y104208D01*
D12*
X44542Y139492D02*
X44542Y144508D01*
X57058Y144508D01*
X57058Y139492D01*
X44542Y139492D01*
X44542Y141633D02*
X57058Y141633D01*
X57058Y143774D02*
X44542Y143774D01*
X44542Y134508D02*
X44542Y129492D01*
X44542Y134508D02*
X57058Y134508D01*
X57058Y129492D01*
X44542Y129492D01*
X44542Y131633D02*
X57058Y131633D01*
X57058Y133774D02*
X44542Y133774D01*
X44542Y124508D02*
X44542Y119492D01*
X44542Y124508D02*
X57058Y124508D01*
X57058Y119492D01*
X44542Y119492D01*
X44542Y121633D02*
X57058Y121633D01*
X57058Y123774D02*
X44542Y123774D01*
X44542Y114508D02*
X44542Y109492D01*
X44542Y114508D02*
X57058Y114508D01*
X57058Y109492D01*
X44542Y109492D01*
X44542Y111633D02*
X57058Y111633D01*
X57058Y113774D02*
X44542Y113774D01*
D14*
X88900Y12700D03*
X114300Y12700D03*
X139700Y12700D03*
X165100Y12700D03*
D13*
X249457Y93493D02*
X249457Y104507D01*
X249457Y93493D02*
X230443Y93493D01*
X230443Y104507D01*
X249457Y104507D01*
X249457Y95636D02*
X230443Y95636D01*
X230443Y97779D02*
X249457Y97779D01*
X249457Y99922D02*
X230443Y99922D01*
X230443Y102065D02*
X249457Y102065D01*
X249457Y104208D02*
X230443Y104208D01*
X249457Y149493D02*
X249457Y160507D01*
X249457Y149493D02*
X230443Y149493D01*
X230443Y160507D01*
X249457Y160507D01*
X249457Y151636D02*
X230443Y151636D01*
X230443Y153779D02*
X249457Y153779D01*
X249457Y155922D02*
X230443Y155922D01*
X230443Y158065D02*
X249457Y158065D01*
X249457Y160208D02*
X230443Y160208D01*
D12*
X209458Y114508D02*
X209458Y109492D01*
X196942Y109492D01*
X196942Y114508D01*
X209458Y114508D01*
X209458Y111633D02*
X196942Y111633D01*
X196942Y113774D02*
X209458Y113774D01*
X209458Y119492D02*
X209458Y124508D01*
X209458Y119492D02*
X196942Y119492D01*
X196942Y124508D01*
X209458Y124508D01*
X209458Y121633D02*
X196942Y121633D01*
X196942Y123774D02*
X209458Y123774D01*
X209458Y129492D02*
X209458Y134508D01*
X209458Y129492D02*
X196942Y129492D01*
X196942Y134508D01*
X209458Y134508D01*
X209458Y131633D02*
X196942Y131633D01*
X196942Y133774D02*
X209458Y133774D01*
X209458Y139492D02*
X209458Y144508D01*
X209458Y139492D02*
X196942Y139492D01*
X196942Y144508D01*
X209458Y144508D01*
X209458Y141633D02*
X196942Y141633D01*
X196942Y143774D02*
X209458Y143774D01*
X32908Y85058D02*
X27892Y85058D01*
X32908Y85058D02*
X32908Y80042D01*
X27892Y80042D01*
X27892Y85058D01*
X27892Y82183D02*
X32908Y82183D01*
X32908Y84324D02*
X27892Y84324D01*
X22908Y85058D02*
X17892Y85058D01*
X22908Y85058D02*
X22908Y80042D01*
X17892Y80042D01*
X17892Y85058D01*
X17892Y82183D02*
X22908Y82183D01*
X22908Y84324D02*
X17892Y84324D01*
D15*
X20124Y73344D02*
X20124Y66356D01*
X13136Y66356D01*
X13136Y73344D01*
X20124Y73344D01*
X20124Y70425D02*
X13136Y70425D01*
X37664Y73344D02*
X37664Y66356D01*
X30676Y66356D01*
X30676Y73344D01*
X37664Y73344D01*
X37664Y70425D02*
X30676Y70425D01*
D10*
X228600Y25400D03*
X25400Y25400D03*
D16*
X110927Y110523D02*
X110927Y125477D01*
X110927Y110523D02*
X104973Y110523D01*
X104973Y125477D01*
X110927Y125477D01*
X110927Y112723D02*
X104973Y112723D01*
X104973Y114923D02*
X110927Y114923D01*
X110927Y117123D02*
X104973Y117123D01*
X104973Y119323D02*
X110927Y119323D01*
X110927Y121523D02*
X104973Y121523D01*
X104973Y123723D02*
X110927Y123723D01*
X123627Y125477D02*
X123627Y110523D01*
X117673Y110523D01*
X117673Y125477D01*
X123627Y125477D01*
X123627Y112723D02*
X117673Y112723D01*
X117673Y114923D02*
X123627Y114923D01*
X123627Y117123D02*
X117673Y117123D01*
X117673Y119323D02*
X123627Y119323D01*
X123627Y121523D02*
X117673Y121523D01*
X117673Y123723D02*
X123627Y123723D01*
X136327Y125477D02*
X136327Y110523D01*
X130373Y110523D01*
X130373Y125477D01*
X136327Y125477D01*
X136327Y112723D02*
X130373Y112723D01*
X130373Y114923D02*
X136327Y114923D01*
X136327Y117123D02*
X130373Y117123D01*
X130373Y119323D02*
X136327Y119323D01*
X136327Y121523D02*
X130373Y121523D01*
X130373Y123723D02*
X136327Y123723D01*
X149027Y125477D02*
X149027Y110523D01*
X143073Y110523D01*
X143073Y125477D01*
X149027Y125477D01*
X149027Y112723D02*
X143073Y112723D01*
X143073Y114923D02*
X149027Y114923D01*
X149027Y117123D02*
X143073Y117123D01*
X143073Y119323D02*
X149027Y119323D01*
X149027Y121523D02*
X143073Y121523D01*
X143073Y123723D02*
X149027Y123723D01*
D12*
X111792Y96408D02*
X111792Y91392D01*
X111792Y96408D02*
X116808Y96408D01*
X116808Y91392D01*
X111792Y91392D01*
X111792Y93533D02*
X116808Y93533D01*
X116808Y95674D02*
X111792Y95674D01*
X111792Y86408D02*
X111792Y81392D01*
X111792Y86408D02*
X116808Y86408D01*
X116808Y81392D01*
X111792Y81392D01*
X111792Y83533D02*
X116808Y83533D01*
X116808Y85674D02*
X111792Y85674D01*
X124492Y91392D02*
X124492Y96408D01*
X129508Y96408D01*
X129508Y91392D01*
X124492Y91392D01*
X124492Y93533D02*
X129508Y93533D01*
X129508Y95674D02*
X124492Y95674D01*
X124492Y86408D02*
X124492Y81392D01*
X124492Y86408D02*
X129508Y86408D01*
X129508Y81392D01*
X124492Y81392D01*
X124492Y83533D02*
X129508Y83533D01*
X129508Y85674D02*
X124492Y85674D01*
X99092Y91392D02*
X99092Y96408D01*
X104108Y96408D01*
X104108Y91392D01*
X99092Y91392D01*
X99092Y93533D02*
X104108Y93533D01*
X104108Y95674D02*
X99092Y95674D01*
X99092Y86408D02*
X99092Y81392D01*
X99092Y86408D02*
X104108Y86408D01*
X104108Y81392D01*
X99092Y81392D01*
X99092Y83533D02*
X104108Y83533D01*
X104108Y85674D02*
X99092Y85674D01*
D10*
X284480Y228600D03*
X487680Y228600D03*
D11*
X505460Y7620D03*
X266700Y246380D03*
D12*
X396272Y96408D02*
X396272Y91392D01*
X396272Y96408D02*
X401288Y96408D01*
X401288Y91392D01*
X396272Y91392D01*
X396272Y93533D02*
X401288Y93533D01*
X401288Y95674D02*
X396272Y95674D01*
X396272Y86408D02*
X396272Y81392D01*
X396272Y86408D02*
X401288Y86408D01*
X401288Y81392D01*
X396272Y81392D01*
X396272Y83533D02*
X401288Y83533D01*
X401288Y85674D02*
X396272Y85674D01*
X408972Y91392D02*
X408972Y96408D01*
X413988Y96408D01*
X413988Y91392D01*
X408972Y91392D01*
X408972Y93533D02*
X413988Y93533D01*
X413988Y95674D02*
X408972Y95674D01*
X408972Y86408D02*
X408972Y81392D01*
X408972Y86408D02*
X413988Y86408D01*
X413988Y81392D01*
X408972Y81392D01*
X408972Y83533D02*
X413988Y83533D01*
X413988Y85674D02*
X408972Y85674D01*
D13*
X263623Y149493D02*
X263623Y160507D01*
X282637Y160507D01*
X282637Y149493D01*
X263623Y149493D01*
X263623Y151636D02*
X282637Y151636D01*
X282637Y153779D02*
X263623Y153779D01*
X263623Y155922D02*
X282637Y155922D01*
X282637Y158065D02*
X263623Y158065D01*
X263623Y160208D02*
X282637Y160208D01*
X263623Y104507D02*
X263623Y93493D01*
X263623Y104507D02*
X282637Y104507D01*
X282637Y93493D01*
X263623Y93493D01*
X263623Y95636D02*
X282637Y95636D01*
X282637Y97779D02*
X263623Y97779D01*
X263623Y99922D02*
X282637Y99922D01*
X282637Y102065D02*
X263623Y102065D01*
X263623Y104208D02*
X282637Y104208D01*
D12*
X303622Y139492D02*
X303622Y144508D01*
X316138Y144508D01*
X316138Y139492D01*
X303622Y139492D01*
X303622Y141633D02*
X316138Y141633D01*
X316138Y143774D02*
X303622Y143774D01*
X303622Y134508D02*
X303622Y129492D01*
X303622Y134508D02*
X316138Y134508D01*
X316138Y129492D01*
X303622Y129492D01*
X303622Y131633D02*
X316138Y131633D01*
X316138Y133774D02*
X303622Y133774D01*
X303622Y124508D02*
X303622Y119492D01*
X303622Y124508D02*
X316138Y124508D01*
X316138Y119492D01*
X303622Y119492D01*
X303622Y121633D02*
X316138Y121633D01*
X316138Y123774D02*
X303622Y123774D01*
X303622Y114508D02*
X303622Y109492D01*
X303622Y114508D02*
X316138Y114508D01*
X316138Y109492D01*
X303622Y109492D01*
X303622Y111633D02*
X316138Y111633D01*
X316138Y113774D02*
X303622Y113774D01*
D14*
X347980Y12700D03*
X373380Y12700D03*
X398780Y12700D03*
X424180Y12700D03*
D13*
X508537Y93493D02*
X508537Y104507D01*
X508537Y93493D02*
X489523Y93493D01*
X489523Y104507D01*
X508537Y104507D01*
X508537Y95636D02*
X489523Y95636D01*
X489523Y97779D02*
X508537Y97779D01*
X508537Y99922D02*
X489523Y99922D01*
X489523Y102065D02*
X508537Y102065D01*
X508537Y104208D02*
X489523Y104208D01*
X508537Y149493D02*
X508537Y160507D01*
X508537Y149493D02*
X489523Y149493D01*
X489523Y160507D01*
X508537Y160507D01*
X508537Y151636D02*
X489523Y151636D01*
X489523Y153779D02*
X508537Y153779D01*
X508537Y155922D02*
X489523Y155922D01*
X489523Y158065D02*
X508537Y158065D01*
X508537Y160208D02*
X489523Y160208D01*
D12*
X468538Y114508D02*
X468538Y109492D01*
X456022Y109492D01*
X456022Y114508D01*
X468538Y114508D01*
X468538Y111633D02*
X456022Y111633D01*
X456022Y113774D02*
X468538Y113774D01*
X468538Y119492D02*
X468538Y124508D01*
X468538Y119492D02*
X456022Y119492D01*
X456022Y124508D01*
X468538Y124508D01*
X468538Y121633D02*
X456022Y121633D01*
X456022Y123774D02*
X468538Y123774D01*
X468538Y129492D02*
X468538Y134508D01*
X468538Y129492D02*
X456022Y129492D01*
X456022Y134508D01*
X468538Y134508D01*
X468538Y131633D02*
X456022Y131633D01*
X456022Y133774D02*
X468538Y133774D01*
X468538Y139492D02*
X468538Y144508D01*
X468538Y139492D02*
X456022Y139492D01*
X456022Y144508D01*
X468538Y144508D01*
X468538Y141633D02*
X456022Y141633D01*
X456022Y143774D02*
X468538Y143774D01*
X291988Y85058D02*
X286972Y85058D01*
X291988Y85058D02*
X291988Y80042D01*
X286972Y80042D01*
X286972Y85058D01*
X286972Y82183D02*
X291988Y82183D01*
X291988Y84324D02*
X286972Y84324D01*
X281988Y85058D02*
X276972Y85058D01*
X281988Y85058D02*
X281988Y80042D01*
X276972Y80042D01*
X276972Y85058D01*
X276972Y82183D02*
X281988Y82183D01*
X281988Y84324D02*
X276972Y84324D01*
D15*
X279204Y73344D02*
X279204Y66356D01*
X272216Y66356D01*
X272216Y73344D01*
X279204Y73344D01*
X279204Y70425D02*
X272216Y70425D01*
X296744Y73344D02*
X296744Y66356D01*
X289756Y66356D01*
X289756Y73344D01*
X296744Y73344D01*
X296744Y70425D02*
X289756Y70425D01*
D10*
X487680Y25400D03*
X284480Y25400D03*
D16*
X370007Y110523D02*
X370007Y125477D01*
X370007Y110523D02*
X364053Y110523D01*
X364053Y125477D01*
X370007Y125477D01*
X370007Y112723D02*
X364053Y112723D01*
X364053Y114923D02*
X370007Y114923D01*
X370007Y117123D02*
X364053Y117123D01*
X364053Y119323D02*
X370007Y119323D01*
X370007Y121523D02*
X364053Y121523D01*
X364053Y123723D02*
X370007Y123723D01*
X382707Y125477D02*
X382707Y110523D01*
X376753Y110523D01*
X376753Y125477D01*
X382707Y125477D01*
X382707Y112723D02*
X376753Y112723D01*
X376753Y114923D02*
X382707Y114923D01*
X382707Y117123D02*
X376753Y117123D01*
X376753Y119323D02*
X382707Y119323D01*
X382707Y121523D02*
X376753Y121523D01*
X376753Y123723D02*
X382707Y123723D01*
X395407Y125477D02*
X395407Y110523D01*
X389453Y110523D01*
X389453Y125477D01*
X395407Y125477D01*
X395407Y112723D02*
X389453Y112723D01*
X389453Y114923D02*
X395407Y114923D01*
X395407Y117123D02*
X389453Y117123D01*
X389453Y119323D02*
X395407Y119323D01*
X395407Y121523D02*
X389453Y121523D01*
X389453Y123723D02*
X395407Y123723D01*
X408107Y125477D02*
X408107Y110523D01*
X402153Y110523D01*
X402153Y125477D01*
X408107Y125477D01*
X408107Y112723D02*
X402153Y112723D01*
X402153Y114923D02*
X408107Y114923D01*
X408107Y117123D02*
X402153Y117123D01*
X402153Y119323D02*
X408107Y119323D01*
X408107Y121523D02*
X402153Y121523D01*
X402153Y123723D02*
X408107Y123723D01*
D12*
X370872Y96408D02*
X370872Y91392D01*
X370872Y96408D02*
X375888Y96408D01*
X375888Y91392D01*
X370872Y91392D01*
X370872Y93533D02*
X375888Y93533D01*
X375888Y95674D02*
X370872Y95674D01*
X370872Y86408D02*
X370872Y81392D01*
X370872Y86408D02*
X375888Y86408D01*
X375888Y81392D01*
X370872Y81392D01*
X370872Y83533D02*
X375888Y83533D01*
X375888Y85674D02*
X370872Y85674D01*
X383572Y91392D02*
X383572Y96408D01*
X388588Y96408D01*
X388588Y91392D01*
X383572Y91392D01*
X383572Y93533D02*
X388588Y93533D01*
X388588Y95674D02*
X383572Y95674D01*
X383572Y86408D02*
X383572Y81392D01*
X383572Y86408D02*
X388588Y86408D01*
X388588Y81392D01*
X383572Y81392D01*
X383572Y83533D02*
X388588Y83533D01*
X388588Y85674D02*
X383572Y85674D01*
X358172Y91392D02*
X358172Y96408D01*
X363188Y96408D01*
X363188Y91392D01*
X358172Y91392D01*
X358172Y93533D02*
X363188Y93533D01*
X363188Y95674D02*
X358172Y95674D01*
X358172Y86408D02*
X358172Y81392D01*
X358172Y86408D02*
X363188Y86408D01*
X363188Y81392D01*
X358172Y81392D01*
X358172Y83533D02*
X363188Y83533D01*
X363188Y85674D02*
X358172Y85674D01*
D10*
X543560Y228600D03*
X746760Y228600D03*
D11*
X764540Y7620D03*
X525780Y246380D03*
D12*
X655352Y96408D02*
X655352Y91392D01*
X655352Y96408D02*
X660368Y96408D01*
X660368Y91392D01*
X655352Y91392D01*
X655352Y93533D02*
X660368Y93533D01*
X660368Y95674D02*
X655352Y95674D01*
X655352Y86408D02*
X655352Y81392D01*
X655352Y86408D02*
X660368Y86408D01*
X660368Y81392D01*
X655352Y81392D01*
X655352Y83533D02*
X660368Y83533D01*
X660368Y85674D02*
X655352Y85674D01*
X668052Y91392D02*
X668052Y96408D01*
X673068Y96408D01*
X673068Y91392D01*
X668052Y91392D01*
X668052Y93533D02*
X673068Y93533D01*
X673068Y95674D02*
X668052Y95674D01*
X668052Y86408D02*
X668052Y81392D01*
X668052Y86408D02*
X673068Y86408D01*
X673068Y81392D01*
X668052Y81392D01*
X668052Y83533D02*
X673068Y83533D01*
X673068Y85674D02*
X668052Y85674D01*
D13*
X522703Y149493D02*
X522703Y160507D01*
X541717Y160507D01*
X541717Y149493D01*
X522703Y149493D01*
X522703Y151636D02*
X541717Y151636D01*
X541717Y153779D02*
X522703Y153779D01*
X522703Y155922D02*
X541717Y155922D01*
X541717Y158065D02*
X522703Y158065D01*
X522703Y160208D02*
X541717Y160208D01*
X522703Y104507D02*
X522703Y93493D01*
X522703Y104507D02*
X541717Y104507D01*
X541717Y93493D01*
X522703Y93493D01*
X522703Y95636D02*
X541717Y95636D01*
X541717Y97779D02*
X522703Y97779D01*
X522703Y99922D02*
X541717Y99922D01*
X541717Y102065D02*
X522703Y102065D01*
X522703Y104208D02*
X541717Y104208D01*
D12*
X562702Y139492D02*
X562702Y144508D01*
X575218Y144508D01*
X575218Y139492D01*
X562702Y139492D01*
X562702Y141633D02*
X575218Y141633D01*
X575218Y143774D02*
X562702Y143774D01*
X562702Y134508D02*
X562702Y129492D01*
X562702Y134508D02*
X575218Y134508D01*
X575218Y129492D01*
X562702Y129492D01*
X562702Y131633D02*
X575218Y131633D01*
X575218Y133774D02*
X562702Y133774D01*
X562702Y124508D02*
X562702Y119492D01*
X562702Y124508D02*
X575218Y124508D01*
X575218Y119492D01*
X562702Y119492D01*
X562702Y121633D02*
X575218Y121633D01*
X575218Y123774D02*
X562702Y123774D01*
X562702Y114508D02*
X562702Y109492D01*
X562702Y114508D02*
X575218Y114508D01*
X575218Y109492D01*
X562702Y109492D01*
X562702Y111633D02*
X575218Y111633D01*
X575218Y113774D02*
X562702Y113774D01*
D14*
X607060Y12700D03*
X632460Y12700D03*
X657860Y12700D03*
X683260Y12700D03*
D13*
X767617Y93493D02*
X767617Y104507D01*
X767617Y93493D02*
X748603Y93493D01*
X748603Y104507D01*
X767617Y104507D01*
X767617Y95636D02*
X748603Y95636D01*
X748603Y97779D02*
X767617Y97779D01*
X767617Y99922D02*
X748603Y99922D01*
X748603Y102065D02*
X767617Y102065D01*
X767617Y104208D02*
X748603Y104208D01*
X767617Y149493D02*
X767617Y160507D01*
X767617Y149493D02*
X748603Y149493D01*
X748603Y160507D01*
X767617Y160507D01*
X767617Y151636D02*
X748603Y151636D01*
X748603Y153779D02*
X767617Y153779D01*
X767617Y155922D02*
X748603Y155922D01*
X748603Y158065D02*
X767617Y158065D01*
X767617Y160208D02*
X748603Y160208D01*
D12*
X727618Y114508D02*
X727618Y109492D01*
X715102Y109492D01*
X715102Y114508D01*
X727618Y114508D01*
X727618Y111633D02*
X715102Y111633D01*
X715102Y113774D02*
X727618Y113774D01*
X727618Y119492D02*
X727618Y124508D01*
X727618Y119492D02*
X715102Y119492D01*
X715102Y124508D01*
X727618Y124508D01*
X727618Y121633D02*
X715102Y121633D01*
X715102Y123774D02*
X727618Y123774D01*
X727618Y129492D02*
X727618Y134508D01*
X727618Y129492D02*
X715102Y129492D01*
X715102Y134508D01*
X727618Y134508D01*
X727618Y131633D02*
X715102Y131633D01*
X715102Y133774D02*
X727618Y133774D01*
X727618Y139492D02*
X727618Y144508D01*
X727618Y139492D02*
X715102Y139492D01*
X715102Y144508D01*
X727618Y144508D01*
X727618Y141633D02*
X715102Y141633D01*
X715102Y143774D02*
X727618Y143774D01*
X551068Y85058D02*
X546052Y85058D01*
X551068Y85058D02*
X551068Y80042D01*
X546052Y80042D01*
X546052Y85058D01*
X546052Y82183D02*
X551068Y82183D01*
X551068Y84324D02*
X546052Y84324D01*
X541068Y85058D02*
X536052Y85058D01*
X541068Y85058D02*
X541068Y80042D01*
X536052Y80042D01*
X536052Y85058D01*
X536052Y82183D02*
X541068Y82183D01*
X541068Y84324D02*
X536052Y84324D01*
D15*
X538284Y73344D02*
X538284Y66356D01*
X531296Y66356D01*
X531296Y73344D01*
X538284Y73344D01*
X538284Y70425D02*
X531296Y70425D01*
X555824Y73344D02*
X555824Y66356D01*
X548836Y66356D01*
X548836Y73344D01*
X555824Y73344D01*
X555824Y70425D02*
X548836Y70425D01*
D10*
X746760Y25400D03*
X543560Y25400D03*
D16*
X629087Y110523D02*
X629087Y125477D01*
X629087Y110523D02*
X623133Y110523D01*
X623133Y125477D01*
X629087Y125477D01*
X629087Y112723D02*
X623133Y112723D01*
X623133Y114923D02*
X629087Y114923D01*
X629087Y117123D02*
X623133Y117123D01*
X623133Y119323D02*
X629087Y119323D01*
X629087Y121523D02*
X623133Y121523D01*
X623133Y123723D02*
X629087Y123723D01*
X641787Y125477D02*
X641787Y110523D01*
X635833Y110523D01*
X635833Y125477D01*
X641787Y125477D01*
X641787Y112723D02*
X635833Y112723D01*
X635833Y114923D02*
X641787Y114923D01*
X641787Y117123D02*
X635833Y117123D01*
X635833Y119323D02*
X641787Y119323D01*
X641787Y121523D02*
X635833Y121523D01*
X635833Y123723D02*
X641787Y123723D01*
X654487Y125477D02*
X654487Y110523D01*
X648533Y110523D01*
X648533Y125477D01*
X654487Y125477D01*
X654487Y112723D02*
X648533Y112723D01*
X648533Y114923D02*
X654487Y114923D01*
X654487Y117123D02*
X648533Y117123D01*
X648533Y119323D02*
X654487Y119323D01*
X654487Y121523D02*
X648533Y121523D01*
X648533Y123723D02*
X654487Y123723D01*
X667187Y125477D02*
X667187Y110523D01*
X661233Y110523D01*
X661233Y125477D01*
X667187Y125477D01*
X667187Y112723D02*
X661233Y112723D01*
X661233Y114923D02*
X667187Y114923D01*
X667187Y117123D02*
X661233Y117123D01*
X661233Y119323D02*
X667187Y119323D01*
X667187Y121523D02*
X661233Y121523D01*
X661233Y123723D02*
X667187Y123723D01*
D12*
X629952Y96408D02*
X629952Y91392D01*
X629952Y96408D02*
X634968Y96408D01*
X634968Y91392D01*
X629952Y91392D01*
X629952Y93533D02*
X634968Y93533D01*
X634968Y95674D02*
X629952Y95674D01*
X629952Y86408D02*
X629952Y81392D01*
X629952Y86408D02*
X634968Y86408D01*
X634968Y81392D01*
X629952Y81392D01*
X629952Y83533D02*
X634968Y83533D01*
X634968Y85674D02*
X629952Y85674D01*
X642652Y91392D02*
X642652Y96408D01*
X647668Y96408D01*
X647668Y91392D01*
X642652Y91392D01*
X642652Y93533D02*
X647668Y93533D01*
X647668Y95674D02*
X642652Y95674D01*
X642652Y86408D02*
X642652Y81392D01*
X642652Y86408D02*
X647668Y86408D01*
X647668Y81392D01*
X642652Y81392D01*
X642652Y83533D02*
X647668Y83533D01*
X647668Y85674D02*
X642652Y85674D01*
X617252Y91392D02*
X617252Y96408D01*
X622268Y96408D01*
X622268Y91392D01*
X617252Y91392D01*
X617252Y93533D02*
X622268Y93533D01*
X622268Y95674D02*
X617252Y95674D01*
X617252Y86408D02*
X617252Y81392D01*
X617252Y86408D02*
X622268Y86408D01*
X622268Y81392D01*
X617252Y81392D01*
X617252Y83533D02*
X622268Y83533D01*
X622268Y85674D02*
X617252Y85674D01*
D10*
X802640Y228600D03*
X1005840Y228600D03*
D11*
X1023620Y7620D03*
X784860Y246380D03*
D12*
X914432Y96408D02*
X914432Y91392D01*
X914432Y96408D02*
X919448Y96408D01*
X919448Y91392D01*
X914432Y91392D01*
X914432Y93533D02*
X919448Y93533D01*
X919448Y95674D02*
X914432Y95674D01*
X914432Y86408D02*
X914432Y81392D01*
X914432Y86408D02*
X919448Y86408D01*
X919448Y81392D01*
X914432Y81392D01*
X914432Y83533D02*
X919448Y83533D01*
X919448Y85674D02*
X914432Y85674D01*
X927132Y91392D02*
X927132Y96408D01*
X932148Y96408D01*
X932148Y91392D01*
X927132Y91392D01*
X927132Y93533D02*
X932148Y93533D01*
X932148Y95674D02*
X927132Y95674D01*
X927132Y86408D02*
X927132Y81392D01*
X927132Y86408D02*
X932148Y86408D01*
X932148Y81392D01*
X927132Y81392D01*
X927132Y83533D02*
X932148Y83533D01*
X932148Y85674D02*
X927132Y85674D01*
D13*
X781783Y149493D02*
X781783Y160507D01*
X800797Y160507D01*
X800797Y149493D01*
X781783Y149493D01*
X781783Y151636D02*
X800797Y151636D01*
X800797Y153779D02*
X781783Y153779D01*
X781783Y155922D02*
X800797Y155922D01*
X800797Y158065D02*
X781783Y158065D01*
X781783Y160208D02*
X800797Y160208D01*
X781783Y104507D02*
X781783Y93493D01*
X781783Y104507D02*
X800797Y104507D01*
X800797Y93493D01*
X781783Y93493D01*
X781783Y95636D02*
X800797Y95636D01*
X800797Y97779D02*
X781783Y97779D01*
X781783Y99922D02*
X800797Y99922D01*
X800797Y102065D02*
X781783Y102065D01*
X781783Y104208D02*
X800797Y104208D01*
D12*
X821782Y139492D02*
X821782Y144508D01*
X834298Y144508D01*
X834298Y139492D01*
X821782Y139492D01*
X821782Y141633D02*
X834298Y141633D01*
X834298Y143774D02*
X821782Y143774D01*
X821782Y134508D02*
X821782Y129492D01*
X821782Y134508D02*
X834298Y134508D01*
X834298Y129492D01*
X821782Y129492D01*
X821782Y131633D02*
X834298Y131633D01*
X834298Y133774D02*
X821782Y133774D01*
X821782Y124508D02*
X821782Y119492D01*
X821782Y124508D02*
X834298Y124508D01*
X834298Y119492D01*
X821782Y119492D01*
X821782Y121633D02*
X834298Y121633D01*
X834298Y123774D02*
X821782Y123774D01*
X821782Y114508D02*
X821782Y109492D01*
X821782Y114508D02*
X834298Y114508D01*
X834298Y109492D01*
X821782Y109492D01*
X821782Y111633D02*
X834298Y111633D01*
X834298Y113774D02*
X821782Y113774D01*
D14*
X866140Y12700D03*
X891540Y12700D03*
X916940Y12700D03*
X942340Y12700D03*
D13*
X1026697Y93493D02*
X1026697Y104507D01*
X1026697Y93493D02*
X1007683Y93493D01*
X1007683Y104507D01*
X1026697Y104507D01*
X1026697Y95636D02*
X1007683Y95636D01*
X1007683Y97779D02*
X1026697Y97779D01*
X1026697Y99922D02*
X1007683Y99922D01*
X1007683Y102065D02*
X1026697Y102065D01*
X1026697Y104208D02*
X1007683Y104208D01*
X1026697Y149493D02*
X1026697Y160507D01*
X1026697Y149493D02*
X1007683Y149493D01*
X1007683Y160507D01*
X1026697Y160507D01*
X1026697Y151636D02*
X1007683Y151636D01*
X1007683Y153779D02*
X1026697Y153779D01*
X1026697Y155922D02*
X1007683Y155922D01*
X1007683Y158065D02*
X1026697Y158065D01*
X1026697Y160208D02*
X1007683Y160208D01*
D12*
X986698Y114508D02*
X986698Y109492D01*
X974182Y109492D01*
X974182Y114508D01*
X986698Y114508D01*
X986698Y111633D02*
X974182Y111633D01*
X974182Y113774D02*
X986698Y113774D01*
X986698Y119492D02*
X986698Y124508D01*
X986698Y119492D02*
X974182Y119492D01*
X974182Y124508D01*
X986698Y124508D01*
X986698Y121633D02*
X974182Y121633D01*
X974182Y123774D02*
X986698Y123774D01*
X986698Y129492D02*
X986698Y134508D01*
X986698Y129492D02*
X974182Y129492D01*
X974182Y134508D01*
X986698Y134508D01*
X986698Y131633D02*
X974182Y131633D01*
X974182Y133774D02*
X986698Y133774D01*
X986698Y139492D02*
X986698Y144508D01*
X986698Y139492D02*
X974182Y139492D01*
X974182Y144508D01*
X986698Y144508D01*
X986698Y141633D02*
X974182Y141633D01*
X974182Y143774D02*
X986698Y143774D01*
X810148Y85058D02*
X805132Y85058D01*
X810148Y85058D02*
X810148Y80042D01*
X805132Y80042D01*
X805132Y85058D01*
X805132Y82183D02*
X810148Y82183D01*
X810148Y84324D02*
X805132Y84324D01*
X800148Y85058D02*
X795132Y85058D01*
X800148Y85058D02*
X800148Y80042D01*
X795132Y80042D01*
X795132Y85058D01*
X795132Y82183D02*
X800148Y82183D01*
X800148Y84324D02*
X795132Y84324D01*
D15*
X797364Y73344D02*
X797364Y66356D01*
X790376Y66356D01*
X790376Y73344D01*
X797364Y73344D01*
X797364Y70425D02*
X790376Y70425D01*
X814904Y73344D02*
X814904Y66356D01*
X807916Y66356D01*
X807916Y73344D01*
X814904Y73344D01*
X814904Y70425D02*
X807916Y70425D01*
D10*
X1005840Y25400D03*
X802640Y25400D03*
D16*
X888167Y110523D02*
X888167Y125477D01*
X888167Y110523D02*
X882213Y110523D01*
X882213Y125477D01*
X888167Y125477D01*
X888167Y112723D02*
X882213Y112723D01*
X882213Y114923D02*
X888167Y114923D01*
X888167Y117123D02*
X882213Y117123D01*
X882213Y119323D02*
X888167Y119323D01*
X888167Y121523D02*
X882213Y121523D01*
X882213Y123723D02*
X888167Y123723D01*
X900867Y125477D02*
X900867Y110523D01*
X894913Y110523D01*
X894913Y125477D01*
X900867Y125477D01*
X900867Y112723D02*
X894913Y112723D01*
X894913Y114923D02*
X900867Y114923D01*
X900867Y117123D02*
X894913Y117123D01*
X894913Y119323D02*
X900867Y119323D01*
X900867Y121523D02*
X894913Y121523D01*
X894913Y123723D02*
X900867Y123723D01*
X913567Y125477D02*
X913567Y110523D01*
X907613Y110523D01*
X907613Y125477D01*
X913567Y125477D01*
X913567Y112723D02*
X907613Y112723D01*
X907613Y114923D02*
X913567Y114923D01*
X913567Y117123D02*
X907613Y117123D01*
X907613Y119323D02*
X913567Y119323D01*
X913567Y121523D02*
X907613Y121523D01*
X907613Y123723D02*
X913567Y123723D01*
X926267Y125477D02*
X926267Y110523D01*
X920313Y110523D01*
X920313Y125477D01*
X926267Y125477D01*
X926267Y112723D02*
X920313Y112723D01*
X920313Y114923D02*
X926267Y114923D01*
X926267Y117123D02*
X920313Y117123D01*
X920313Y119323D02*
X926267Y119323D01*
X926267Y121523D02*
X920313Y121523D01*
X920313Y123723D02*
X926267Y123723D01*
D12*
X889032Y96408D02*
X889032Y91392D01*
X889032Y96408D02*
X894048Y96408D01*
X894048Y91392D01*
X889032Y91392D01*
X889032Y93533D02*
X894048Y93533D01*
X894048Y95674D02*
X889032Y95674D01*
X889032Y86408D02*
X889032Y81392D01*
X889032Y86408D02*
X894048Y86408D01*
X894048Y81392D01*
X889032Y81392D01*
X889032Y83533D02*
X894048Y83533D01*
X894048Y85674D02*
X889032Y85674D01*
X901732Y91392D02*
X901732Y96408D01*
X906748Y96408D01*
X906748Y91392D01*
X901732Y91392D01*
X901732Y93533D02*
X906748Y93533D01*
X906748Y95674D02*
X901732Y95674D01*
X901732Y86408D02*
X901732Y81392D01*
X901732Y86408D02*
X906748Y86408D01*
X906748Y81392D01*
X901732Y81392D01*
X901732Y83533D02*
X906748Y83533D01*
X906748Y85674D02*
X901732Y85674D01*
X876332Y91392D02*
X876332Y96408D01*
X881348Y96408D01*
X881348Y91392D01*
X876332Y91392D01*
X876332Y93533D02*
X881348Y93533D01*
X881348Y95674D02*
X876332Y95674D01*
X876332Y86408D02*
X876332Y81392D01*
X876332Y86408D02*
X881348Y86408D01*
X881348Y81392D01*
X876332Y81392D01*
X876332Y83533D02*
X881348Y83533D01*
X881348Y85674D02*
X876332Y85674D01*
D10*
X1061720Y228600D03*
X1264920Y228600D03*
D11*
X1282700Y7620D03*
X1043940Y246380D03*
D12*
X1173512Y96408D02*
X1173512Y91392D01*
X1173512Y96408D02*
X1178528Y96408D01*
X1178528Y91392D01*
X1173512Y91392D01*
X1173512Y93533D02*
X1178528Y93533D01*
X1178528Y95674D02*
X1173512Y95674D01*
X1173512Y86408D02*
X1173512Y81392D01*
X1173512Y86408D02*
X1178528Y86408D01*
X1178528Y81392D01*
X1173512Y81392D01*
X1173512Y83533D02*
X1178528Y83533D01*
X1178528Y85674D02*
X1173512Y85674D01*
X1186212Y91392D02*
X1186212Y96408D01*
X1191228Y96408D01*
X1191228Y91392D01*
X1186212Y91392D01*
X1186212Y93533D02*
X1191228Y93533D01*
X1191228Y95674D02*
X1186212Y95674D01*
X1186212Y86408D02*
X1186212Y81392D01*
X1186212Y86408D02*
X1191228Y86408D01*
X1191228Y81392D01*
X1186212Y81392D01*
X1186212Y83533D02*
X1191228Y83533D01*
X1191228Y85674D02*
X1186212Y85674D01*
D13*
X1040863Y149493D02*
X1040863Y160507D01*
X1059877Y160507D01*
X1059877Y149493D01*
X1040863Y149493D01*
X1040863Y151636D02*
X1059877Y151636D01*
X1059877Y153779D02*
X1040863Y153779D01*
X1040863Y155922D02*
X1059877Y155922D01*
X1059877Y158065D02*
X1040863Y158065D01*
X1040863Y160208D02*
X1059877Y160208D01*
X1040863Y104507D02*
X1040863Y93493D01*
X1040863Y104507D02*
X1059877Y104507D01*
X1059877Y93493D01*
X1040863Y93493D01*
X1040863Y95636D02*
X1059877Y95636D01*
X1059877Y97779D02*
X1040863Y97779D01*
X1040863Y99922D02*
X1059877Y99922D01*
X1059877Y102065D02*
X1040863Y102065D01*
X1040863Y104208D02*
X1059877Y104208D01*
D12*
X1080862Y139492D02*
X1080862Y144508D01*
X1093378Y144508D01*
X1093378Y139492D01*
X1080862Y139492D01*
X1080862Y141633D02*
X1093378Y141633D01*
X1093378Y143774D02*
X1080862Y143774D01*
X1080862Y134508D02*
X1080862Y129492D01*
X1080862Y134508D02*
X1093378Y134508D01*
X1093378Y129492D01*
X1080862Y129492D01*
X1080862Y131633D02*
X1093378Y131633D01*
X1093378Y133774D02*
X1080862Y133774D01*
X1080862Y124508D02*
X1080862Y119492D01*
X1080862Y124508D02*
X1093378Y124508D01*
X1093378Y119492D01*
X1080862Y119492D01*
X1080862Y121633D02*
X1093378Y121633D01*
X1093378Y123774D02*
X1080862Y123774D01*
X1080862Y114508D02*
X1080862Y109492D01*
X1080862Y114508D02*
X1093378Y114508D01*
X1093378Y109492D01*
X1080862Y109492D01*
X1080862Y111633D02*
X1093378Y111633D01*
X1093378Y113774D02*
X1080862Y113774D01*
D14*
X1125220Y12700D03*
X1150620Y12700D03*
X1176020Y12700D03*
X1201420Y12700D03*
D13*
X1285777Y93493D02*
X1285777Y104507D01*
X1285777Y93493D02*
X1266763Y93493D01*
X1266763Y104507D01*
X1285777Y104507D01*
X1285777Y95636D02*
X1266763Y95636D01*
X1266763Y97779D02*
X1285777Y97779D01*
X1285777Y99922D02*
X1266763Y99922D01*
X1266763Y102065D02*
X1285777Y102065D01*
X1285777Y104208D02*
X1266763Y104208D01*
X1285777Y149493D02*
X1285777Y160507D01*
X1285777Y149493D02*
X1266763Y149493D01*
X1266763Y160507D01*
X1285777Y160507D01*
X1285777Y151636D02*
X1266763Y151636D01*
X1266763Y153779D02*
X1285777Y153779D01*
X1285777Y155922D02*
X1266763Y155922D01*
X1266763Y158065D02*
X1285777Y158065D01*
X1285777Y160208D02*
X1266763Y160208D01*
D12*
X1245778Y114508D02*
X1245778Y109492D01*
X1233262Y109492D01*
X1233262Y114508D01*
X1245778Y114508D01*
X1245778Y111633D02*
X1233262Y111633D01*
X1233262Y113774D02*
X1245778Y113774D01*
X1245778Y119492D02*
X1245778Y124508D01*
X1245778Y119492D02*
X1233262Y119492D01*
X1233262Y124508D01*
X1245778Y124508D01*
X1245778Y121633D02*
X1233262Y121633D01*
X1233262Y123774D02*
X1245778Y123774D01*
X1245778Y129492D02*
X1245778Y134508D01*
X1245778Y129492D02*
X1233262Y129492D01*
X1233262Y134508D01*
X1245778Y134508D01*
X1245778Y131633D02*
X1233262Y131633D01*
X1233262Y133774D02*
X1245778Y133774D01*
X1245778Y139492D02*
X1245778Y144508D01*
X1245778Y139492D02*
X1233262Y139492D01*
X1233262Y144508D01*
X1245778Y144508D01*
X1245778Y141633D02*
X1233262Y141633D01*
X1233262Y143774D02*
X1245778Y143774D01*
X1069228Y85058D02*
X1064212Y85058D01*
X1069228Y85058D02*
X1069228Y80042D01*
X1064212Y80042D01*
X1064212Y85058D01*
X1064212Y82183D02*
X1069228Y82183D01*
X1069228Y84324D02*
X1064212Y84324D01*
X1059228Y85058D02*
X1054212Y85058D01*
X1059228Y85058D02*
X1059228Y80042D01*
X1054212Y80042D01*
X1054212Y85058D01*
X1054212Y82183D02*
X1059228Y82183D01*
X1059228Y84324D02*
X1054212Y84324D01*
D15*
X1056444Y73344D02*
X1056444Y66356D01*
X1049456Y66356D01*
X1049456Y73344D01*
X1056444Y73344D01*
X1056444Y70425D02*
X1049456Y70425D01*
X1073984Y73344D02*
X1073984Y66356D01*
X1066996Y66356D01*
X1066996Y73344D01*
X1073984Y73344D01*
X1073984Y70425D02*
X1066996Y70425D01*
D10*
X1264920Y25400D03*
X1061720Y25400D03*
D16*
X1147247Y110523D02*
X1147247Y125477D01*
X1147247Y110523D02*
X1141293Y110523D01*
X1141293Y125477D01*
X1147247Y125477D01*
X1147247Y112723D02*
X1141293Y112723D01*
X1141293Y114923D02*
X1147247Y114923D01*
X1147247Y117123D02*
X1141293Y117123D01*
X1141293Y119323D02*
X1147247Y119323D01*
X1147247Y121523D02*
X1141293Y121523D01*
X1141293Y123723D02*
X1147247Y123723D01*
X1159947Y125477D02*
X1159947Y110523D01*
X1153993Y110523D01*
X1153993Y125477D01*
X1159947Y125477D01*
X1159947Y112723D02*
X1153993Y112723D01*
X1153993Y114923D02*
X1159947Y114923D01*
X1159947Y117123D02*
X1153993Y117123D01*
X1153993Y119323D02*
X1159947Y119323D01*
X1159947Y121523D02*
X1153993Y121523D01*
X1153993Y123723D02*
X1159947Y123723D01*
X1172647Y125477D02*
X1172647Y110523D01*
X1166693Y110523D01*
X1166693Y125477D01*
X1172647Y125477D01*
X1172647Y112723D02*
X1166693Y112723D01*
X1166693Y114923D02*
X1172647Y114923D01*
X1172647Y117123D02*
X1166693Y117123D01*
X1166693Y119323D02*
X1172647Y119323D01*
X1172647Y121523D02*
X1166693Y121523D01*
X1166693Y123723D02*
X1172647Y123723D01*
X1185347Y125477D02*
X1185347Y110523D01*
X1179393Y110523D01*
X1179393Y125477D01*
X1185347Y125477D01*
X1185347Y112723D02*
X1179393Y112723D01*
X1179393Y114923D02*
X1185347Y114923D01*
X1185347Y117123D02*
X1179393Y117123D01*
X1179393Y119323D02*
X1185347Y119323D01*
X1185347Y121523D02*
X1179393Y121523D01*
X1179393Y123723D02*
X1185347Y123723D01*
D12*
X1148112Y96408D02*
X1148112Y91392D01*
X1148112Y96408D02*
X1153128Y96408D01*
X1153128Y91392D01*
X1148112Y91392D01*
X1148112Y93533D02*
X1153128Y93533D01*
X1153128Y95674D02*
X1148112Y95674D01*
X1148112Y86408D02*
X1148112Y81392D01*
X1148112Y86408D02*
X1153128Y86408D01*
X1153128Y81392D01*
X1148112Y81392D01*
X1148112Y83533D02*
X1153128Y83533D01*
X1153128Y85674D02*
X1148112Y85674D01*
X1160812Y91392D02*
X1160812Y96408D01*
X1165828Y96408D01*
X1165828Y91392D01*
X1160812Y91392D01*
X1160812Y93533D02*
X1165828Y93533D01*
X1165828Y95674D02*
X1160812Y95674D01*
X1160812Y86408D02*
X1160812Y81392D01*
X1160812Y86408D02*
X1165828Y86408D01*
X1165828Y81392D01*
X1160812Y81392D01*
X1160812Y83533D02*
X1165828Y83533D01*
X1165828Y85674D02*
X1160812Y85674D01*
X1135412Y91392D02*
X1135412Y96408D01*
X1140428Y96408D01*
X1140428Y91392D01*
X1135412Y91392D01*
X1135412Y93533D02*
X1140428Y93533D01*
X1140428Y95674D02*
X1135412Y95674D01*
X1135412Y86408D02*
X1135412Y81392D01*
X1135412Y86408D02*
X1140428Y86408D01*
X1140428Y81392D01*
X1135412Y81392D01*
X1135412Y83533D02*
X1140428Y83533D01*
X1140428Y85674D02*
X1135412Y85674D01*
D10*
X1320800Y228600D03*
X1524000Y228600D03*
D11*
X1541780Y7620D03*
X1303020Y246380D03*
D12*
X1432592Y96408D02*
X1432592Y91392D01*
X1432592Y96408D02*
X1437608Y96408D01*
X1437608Y91392D01*
X1432592Y91392D01*
X1432592Y93533D02*
X1437608Y93533D01*
X1437608Y95674D02*
X1432592Y95674D01*
X1432592Y86408D02*
X1432592Y81392D01*
X1432592Y86408D02*
X1437608Y86408D01*
X1437608Y81392D01*
X1432592Y81392D01*
X1432592Y83533D02*
X1437608Y83533D01*
X1437608Y85674D02*
X1432592Y85674D01*
X1445292Y91392D02*
X1445292Y96408D01*
X1450308Y96408D01*
X1450308Y91392D01*
X1445292Y91392D01*
X1445292Y93533D02*
X1450308Y93533D01*
X1450308Y95674D02*
X1445292Y95674D01*
X1445292Y86408D02*
X1445292Y81392D01*
X1445292Y86408D02*
X1450308Y86408D01*
X1450308Y81392D01*
X1445292Y81392D01*
X1445292Y83533D02*
X1450308Y83533D01*
X1450308Y85674D02*
X1445292Y85674D01*
D13*
X1299943Y149493D02*
X1299943Y160507D01*
X1318957Y160507D01*
X1318957Y149493D01*
X1299943Y149493D01*
X1299943Y151636D02*
X1318957Y151636D01*
X1318957Y153779D02*
X1299943Y153779D01*
X1299943Y155922D02*
X1318957Y155922D01*
X1318957Y158065D02*
X1299943Y158065D01*
X1299943Y160208D02*
X1318957Y160208D01*
X1299943Y104507D02*
X1299943Y93493D01*
X1299943Y104507D02*
X1318957Y104507D01*
X1318957Y93493D01*
X1299943Y93493D01*
X1299943Y95636D02*
X1318957Y95636D01*
X1318957Y97779D02*
X1299943Y97779D01*
X1299943Y99922D02*
X1318957Y99922D01*
X1318957Y102065D02*
X1299943Y102065D01*
X1299943Y104208D02*
X1318957Y104208D01*
D12*
X1339942Y139492D02*
X1339942Y144508D01*
X1352458Y144508D01*
X1352458Y139492D01*
X1339942Y139492D01*
X1339942Y141633D02*
X1352458Y141633D01*
X1352458Y143774D02*
X1339942Y143774D01*
X1339942Y134508D02*
X1339942Y129492D01*
X1339942Y134508D02*
X1352458Y134508D01*
X1352458Y129492D01*
X1339942Y129492D01*
X1339942Y131633D02*
X1352458Y131633D01*
X1352458Y133774D02*
X1339942Y133774D01*
X1339942Y124508D02*
X1339942Y119492D01*
X1339942Y124508D02*
X1352458Y124508D01*
X1352458Y119492D01*
X1339942Y119492D01*
X1339942Y121633D02*
X1352458Y121633D01*
X1352458Y123774D02*
X1339942Y123774D01*
X1339942Y114508D02*
X1339942Y109492D01*
X1339942Y114508D02*
X1352458Y114508D01*
X1352458Y109492D01*
X1339942Y109492D01*
X1339942Y111633D02*
X1352458Y111633D01*
X1352458Y113774D02*
X1339942Y113774D01*
D14*
X1384300Y12700D03*
X1409700Y12700D03*
X1435100Y12700D03*
X1460500Y12700D03*
D13*
X1544857Y93493D02*
X1544857Y104507D01*
X1544857Y93493D02*
X1525843Y93493D01*
X1525843Y104507D01*
X1544857Y104507D01*
X1544857Y95636D02*
X1525843Y95636D01*
X1525843Y97779D02*
X1544857Y97779D01*
X1544857Y99922D02*
X1525843Y99922D01*
X1525843Y102065D02*
X1544857Y102065D01*
X1544857Y104208D02*
X1525843Y104208D01*
X1544857Y149493D02*
X1544857Y160507D01*
X1544857Y149493D02*
X1525843Y149493D01*
X1525843Y160507D01*
X1544857Y160507D01*
X1544857Y151636D02*
X1525843Y151636D01*
X1525843Y153779D02*
X1544857Y153779D01*
X1544857Y155922D02*
X1525843Y155922D01*
X1525843Y158065D02*
X1544857Y158065D01*
X1544857Y160208D02*
X1525843Y160208D01*
D12*
X1504858Y114508D02*
X1504858Y109492D01*
X1492342Y109492D01*
X1492342Y114508D01*
X1504858Y114508D01*
X1504858Y111633D02*
X1492342Y111633D01*
X1492342Y113774D02*
X1504858Y113774D01*
X1504858Y119492D02*
X1504858Y124508D01*
X1504858Y119492D02*
X1492342Y119492D01*
X1492342Y124508D01*
X1504858Y124508D01*
X1504858Y121633D02*
X1492342Y121633D01*
X1492342Y123774D02*
X1504858Y123774D01*
X1504858Y129492D02*
X1504858Y134508D01*
X1504858Y129492D02*
X1492342Y129492D01*
X1492342Y134508D01*
X1504858Y134508D01*
X1504858Y131633D02*
X1492342Y131633D01*
X1492342Y133774D02*
X1504858Y133774D01*
X1504858Y139492D02*
X1504858Y144508D01*
X1504858Y139492D02*
X1492342Y139492D01*
X1492342Y144508D01*
X1504858Y144508D01*
X1504858Y141633D02*
X1492342Y141633D01*
X1492342Y143774D02*
X1504858Y143774D01*
X1328308Y85058D02*
X1323292Y85058D01*
X1328308Y85058D02*
X1328308Y80042D01*
X1323292Y80042D01*
X1323292Y85058D01*
X1323292Y82183D02*
X1328308Y82183D01*
X1328308Y84324D02*
X1323292Y84324D01*
X1318308Y85058D02*
X1313292Y85058D01*
X1318308Y85058D02*
X1318308Y80042D01*
X1313292Y80042D01*
X1313292Y85058D01*
X1313292Y82183D02*
X1318308Y82183D01*
X1318308Y84324D02*
X1313292Y84324D01*
D15*
X1315524Y73344D02*
X1315524Y66356D01*
X1308536Y66356D01*
X1308536Y73344D01*
X1315524Y73344D01*
X1315524Y70425D02*
X1308536Y70425D01*
X1333064Y73344D02*
X1333064Y66356D01*
X1326076Y66356D01*
X1326076Y73344D01*
X1333064Y73344D01*
X1333064Y70425D02*
X1326076Y70425D01*
D10*
X1524000Y25400D03*
X1320800Y25400D03*
D16*
X1406327Y110523D02*
X1406327Y125477D01*
X1406327Y110523D02*
X1400373Y110523D01*
X1400373Y125477D01*
X1406327Y125477D01*
X1406327Y112723D02*
X1400373Y112723D01*
X1400373Y114923D02*
X1406327Y114923D01*
X1406327Y117123D02*
X1400373Y117123D01*
X1400373Y119323D02*
X1406327Y119323D01*
X1406327Y121523D02*
X1400373Y121523D01*
X1400373Y123723D02*
X1406327Y123723D01*
X1419027Y125477D02*
X1419027Y110523D01*
X1413073Y110523D01*
X1413073Y125477D01*
X1419027Y125477D01*
X1419027Y112723D02*
X1413073Y112723D01*
X1413073Y114923D02*
X1419027Y114923D01*
X1419027Y117123D02*
X1413073Y117123D01*
X1413073Y119323D02*
X1419027Y119323D01*
X1419027Y121523D02*
X1413073Y121523D01*
X1413073Y123723D02*
X1419027Y123723D01*
X1431727Y125477D02*
X1431727Y110523D01*
X1425773Y110523D01*
X1425773Y125477D01*
X1431727Y125477D01*
X1431727Y112723D02*
X1425773Y112723D01*
X1425773Y114923D02*
X1431727Y114923D01*
X1431727Y117123D02*
X1425773Y117123D01*
X1425773Y119323D02*
X1431727Y119323D01*
X1431727Y121523D02*
X1425773Y121523D01*
X1425773Y123723D02*
X1431727Y123723D01*
X1444427Y125477D02*
X1444427Y110523D01*
X1438473Y110523D01*
X1438473Y125477D01*
X1444427Y125477D01*
X1444427Y112723D02*
X1438473Y112723D01*
X1438473Y114923D02*
X1444427Y114923D01*
X1444427Y117123D02*
X1438473Y117123D01*
X1438473Y119323D02*
X1444427Y119323D01*
X1444427Y121523D02*
X1438473Y121523D01*
X1438473Y123723D02*
X1444427Y123723D01*
D12*
X1407192Y96408D02*
X1407192Y91392D01*
X1407192Y96408D02*
X1412208Y96408D01*
X1412208Y91392D01*
X1407192Y91392D01*
X1407192Y93533D02*
X1412208Y93533D01*
X1412208Y95674D02*
X1407192Y95674D01*
X1407192Y86408D02*
X1407192Y81392D01*
X1407192Y86408D02*
X1412208Y86408D01*
X1412208Y81392D01*
X1407192Y81392D01*
X1407192Y83533D02*
X1412208Y83533D01*
X1412208Y85674D02*
X1407192Y85674D01*
X1419892Y91392D02*
X1419892Y96408D01*
X1424908Y96408D01*
X1424908Y91392D01*
X1419892Y91392D01*
X1419892Y93533D02*
X1424908Y93533D01*
X1424908Y95674D02*
X1419892Y95674D01*
X1419892Y86408D02*
X1419892Y81392D01*
X1419892Y86408D02*
X1424908Y86408D01*
X1424908Y81392D01*
X1419892Y81392D01*
X1419892Y83533D02*
X1424908Y83533D01*
X1424908Y85674D02*
X1419892Y85674D01*
X1394492Y91392D02*
X1394492Y96408D01*
X1399508Y96408D01*
X1399508Y91392D01*
X1394492Y91392D01*
X1394492Y93533D02*
X1399508Y93533D01*
X1399508Y95674D02*
X1394492Y95674D01*
X1394492Y86408D02*
X1394492Y81392D01*
X1394492Y86408D02*
X1399508Y86408D01*
X1399508Y81392D01*
X1394492Y81392D01*
X1394492Y83533D02*
X1399508Y83533D01*
X1399508Y85674D02*
X1394492Y85674D01*
D10*
X25400Y487680D03*
X228600Y487680D03*
D11*
X246380Y266700D03*
X7620Y505460D03*
D12*
X137192Y355488D02*
X137192Y350472D01*
X137192Y355488D02*
X142208Y355488D01*
X142208Y350472D01*
X137192Y350472D01*
X137192Y352613D02*
X142208Y352613D01*
X142208Y354754D02*
X137192Y354754D01*
X137192Y345488D02*
X137192Y340472D01*
X137192Y345488D02*
X142208Y345488D01*
X142208Y340472D01*
X137192Y340472D01*
X137192Y342613D02*
X142208Y342613D01*
X142208Y344754D02*
X137192Y344754D01*
X149892Y350472D02*
X149892Y355488D01*
X154908Y355488D01*
X154908Y350472D01*
X149892Y350472D01*
X149892Y352613D02*
X154908Y352613D01*
X154908Y354754D02*
X149892Y354754D01*
X149892Y345488D02*
X149892Y340472D01*
X149892Y345488D02*
X154908Y345488D01*
X154908Y340472D01*
X149892Y340472D01*
X149892Y342613D02*
X154908Y342613D01*
X154908Y344754D02*
X149892Y344754D01*
D13*
X4543Y408573D02*
X4543Y419587D01*
X23557Y419587D01*
X23557Y408573D01*
X4543Y408573D01*
X4543Y410716D02*
X23557Y410716D01*
X23557Y412859D02*
X4543Y412859D01*
X4543Y415002D02*
X23557Y415002D01*
X23557Y417145D02*
X4543Y417145D01*
X4543Y419288D02*
X23557Y419288D01*
X4543Y363587D02*
X4543Y352573D01*
X4543Y363587D02*
X23557Y363587D01*
X23557Y352573D01*
X4543Y352573D01*
X4543Y354716D02*
X23557Y354716D01*
X23557Y356859D02*
X4543Y356859D01*
X4543Y359002D02*
X23557Y359002D01*
X23557Y361145D02*
X4543Y361145D01*
X4543Y363288D02*
X23557Y363288D01*
D12*
X44542Y398572D02*
X44542Y403588D01*
X57058Y403588D01*
X57058Y398572D01*
X44542Y398572D01*
X44542Y400713D02*
X57058Y400713D01*
X57058Y402854D02*
X44542Y402854D01*
X44542Y393588D02*
X44542Y388572D01*
X44542Y393588D02*
X57058Y393588D01*
X57058Y388572D01*
X44542Y388572D01*
X44542Y390713D02*
X57058Y390713D01*
X57058Y392854D02*
X44542Y392854D01*
X44542Y383588D02*
X44542Y378572D01*
X44542Y383588D02*
X57058Y383588D01*
X57058Y378572D01*
X44542Y378572D01*
X44542Y380713D02*
X57058Y380713D01*
X57058Y382854D02*
X44542Y382854D01*
X44542Y373588D02*
X44542Y368572D01*
X44542Y373588D02*
X57058Y373588D01*
X57058Y368572D01*
X44542Y368572D01*
X44542Y370713D02*
X57058Y370713D01*
X57058Y372854D02*
X44542Y372854D01*
D14*
X88900Y271780D03*
X114300Y271780D03*
X139700Y271780D03*
X165100Y271780D03*
D13*
X249457Y352573D02*
X249457Y363587D01*
X249457Y352573D02*
X230443Y352573D01*
X230443Y363587D01*
X249457Y363587D01*
X249457Y354716D02*
X230443Y354716D01*
X230443Y356859D02*
X249457Y356859D01*
X249457Y359002D02*
X230443Y359002D01*
X230443Y361145D02*
X249457Y361145D01*
X249457Y363288D02*
X230443Y363288D01*
X249457Y408573D02*
X249457Y419587D01*
X249457Y408573D02*
X230443Y408573D01*
X230443Y419587D01*
X249457Y419587D01*
X249457Y410716D02*
X230443Y410716D01*
X230443Y412859D02*
X249457Y412859D01*
X249457Y415002D02*
X230443Y415002D01*
X230443Y417145D02*
X249457Y417145D01*
X249457Y419288D02*
X230443Y419288D01*
D12*
X209458Y373588D02*
X209458Y368572D01*
X196942Y368572D01*
X196942Y373588D01*
X209458Y373588D01*
X209458Y370713D02*
X196942Y370713D01*
X196942Y372854D02*
X209458Y372854D01*
X209458Y378572D02*
X209458Y383588D01*
X209458Y378572D02*
X196942Y378572D01*
X196942Y383588D01*
X209458Y383588D01*
X209458Y380713D02*
X196942Y380713D01*
X196942Y382854D02*
X209458Y382854D01*
X209458Y388572D02*
X209458Y393588D01*
X209458Y388572D02*
X196942Y388572D01*
X196942Y393588D01*
X209458Y393588D01*
X209458Y390713D02*
X196942Y390713D01*
X196942Y392854D02*
X209458Y392854D01*
X209458Y398572D02*
X209458Y403588D01*
X209458Y398572D02*
X196942Y398572D01*
X196942Y403588D01*
X209458Y403588D01*
X209458Y400713D02*
X196942Y400713D01*
X196942Y402854D02*
X209458Y402854D01*
X32908Y344138D02*
X27892Y344138D01*
X32908Y344138D02*
X32908Y339122D01*
X27892Y339122D01*
X27892Y344138D01*
X27892Y341263D02*
X32908Y341263D01*
X32908Y343404D02*
X27892Y343404D01*
X22908Y344138D02*
X17892Y344138D01*
X22908Y344138D02*
X22908Y339122D01*
X17892Y339122D01*
X17892Y344138D01*
X17892Y341263D02*
X22908Y341263D01*
X22908Y343404D02*
X17892Y343404D01*
D15*
X20124Y332424D02*
X20124Y325436D01*
X13136Y325436D01*
X13136Y332424D01*
X20124Y332424D01*
X20124Y329505D02*
X13136Y329505D01*
X37664Y332424D02*
X37664Y325436D01*
X30676Y325436D01*
X30676Y332424D01*
X37664Y332424D01*
X37664Y329505D02*
X30676Y329505D01*
D10*
X228600Y284480D03*
X25400Y284480D03*
D16*
X110927Y369603D02*
X110927Y384557D01*
X110927Y369603D02*
X104973Y369603D01*
X104973Y384557D01*
X110927Y384557D01*
X110927Y371803D02*
X104973Y371803D01*
X104973Y374003D02*
X110927Y374003D01*
X110927Y376203D02*
X104973Y376203D01*
X104973Y378403D02*
X110927Y378403D01*
X110927Y380603D02*
X104973Y380603D01*
X104973Y382803D02*
X110927Y382803D01*
X123627Y384557D02*
X123627Y369603D01*
X117673Y369603D01*
X117673Y384557D01*
X123627Y384557D01*
X123627Y371803D02*
X117673Y371803D01*
X117673Y374003D02*
X123627Y374003D01*
X123627Y376203D02*
X117673Y376203D01*
X117673Y378403D02*
X123627Y378403D01*
X123627Y380603D02*
X117673Y380603D01*
X117673Y382803D02*
X123627Y382803D01*
X136327Y384557D02*
X136327Y369603D01*
X130373Y369603D01*
X130373Y384557D01*
X136327Y384557D01*
X136327Y371803D02*
X130373Y371803D01*
X130373Y374003D02*
X136327Y374003D01*
X136327Y376203D02*
X130373Y376203D01*
X130373Y378403D02*
X136327Y378403D01*
X136327Y380603D02*
X130373Y380603D01*
X130373Y382803D02*
X136327Y382803D01*
X149027Y384557D02*
X149027Y369603D01*
X143073Y369603D01*
X143073Y384557D01*
X149027Y384557D01*
X149027Y371803D02*
X143073Y371803D01*
X143073Y374003D02*
X149027Y374003D01*
X149027Y376203D02*
X143073Y376203D01*
X143073Y378403D02*
X149027Y378403D01*
X149027Y380603D02*
X143073Y380603D01*
X143073Y382803D02*
X149027Y382803D01*
D12*
X111792Y355488D02*
X111792Y350472D01*
X111792Y355488D02*
X116808Y355488D01*
X116808Y350472D01*
X111792Y350472D01*
X111792Y352613D02*
X116808Y352613D01*
X116808Y354754D02*
X111792Y354754D01*
X111792Y345488D02*
X111792Y340472D01*
X111792Y345488D02*
X116808Y345488D01*
X116808Y340472D01*
X111792Y340472D01*
X111792Y342613D02*
X116808Y342613D01*
X116808Y344754D02*
X111792Y344754D01*
X124492Y350472D02*
X124492Y355488D01*
X129508Y355488D01*
X129508Y350472D01*
X124492Y350472D01*
X124492Y352613D02*
X129508Y352613D01*
X129508Y354754D02*
X124492Y354754D01*
X124492Y345488D02*
X124492Y340472D01*
X124492Y345488D02*
X129508Y345488D01*
X129508Y340472D01*
X124492Y340472D01*
X124492Y342613D02*
X129508Y342613D01*
X129508Y344754D02*
X124492Y344754D01*
X99092Y350472D02*
X99092Y355488D01*
X104108Y355488D01*
X104108Y350472D01*
X99092Y350472D01*
X99092Y352613D02*
X104108Y352613D01*
X104108Y354754D02*
X99092Y354754D01*
X99092Y345488D02*
X99092Y340472D01*
X99092Y345488D02*
X104108Y345488D01*
X104108Y340472D01*
X99092Y340472D01*
X99092Y342613D02*
X104108Y342613D01*
X104108Y344754D02*
X99092Y344754D01*
D10*
X284480Y487680D03*
X487680Y487680D03*
D11*
X505460Y266700D03*
X266700Y505460D03*
D12*
X396272Y355488D02*
X396272Y350472D01*
X396272Y355488D02*
X401288Y355488D01*
X401288Y350472D01*
X396272Y350472D01*
X396272Y352613D02*
X401288Y352613D01*
X401288Y354754D02*
X396272Y354754D01*
X396272Y345488D02*
X396272Y340472D01*
X396272Y345488D02*
X401288Y345488D01*
X401288Y340472D01*
X396272Y340472D01*
X396272Y342613D02*
X401288Y342613D01*
X401288Y344754D02*
X396272Y344754D01*
X408972Y350472D02*
X408972Y355488D01*
X413988Y355488D01*
X413988Y350472D01*
X408972Y350472D01*
X408972Y352613D02*
X413988Y352613D01*
X413988Y354754D02*
X408972Y354754D01*
X408972Y345488D02*
X408972Y340472D01*
X408972Y345488D02*
X413988Y345488D01*
X413988Y340472D01*
X408972Y340472D01*
X408972Y342613D02*
X413988Y342613D01*
X413988Y344754D02*
X408972Y344754D01*
D13*
X263623Y408573D02*
X263623Y419587D01*
X282637Y419587D01*
X282637Y408573D01*
X263623Y408573D01*
X263623Y410716D02*
X282637Y410716D01*
X282637Y412859D02*
X263623Y412859D01*
X263623Y415002D02*
X282637Y415002D01*
X282637Y417145D02*
X263623Y417145D01*
X263623Y419288D02*
X282637Y419288D01*
X263623Y363587D02*
X263623Y352573D01*
X263623Y363587D02*
X282637Y363587D01*
X282637Y352573D01*
X263623Y352573D01*
X263623Y354716D02*
X282637Y354716D01*
X282637Y356859D02*
X263623Y356859D01*
X263623Y359002D02*
X282637Y359002D01*
X282637Y361145D02*
X263623Y361145D01*
X263623Y363288D02*
X282637Y363288D01*
D12*
X303622Y398572D02*
X303622Y403588D01*
X316138Y403588D01*
X316138Y398572D01*
X303622Y398572D01*
X303622Y400713D02*
X316138Y400713D01*
X316138Y402854D02*
X303622Y402854D01*
X303622Y393588D02*
X303622Y388572D01*
X303622Y393588D02*
X316138Y393588D01*
X316138Y388572D01*
X303622Y388572D01*
X303622Y390713D02*
X316138Y390713D01*
X316138Y392854D02*
X303622Y392854D01*
X303622Y383588D02*
X303622Y378572D01*
X303622Y383588D02*
X316138Y383588D01*
X316138Y378572D01*
X303622Y378572D01*
X303622Y380713D02*
X316138Y380713D01*
X316138Y382854D02*
X303622Y382854D01*
X303622Y373588D02*
X303622Y368572D01*
X303622Y373588D02*
X316138Y373588D01*
X316138Y368572D01*
X303622Y368572D01*
X303622Y370713D02*
X316138Y370713D01*
X316138Y372854D02*
X303622Y372854D01*
D14*
X347980Y271780D03*
X373380Y271780D03*
X398780Y271780D03*
X424180Y271780D03*
D13*
X508537Y352573D02*
X508537Y363587D01*
X508537Y352573D02*
X489523Y352573D01*
X489523Y363587D01*
X508537Y363587D01*
X508537Y354716D02*
X489523Y354716D01*
X489523Y356859D02*
X508537Y356859D01*
X508537Y359002D02*
X489523Y359002D01*
X489523Y361145D02*
X508537Y361145D01*
X508537Y363288D02*
X489523Y363288D01*
X508537Y408573D02*
X508537Y419587D01*
X508537Y408573D02*
X489523Y408573D01*
X489523Y419587D01*
X508537Y419587D01*
X508537Y410716D02*
X489523Y410716D01*
X489523Y412859D02*
X508537Y412859D01*
X508537Y415002D02*
X489523Y415002D01*
X489523Y417145D02*
X508537Y417145D01*
X508537Y419288D02*
X489523Y419288D01*
D12*
X468538Y373588D02*
X468538Y368572D01*
X456022Y368572D01*
X456022Y373588D01*
X468538Y373588D01*
X468538Y370713D02*
X456022Y370713D01*
X456022Y372854D02*
X468538Y372854D01*
X468538Y378572D02*
X468538Y383588D01*
X468538Y378572D02*
X456022Y378572D01*
X456022Y383588D01*
X468538Y383588D01*
X468538Y380713D02*
X456022Y380713D01*
X456022Y382854D02*
X468538Y382854D01*
X468538Y388572D02*
X468538Y393588D01*
X468538Y388572D02*
X456022Y388572D01*
X456022Y393588D01*
X468538Y393588D01*
X468538Y390713D02*
X456022Y390713D01*
X456022Y392854D02*
X468538Y392854D01*
X468538Y398572D02*
X468538Y403588D01*
X468538Y398572D02*
X456022Y398572D01*
X456022Y403588D01*
X468538Y403588D01*
X468538Y400713D02*
X456022Y400713D01*
X456022Y402854D02*
X468538Y402854D01*
X291988Y344138D02*
X286972Y344138D01*
X291988Y344138D02*
X291988Y339122D01*
X286972Y339122D01*
X286972Y344138D01*
X286972Y341263D02*
X291988Y341263D01*
X291988Y343404D02*
X286972Y343404D01*
X281988Y344138D02*
X276972Y344138D01*
X281988Y344138D02*
X281988Y339122D01*
X276972Y339122D01*
X276972Y344138D01*
X276972Y341263D02*
X281988Y341263D01*
X281988Y343404D02*
X276972Y343404D01*
D15*
X279204Y332424D02*
X279204Y325436D01*
X272216Y325436D01*
X272216Y332424D01*
X279204Y332424D01*
X279204Y329505D02*
X272216Y329505D01*
X296744Y332424D02*
X296744Y325436D01*
X289756Y325436D01*
X289756Y332424D01*
X296744Y332424D01*
X296744Y329505D02*
X289756Y329505D01*
D10*
X487680Y284480D03*
X284480Y284480D03*
D16*
X370007Y369603D02*
X370007Y384557D01*
X370007Y369603D02*
X364053Y369603D01*
X364053Y384557D01*
X370007Y384557D01*
X370007Y371803D02*
X364053Y371803D01*
X364053Y374003D02*
X370007Y374003D01*
X370007Y376203D02*
X364053Y376203D01*
X364053Y378403D02*
X370007Y378403D01*
X370007Y380603D02*
X364053Y380603D01*
X364053Y382803D02*
X370007Y382803D01*
X382707Y384557D02*
X382707Y369603D01*
X376753Y369603D01*
X376753Y384557D01*
X382707Y384557D01*
X382707Y371803D02*
X376753Y371803D01*
X376753Y374003D02*
X382707Y374003D01*
X382707Y376203D02*
X376753Y376203D01*
X376753Y378403D02*
X382707Y378403D01*
X382707Y380603D02*
X376753Y380603D01*
X376753Y382803D02*
X382707Y382803D01*
X395407Y384557D02*
X395407Y369603D01*
X389453Y369603D01*
X389453Y384557D01*
X395407Y384557D01*
X395407Y371803D02*
X389453Y371803D01*
X389453Y374003D02*
X395407Y374003D01*
X395407Y376203D02*
X389453Y376203D01*
X389453Y378403D02*
X395407Y378403D01*
X395407Y380603D02*
X389453Y380603D01*
X389453Y382803D02*
X395407Y382803D01*
X408107Y384557D02*
X408107Y369603D01*
X402153Y369603D01*
X402153Y384557D01*
X408107Y384557D01*
X408107Y371803D02*
X402153Y371803D01*
X402153Y374003D02*
X408107Y374003D01*
X408107Y376203D02*
X402153Y376203D01*
X402153Y378403D02*
X408107Y378403D01*
X408107Y380603D02*
X402153Y380603D01*
X402153Y382803D02*
X408107Y382803D01*
D12*
X370872Y355488D02*
X370872Y350472D01*
X370872Y355488D02*
X375888Y355488D01*
X375888Y350472D01*
X370872Y350472D01*
X370872Y352613D02*
X375888Y352613D01*
X375888Y354754D02*
X370872Y354754D01*
X370872Y345488D02*
X370872Y340472D01*
X370872Y345488D02*
X375888Y345488D01*
X375888Y340472D01*
X370872Y340472D01*
X370872Y342613D02*
X375888Y342613D01*
X375888Y344754D02*
X370872Y344754D01*
X383572Y350472D02*
X383572Y355488D01*
X388588Y355488D01*
X388588Y350472D01*
X383572Y350472D01*
X383572Y352613D02*
X388588Y352613D01*
X388588Y354754D02*
X383572Y354754D01*
X383572Y345488D02*
X383572Y340472D01*
X383572Y345488D02*
X388588Y345488D01*
X388588Y340472D01*
X383572Y340472D01*
X383572Y342613D02*
X388588Y342613D01*
X388588Y344754D02*
X383572Y344754D01*
X358172Y350472D02*
X358172Y355488D01*
X363188Y355488D01*
X363188Y350472D01*
X358172Y350472D01*
X358172Y352613D02*
X363188Y352613D01*
X363188Y354754D02*
X358172Y354754D01*
X358172Y345488D02*
X358172Y340472D01*
X358172Y345488D02*
X363188Y345488D01*
X363188Y340472D01*
X358172Y340472D01*
X358172Y342613D02*
X363188Y342613D01*
X363188Y344754D02*
X358172Y344754D01*
D10*
X543560Y487680D03*
X746760Y487680D03*
D11*
X764540Y266700D03*
X525780Y505460D03*
D12*
X655352Y355488D02*
X655352Y350472D01*
X655352Y355488D02*
X660368Y355488D01*
X660368Y350472D01*
X655352Y350472D01*
X655352Y352613D02*
X660368Y352613D01*
X660368Y354754D02*
X655352Y354754D01*
X655352Y345488D02*
X655352Y340472D01*
X655352Y345488D02*
X660368Y345488D01*
X660368Y340472D01*
X655352Y340472D01*
X655352Y342613D02*
X660368Y342613D01*
X660368Y344754D02*
X655352Y344754D01*
X668052Y350472D02*
X668052Y355488D01*
X673068Y355488D01*
X673068Y350472D01*
X668052Y350472D01*
X668052Y352613D02*
X673068Y352613D01*
X673068Y354754D02*
X668052Y354754D01*
X668052Y345488D02*
X668052Y340472D01*
X668052Y345488D02*
X673068Y345488D01*
X673068Y340472D01*
X668052Y340472D01*
X668052Y342613D02*
X673068Y342613D01*
X673068Y344754D02*
X668052Y344754D01*
D13*
X522703Y408573D02*
X522703Y419587D01*
X541717Y419587D01*
X541717Y408573D01*
X522703Y408573D01*
X522703Y410716D02*
X541717Y410716D01*
X541717Y412859D02*
X522703Y412859D01*
X522703Y415002D02*
X541717Y415002D01*
X541717Y417145D02*
X522703Y417145D01*
X522703Y419288D02*
X541717Y419288D01*
X522703Y363587D02*
X522703Y352573D01*
X522703Y363587D02*
X541717Y363587D01*
X541717Y352573D01*
X522703Y352573D01*
X522703Y354716D02*
X541717Y354716D01*
X541717Y356859D02*
X522703Y356859D01*
X522703Y359002D02*
X541717Y359002D01*
X541717Y361145D02*
X522703Y361145D01*
X522703Y363288D02*
X541717Y363288D01*
D12*
X562702Y398572D02*
X562702Y403588D01*
X575218Y403588D01*
X575218Y398572D01*
X562702Y398572D01*
X562702Y400713D02*
X575218Y400713D01*
X575218Y402854D02*
X562702Y402854D01*
X562702Y393588D02*
X562702Y388572D01*
X562702Y393588D02*
X575218Y393588D01*
X575218Y388572D01*
X562702Y388572D01*
X562702Y390713D02*
X575218Y390713D01*
X575218Y392854D02*
X562702Y392854D01*
X562702Y383588D02*
X562702Y378572D01*
X562702Y383588D02*
X575218Y383588D01*
X575218Y378572D01*
X562702Y378572D01*
X562702Y380713D02*
X575218Y380713D01*
X575218Y382854D02*
X562702Y382854D01*
X562702Y373588D02*
X562702Y368572D01*
X562702Y373588D02*
X575218Y373588D01*
X575218Y368572D01*
X562702Y368572D01*
X562702Y370713D02*
X575218Y370713D01*
X575218Y372854D02*
X562702Y372854D01*
D14*
X607060Y271780D03*
X632460Y271780D03*
X657860Y271780D03*
X683260Y271780D03*
D13*
X767617Y352573D02*
X767617Y363587D01*
X767617Y352573D02*
X748603Y352573D01*
X748603Y363587D01*
X767617Y363587D01*
X767617Y354716D02*
X748603Y354716D01*
X748603Y356859D02*
X767617Y356859D01*
X767617Y359002D02*
X748603Y359002D01*
X748603Y361145D02*
X767617Y361145D01*
X767617Y363288D02*
X748603Y363288D01*
X767617Y408573D02*
X767617Y419587D01*
X767617Y408573D02*
X748603Y408573D01*
X748603Y419587D01*
X767617Y419587D01*
X767617Y410716D02*
X748603Y410716D01*
X748603Y412859D02*
X767617Y412859D01*
X767617Y415002D02*
X748603Y415002D01*
X748603Y417145D02*
X767617Y417145D01*
X767617Y419288D02*
X748603Y419288D01*
D12*
X727618Y373588D02*
X727618Y368572D01*
X715102Y368572D01*
X715102Y373588D01*
X727618Y373588D01*
X727618Y370713D02*
X715102Y370713D01*
X715102Y372854D02*
X727618Y372854D01*
X727618Y378572D02*
X727618Y383588D01*
X727618Y378572D02*
X715102Y378572D01*
X715102Y383588D01*
X727618Y383588D01*
X727618Y380713D02*
X715102Y380713D01*
X715102Y382854D02*
X727618Y382854D01*
X727618Y388572D02*
X727618Y393588D01*
X727618Y388572D02*
X715102Y388572D01*
X715102Y393588D01*
X727618Y393588D01*
X727618Y390713D02*
X715102Y390713D01*
X715102Y392854D02*
X727618Y392854D01*
X727618Y398572D02*
X727618Y403588D01*
X727618Y398572D02*
X715102Y398572D01*
X715102Y403588D01*
X727618Y403588D01*
X727618Y400713D02*
X715102Y400713D01*
X715102Y402854D02*
X727618Y402854D01*
X551068Y344138D02*
X546052Y344138D01*
X551068Y344138D02*
X551068Y339122D01*
X546052Y339122D01*
X546052Y344138D01*
X546052Y341263D02*
X551068Y341263D01*
X551068Y343404D02*
X546052Y343404D01*
X541068Y344138D02*
X536052Y344138D01*
X541068Y344138D02*
X541068Y339122D01*
X536052Y339122D01*
X536052Y344138D01*
X536052Y341263D02*
X541068Y341263D01*
X541068Y343404D02*
X536052Y343404D01*
D15*
X538284Y332424D02*
X538284Y325436D01*
X531296Y325436D01*
X531296Y332424D01*
X538284Y332424D01*
X538284Y329505D02*
X531296Y329505D01*
X555824Y332424D02*
X555824Y325436D01*
X548836Y325436D01*
X548836Y332424D01*
X555824Y332424D01*
X555824Y329505D02*
X548836Y329505D01*
D10*
X746760Y284480D03*
X543560Y284480D03*
D16*
X629087Y369603D02*
X629087Y384557D01*
X629087Y369603D02*
X623133Y369603D01*
X623133Y384557D01*
X629087Y384557D01*
X629087Y371803D02*
X623133Y371803D01*
X623133Y374003D02*
X629087Y374003D01*
X629087Y376203D02*
X623133Y376203D01*
X623133Y378403D02*
X629087Y378403D01*
X629087Y380603D02*
X623133Y380603D01*
X623133Y382803D02*
X629087Y382803D01*
X641787Y384557D02*
X641787Y369603D01*
X635833Y369603D01*
X635833Y384557D01*
X641787Y384557D01*
X641787Y371803D02*
X635833Y371803D01*
X635833Y374003D02*
X641787Y374003D01*
X641787Y376203D02*
X635833Y376203D01*
X635833Y378403D02*
X641787Y378403D01*
X641787Y380603D02*
X635833Y380603D01*
X635833Y382803D02*
X641787Y382803D01*
X654487Y384557D02*
X654487Y369603D01*
X648533Y369603D01*
X648533Y384557D01*
X654487Y384557D01*
X654487Y371803D02*
X648533Y371803D01*
X648533Y374003D02*
X654487Y374003D01*
X654487Y376203D02*
X648533Y376203D01*
X648533Y378403D02*
X654487Y378403D01*
X654487Y380603D02*
X648533Y380603D01*
X648533Y382803D02*
X654487Y382803D01*
X667187Y384557D02*
X667187Y369603D01*
X661233Y369603D01*
X661233Y384557D01*
X667187Y384557D01*
X667187Y371803D02*
X661233Y371803D01*
X661233Y374003D02*
X667187Y374003D01*
X667187Y376203D02*
X661233Y376203D01*
X661233Y378403D02*
X667187Y378403D01*
X667187Y380603D02*
X661233Y380603D01*
X661233Y382803D02*
X667187Y382803D01*
D12*
X629952Y355488D02*
X629952Y350472D01*
X629952Y355488D02*
X634968Y355488D01*
X634968Y350472D01*
X629952Y350472D01*
X629952Y352613D02*
X634968Y352613D01*
X634968Y354754D02*
X629952Y354754D01*
X629952Y345488D02*
X629952Y340472D01*
X629952Y345488D02*
X634968Y345488D01*
X634968Y340472D01*
X629952Y340472D01*
X629952Y342613D02*
X634968Y342613D01*
X634968Y344754D02*
X629952Y344754D01*
X642652Y350472D02*
X642652Y355488D01*
X647668Y355488D01*
X647668Y350472D01*
X642652Y350472D01*
X642652Y352613D02*
X647668Y352613D01*
X647668Y354754D02*
X642652Y354754D01*
X642652Y345488D02*
X642652Y340472D01*
X642652Y345488D02*
X647668Y345488D01*
X647668Y340472D01*
X642652Y340472D01*
X642652Y342613D02*
X647668Y342613D01*
X647668Y344754D02*
X642652Y344754D01*
X617252Y350472D02*
X617252Y355488D01*
X622268Y355488D01*
X622268Y350472D01*
X617252Y350472D01*
X617252Y352613D02*
X622268Y352613D01*
X622268Y354754D02*
X617252Y354754D01*
X617252Y345488D02*
X617252Y340472D01*
X617252Y345488D02*
X622268Y345488D01*
X622268Y340472D01*
X617252Y340472D01*
X617252Y342613D02*
X622268Y342613D01*
X622268Y344754D02*
X617252Y344754D01*
D10*
X802640Y487680D03*
X1005840Y487680D03*
D11*
X1023620Y266700D03*
X784860Y505460D03*
D12*
X914432Y355488D02*
X914432Y350472D01*
X914432Y355488D02*
X919448Y355488D01*
X919448Y350472D01*
X914432Y350472D01*
X914432Y352613D02*
X919448Y352613D01*
X919448Y354754D02*
X914432Y354754D01*
X914432Y345488D02*
X914432Y340472D01*
X914432Y345488D02*
X919448Y345488D01*
X919448Y340472D01*
X914432Y340472D01*
X914432Y342613D02*
X919448Y342613D01*
X919448Y344754D02*
X914432Y344754D01*
X927132Y350472D02*
X927132Y355488D01*
X932148Y355488D01*
X932148Y350472D01*
X927132Y350472D01*
X927132Y352613D02*
X932148Y352613D01*
X932148Y354754D02*
X927132Y354754D01*
X927132Y345488D02*
X927132Y340472D01*
X927132Y345488D02*
X932148Y345488D01*
X932148Y340472D01*
X927132Y340472D01*
X927132Y342613D02*
X932148Y342613D01*
X932148Y344754D02*
X927132Y344754D01*
D13*
X781783Y408573D02*
X781783Y419587D01*
X800797Y419587D01*
X800797Y408573D01*
X781783Y408573D01*
X781783Y410716D02*
X800797Y410716D01*
X800797Y412859D02*
X781783Y412859D01*
X781783Y415002D02*
X800797Y415002D01*
X800797Y417145D02*
X781783Y417145D01*
X781783Y419288D02*
X800797Y419288D01*
X781783Y363587D02*
X781783Y352573D01*
X781783Y363587D02*
X800797Y363587D01*
X800797Y352573D01*
X781783Y352573D01*
X781783Y354716D02*
X800797Y354716D01*
X800797Y356859D02*
X781783Y356859D01*
X781783Y359002D02*
X800797Y359002D01*
X800797Y361145D02*
X781783Y361145D01*
X781783Y363288D02*
X800797Y363288D01*
D12*
X821782Y398572D02*
X821782Y403588D01*
X834298Y403588D01*
X834298Y398572D01*
X821782Y398572D01*
X821782Y400713D02*
X834298Y400713D01*
X834298Y402854D02*
X821782Y402854D01*
X821782Y393588D02*
X821782Y388572D01*
X821782Y393588D02*
X834298Y393588D01*
X834298Y388572D01*
X821782Y388572D01*
X821782Y390713D02*
X834298Y390713D01*
X834298Y392854D02*
X821782Y392854D01*
X821782Y383588D02*
X821782Y378572D01*
X821782Y383588D02*
X834298Y383588D01*
X834298Y378572D01*
X821782Y378572D01*
X821782Y380713D02*
X834298Y380713D01*
X834298Y382854D02*
X821782Y382854D01*
X821782Y373588D02*
X821782Y368572D01*
X821782Y373588D02*
X834298Y373588D01*
X834298Y368572D01*
X821782Y368572D01*
X821782Y370713D02*
X834298Y370713D01*
X834298Y372854D02*
X821782Y372854D01*
D14*
X866140Y271780D03*
X891540Y271780D03*
X916940Y271780D03*
X942340Y271780D03*
D13*
X1026697Y352573D02*
X1026697Y363587D01*
X1026697Y352573D02*
X1007683Y352573D01*
X1007683Y363587D01*
X1026697Y363587D01*
X1026697Y354716D02*
X1007683Y354716D01*
X1007683Y356859D02*
X1026697Y356859D01*
X1026697Y359002D02*
X1007683Y359002D01*
X1007683Y361145D02*
X1026697Y361145D01*
X1026697Y363288D02*
X1007683Y363288D01*
X1026697Y408573D02*
X1026697Y419587D01*
X1026697Y408573D02*
X1007683Y408573D01*
X1007683Y419587D01*
X1026697Y419587D01*
X1026697Y410716D02*
X1007683Y410716D01*
X1007683Y412859D02*
X1026697Y412859D01*
X1026697Y415002D02*
X1007683Y415002D01*
X1007683Y417145D02*
X1026697Y417145D01*
X1026697Y419288D02*
X1007683Y419288D01*
D12*
X986698Y373588D02*
X986698Y368572D01*
X974182Y368572D01*
X974182Y373588D01*
X986698Y373588D01*
X986698Y370713D02*
X974182Y370713D01*
X974182Y372854D02*
X986698Y372854D01*
X986698Y378572D02*
X986698Y383588D01*
X986698Y378572D02*
X974182Y378572D01*
X974182Y383588D01*
X986698Y383588D01*
X986698Y380713D02*
X974182Y380713D01*
X974182Y382854D02*
X986698Y382854D01*
X986698Y388572D02*
X986698Y393588D01*
X986698Y388572D02*
X974182Y388572D01*
X974182Y393588D01*
X986698Y393588D01*
X986698Y390713D02*
X974182Y390713D01*
X974182Y392854D02*
X986698Y392854D01*
X986698Y398572D02*
X986698Y403588D01*
X986698Y398572D02*
X974182Y398572D01*
X974182Y403588D01*
X986698Y403588D01*
X986698Y400713D02*
X974182Y400713D01*
X974182Y402854D02*
X986698Y402854D01*
X810148Y344138D02*
X805132Y344138D01*
X810148Y344138D02*
X810148Y339122D01*
X805132Y339122D01*
X805132Y344138D01*
X805132Y341263D02*
X810148Y341263D01*
X810148Y343404D02*
X805132Y343404D01*
X800148Y344138D02*
X795132Y344138D01*
X800148Y344138D02*
X800148Y339122D01*
X795132Y339122D01*
X795132Y344138D01*
X795132Y341263D02*
X800148Y341263D01*
X800148Y343404D02*
X795132Y343404D01*
D15*
X797364Y332424D02*
X797364Y325436D01*
X790376Y325436D01*
X790376Y332424D01*
X797364Y332424D01*
X797364Y329505D02*
X790376Y329505D01*
X814904Y332424D02*
X814904Y325436D01*
X807916Y325436D01*
X807916Y332424D01*
X814904Y332424D01*
X814904Y329505D02*
X807916Y329505D01*
D10*
X1005840Y284480D03*
X802640Y284480D03*
D16*
X888167Y369603D02*
X888167Y384557D01*
X888167Y369603D02*
X882213Y369603D01*
X882213Y384557D01*
X888167Y384557D01*
X888167Y371803D02*
X882213Y371803D01*
X882213Y374003D02*
X888167Y374003D01*
X888167Y376203D02*
X882213Y376203D01*
X882213Y378403D02*
X888167Y378403D01*
X888167Y380603D02*
X882213Y380603D01*
X882213Y382803D02*
X888167Y382803D01*
X900867Y384557D02*
X900867Y369603D01*
X894913Y369603D01*
X894913Y384557D01*
X900867Y384557D01*
X900867Y371803D02*
X894913Y371803D01*
X894913Y374003D02*
X900867Y374003D01*
X900867Y376203D02*
X894913Y376203D01*
X894913Y378403D02*
X900867Y378403D01*
X900867Y380603D02*
X894913Y380603D01*
X894913Y382803D02*
X900867Y382803D01*
X913567Y384557D02*
X913567Y369603D01*
X907613Y369603D01*
X907613Y384557D01*
X913567Y384557D01*
X913567Y371803D02*
X907613Y371803D01*
X907613Y374003D02*
X913567Y374003D01*
X913567Y376203D02*
X907613Y376203D01*
X907613Y378403D02*
X913567Y378403D01*
X913567Y380603D02*
X907613Y380603D01*
X907613Y382803D02*
X913567Y382803D01*
X926267Y384557D02*
X926267Y369603D01*
X920313Y369603D01*
X920313Y384557D01*
X926267Y384557D01*
X926267Y371803D02*
X920313Y371803D01*
X920313Y374003D02*
X926267Y374003D01*
X926267Y376203D02*
X920313Y376203D01*
X920313Y378403D02*
X926267Y378403D01*
X926267Y380603D02*
X920313Y380603D01*
X920313Y382803D02*
X926267Y382803D01*
D12*
X889032Y355488D02*
X889032Y350472D01*
X889032Y355488D02*
X894048Y355488D01*
X894048Y350472D01*
X889032Y350472D01*
X889032Y352613D02*
X894048Y352613D01*
X894048Y354754D02*
X889032Y354754D01*
X889032Y345488D02*
X889032Y340472D01*
X889032Y345488D02*
X894048Y345488D01*
X894048Y340472D01*
X889032Y340472D01*
X889032Y342613D02*
X894048Y342613D01*
X894048Y344754D02*
X889032Y344754D01*
X901732Y350472D02*
X901732Y355488D01*
X906748Y355488D01*
X906748Y350472D01*
X901732Y350472D01*
X901732Y352613D02*
X906748Y352613D01*
X906748Y354754D02*
X901732Y354754D01*
X901732Y345488D02*
X901732Y340472D01*
X901732Y345488D02*
X906748Y345488D01*
X906748Y340472D01*
X901732Y340472D01*
X901732Y342613D02*
X906748Y342613D01*
X906748Y344754D02*
X901732Y344754D01*
X876332Y350472D02*
X876332Y355488D01*
X881348Y355488D01*
X881348Y350472D01*
X876332Y350472D01*
X876332Y352613D02*
X881348Y352613D01*
X881348Y354754D02*
X876332Y354754D01*
X876332Y345488D02*
X876332Y340472D01*
X876332Y345488D02*
X881348Y345488D01*
X881348Y340472D01*
X876332Y340472D01*
X876332Y342613D02*
X881348Y342613D01*
X881348Y344754D02*
X876332Y344754D01*
D10*
X1061720Y487680D03*
X1264920Y487680D03*
D11*
X1282700Y266700D03*
X1043940Y505460D03*
D12*
X1173512Y355488D02*
X1173512Y350472D01*
X1173512Y355488D02*
X1178528Y355488D01*
X1178528Y350472D01*
X1173512Y350472D01*
X1173512Y352613D02*
X1178528Y352613D01*
X1178528Y354754D02*
X1173512Y354754D01*
X1173512Y345488D02*
X1173512Y340472D01*
X1173512Y345488D02*
X1178528Y345488D01*
X1178528Y340472D01*
X1173512Y340472D01*
X1173512Y342613D02*
X1178528Y342613D01*
X1178528Y344754D02*
X1173512Y344754D01*
X1186212Y350472D02*
X1186212Y355488D01*
X1191228Y355488D01*
X1191228Y350472D01*
X1186212Y350472D01*
X1186212Y352613D02*
X1191228Y352613D01*
X1191228Y354754D02*
X1186212Y354754D01*
X1186212Y345488D02*
X1186212Y340472D01*
X1186212Y345488D02*
X1191228Y345488D01*
X1191228Y340472D01*
X1186212Y340472D01*
X1186212Y342613D02*
X1191228Y342613D01*
X1191228Y344754D02*
X1186212Y344754D01*
D13*
X1040863Y408573D02*
X1040863Y419587D01*
X1059877Y419587D01*
X1059877Y408573D01*
X1040863Y408573D01*
X1040863Y410716D02*
X1059877Y410716D01*
X1059877Y412859D02*
X1040863Y412859D01*
X1040863Y415002D02*
X1059877Y415002D01*
X1059877Y417145D02*
X1040863Y417145D01*
X1040863Y419288D02*
X1059877Y419288D01*
X1040863Y363587D02*
X1040863Y352573D01*
X1040863Y363587D02*
X1059877Y363587D01*
X1059877Y352573D01*
X1040863Y352573D01*
X1040863Y354716D02*
X1059877Y354716D01*
X1059877Y356859D02*
X1040863Y356859D01*
X1040863Y359002D02*
X1059877Y359002D01*
X1059877Y361145D02*
X1040863Y361145D01*
X1040863Y363288D02*
X1059877Y363288D01*
D12*
X1080862Y398572D02*
X1080862Y403588D01*
X1093378Y403588D01*
X1093378Y398572D01*
X1080862Y398572D01*
X1080862Y400713D02*
X1093378Y400713D01*
X1093378Y402854D02*
X1080862Y402854D01*
X1080862Y393588D02*
X1080862Y388572D01*
X1080862Y393588D02*
X1093378Y393588D01*
X1093378Y388572D01*
X1080862Y388572D01*
X1080862Y390713D02*
X1093378Y390713D01*
X1093378Y392854D02*
X1080862Y392854D01*
X1080862Y383588D02*
X1080862Y378572D01*
X1080862Y383588D02*
X1093378Y383588D01*
X1093378Y378572D01*
X1080862Y378572D01*
X1080862Y380713D02*
X1093378Y380713D01*
X1093378Y382854D02*
X1080862Y382854D01*
X1080862Y373588D02*
X1080862Y368572D01*
X1080862Y373588D02*
X1093378Y373588D01*
X1093378Y368572D01*
X1080862Y368572D01*
X1080862Y370713D02*
X1093378Y370713D01*
X1093378Y372854D02*
X1080862Y372854D01*
D14*
X1125220Y271780D03*
X1150620Y271780D03*
X1176020Y271780D03*
X1201420Y271780D03*
D13*
X1285777Y352573D02*
X1285777Y363587D01*
X1285777Y352573D02*
X1266763Y352573D01*
X1266763Y363587D01*
X1285777Y363587D01*
X1285777Y354716D02*
X1266763Y354716D01*
X1266763Y356859D02*
X1285777Y356859D01*
X1285777Y359002D02*
X1266763Y359002D01*
X1266763Y361145D02*
X1285777Y361145D01*
X1285777Y363288D02*
X1266763Y363288D01*
X1285777Y408573D02*
X1285777Y419587D01*
X1285777Y408573D02*
X1266763Y408573D01*
X1266763Y419587D01*
X1285777Y419587D01*
X1285777Y410716D02*
X1266763Y410716D01*
X1266763Y412859D02*
X1285777Y412859D01*
X1285777Y415002D02*
X1266763Y415002D01*
X1266763Y417145D02*
X1285777Y417145D01*
X1285777Y419288D02*
X1266763Y419288D01*
D12*
X1245778Y373588D02*
X1245778Y368572D01*
X1233262Y368572D01*
X1233262Y373588D01*
X1245778Y373588D01*
X1245778Y370713D02*
X1233262Y370713D01*
X1233262Y372854D02*
X1245778Y372854D01*
X1245778Y378572D02*
X1245778Y383588D01*
X1245778Y378572D02*
X1233262Y378572D01*
X1233262Y383588D01*
X1245778Y383588D01*
X1245778Y380713D02*
X1233262Y380713D01*
X1233262Y382854D02*
X1245778Y382854D01*
X1245778Y388572D02*
X1245778Y393588D01*
X1245778Y388572D02*
X1233262Y388572D01*
X1233262Y393588D01*
X1245778Y393588D01*
X1245778Y390713D02*
X1233262Y390713D01*
X1233262Y392854D02*
X1245778Y392854D01*
X1245778Y398572D02*
X1245778Y403588D01*
X1245778Y398572D02*
X1233262Y398572D01*
X1233262Y403588D01*
X1245778Y403588D01*
X1245778Y400713D02*
X1233262Y400713D01*
X1233262Y402854D02*
X1245778Y402854D01*
X1069228Y344138D02*
X1064212Y344138D01*
X1069228Y344138D02*
X1069228Y339122D01*
X1064212Y339122D01*
X1064212Y344138D01*
X1064212Y341263D02*
X1069228Y341263D01*
X1069228Y343404D02*
X1064212Y343404D01*
X1059228Y344138D02*
X1054212Y344138D01*
X1059228Y344138D02*
X1059228Y339122D01*
X1054212Y339122D01*
X1054212Y344138D01*
X1054212Y341263D02*
X1059228Y341263D01*
X1059228Y343404D02*
X1054212Y343404D01*
D15*
X1056444Y332424D02*
X1056444Y325436D01*
X1049456Y325436D01*
X1049456Y332424D01*
X1056444Y332424D01*
X1056444Y329505D02*
X1049456Y329505D01*
X1073984Y332424D02*
X1073984Y325436D01*
X1066996Y325436D01*
X1066996Y332424D01*
X1073984Y332424D01*
X1073984Y329505D02*
X1066996Y329505D01*
D10*
X1264920Y284480D03*
X1061720Y284480D03*
D16*
X1147247Y369603D02*
X1147247Y384557D01*
X1147247Y369603D02*
X1141293Y369603D01*
X1141293Y384557D01*
X1147247Y384557D01*
X1147247Y371803D02*
X1141293Y371803D01*
X1141293Y374003D02*
X1147247Y374003D01*
X1147247Y376203D02*
X1141293Y376203D01*
X1141293Y378403D02*
X1147247Y378403D01*
X1147247Y380603D02*
X1141293Y380603D01*
X1141293Y382803D02*
X1147247Y382803D01*
X1159947Y384557D02*
X1159947Y369603D01*
X1153993Y369603D01*
X1153993Y384557D01*
X1159947Y384557D01*
X1159947Y371803D02*
X1153993Y371803D01*
X1153993Y374003D02*
X1159947Y374003D01*
X1159947Y376203D02*
X1153993Y376203D01*
X1153993Y378403D02*
X1159947Y378403D01*
X1159947Y380603D02*
X1153993Y380603D01*
X1153993Y382803D02*
X1159947Y382803D01*
X1172647Y384557D02*
X1172647Y369603D01*
X1166693Y369603D01*
X1166693Y384557D01*
X1172647Y384557D01*
X1172647Y371803D02*
X1166693Y371803D01*
X1166693Y374003D02*
X1172647Y374003D01*
X1172647Y376203D02*
X1166693Y376203D01*
X1166693Y378403D02*
X1172647Y378403D01*
X1172647Y380603D02*
X1166693Y380603D01*
X1166693Y382803D02*
X1172647Y382803D01*
X1185347Y384557D02*
X1185347Y369603D01*
X1179393Y369603D01*
X1179393Y384557D01*
X1185347Y384557D01*
X1185347Y371803D02*
X1179393Y371803D01*
X1179393Y374003D02*
X1185347Y374003D01*
X1185347Y376203D02*
X1179393Y376203D01*
X1179393Y378403D02*
X1185347Y378403D01*
X1185347Y380603D02*
X1179393Y380603D01*
X1179393Y382803D02*
X1185347Y382803D01*
D12*
X1148112Y355488D02*
X1148112Y350472D01*
X1148112Y355488D02*
X1153128Y355488D01*
X1153128Y350472D01*
X1148112Y350472D01*
X1148112Y352613D02*
X1153128Y352613D01*
X1153128Y354754D02*
X1148112Y354754D01*
X1148112Y345488D02*
X1148112Y340472D01*
X1148112Y345488D02*
X1153128Y345488D01*
X1153128Y340472D01*
X1148112Y340472D01*
X1148112Y342613D02*
X1153128Y342613D01*
X1153128Y344754D02*
X1148112Y344754D01*
X1160812Y350472D02*
X1160812Y355488D01*
X1165828Y355488D01*
X1165828Y350472D01*
X1160812Y350472D01*
X1160812Y352613D02*
X1165828Y352613D01*
X1165828Y354754D02*
X1160812Y354754D01*
X1160812Y345488D02*
X1160812Y340472D01*
X1160812Y345488D02*
X1165828Y345488D01*
X1165828Y340472D01*
X1160812Y340472D01*
X1160812Y342613D02*
X1165828Y342613D01*
X1165828Y344754D02*
X1160812Y344754D01*
X1135412Y350472D02*
X1135412Y355488D01*
X1140428Y355488D01*
X1140428Y350472D01*
X1135412Y350472D01*
X1135412Y352613D02*
X1140428Y352613D01*
X1140428Y354754D02*
X1135412Y354754D01*
X1135412Y345488D02*
X1135412Y340472D01*
X1135412Y345488D02*
X1140428Y345488D01*
X1140428Y340472D01*
X1135412Y340472D01*
X1135412Y342613D02*
X1140428Y342613D01*
X1140428Y344754D02*
X1135412Y344754D01*
D10*
X1320800Y487680D03*
X1524000Y487680D03*
D11*
X1541780Y266700D03*
X1303020Y505460D03*
D12*
X1432592Y355488D02*
X1432592Y350472D01*
X1432592Y355488D02*
X1437608Y355488D01*
X1437608Y350472D01*
X1432592Y350472D01*
X1432592Y352613D02*
X1437608Y352613D01*
X1437608Y354754D02*
X1432592Y354754D01*
X1432592Y345488D02*
X1432592Y340472D01*
X1432592Y345488D02*
X1437608Y345488D01*
X1437608Y340472D01*
X1432592Y340472D01*
X1432592Y342613D02*
X1437608Y342613D01*
X1437608Y344754D02*
X1432592Y344754D01*
X1445292Y350472D02*
X1445292Y355488D01*
X1450308Y355488D01*
X1450308Y350472D01*
X1445292Y350472D01*
X1445292Y352613D02*
X1450308Y352613D01*
X1450308Y354754D02*
X1445292Y354754D01*
X1445292Y345488D02*
X1445292Y340472D01*
X1445292Y345488D02*
X1450308Y345488D01*
X1450308Y340472D01*
X1445292Y340472D01*
X1445292Y342613D02*
X1450308Y342613D01*
X1450308Y344754D02*
X1445292Y344754D01*
D13*
X1299943Y408573D02*
X1299943Y419587D01*
X1318957Y419587D01*
X1318957Y408573D01*
X1299943Y408573D01*
X1299943Y410716D02*
X1318957Y410716D01*
X1318957Y412859D02*
X1299943Y412859D01*
X1299943Y415002D02*
X1318957Y415002D01*
X1318957Y417145D02*
X1299943Y417145D01*
X1299943Y419288D02*
X1318957Y419288D01*
X1299943Y363587D02*
X1299943Y352573D01*
X1299943Y363587D02*
X1318957Y363587D01*
X1318957Y352573D01*
X1299943Y352573D01*
X1299943Y354716D02*
X1318957Y354716D01*
X1318957Y356859D02*
X1299943Y356859D01*
X1299943Y359002D02*
X1318957Y359002D01*
X1318957Y361145D02*
X1299943Y361145D01*
X1299943Y363288D02*
X1318957Y363288D01*
D12*
X1339942Y398572D02*
X1339942Y403588D01*
X1352458Y403588D01*
X1352458Y398572D01*
X1339942Y398572D01*
X1339942Y400713D02*
X1352458Y400713D01*
X1352458Y402854D02*
X1339942Y402854D01*
X1339942Y393588D02*
X1339942Y388572D01*
X1339942Y393588D02*
X1352458Y393588D01*
X1352458Y388572D01*
X1339942Y388572D01*
X1339942Y390713D02*
X1352458Y390713D01*
X1352458Y392854D02*
X1339942Y392854D01*
X1339942Y383588D02*
X1339942Y378572D01*
X1339942Y383588D02*
X1352458Y383588D01*
X1352458Y378572D01*
X1339942Y378572D01*
X1339942Y380713D02*
X1352458Y380713D01*
X1352458Y382854D02*
X1339942Y382854D01*
X1339942Y373588D02*
X1339942Y368572D01*
X1339942Y373588D02*
X1352458Y373588D01*
X1352458Y368572D01*
X1339942Y368572D01*
X1339942Y370713D02*
X1352458Y370713D01*
X1352458Y372854D02*
X1339942Y372854D01*
D14*
X1384300Y271780D03*
X1409700Y271780D03*
X1435100Y271780D03*
X1460500Y271780D03*
D13*
X1544857Y352573D02*
X1544857Y363587D01*
X1544857Y352573D02*
X1525843Y352573D01*
X1525843Y363587D01*
X1544857Y363587D01*
X1544857Y354716D02*
X1525843Y354716D01*
X1525843Y356859D02*
X1544857Y356859D01*
X1544857Y359002D02*
X1525843Y359002D01*
X1525843Y361145D02*
X1544857Y361145D01*
X1544857Y363288D02*
X1525843Y363288D01*
X1544857Y408573D02*
X1544857Y419587D01*
X1544857Y408573D02*
X1525843Y408573D01*
X1525843Y419587D01*
X1544857Y419587D01*
X1544857Y410716D02*
X1525843Y410716D01*
X1525843Y412859D02*
X1544857Y412859D01*
X1544857Y415002D02*
X1525843Y415002D01*
X1525843Y417145D02*
X1544857Y417145D01*
X1544857Y419288D02*
X1525843Y419288D01*
D12*
X1504858Y373588D02*
X1504858Y368572D01*
X1492342Y368572D01*
X1492342Y373588D01*
X1504858Y373588D01*
X1504858Y370713D02*
X1492342Y370713D01*
X1492342Y372854D02*
X1504858Y372854D01*
X1504858Y378572D02*
X1504858Y383588D01*
X1504858Y378572D02*
X1492342Y378572D01*
X1492342Y383588D01*
X1504858Y383588D01*
X1504858Y380713D02*
X1492342Y380713D01*
X1492342Y382854D02*
X1504858Y382854D01*
X1504858Y388572D02*
X1504858Y393588D01*
X1504858Y388572D02*
X1492342Y388572D01*
X1492342Y393588D01*
X1504858Y393588D01*
X1504858Y390713D02*
X1492342Y390713D01*
X1492342Y392854D02*
X1504858Y392854D01*
X1504858Y398572D02*
X1504858Y403588D01*
X1504858Y398572D02*
X1492342Y398572D01*
X1492342Y403588D01*
X1504858Y403588D01*
X1504858Y400713D02*
X1492342Y400713D01*
X1492342Y402854D02*
X1504858Y402854D01*
X1328308Y344138D02*
X1323292Y344138D01*
X1328308Y344138D02*
X1328308Y339122D01*
X1323292Y339122D01*
X1323292Y344138D01*
X1323292Y341263D02*
X1328308Y341263D01*
X1328308Y343404D02*
X1323292Y343404D01*
X1318308Y344138D02*
X1313292Y344138D01*
X1318308Y344138D02*
X1318308Y339122D01*
X1313292Y339122D01*
X1313292Y344138D01*
X1313292Y341263D02*
X1318308Y341263D01*
X1318308Y343404D02*
X1313292Y343404D01*
D15*
X1315524Y332424D02*
X1315524Y325436D01*
X1308536Y325436D01*
X1308536Y332424D01*
X1315524Y332424D01*
X1315524Y329505D02*
X1308536Y329505D01*
X1333064Y332424D02*
X1333064Y325436D01*
X1326076Y325436D01*
X1326076Y332424D01*
X1333064Y332424D01*
X1333064Y329505D02*
X1326076Y329505D01*
D10*
X1524000Y284480D03*
X1320800Y284480D03*
D16*
X1406327Y369603D02*
X1406327Y384557D01*
X1406327Y369603D02*
X1400373Y369603D01*
X1400373Y384557D01*
X1406327Y384557D01*
X1406327Y371803D02*
X1400373Y371803D01*
X1400373Y374003D02*
X1406327Y374003D01*
X1406327Y376203D02*
X1400373Y376203D01*
X1400373Y378403D02*
X1406327Y378403D01*
X1406327Y380603D02*
X1400373Y380603D01*
X1400373Y382803D02*
X1406327Y382803D01*
X1419027Y384557D02*
X1419027Y369603D01*
X1413073Y369603D01*
X1413073Y384557D01*
X1419027Y384557D01*
X1419027Y371803D02*
X1413073Y371803D01*
X1413073Y374003D02*
X1419027Y374003D01*
X1419027Y376203D02*
X1413073Y376203D01*
X1413073Y378403D02*
X1419027Y378403D01*
X1419027Y380603D02*
X1413073Y380603D01*
X1413073Y382803D02*
X1419027Y382803D01*
X1431727Y384557D02*
X1431727Y369603D01*
X1425773Y369603D01*
X1425773Y384557D01*
X1431727Y384557D01*
X1431727Y371803D02*
X1425773Y371803D01*
X1425773Y374003D02*
X1431727Y374003D01*
X1431727Y376203D02*
X1425773Y376203D01*
X1425773Y378403D02*
X1431727Y378403D01*
X1431727Y380603D02*
X1425773Y380603D01*
X1425773Y382803D02*
X1431727Y382803D01*
X1444427Y384557D02*
X1444427Y369603D01*
X1438473Y369603D01*
X1438473Y384557D01*
X1444427Y384557D01*
X1444427Y371803D02*
X1438473Y371803D01*
X1438473Y374003D02*
X1444427Y374003D01*
X1444427Y376203D02*
X1438473Y376203D01*
X1438473Y378403D02*
X1444427Y378403D01*
X1444427Y380603D02*
X1438473Y380603D01*
X1438473Y382803D02*
X1444427Y382803D01*
D12*
X1407192Y355488D02*
X1407192Y350472D01*
X1407192Y355488D02*
X1412208Y355488D01*
X1412208Y350472D01*
X1407192Y350472D01*
X1407192Y352613D02*
X1412208Y352613D01*
X1412208Y354754D02*
X1407192Y354754D01*
X1407192Y345488D02*
X1407192Y340472D01*
X1407192Y345488D02*
X1412208Y345488D01*
X1412208Y340472D01*
X1407192Y340472D01*
X1407192Y342613D02*
X1412208Y342613D01*
X1412208Y344754D02*
X1407192Y344754D01*
X1419892Y350472D02*
X1419892Y355488D01*
X1424908Y355488D01*
X1424908Y350472D01*
X1419892Y350472D01*
X1419892Y352613D02*
X1424908Y352613D01*
X1424908Y354754D02*
X1419892Y354754D01*
X1419892Y345488D02*
X1419892Y340472D01*
X1419892Y345488D02*
X1424908Y345488D01*
X1424908Y340472D01*
X1419892Y340472D01*
X1419892Y342613D02*
X1424908Y342613D01*
X1424908Y344754D02*
X1419892Y344754D01*
X1394492Y350472D02*
X1394492Y355488D01*
X1399508Y355488D01*
X1399508Y350472D01*
X1394492Y350472D01*
X1394492Y352613D02*
X1399508Y352613D01*
X1399508Y354754D02*
X1394492Y354754D01*
X1394492Y345488D02*
X1394492Y340472D01*
X1394492Y345488D02*
X1399508Y345488D01*
X1399508Y340472D01*
X1394492Y340472D01*
X1394492Y342613D02*
X1399508Y342613D01*
X1399508Y344754D02*
X1394492Y344754D01*
D10*
X25400Y746760D03*
X228600Y746760D03*
D11*
X246380Y525780D03*
X7620Y764540D03*
D12*
X137192Y614568D02*
X137192Y609552D01*
X137192Y614568D02*
X142208Y614568D01*
X142208Y609552D01*
X137192Y609552D01*
X137192Y611693D02*
X142208Y611693D01*
X142208Y613834D02*
X137192Y613834D01*
X137192Y604568D02*
X137192Y599552D01*
X137192Y604568D02*
X142208Y604568D01*
X142208Y599552D01*
X137192Y599552D01*
X137192Y601693D02*
X142208Y601693D01*
X142208Y603834D02*
X137192Y603834D01*
X149892Y609552D02*
X149892Y614568D01*
X154908Y614568D01*
X154908Y609552D01*
X149892Y609552D01*
X149892Y611693D02*
X154908Y611693D01*
X154908Y613834D02*
X149892Y613834D01*
X149892Y604568D02*
X149892Y599552D01*
X149892Y604568D02*
X154908Y604568D01*
X154908Y599552D01*
X149892Y599552D01*
X149892Y601693D02*
X154908Y601693D01*
X154908Y603834D02*
X149892Y603834D01*
D13*
X4543Y667653D02*
X4543Y678667D01*
X23557Y678667D01*
X23557Y667653D01*
X4543Y667653D01*
X4543Y669796D02*
X23557Y669796D01*
X23557Y671939D02*
X4543Y671939D01*
X4543Y674082D02*
X23557Y674082D01*
X23557Y676225D02*
X4543Y676225D01*
X4543Y678368D02*
X23557Y678368D01*
X4543Y622667D02*
X4543Y611653D01*
X4543Y622667D02*
X23557Y622667D01*
X23557Y611653D01*
X4543Y611653D01*
X4543Y613796D02*
X23557Y613796D01*
X23557Y615939D02*
X4543Y615939D01*
X4543Y618082D02*
X23557Y618082D01*
X23557Y620225D02*
X4543Y620225D01*
X4543Y622368D02*
X23557Y622368D01*
D12*
X44542Y657652D02*
X44542Y662668D01*
X57058Y662668D01*
X57058Y657652D01*
X44542Y657652D01*
X44542Y659793D02*
X57058Y659793D01*
X57058Y661934D02*
X44542Y661934D01*
X44542Y652668D02*
X44542Y647652D01*
X44542Y652668D02*
X57058Y652668D01*
X57058Y647652D01*
X44542Y647652D01*
X44542Y649793D02*
X57058Y649793D01*
X57058Y651934D02*
X44542Y651934D01*
X44542Y642668D02*
X44542Y637652D01*
X44542Y642668D02*
X57058Y642668D01*
X57058Y637652D01*
X44542Y637652D01*
X44542Y639793D02*
X57058Y639793D01*
X57058Y641934D02*
X44542Y641934D01*
X44542Y632668D02*
X44542Y627652D01*
X44542Y632668D02*
X57058Y632668D01*
X57058Y627652D01*
X44542Y627652D01*
X44542Y629793D02*
X57058Y629793D01*
X57058Y631934D02*
X44542Y631934D01*
D14*
X88900Y530860D03*
X114300Y530860D03*
X139700Y530860D03*
X165100Y530860D03*
D13*
X249457Y611653D02*
X249457Y622667D01*
X249457Y611653D02*
X230443Y611653D01*
X230443Y622667D01*
X249457Y622667D01*
X249457Y613796D02*
X230443Y613796D01*
X230443Y615939D02*
X249457Y615939D01*
X249457Y618082D02*
X230443Y618082D01*
X230443Y620225D02*
X249457Y620225D01*
X249457Y622368D02*
X230443Y622368D01*
X249457Y667653D02*
X249457Y678667D01*
X249457Y667653D02*
X230443Y667653D01*
X230443Y678667D01*
X249457Y678667D01*
X249457Y669796D02*
X230443Y669796D01*
X230443Y671939D02*
X249457Y671939D01*
X249457Y674082D02*
X230443Y674082D01*
X230443Y676225D02*
X249457Y676225D01*
X249457Y678368D02*
X230443Y678368D01*
D12*
X209458Y632668D02*
X209458Y627652D01*
X196942Y627652D01*
X196942Y632668D01*
X209458Y632668D01*
X209458Y629793D02*
X196942Y629793D01*
X196942Y631934D02*
X209458Y631934D01*
X209458Y637652D02*
X209458Y642668D01*
X209458Y637652D02*
X196942Y637652D01*
X196942Y642668D01*
X209458Y642668D01*
X209458Y639793D02*
X196942Y639793D01*
X196942Y641934D02*
X209458Y641934D01*
X209458Y647652D02*
X209458Y652668D01*
X209458Y647652D02*
X196942Y647652D01*
X196942Y652668D01*
X209458Y652668D01*
X209458Y649793D02*
X196942Y649793D01*
X196942Y651934D02*
X209458Y651934D01*
X209458Y657652D02*
X209458Y662668D01*
X209458Y657652D02*
X196942Y657652D01*
X196942Y662668D01*
X209458Y662668D01*
X209458Y659793D02*
X196942Y659793D01*
X196942Y661934D02*
X209458Y661934D01*
X32908Y603218D02*
X27892Y603218D01*
X32908Y603218D02*
X32908Y598202D01*
X27892Y598202D01*
X27892Y603218D01*
X27892Y600343D02*
X32908Y600343D01*
X32908Y602484D02*
X27892Y602484D01*
X22908Y603218D02*
X17892Y603218D01*
X22908Y603218D02*
X22908Y598202D01*
X17892Y598202D01*
X17892Y603218D01*
X17892Y600343D02*
X22908Y600343D01*
X22908Y602484D02*
X17892Y602484D01*
D15*
X20124Y591504D02*
X20124Y584516D01*
X13136Y584516D01*
X13136Y591504D01*
X20124Y591504D01*
X20124Y588585D02*
X13136Y588585D01*
X37664Y591504D02*
X37664Y584516D01*
X30676Y584516D01*
X30676Y591504D01*
X37664Y591504D01*
X37664Y588585D02*
X30676Y588585D01*
D10*
X228600Y543560D03*
X25400Y543560D03*
D16*
X110927Y628683D02*
X110927Y643637D01*
X110927Y628683D02*
X104973Y628683D01*
X104973Y643637D01*
X110927Y643637D01*
X110927Y630883D02*
X104973Y630883D01*
X104973Y633083D02*
X110927Y633083D01*
X110927Y635283D02*
X104973Y635283D01*
X104973Y637483D02*
X110927Y637483D01*
X110927Y639683D02*
X104973Y639683D01*
X104973Y641883D02*
X110927Y641883D01*
X123627Y643637D02*
X123627Y628683D01*
X117673Y628683D01*
X117673Y643637D01*
X123627Y643637D01*
X123627Y630883D02*
X117673Y630883D01*
X117673Y633083D02*
X123627Y633083D01*
X123627Y635283D02*
X117673Y635283D01*
X117673Y637483D02*
X123627Y637483D01*
X123627Y639683D02*
X117673Y639683D01*
X117673Y641883D02*
X123627Y641883D01*
X136327Y643637D02*
X136327Y628683D01*
X130373Y628683D01*
X130373Y643637D01*
X136327Y643637D01*
X136327Y630883D02*
X130373Y630883D01*
X130373Y633083D02*
X136327Y633083D01*
X136327Y635283D02*
X130373Y635283D01*
X130373Y637483D02*
X136327Y637483D01*
X136327Y639683D02*
X130373Y639683D01*
X130373Y641883D02*
X136327Y641883D01*
X149027Y643637D02*
X149027Y628683D01*
X143073Y628683D01*
X143073Y643637D01*
X149027Y643637D01*
X149027Y630883D02*
X143073Y630883D01*
X143073Y633083D02*
X149027Y633083D01*
X149027Y635283D02*
X143073Y635283D01*
X143073Y637483D02*
X149027Y637483D01*
X149027Y639683D02*
X143073Y639683D01*
X143073Y641883D02*
X149027Y641883D01*
D12*
X111792Y614568D02*
X111792Y609552D01*
X111792Y614568D02*
X116808Y614568D01*
X116808Y609552D01*
X111792Y609552D01*
X111792Y611693D02*
X116808Y611693D01*
X116808Y613834D02*
X111792Y613834D01*
X111792Y604568D02*
X111792Y599552D01*
X111792Y604568D02*
X116808Y604568D01*
X116808Y599552D01*
X111792Y599552D01*
X111792Y601693D02*
X116808Y601693D01*
X116808Y603834D02*
X111792Y603834D01*
X124492Y609552D02*
X124492Y614568D01*
X129508Y614568D01*
X129508Y609552D01*
X124492Y609552D01*
X124492Y611693D02*
X129508Y611693D01*
X129508Y613834D02*
X124492Y613834D01*
X124492Y604568D02*
X124492Y599552D01*
X124492Y604568D02*
X129508Y604568D01*
X129508Y599552D01*
X124492Y599552D01*
X124492Y601693D02*
X129508Y601693D01*
X129508Y603834D02*
X124492Y603834D01*
X99092Y609552D02*
X99092Y614568D01*
X104108Y614568D01*
X104108Y609552D01*
X99092Y609552D01*
X99092Y611693D02*
X104108Y611693D01*
X104108Y613834D02*
X99092Y613834D01*
X99092Y604568D02*
X99092Y599552D01*
X99092Y604568D02*
X104108Y604568D01*
X104108Y599552D01*
X99092Y599552D01*
X99092Y601693D02*
X104108Y601693D01*
X104108Y603834D02*
X99092Y603834D01*
D10*
X284480Y746760D03*
X487680Y746760D03*
D11*
X505460Y525780D03*
X266700Y764540D03*
D12*
X396272Y614568D02*
X396272Y609552D01*
X396272Y614568D02*
X401288Y614568D01*
X401288Y609552D01*
X396272Y609552D01*
X396272Y611693D02*
X401288Y611693D01*
X401288Y613834D02*
X396272Y613834D01*
X396272Y604568D02*
X396272Y599552D01*
X396272Y604568D02*
X401288Y604568D01*
X401288Y599552D01*
X396272Y599552D01*
X396272Y601693D02*
X401288Y601693D01*
X401288Y603834D02*
X396272Y603834D01*
X408972Y609552D02*
X408972Y614568D01*
X413988Y614568D01*
X413988Y609552D01*
X408972Y609552D01*
X408972Y611693D02*
X413988Y611693D01*
X413988Y613834D02*
X408972Y613834D01*
X408972Y604568D02*
X408972Y599552D01*
X408972Y604568D02*
X413988Y604568D01*
X413988Y599552D01*
X408972Y599552D01*
X408972Y601693D02*
X413988Y601693D01*
X413988Y603834D02*
X408972Y603834D01*
D13*
X263623Y667653D02*
X263623Y678667D01*
X282637Y678667D01*
X282637Y667653D01*
X263623Y667653D01*
X263623Y669796D02*
X282637Y669796D01*
X282637Y671939D02*
X263623Y671939D01*
X263623Y674082D02*
X282637Y674082D01*
X282637Y676225D02*
X263623Y676225D01*
X263623Y678368D02*
X282637Y678368D01*
X263623Y622667D02*
X263623Y611653D01*
X263623Y622667D02*
X282637Y622667D01*
X282637Y611653D01*
X263623Y611653D01*
X263623Y613796D02*
X282637Y613796D01*
X282637Y615939D02*
X263623Y615939D01*
X263623Y618082D02*
X282637Y618082D01*
X282637Y620225D02*
X263623Y620225D01*
X263623Y622368D02*
X282637Y622368D01*
D12*
X303622Y657652D02*
X303622Y662668D01*
X316138Y662668D01*
X316138Y657652D01*
X303622Y657652D01*
X303622Y659793D02*
X316138Y659793D01*
X316138Y661934D02*
X303622Y661934D01*
X303622Y652668D02*
X303622Y647652D01*
X303622Y652668D02*
X316138Y652668D01*
X316138Y647652D01*
X303622Y647652D01*
X303622Y649793D02*
X316138Y649793D01*
X316138Y651934D02*
X303622Y651934D01*
X303622Y642668D02*
X303622Y637652D01*
X303622Y642668D02*
X316138Y642668D01*
X316138Y637652D01*
X303622Y637652D01*
X303622Y639793D02*
X316138Y639793D01*
X316138Y641934D02*
X303622Y641934D01*
X303622Y632668D02*
X303622Y627652D01*
X303622Y632668D02*
X316138Y632668D01*
X316138Y627652D01*
X303622Y627652D01*
X303622Y629793D02*
X316138Y629793D01*
X316138Y631934D02*
X303622Y631934D01*
D14*
X347980Y530860D03*
X373380Y530860D03*
X398780Y530860D03*
X424180Y530860D03*
D13*
X508537Y611653D02*
X508537Y622667D01*
X508537Y611653D02*
X489523Y611653D01*
X489523Y622667D01*
X508537Y622667D01*
X508537Y613796D02*
X489523Y613796D01*
X489523Y615939D02*
X508537Y615939D01*
X508537Y618082D02*
X489523Y618082D01*
X489523Y620225D02*
X508537Y620225D01*
X508537Y622368D02*
X489523Y622368D01*
X508537Y667653D02*
X508537Y678667D01*
X508537Y667653D02*
X489523Y667653D01*
X489523Y678667D01*
X508537Y678667D01*
X508537Y669796D02*
X489523Y669796D01*
X489523Y671939D02*
X508537Y671939D01*
X508537Y674082D02*
X489523Y674082D01*
X489523Y676225D02*
X508537Y676225D01*
X508537Y678368D02*
X489523Y678368D01*
D12*
X468538Y632668D02*
X468538Y627652D01*
X456022Y627652D01*
X456022Y632668D01*
X468538Y632668D01*
X468538Y629793D02*
X456022Y629793D01*
X456022Y631934D02*
X468538Y631934D01*
X468538Y637652D02*
X468538Y642668D01*
X468538Y637652D02*
X456022Y637652D01*
X456022Y642668D01*
X468538Y642668D01*
X468538Y639793D02*
X456022Y639793D01*
X456022Y641934D02*
X468538Y641934D01*
X468538Y647652D02*
X468538Y652668D01*
X468538Y647652D02*
X456022Y647652D01*
X456022Y652668D01*
X468538Y652668D01*
X468538Y649793D02*
X456022Y649793D01*
X456022Y651934D02*
X468538Y651934D01*
X468538Y657652D02*
X468538Y662668D01*
X468538Y657652D02*
X456022Y657652D01*
X456022Y662668D01*
X468538Y662668D01*
X468538Y659793D02*
X456022Y659793D01*
X456022Y661934D02*
X468538Y661934D01*
X291988Y603218D02*
X286972Y603218D01*
X291988Y603218D02*
X291988Y598202D01*
X286972Y598202D01*
X286972Y603218D01*
X286972Y600343D02*
X291988Y600343D01*
X291988Y602484D02*
X286972Y602484D01*
X281988Y603218D02*
X276972Y603218D01*
X281988Y603218D02*
X281988Y598202D01*
X276972Y598202D01*
X276972Y603218D01*
X276972Y600343D02*
X281988Y600343D01*
X281988Y602484D02*
X276972Y602484D01*
D15*
X279204Y591504D02*
X279204Y584516D01*
X272216Y584516D01*
X272216Y591504D01*
X279204Y591504D01*
X279204Y588585D02*
X272216Y588585D01*
X296744Y591504D02*
X296744Y584516D01*
X289756Y584516D01*
X289756Y591504D01*
X296744Y591504D01*
X296744Y588585D02*
X289756Y588585D01*
D10*
X487680Y543560D03*
X284480Y543560D03*
D16*
X370007Y628683D02*
X370007Y643637D01*
X370007Y628683D02*
X364053Y628683D01*
X364053Y643637D01*
X370007Y643637D01*
X370007Y630883D02*
X364053Y630883D01*
X364053Y633083D02*
X370007Y633083D01*
X370007Y635283D02*
X364053Y635283D01*
X364053Y637483D02*
X370007Y637483D01*
X370007Y639683D02*
X364053Y639683D01*
X364053Y641883D02*
X370007Y641883D01*
X382707Y643637D02*
X382707Y628683D01*
X376753Y628683D01*
X376753Y643637D01*
X382707Y643637D01*
X382707Y630883D02*
X376753Y630883D01*
X376753Y633083D02*
X382707Y633083D01*
X382707Y635283D02*
X376753Y635283D01*
X376753Y637483D02*
X382707Y637483D01*
X382707Y639683D02*
X376753Y639683D01*
X376753Y641883D02*
X382707Y641883D01*
X395407Y643637D02*
X395407Y628683D01*
X389453Y628683D01*
X389453Y643637D01*
X395407Y643637D01*
X395407Y630883D02*
X389453Y630883D01*
X389453Y633083D02*
X395407Y633083D01*
X395407Y635283D02*
X389453Y635283D01*
X389453Y637483D02*
X395407Y637483D01*
X395407Y639683D02*
X389453Y639683D01*
X389453Y641883D02*
X395407Y641883D01*
X408107Y643637D02*
X408107Y628683D01*
X402153Y628683D01*
X402153Y643637D01*
X408107Y643637D01*
X408107Y630883D02*
X402153Y630883D01*
X402153Y633083D02*
X408107Y633083D01*
X408107Y635283D02*
X402153Y635283D01*
X402153Y637483D02*
X408107Y637483D01*
X408107Y639683D02*
X402153Y639683D01*
X402153Y641883D02*
X408107Y641883D01*
D12*
X370872Y614568D02*
X370872Y609552D01*
X370872Y614568D02*
X375888Y614568D01*
X375888Y609552D01*
X370872Y609552D01*
X370872Y611693D02*
X375888Y611693D01*
X375888Y613834D02*
X370872Y613834D01*
X370872Y604568D02*
X370872Y599552D01*
X370872Y604568D02*
X375888Y604568D01*
X375888Y599552D01*
X370872Y599552D01*
X370872Y601693D02*
X375888Y601693D01*
X375888Y603834D02*
X370872Y603834D01*
X383572Y609552D02*
X383572Y614568D01*
X388588Y614568D01*
X388588Y609552D01*
X383572Y609552D01*
X383572Y611693D02*
X388588Y611693D01*
X388588Y613834D02*
X383572Y613834D01*
X383572Y604568D02*
X383572Y599552D01*
X383572Y604568D02*
X388588Y604568D01*
X388588Y599552D01*
X383572Y599552D01*
X383572Y601693D02*
X388588Y601693D01*
X388588Y603834D02*
X383572Y603834D01*
X358172Y609552D02*
X358172Y614568D01*
X363188Y614568D01*
X363188Y609552D01*
X358172Y609552D01*
X358172Y611693D02*
X363188Y611693D01*
X363188Y613834D02*
X358172Y613834D01*
X358172Y604568D02*
X358172Y599552D01*
X358172Y604568D02*
X363188Y604568D01*
X363188Y599552D01*
X358172Y599552D01*
X358172Y601693D02*
X363188Y601693D01*
X363188Y603834D02*
X358172Y603834D01*
D10*
X543560Y746760D03*
X746760Y746760D03*
D11*
X764540Y525780D03*
X525780Y764540D03*
D12*
X655352Y614568D02*
X655352Y609552D01*
X655352Y614568D02*
X660368Y614568D01*
X660368Y609552D01*
X655352Y609552D01*
X655352Y611693D02*
X660368Y611693D01*
X660368Y613834D02*
X655352Y613834D01*
X655352Y604568D02*
X655352Y599552D01*
X655352Y604568D02*
X660368Y604568D01*
X660368Y599552D01*
X655352Y599552D01*
X655352Y601693D02*
X660368Y601693D01*
X660368Y603834D02*
X655352Y603834D01*
X668052Y609552D02*
X668052Y614568D01*
X673068Y614568D01*
X673068Y609552D01*
X668052Y609552D01*
X668052Y611693D02*
X673068Y611693D01*
X673068Y613834D02*
X668052Y613834D01*
X668052Y604568D02*
X668052Y599552D01*
X668052Y604568D02*
X673068Y604568D01*
X673068Y599552D01*
X668052Y599552D01*
X668052Y601693D02*
X673068Y601693D01*
X673068Y603834D02*
X668052Y603834D01*
D13*
X522703Y667653D02*
X522703Y678667D01*
X541717Y678667D01*
X541717Y667653D01*
X522703Y667653D01*
X522703Y669796D02*
X541717Y669796D01*
X541717Y671939D02*
X522703Y671939D01*
X522703Y674082D02*
X541717Y674082D01*
X541717Y676225D02*
X522703Y676225D01*
X522703Y678368D02*
X541717Y678368D01*
X522703Y622667D02*
X522703Y611653D01*
X522703Y622667D02*
X541717Y622667D01*
X541717Y611653D01*
X522703Y611653D01*
X522703Y613796D02*
X541717Y613796D01*
X541717Y615939D02*
X522703Y615939D01*
X522703Y618082D02*
X541717Y618082D01*
X541717Y620225D02*
X522703Y620225D01*
X522703Y622368D02*
X541717Y622368D01*
D12*
X562702Y657652D02*
X562702Y662668D01*
X575218Y662668D01*
X575218Y657652D01*
X562702Y657652D01*
X562702Y659793D02*
X575218Y659793D01*
X575218Y661934D02*
X562702Y661934D01*
X562702Y652668D02*
X562702Y647652D01*
X562702Y652668D02*
X575218Y652668D01*
X575218Y647652D01*
X562702Y647652D01*
X562702Y649793D02*
X575218Y649793D01*
X575218Y651934D02*
X562702Y651934D01*
X562702Y642668D02*
X562702Y637652D01*
X562702Y642668D02*
X575218Y642668D01*
X575218Y637652D01*
X562702Y637652D01*
X562702Y639793D02*
X575218Y639793D01*
X575218Y641934D02*
X562702Y641934D01*
X562702Y632668D02*
X562702Y627652D01*
X562702Y632668D02*
X575218Y632668D01*
X575218Y627652D01*
X562702Y627652D01*
X562702Y629793D02*
X575218Y629793D01*
X575218Y631934D02*
X562702Y631934D01*
D14*
X607060Y530860D03*
X632460Y530860D03*
X657860Y530860D03*
X683260Y530860D03*
D13*
X767617Y611653D02*
X767617Y622667D01*
X767617Y611653D02*
X748603Y611653D01*
X748603Y622667D01*
X767617Y622667D01*
X767617Y613796D02*
X748603Y613796D01*
X748603Y615939D02*
X767617Y615939D01*
X767617Y618082D02*
X748603Y618082D01*
X748603Y620225D02*
X767617Y620225D01*
X767617Y622368D02*
X748603Y622368D01*
X767617Y667653D02*
X767617Y678667D01*
X767617Y667653D02*
X748603Y667653D01*
X748603Y678667D01*
X767617Y678667D01*
X767617Y669796D02*
X748603Y669796D01*
X748603Y671939D02*
X767617Y671939D01*
X767617Y674082D02*
X748603Y674082D01*
X748603Y676225D02*
X767617Y676225D01*
X767617Y678368D02*
X748603Y678368D01*
D12*
X727618Y632668D02*
X727618Y627652D01*
X715102Y627652D01*
X715102Y632668D01*
X727618Y632668D01*
X727618Y629793D02*
X715102Y629793D01*
X715102Y631934D02*
X727618Y631934D01*
X727618Y637652D02*
X727618Y642668D01*
X727618Y637652D02*
X715102Y637652D01*
X715102Y642668D01*
X727618Y642668D01*
X727618Y639793D02*
X715102Y639793D01*
X715102Y641934D02*
X727618Y641934D01*
X727618Y647652D02*
X727618Y652668D01*
X727618Y647652D02*
X715102Y647652D01*
X715102Y652668D01*
X727618Y652668D01*
X727618Y649793D02*
X715102Y649793D01*
X715102Y651934D02*
X727618Y651934D01*
X727618Y657652D02*
X727618Y662668D01*
X727618Y657652D02*
X715102Y657652D01*
X715102Y662668D01*
X727618Y662668D01*
X727618Y659793D02*
X715102Y659793D01*
X715102Y661934D02*
X727618Y661934D01*
X551068Y603218D02*
X546052Y603218D01*
X551068Y603218D02*
X551068Y598202D01*
X546052Y598202D01*
X546052Y603218D01*
X546052Y600343D02*
X551068Y600343D01*
X551068Y602484D02*
X546052Y602484D01*
X541068Y603218D02*
X536052Y603218D01*
X541068Y603218D02*
X541068Y598202D01*
X536052Y598202D01*
X536052Y603218D01*
X536052Y600343D02*
X541068Y600343D01*
X541068Y602484D02*
X536052Y602484D01*
D15*
X538284Y591504D02*
X538284Y584516D01*
X531296Y584516D01*
X531296Y591504D01*
X538284Y591504D01*
X538284Y588585D02*
X531296Y588585D01*
X555824Y591504D02*
X555824Y584516D01*
X548836Y584516D01*
X548836Y591504D01*
X555824Y591504D01*
X555824Y588585D02*
X548836Y588585D01*
D10*
X746760Y543560D03*
X543560Y543560D03*
D16*
X629087Y628683D02*
X629087Y643637D01*
X629087Y628683D02*
X623133Y628683D01*
X623133Y643637D01*
X629087Y643637D01*
X629087Y630883D02*
X623133Y630883D01*
X623133Y633083D02*
X629087Y633083D01*
X629087Y635283D02*
X623133Y635283D01*
X623133Y637483D02*
X629087Y637483D01*
X629087Y639683D02*
X623133Y639683D01*
X623133Y641883D02*
X629087Y641883D01*
X641787Y643637D02*
X641787Y628683D01*
X635833Y628683D01*
X635833Y643637D01*
X641787Y643637D01*
X641787Y630883D02*
X635833Y630883D01*
X635833Y633083D02*
X641787Y633083D01*
X641787Y635283D02*
X635833Y635283D01*
X635833Y637483D02*
X641787Y637483D01*
X641787Y639683D02*
X635833Y639683D01*
X635833Y641883D02*
X641787Y641883D01*
X654487Y643637D02*
X654487Y628683D01*
X648533Y628683D01*
X648533Y643637D01*
X654487Y643637D01*
X654487Y630883D02*
X648533Y630883D01*
X648533Y633083D02*
X654487Y633083D01*
X654487Y635283D02*
X648533Y635283D01*
X648533Y637483D02*
X654487Y637483D01*
X654487Y639683D02*
X648533Y639683D01*
X648533Y641883D02*
X654487Y641883D01*
X667187Y643637D02*
X667187Y628683D01*
X661233Y628683D01*
X661233Y643637D01*
X667187Y643637D01*
X667187Y630883D02*
X661233Y630883D01*
X661233Y633083D02*
X667187Y633083D01*
X667187Y635283D02*
X661233Y635283D01*
X661233Y637483D02*
X667187Y637483D01*
X667187Y639683D02*
X661233Y639683D01*
X661233Y641883D02*
X667187Y641883D01*
D12*
X629952Y614568D02*
X629952Y609552D01*
X629952Y614568D02*
X634968Y614568D01*
X634968Y609552D01*
X629952Y609552D01*
X629952Y611693D02*
X634968Y611693D01*
X634968Y613834D02*
X629952Y613834D01*
X629952Y604568D02*
X629952Y599552D01*
X629952Y604568D02*
X634968Y604568D01*
X634968Y599552D01*
X629952Y599552D01*
X629952Y601693D02*
X634968Y601693D01*
X634968Y603834D02*
X629952Y603834D01*
X642652Y609552D02*
X642652Y614568D01*
X647668Y614568D01*
X647668Y609552D01*
X642652Y609552D01*
X642652Y611693D02*
X647668Y611693D01*
X647668Y613834D02*
X642652Y613834D01*
X642652Y604568D02*
X642652Y599552D01*
X642652Y604568D02*
X647668Y604568D01*
X647668Y599552D01*
X642652Y599552D01*
X642652Y601693D02*
X647668Y601693D01*
X647668Y603834D02*
X642652Y603834D01*
X617252Y609552D02*
X617252Y614568D01*
X622268Y614568D01*
X622268Y609552D01*
X617252Y609552D01*
X617252Y611693D02*
X622268Y611693D01*
X622268Y613834D02*
X617252Y613834D01*
X617252Y604568D02*
X617252Y599552D01*
X617252Y604568D02*
X622268Y604568D01*
X622268Y599552D01*
X617252Y599552D01*
X617252Y601693D02*
X622268Y601693D01*
X622268Y603834D02*
X617252Y603834D01*
D10*
X802640Y746760D03*
X1005840Y746760D03*
D11*
X1023620Y525780D03*
X784860Y764540D03*
D12*
X914432Y614568D02*
X914432Y609552D01*
X914432Y614568D02*
X919448Y614568D01*
X919448Y609552D01*
X914432Y609552D01*
X914432Y611693D02*
X919448Y611693D01*
X919448Y613834D02*
X914432Y613834D01*
X914432Y604568D02*
X914432Y599552D01*
X914432Y604568D02*
X919448Y604568D01*
X919448Y599552D01*
X914432Y599552D01*
X914432Y601693D02*
X919448Y601693D01*
X919448Y603834D02*
X914432Y603834D01*
X927132Y609552D02*
X927132Y614568D01*
X932148Y614568D01*
X932148Y609552D01*
X927132Y609552D01*
X927132Y611693D02*
X932148Y611693D01*
X932148Y613834D02*
X927132Y613834D01*
X927132Y604568D02*
X927132Y599552D01*
X927132Y604568D02*
X932148Y604568D01*
X932148Y599552D01*
X927132Y599552D01*
X927132Y601693D02*
X932148Y601693D01*
X932148Y603834D02*
X927132Y603834D01*
D13*
X781783Y667653D02*
X781783Y678667D01*
X800797Y678667D01*
X800797Y667653D01*
X781783Y667653D01*
X781783Y669796D02*
X800797Y669796D01*
X800797Y671939D02*
X781783Y671939D01*
X781783Y674082D02*
X800797Y674082D01*
X800797Y676225D02*
X781783Y676225D01*
X781783Y678368D02*
X800797Y678368D01*
X781783Y622667D02*
X781783Y611653D01*
X781783Y622667D02*
X800797Y622667D01*
X800797Y611653D01*
X781783Y611653D01*
X781783Y613796D02*
X800797Y613796D01*
X800797Y615939D02*
X781783Y615939D01*
X781783Y618082D02*
X800797Y618082D01*
X800797Y620225D02*
X781783Y620225D01*
X781783Y622368D02*
X800797Y622368D01*
D12*
X821782Y657652D02*
X821782Y662668D01*
X834298Y662668D01*
X834298Y657652D01*
X821782Y657652D01*
X821782Y659793D02*
X834298Y659793D01*
X834298Y661934D02*
X821782Y661934D01*
X821782Y652668D02*
X821782Y647652D01*
X821782Y652668D02*
X834298Y652668D01*
X834298Y647652D01*
X821782Y647652D01*
X821782Y649793D02*
X834298Y649793D01*
X834298Y651934D02*
X821782Y651934D01*
X821782Y642668D02*
X821782Y637652D01*
X821782Y642668D02*
X834298Y642668D01*
X834298Y637652D01*
X821782Y637652D01*
X821782Y639793D02*
X834298Y639793D01*
X834298Y641934D02*
X821782Y641934D01*
X821782Y632668D02*
X821782Y627652D01*
X821782Y632668D02*
X834298Y632668D01*
X834298Y627652D01*
X821782Y627652D01*
X821782Y629793D02*
X834298Y629793D01*
X834298Y631934D02*
X821782Y631934D01*
D14*
X866140Y530860D03*
X891540Y530860D03*
X916940Y530860D03*
X942340Y530860D03*
D13*
X1026697Y611653D02*
X1026697Y622667D01*
X1026697Y611653D02*
X1007683Y611653D01*
X1007683Y622667D01*
X1026697Y622667D01*
X1026697Y613796D02*
X1007683Y613796D01*
X1007683Y615939D02*
X1026697Y615939D01*
X1026697Y618082D02*
X1007683Y618082D01*
X1007683Y620225D02*
X1026697Y620225D01*
X1026697Y622368D02*
X1007683Y622368D01*
X1026697Y667653D02*
X1026697Y678667D01*
X1026697Y667653D02*
X1007683Y667653D01*
X1007683Y678667D01*
X1026697Y678667D01*
X1026697Y669796D02*
X1007683Y669796D01*
X1007683Y671939D02*
X1026697Y671939D01*
X1026697Y674082D02*
X1007683Y674082D01*
X1007683Y676225D02*
X1026697Y676225D01*
X1026697Y678368D02*
X1007683Y678368D01*
D12*
X986698Y632668D02*
X986698Y627652D01*
X974182Y627652D01*
X974182Y632668D01*
X986698Y632668D01*
X986698Y629793D02*
X974182Y629793D01*
X974182Y631934D02*
X986698Y631934D01*
X986698Y637652D02*
X986698Y642668D01*
X986698Y637652D02*
X974182Y637652D01*
X974182Y642668D01*
X986698Y642668D01*
X986698Y639793D02*
X974182Y639793D01*
X974182Y641934D02*
X986698Y641934D01*
X986698Y647652D02*
X986698Y652668D01*
X986698Y647652D02*
X974182Y647652D01*
X974182Y652668D01*
X986698Y652668D01*
X986698Y649793D02*
X974182Y649793D01*
X974182Y651934D02*
X986698Y651934D01*
X986698Y657652D02*
X986698Y662668D01*
X986698Y657652D02*
X974182Y657652D01*
X974182Y662668D01*
X986698Y662668D01*
X986698Y659793D02*
X974182Y659793D01*
X974182Y661934D02*
X986698Y661934D01*
X810148Y603218D02*
X805132Y603218D01*
X810148Y603218D02*
X810148Y598202D01*
X805132Y598202D01*
X805132Y603218D01*
X805132Y600343D02*
X810148Y600343D01*
X810148Y602484D02*
X805132Y602484D01*
X800148Y603218D02*
X795132Y603218D01*
X800148Y603218D02*
X800148Y598202D01*
X795132Y598202D01*
X795132Y603218D01*
X795132Y600343D02*
X800148Y600343D01*
X800148Y602484D02*
X795132Y602484D01*
D15*
X797364Y591504D02*
X797364Y584516D01*
X790376Y584516D01*
X790376Y591504D01*
X797364Y591504D01*
X797364Y588585D02*
X790376Y588585D01*
X814904Y591504D02*
X814904Y584516D01*
X807916Y584516D01*
X807916Y591504D01*
X814904Y591504D01*
X814904Y588585D02*
X807916Y588585D01*
D10*
X1005840Y543560D03*
X802640Y543560D03*
D16*
X888167Y628683D02*
X888167Y643637D01*
X888167Y628683D02*
X882213Y628683D01*
X882213Y643637D01*
X888167Y643637D01*
X888167Y630883D02*
X882213Y630883D01*
X882213Y633083D02*
X888167Y633083D01*
X888167Y635283D02*
X882213Y635283D01*
X882213Y637483D02*
X888167Y637483D01*
X888167Y639683D02*
X882213Y639683D01*
X882213Y641883D02*
X888167Y641883D01*
X900867Y643637D02*
X900867Y628683D01*
X894913Y628683D01*
X894913Y643637D01*
X900867Y643637D01*
X900867Y630883D02*
X894913Y630883D01*
X894913Y633083D02*
X900867Y633083D01*
X900867Y635283D02*
X894913Y635283D01*
X894913Y637483D02*
X900867Y637483D01*
X900867Y639683D02*
X894913Y639683D01*
X894913Y641883D02*
X900867Y641883D01*
X913567Y643637D02*
X913567Y628683D01*
X907613Y628683D01*
X907613Y643637D01*
X913567Y643637D01*
X913567Y630883D02*
X907613Y630883D01*
X907613Y633083D02*
X913567Y633083D01*
X913567Y635283D02*
X907613Y635283D01*
X907613Y637483D02*
X913567Y637483D01*
X913567Y639683D02*
X907613Y639683D01*
X907613Y641883D02*
X913567Y641883D01*
X926267Y643637D02*
X926267Y628683D01*
X920313Y628683D01*
X920313Y643637D01*
X926267Y643637D01*
X926267Y630883D02*
X920313Y630883D01*
X920313Y633083D02*
X926267Y633083D01*
X926267Y635283D02*
X920313Y635283D01*
X920313Y637483D02*
X926267Y637483D01*
X926267Y639683D02*
X920313Y639683D01*
X920313Y641883D02*
X926267Y641883D01*
D12*
X889032Y614568D02*
X889032Y609552D01*
X889032Y614568D02*
X894048Y614568D01*
X894048Y609552D01*
X889032Y609552D01*
X889032Y611693D02*
X894048Y611693D01*
X894048Y613834D02*
X889032Y613834D01*
X889032Y604568D02*
X889032Y599552D01*
X889032Y604568D02*
X894048Y604568D01*
X894048Y599552D01*
X889032Y599552D01*
X889032Y601693D02*
X894048Y601693D01*
X894048Y603834D02*
X889032Y603834D01*
X901732Y609552D02*
X901732Y614568D01*
X906748Y614568D01*
X906748Y609552D01*
X901732Y609552D01*
X901732Y611693D02*
X906748Y611693D01*
X906748Y613834D02*
X901732Y613834D01*
X901732Y604568D02*
X901732Y599552D01*
X901732Y604568D02*
X906748Y604568D01*
X906748Y599552D01*
X901732Y599552D01*
X901732Y601693D02*
X906748Y601693D01*
X906748Y603834D02*
X901732Y603834D01*
X876332Y609552D02*
X876332Y614568D01*
X881348Y614568D01*
X881348Y609552D01*
X876332Y609552D01*
X876332Y611693D02*
X881348Y611693D01*
X881348Y613834D02*
X876332Y613834D01*
X876332Y604568D02*
X876332Y599552D01*
X876332Y604568D02*
X881348Y604568D01*
X881348Y599552D01*
X876332Y599552D01*
X876332Y601693D02*
X881348Y601693D01*
X881348Y603834D02*
X876332Y603834D01*
D10*
X1061720Y746760D03*
X1264920Y746760D03*
D11*
X1282700Y525780D03*
X1043940Y764540D03*
D12*
X1173512Y614568D02*
X1173512Y609552D01*
X1173512Y614568D02*
X1178528Y614568D01*
X1178528Y609552D01*
X1173512Y609552D01*
X1173512Y611693D02*
X1178528Y611693D01*
X1178528Y613834D02*
X1173512Y613834D01*
X1173512Y604568D02*
X1173512Y599552D01*
X1173512Y604568D02*
X1178528Y604568D01*
X1178528Y599552D01*
X1173512Y599552D01*
X1173512Y601693D02*
X1178528Y601693D01*
X1178528Y603834D02*
X1173512Y603834D01*
X1186212Y609552D02*
X1186212Y614568D01*
X1191228Y614568D01*
X1191228Y609552D01*
X1186212Y609552D01*
X1186212Y611693D02*
X1191228Y611693D01*
X1191228Y613834D02*
X1186212Y613834D01*
X1186212Y604568D02*
X1186212Y599552D01*
X1186212Y604568D02*
X1191228Y604568D01*
X1191228Y599552D01*
X1186212Y599552D01*
X1186212Y601693D02*
X1191228Y601693D01*
X1191228Y603834D02*
X1186212Y603834D01*
D13*
X1040863Y667653D02*
X1040863Y678667D01*
X1059877Y678667D01*
X1059877Y667653D01*
X1040863Y667653D01*
X1040863Y669796D02*
X1059877Y669796D01*
X1059877Y671939D02*
X1040863Y671939D01*
X1040863Y674082D02*
X1059877Y674082D01*
X1059877Y676225D02*
X1040863Y676225D01*
X1040863Y678368D02*
X1059877Y678368D01*
X1040863Y622667D02*
X1040863Y611653D01*
X1040863Y622667D02*
X1059877Y622667D01*
X1059877Y611653D01*
X1040863Y611653D01*
X1040863Y613796D02*
X1059877Y613796D01*
X1059877Y615939D02*
X1040863Y615939D01*
X1040863Y618082D02*
X1059877Y618082D01*
X1059877Y620225D02*
X1040863Y620225D01*
X1040863Y622368D02*
X1059877Y622368D01*
D12*
X1080862Y657652D02*
X1080862Y662668D01*
X1093378Y662668D01*
X1093378Y657652D01*
X1080862Y657652D01*
X1080862Y659793D02*
X1093378Y659793D01*
X1093378Y661934D02*
X1080862Y661934D01*
X1080862Y652668D02*
X1080862Y647652D01*
X1080862Y652668D02*
X1093378Y652668D01*
X1093378Y647652D01*
X1080862Y647652D01*
X1080862Y649793D02*
X1093378Y649793D01*
X1093378Y651934D02*
X1080862Y651934D01*
X1080862Y642668D02*
X1080862Y637652D01*
X1080862Y642668D02*
X1093378Y642668D01*
X1093378Y637652D01*
X1080862Y637652D01*
X1080862Y639793D02*
X1093378Y639793D01*
X1093378Y641934D02*
X1080862Y641934D01*
X1080862Y632668D02*
X1080862Y627652D01*
X1080862Y632668D02*
X1093378Y632668D01*
X1093378Y627652D01*
X1080862Y627652D01*
X1080862Y629793D02*
X1093378Y629793D01*
X1093378Y631934D02*
X1080862Y631934D01*
D14*
X1125220Y530860D03*
X1150620Y530860D03*
X1176020Y530860D03*
X1201420Y530860D03*
D13*
X1285777Y611653D02*
X1285777Y622667D01*
X1285777Y611653D02*
X1266763Y611653D01*
X1266763Y622667D01*
X1285777Y622667D01*
X1285777Y613796D02*
X1266763Y613796D01*
X1266763Y615939D02*
X1285777Y615939D01*
X1285777Y618082D02*
X1266763Y618082D01*
X1266763Y620225D02*
X1285777Y620225D01*
X1285777Y622368D02*
X1266763Y622368D01*
X1285777Y667653D02*
X1285777Y678667D01*
X1285777Y667653D02*
X1266763Y667653D01*
X1266763Y678667D01*
X1285777Y678667D01*
X1285777Y669796D02*
X1266763Y669796D01*
X1266763Y671939D02*
X1285777Y671939D01*
X1285777Y674082D02*
X1266763Y674082D01*
X1266763Y676225D02*
X1285777Y676225D01*
X1285777Y678368D02*
X1266763Y678368D01*
D12*
X1245778Y632668D02*
X1245778Y627652D01*
X1233262Y627652D01*
X1233262Y632668D01*
X1245778Y632668D01*
X1245778Y629793D02*
X1233262Y629793D01*
X1233262Y631934D02*
X1245778Y631934D01*
X1245778Y637652D02*
X1245778Y642668D01*
X1245778Y637652D02*
X1233262Y637652D01*
X1233262Y642668D01*
X1245778Y642668D01*
X1245778Y639793D02*
X1233262Y639793D01*
X1233262Y641934D02*
X1245778Y641934D01*
X1245778Y647652D02*
X1245778Y652668D01*
X1245778Y647652D02*
X1233262Y647652D01*
X1233262Y652668D01*
X1245778Y652668D01*
X1245778Y649793D02*
X1233262Y649793D01*
X1233262Y651934D02*
X1245778Y651934D01*
X1245778Y657652D02*
X1245778Y662668D01*
X1245778Y657652D02*
X1233262Y657652D01*
X1233262Y662668D01*
X1245778Y662668D01*
X1245778Y659793D02*
X1233262Y659793D01*
X1233262Y661934D02*
X1245778Y661934D01*
X1069228Y603218D02*
X1064212Y603218D01*
X1069228Y603218D02*
X1069228Y598202D01*
X1064212Y598202D01*
X1064212Y603218D01*
X1064212Y600343D02*
X1069228Y600343D01*
X1069228Y602484D02*
X1064212Y602484D01*
X1059228Y603218D02*
X1054212Y603218D01*
X1059228Y603218D02*
X1059228Y598202D01*
X1054212Y598202D01*
X1054212Y603218D01*
X1054212Y600343D02*
X1059228Y600343D01*
X1059228Y602484D02*
X1054212Y602484D01*
D15*
X1056444Y591504D02*
X1056444Y584516D01*
X1049456Y584516D01*
X1049456Y591504D01*
X1056444Y591504D01*
X1056444Y588585D02*
X1049456Y588585D01*
X1073984Y591504D02*
X1073984Y584516D01*
X1066996Y584516D01*
X1066996Y591504D01*
X1073984Y591504D01*
X1073984Y588585D02*
X1066996Y588585D01*
D10*
X1264920Y543560D03*
X1061720Y543560D03*
D16*
X1147247Y628683D02*
X1147247Y643637D01*
X1147247Y628683D02*
X1141293Y628683D01*
X1141293Y643637D01*
X1147247Y643637D01*
X1147247Y630883D02*
X1141293Y630883D01*
X1141293Y633083D02*
X1147247Y633083D01*
X1147247Y635283D02*
X1141293Y635283D01*
X1141293Y637483D02*
X1147247Y637483D01*
X1147247Y639683D02*
X1141293Y639683D01*
X1141293Y641883D02*
X1147247Y641883D01*
X1159947Y643637D02*
X1159947Y628683D01*
X1153993Y628683D01*
X1153993Y643637D01*
X1159947Y643637D01*
X1159947Y630883D02*
X1153993Y630883D01*
X1153993Y633083D02*
X1159947Y633083D01*
X1159947Y635283D02*
X1153993Y635283D01*
X1153993Y637483D02*
X1159947Y637483D01*
X1159947Y639683D02*
X1153993Y639683D01*
X1153993Y641883D02*
X1159947Y641883D01*
X1172647Y643637D02*
X1172647Y628683D01*
X1166693Y628683D01*
X1166693Y643637D01*
X1172647Y643637D01*
X1172647Y630883D02*
X1166693Y630883D01*
X1166693Y633083D02*
X1172647Y633083D01*
X1172647Y635283D02*
X1166693Y635283D01*
X1166693Y637483D02*
X1172647Y637483D01*
X1172647Y639683D02*
X1166693Y639683D01*
X1166693Y641883D02*
X1172647Y641883D01*
X1185347Y643637D02*
X1185347Y628683D01*
X1179393Y628683D01*
X1179393Y643637D01*
X1185347Y643637D01*
X1185347Y630883D02*
X1179393Y630883D01*
X1179393Y633083D02*
X1185347Y633083D01*
X1185347Y635283D02*
X1179393Y635283D01*
X1179393Y637483D02*
X1185347Y637483D01*
X1185347Y639683D02*
X1179393Y639683D01*
X1179393Y641883D02*
X1185347Y641883D01*
D12*
X1148112Y614568D02*
X1148112Y609552D01*
X1148112Y614568D02*
X1153128Y614568D01*
X1153128Y609552D01*
X1148112Y609552D01*
X1148112Y611693D02*
X1153128Y611693D01*
X1153128Y613834D02*
X1148112Y613834D01*
X1148112Y604568D02*
X1148112Y599552D01*
X1148112Y604568D02*
X1153128Y604568D01*
X1153128Y599552D01*
X1148112Y599552D01*
X1148112Y601693D02*
X1153128Y601693D01*
X1153128Y603834D02*
X1148112Y603834D01*
X1160812Y609552D02*
X1160812Y614568D01*
X1165828Y614568D01*
X1165828Y609552D01*
X1160812Y609552D01*
X1160812Y611693D02*
X1165828Y611693D01*
X1165828Y613834D02*
X1160812Y613834D01*
X1160812Y604568D02*
X1160812Y599552D01*
X1160812Y604568D02*
X1165828Y604568D01*
X1165828Y599552D01*
X1160812Y599552D01*
X1160812Y601693D02*
X1165828Y601693D01*
X1165828Y603834D02*
X1160812Y603834D01*
X1135412Y609552D02*
X1135412Y614568D01*
X1140428Y614568D01*
X1140428Y609552D01*
X1135412Y609552D01*
X1135412Y611693D02*
X1140428Y611693D01*
X1140428Y613834D02*
X1135412Y613834D01*
X1135412Y604568D02*
X1135412Y599552D01*
X1135412Y604568D02*
X1140428Y604568D01*
X1140428Y599552D01*
X1135412Y599552D01*
X1135412Y601693D02*
X1140428Y601693D01*
X1140428Y603834D02*
X1135412Y603834D01*
D10*
X1320800Y746760D03*
X1524000Y746760D03*
D11*
X1541780Y525780D03*
X1303020Y764540D03*
D12*
X1432592Y614568D02*
X1432592Y609552D01*
X1432592Y614568D02*
X1437608Y614568D01*
X1437608Y609552D01*
X1432592Y609552D01*
X1432592Y611693D02*
X1437608Y611693D01*
X1437608Y613834D02*
X1432592Y613834D01*
X1432592Y604568D02*
X1432592Y599552D01*
X1432592Y604568D02*
X1437608Y604568D01*
X1437608Y599552D01*
X1432592Y599552D01*
X1432592Y601693D02*
X1437608Y601693D01*
X1437608Y603834D02*
X1432592Y603834D01*
X1445292Y609552D02*
X1445292Y614568D01*
X1450308Y614568D01*
X1450308Y609552D01*
X1445292Y609552D01*
X1445292Y611693D02*
X1450308Y611693D01*
X1450308Y613834D02*
X1445292Y613834D01*
X1445292Y604568D02*
X1445292Y599552D01*
X1445292Y604568D02*
X1450308Y604568D01*
X1450308Y599552D01*
X1445292Y599552D01*
X1445292Y601693D02*
X1450308Y601693D01*
X1450308Y603834D02*
X1445292Y603834D01*
D13*
X1299943Y667653D02*
X1299943Y678667D01*
X1318957Y678667D01*
X1318957Y667653D01*
X1299943Y667653D01*
X1299943Y669796D02*
X1318957Y669796D01*
X1318957Y671939D02*
X1299943Y671939D01*
X1299943Y674082D02*
X1318957Y674082D01*
X1318957Y676225D02*
X1299943Y676225D01*
X1299943Y678368D02*
X1318957Y678368D01*
X1299943Y622667D02*
X1299943Y611653D01*
X1299943Y622667D02*
X1318957Y622667D01*
X1318957Y611653D01*
X1299943Y611653D01*
X1299943Y613796D02*
X1318957Y613796D01*
X1318957Y615939D02*
X1299943Y615939D01*
X1299943Y618082D02*
X1318957Y618082D01*
X1318957Y620225D02*
X1299943Y620225D01*
X1299943Y622368D02*
X1318957Y622368D01*
D12*
X1339942Y657652D02*
X1339942Y662668D01*
X1352458Y662668D01*
X1352458Y657652D01*
X1339942Y657652D01*
X1339942Y659793D02*
X1352458Y659793D01*
X1352458Y661934D02*
X1339942Y661934D01*
X1339942Y652668D02*
X1339942Y647652D01*
X1339942Y652668D02*
X1352458Y652668D01*
X1352458Y647652D01*
X1339942Y647652D01*
X1339942Y649793D02*
X1352458Y649793D01*
X1352458Y651934D02*
X1339942Y651934D01*
X1339942Y642668D02*
X1339942Y637652D01*
X1339942Y642668D02*
X1352458Y642668D01*
X1352458Y637652D01*
X1339942Y637652D01*
X1339942Y639793D02*
X1352458Y639793D01*
X1352458Y641934D02*
X1339942Y641934D01*
X1339942Y632668D02*
X1339942Y627652D01*
X1339942Y632668D02*
X1352458Y632668D01*
X1352458Y627652D01*
X1339942Y627652D01*
X1339942Y629793D02*
X1352458Y629793D01*
X1352458Y631934D02*
X1339942Y631934D01*
D14*
X1384300Y530860D03*
X1409700Y530860D03*
X1435100Y530860D03*
X1460500Y530860D03*
D13*
X1544857Y611653D02*
X1544857Y622667D01*
X1544857Y611653D02*
X1525843Y611653D01*
X1525843Y622667D01*
X1544857Y622667D01*
X1544857Y613796D02*
X1525843Y613796D01*
X1525843Y615939D02*
X1544857Y615939D01*
X1544857Y618082D02*
X1525843Y618082D01*
X1525843Y620225D02*
X1544857Y620225D01*
X1544857Y622368D02*
X1525843Y622368D01*
X1544857Y667653D02*
X1544857Y678667D01*
X1544857Y667653D02*
X1525843Y667653D01*
X1525843Y678667D01*
X1544857Y678667D01*
X1544857Y669796D02*
X1525843Y669796D01*
X1525843Y671939D02*
X1544857Y671939D01*
X1544857Y674082D02*
X1525843Y674082D01*
X1525843Y676225D02*
X1544857Y676225D01*
X1544857Y678368D02*
X1525843Y678368D01*
D12*
X1504858Y632668D02*
X1504858Y627652D01*
X1492342Y627652D01*
X1492342Y632668D01*
X1504858Y632668D01*
X1504858Y629793D02*
X1492342Y629793D01*
X1492342Y631934D02*
X1504858Y631934D01*
X1504858Y637652D02*
X1504858Y642668D01*
X1504858Y637652D02*
X1492342Y637652D01*
X1492342Y642668D01*
X1504858Y642668D01*
X1504858Y639793D02*
X1492342Y639793D01*
X1492342Y641934D02*
X1504858Y641934D01*
X1504858Y647652D02*
X1504858Y652668D01*
X1504858Y647652D02*
X1492342Y647652D01*
X1492342Y652668D01*
X1504858Y652668D01*
X1504858Y649793D02*
X1492342Y649793D01*
X1492342Y651934D02*
X1504858Y651934D01*
X1504858Y657652D02*
X1504858Y662668D01*
X1504858Y657652D02*
X1492342Y657652D01*
X1492342Y662668D01*
X1504858Y662668D01*
X1504858Y659793D02*
X1492342Y659793D01*
X1492342Y661934D02*
X1504858Y661934D01*
X1328308Y603218D02*
X1323292Y603218D01*
X1328308Y603218D02*
X1328308Y598202D01*
X1323292Y598202D01*
X1323292Y603218D01*
X1323292Y600343D02*
X1328308Y600343D01*
X1328308Y602484D02*
X1323292Y602484D01*
X1318308Y603218D02*
X1313292Y603218D01*
X1318308Y603218D02*
X1318308Y598202D01*
X1313292Y598202D01*
X1313292Y603218D01*
X1313292Y600343D02*
X1318308Y600343D01*
X1318308Y602484D02*
X1313292Y602484D01*
D15*
X1315524Y591504D02*
X1315524Y584516D01*
X1308536Y584516D01*
X1308536Y591504D01*
X1315524Y591504D01*
X1315524Y588585D02*
X1308536Y588585D01*
X1333064Y591504D02*
X1333064Y584516D01*
X1326076Y584516D01*
X1326076Y591504D01*
X1333064Y591504D01*
X1333064Y588585D02*
X1326076Y588585D01*
D10*
X1524000Y543560D03*
X1320800Y543560D03*
D16*
X1406327Y628683D02*
X1406327Y643637D01*
X1406327Y628683D02*
X1400373Y628683D01*
X1400373Y643637D01*
X1406327Y643637D01*
X1406327Y630883D02*
X1400373Y630883D01*
X1400373Y633083D02*
X1406327Y633083D01*
X1406327Y635283D02*
X1400373Y635283D01*
X1400373Y637483D02*
X1406327Y637483D01*
X1406327Y639683D02*
X1400373Y639683D01*
X1400373Y641883D02*
X1406327Y641883D01*
X1419027Y643637D02*
X1419027Y628683D01*
X1413073Y628683D01*
X1413073Y643637D01*
X1419027Y643637D01*
X1419027Y630883D02*
X1413073Y630883D01*
X1413073Y633083D02*
X1419027Y633083D01*
X1419027Y635283D02*
X1413073Y635283D01*
X1413073Y637483D02*
X1419027Y637483D01*
X1419027Y639683D02*
X1413073Y639683D01*
X1413073Y641883D02*
X1419027Y641883D01*
X1431727Y643637D02*
X1431727Y628683D01*
X1425773Y628683D01*
X1425773Y643637D01*
X1431727Y643637D01*
X1431727Y630883D02*
X1425773Y630883D01*
X1425773Y633083D02*
X1431727Y633083D01*
X1431727Y635283D02*
X1425773Y635283D01*
X1425773Y637483D02*
X1431727Y637483D01*
X1431727Y639683D02*
X1425773Y639683D01*
X1425773Y641883D02*
X1431727Y641883D01*
X1444427Y643637D02*
X1444427Y628683D01*
X1438473Y628683D01*
X1438473Y643637D01*
X1444427Y643637D01*
X1444427Y630883D02*
X1438473Y630883D01*
X1438473Y633083D02*
X1444427Y633083D01*
X1444427Y635283D02*
X1438473Y635283D01*
X1438473Y637483D02*
X1444427Y637483D01*
X1444427Y639683D02*
X1438473Y639683D01*
X1438473Y641883D02*
X1444427Y641883D01*
D12*
X1407192Y614568D02*
X1407192Y609552D01*
X1407192Y614568D02*
X1412208Y614568D01*
X1412208Y609552D01*
X1407192Y609552D01*
X1407192Y611693D02*
X1412208Y611693D01*
X1412208Y613834D02*
X1407192Y613834D01*
X1407192Y604568D02*
X1407192Y599552D01*
X1407192Y604568D02*
X1412208Y604568D01*
X1412208Y599552D01*
X1407192Y599552D01*
X1407192Y601693D02*
X1412208Y601693D01*
X1412208Y603834D02*
X1407192Y603834D01*
X1419892Y609552D02*
X1419892Y614568D01*
X1424908Y614568D01*
X1424908Y609552D01*
X1419892Y609552D01*
X1419892Y611693D02*
X1424908Y611693D01*
X1424908Y613834D02*
X1419892Y613834D01*
X1419892Y604568D02*
X1419892Y599552D01*
X1419892Y604568D02*
X1424908Y604568D01*
X1424908Y599552D01*
X1419892Y599552D01*
X1419892Y601693D02*
X1424908Y601693D01*
X1424908Y603834D02*
X1419892Y603834D01*
X1394492Y609552D02*
X1394492Y614568D01*
X1399508Y614568D01*
X1399508Y609552D01*
X1394492Y609552D01*
X1394492Y611693D02*
X1399508Y611693D01*
X1399508Y613834D02*
X1394492Y613834D01*
X1394492Y604568D02*
X1394492Y599552D01*
X1394492Y604568D02*
X1399508Y604568D01*
X1399508Y599552D01*
X1394492Y599552D01*
X1394492Y601693D02*
X1399508Y601693D01*
X1399508Y603834D02*
X1394492Y603834D01*
D10*
X25400Y1005840D03*
X228600Y1005840D03*
D11*
X246380Y784860D03*
X7620Y1023620D03*
D12*
X137192Y873648D02*
X137192Y868632D01*
X137192Y873648D02*
X142208Y873648D01*
X142208Y868632D01*
X137192Y868632D01*
X137192Y870773D02*
X142208Y870773D01*
X142208Y872914D02*
X137192Y872914D01*
X137192Y863648D02*
X137192Y858632D01*
X137192Y863648D02*
X142208Y863648D01*
X142208Y858632D01*
X137192Y858632D01*
X137192Y860773D02*
X142208Y860773D01*
X142208Y862914D02*
X137192Y862914D01*
X149892Y868632D02*
X149892Y873648D01*
X154908Y873648D01*
X154908Y868632D01*
X149892Y868632D01*
X149892Y870773D02*
X154908Y870773D01*
X154908Y872914D02*
X149892Y872914D01*
X149892Y863648D02*
X149892Y858632D01*
X149892Y863648D02*
X154908Y863648D01*
X154908Y858632D01*
X149892Y858632D01*
X149892Y860773D02*
X154908Y860773D01*
X154908Y862914D02*
X149892Y862914D01*
D13*
X4543Y926733D02*
X4543Y937747D01*
X23557Y937747D01*
X23557Y926733D01*
X4543Y926733D01*
X4543Y928876D02*
X23557Y928876D01*
X23557Y931019D02*
X4543Y931019D01*
X4543Y933162D02*
X23557Y933162D01*
X23557Y935305D02*
X4543Y935305D01*
X4543Y937448D02*
X23557Y937448D01*
X4543Y881747D02*
X4543Y870733D01*
X4543Y881747D02*
X23557Y881747D01*
X23557Y870733D01*
X4543Y870733D01*
X4543Y872876D02*
X23557Y872876D01*
X23557Y875019D02*
X4543Y875019D01*
X4543Y877162D02*
X23557Y877162D01*
X23557Y879305D02*
X4543Y879305D01*
X4543Y881448D02*
X23557Y881448D01*
D12*
X44542Y916732D02*
X44542Y921748D01*
X57058Y921748D01*
X57058Y916732D01*
X44542Y916732D01*
X44542Y918873D02*
X57058Y918873D01*
X57058Y921014D02*
X44542Y921014D01*
X44542Y911748D02*
X44542Y906732D01*
X44542Y911748D02*
X57058Y911748D01*
X57058Y906732D01*
X44542Y906732D01*
X44542Y908873D02*
X57058Y908873D01*
X57058Y911014D02*
X44542Y911014D01*
X44542Y901748D02*
X44542Y896732D01*
X44542Y901748D02*
X57058Y901748D01*
X57058Y896732D01*
X44542Y896732D01*
X44542Y898873D02*
X57058Y898873D01*
X57058Y901014D02*
X44542Y901014D01*
X44542Y891748D02*
X44542Y886732D01*
X44542Y891748D02*
X57058Y891748D01*
X57058Y886732D01*
X44542Y886732D01*
X44542Y888873D02*
X57058Y888873D01*
X57058Y891014D02*
X44542Y891014D01*
D14*
X88900Y789940D03*
X114300Y789940D03*
X139700Y789940D03*
X165100Y789940D03*
D13*
X249457Y870733D02*
X249457Y881747D01*
X249457Y870733D02*
X230443Y870733D01*
X230443Y881747D01*
X249457Y881747D01*
X249457Y872876D02*
X230443Y872876D01*
X230443Y875019D02*
X249457Y875019D01*
X249457Y877162D02*
X230443Y877162D01*
X230443Y879305D02*
X249457Y879305D01*
X249457Y881448D02*
X230443Y881448D01*
X249457Y926733D02*
X249457Y937747D01*
X249457Y926733D02*
X230443Y926733D01*
X230443Y937747D01*
X249457Y937747D01*
X249457Y928876D02*
X230443Y928876D01*
X230443Y931019D02*
X249457Y931019D01*
X249457Y933162D02*
X230443Y933162D01*
X230443Y935305D02*
X249457Y935305D01*
X249457Y937448D02*
X230443Y937448D01*
D12*
X209458Y891748D02*
X209458Y886732D01*
X196942Y886732D01*
X196942Y891748D01*
X209458Y891748D01*
X209458Y888873D02*
X196942Y888873D01*
X196942Y891014D02*
X209458Y891014D01*
X209458Y896732D02*
X209458Y901748D01*
X209458Y896732D02*
X196942Y896732D01*
X196942Y901748D01*
X209458Y901748D01*
X209458Y898873D02*
X196942Y898873D01*
X196942Y901014D02*
X209458Y901014D01*
X209458Y906732D02*
X209458Y911748D01*
X209458Y906732D02*
X196942Y906732D01*
X196942Y911748D01*
X209458Y911748D01*
X209458Y908873D02*
X196942Y908873D01*
X196942Y911014D02*
X209458Y911014D01*
X209458Y916732D02*
X209458Y921748D01*
X209458Y916732D02*
X196942Y916732D01*
X196942Y921748D01*
X209458Y921748D01*
X209458Y918873D02*
X196942Y918873D01*
X196942Y921014D02*
X209458Y921014D01*
X32908Y862298D02*
X27892Y862298D01*
X32908Y862298D02*
X32908Y857282D01*
X27892Y857282D01*
X27892Y862298D01*
X27892Y859423D02*
X32908Y859423D01*
X32908Y861564D02*
X27892Y861564D01*
X22908Y862298D02*
X17892Y862298D01*
X22908Y862298D02*
X22908Y857282D01*
X17892Y857282D01*
X17892Y862298D01*
X17892Y859423D02*
X22908Y859423D01*
X22908Y861564D02*
X17892Y861564D01*
D15*
X20124Y850584D02*
X20124Y843596D01*
X13136Y843596D01*
X13136Y850584D01*
X20124Y850584D01*
X20124Y847665D02*
X13136Y847665D01*
X37664Y850584D02*
X37664Y843596D01*
X30676Y843596D01*
X30676Y850584D01*
X37664Y850584D01*
X37664Y847665D02*
X30676Y847665D01*
D10*
X228600Y802640D03*
X25400Y802640D03*
D16*
X110927Y887763D02*
X110927Y902717D01*
X110927Y887763D02*
X104973Y887763D01*
X104973Y902717D01*
X110927Y902717D01*
X110927Y889963D02*
X104973Y889963D01*
X104973Y892163D02*
X110927Y892163D01*
X110927Y894363D02*
X104973Y894363D01*
X104973Y896563D02*
X110927Y896563D01*
X110927Y898763D02*
X104973Y898763D01*
X104973Y900963D02*
X110927Y900963D01*
X123627Y902717D02*
X123627Y887763D01*
X117673Y887763D01*
X117673Y902717D01*
X123627Y902717D01*
X123627Y889963D02*
X117673Y889963D01*
X117673Y892163D02*
X123627Y892163D01*
X123627Y894363D02*
X117673Y894363D01*
X117673Y896563D02*
X123627Y896563D01*
X123627Y898763D02*
X117673Y898763D01*
X117673Y900963D02*
X123627Y900963D01*
X136327Y902717D02*
X136327Y887763D01*
X130373Y887763D01*
X130373Y902717D01*
X136327Y902717D01*
X136327Y889963D02*
X130373Y889963D01*
X130373Y892163D02*
X136327Y892163D01*
X136327Y894363D02*
X130373Y894363D01*
X130373Y896563D02*
X136327Y896563D01*
X136327Y898763D02*
X130373Y898763D01*
X130373Y900963D02*
X136327Y900963D01*
X149027Y902717D02*
X149027Y887763D01*
X143073Y887763D01*
X143073Y902717D01*
X149027Y902717D01*
X149027Y889963D02*
X143073Y889963D01*
X143073Y892163D02*
X149027Y892163D01*
X149027Y894363D02*
X143073Y894363D01*
X143073Y896563D02*
X149027Y896563D01*
X149027Y898763D02*
X143073Y898763D01*
X143073Y900963D02*
X149027Y900963D01*
D12*
X111792Y873648D02*
X111792Y868632D01*
X111792Y873648D02*
X116808Y873648D01*
X116808Y868632D01*
X111792Y868632D01*
X111792Y870773D02*
X116808Y870773D01*
X116808Y872914D02*
X111792Y872914D01*
X111792Y863648D02*
X111792Y858632D01*
X111792Y863648D02*
X116808Y863648D01*
X116808Y858632D01*
X111792Y858632D01*
X111792Y860773D02*
X116808Y860773D01*
X116808Y862914D02*
X111792Y862914D01*
X124492Y868632D02*
X124492Y873648D01*
X129508Y873648D01*
X129508Y868632D01*
X124492Y868632D01*
X124492Y870773D02*
X129508Y870773D01*
X129508Y872914D02*
X124492Y872914D01*
X124492Y863648D02*
X124492Y858632D01*
X124492Y863648D02*
X129508Y863648D01*
X129508Y858632D01*
X124492Y858632D01*
X124492Y860773D02*
X129508Y860773D01*
X129508Y862914D02*
X124492Y862914D01*
X99092Y868632D02*
X99092Y873648D01*
X104108Y873648D01*
X104108Y868632D01*
X99092Y868632D01*
X99092Y870773D02*
X104108Y870773D01*
X104108Y872914D02*
X99092Y872914D01*
X99092Y863648D02*
X99092Y858632D01*
X99092Y863648D02*
X104108Y863648D01*
X104108Y858632D01*
X99092Y858632D01*
X99092Y860773D02*
X104108Y860773D01*
X104108Y862914D02*
X99092Y862914D01*
D10*
X284480Y1005840D03*
X487680Y1005840D03*
D11*
X505460Y784860D03*
X266700Y1023620D03*
D12*
X396272Y873648D02*
X396272Y868632D01*
X396272Y873648D02*
X401288Y873648D01*
X401288Y868632D01*
X396272Y868632D01*
X396272Y870773D02*
X401288Y870773D01*
X401288Y872914D02*
X396272Y872914D01*
X396272Y863648D02*
X396272Y858632D01*
X396272Y863648D02*
X401288Y863648D01*
X401288Y858632D01*
X396272Y858632D01*
X396272Y860773D02*
X401288Y860773D01*
X401288Y862914D02*
X396272Y862914D01*
X408972Y868632D02*
X408972Y873648D01*
X413988Y873648D01*
X413988Y868632D01*
X408972Y868632D01*
X408972Y870773D02*
X413988Y870773D01*
X413988Y872914D02*
X408972Y872914D01*
X408972Y863648D02*
X408972Y858632D01*
X408972Y863648D02*
X413988Y863648D01*
X413988Y858632D01*
X408972Y858632D01*
X408972Y860773D02*
X413988Y860773D01*
X413988Y862914D02*
X408972Y862914D01*
D13*
X263623Y926733D02*
X263623Y937747D01*
X282637Y937747D01*
X282637Y926733D01*
X263623Y926733D01*
X263623Y928876D02*
X282637Y928876D01*
X282637Y931019D02*
X263623Y931019D01*
X263623Y933162D02*
X282637Y933162D01*
X282637Y935305D02*
X263623Y935305D01*
X263623Y937448D02*
X282637Y937448D01*
X263623Y881747D02*
X263623Y870733D01*
X263623Y881747D02*
X282637Y881747D01*
X282637Y870733D01*
X263623Y870733D01*
X263623Y872876D02*
X282637Y872876D01*
X282637Y875019D02*
X263623Y875019D01*
X263623Y877162D02*
X282637Y877162D01*
X282637Y879305D02*
X263623Y879305D01*
X263623Y881448D02*
X282637Y881448D01*
D12*
X303622Y916732D02*
X303622Y921748D01*
X316138Y921748D01*
X316138Y916732D01*
X303622Y916732D01*
X303622Y918873D02*
X316138Y918873D01*
X316138Y921014D02*
X303622Y921014D01*
X303622Y911748D02*
X303622Y906732D01*
X303622Y911748D02*
X316138Y911748D01*
X316138Y906732D01*
X303622Y906732D01*
X303622Y908873D02*
X316138Y908873D01*
X316138Y911014D02*
X303622Y911014D01*
X303622Y901748D02*
X303622Y896732D01*
X303622Y901748D02*
X316138Y901748D01*
X316138Y896732D01*
X303622Y896732D01*
X303622Y898873D02*
X316138Y898873D01*
X316138Y901014D02*
X303622Y901014D01*
X303622Y891748D02*
X303622Y886732D01*
X303622Y891748D02*
X316138Y891748D01*
X316138Y886732D01*
X303622Y886732D01*
X303622Y888873D02*
X316138Y888873D01*
X316138Y891014D02*
X303622Y891014D01*
D14*
X347980Y789940D03*
X373380Y789940D03*
X398780Y789940D03*
X424180Y789940D03*
D13*
X508537Y870733D02*
X508537Y881747D01*
X508537Y870733D02*
X489523Y870733D01*
X489523Y881747D01*
X508537Y881747D01*
X508537Y872876D02*
X489523Y872876D01*
X489523Y875019D02*
X508537Y875019D01*
X508537Y877162D02*
X489523Y877162D01*
X489523Y879305D02*
X508537Y879305D01*
X508537Y881448D02*
X489523Y881448D01*
X508537Y926733D02*
X508537Y937747D01*
X508537Y926733D02*
X489523Y926733D01*
X489523Y937747D01*
X508537Y937747D01*
X508537Y928876D02*
X489523Y928876D01*
X489523Y931019D02*
X508537Y931019D01*
X508537Y933162D02*
X489523Y933162D01*
X489523Y935305D02*
X508537Y935305D01*
X508537Y937448D02*
X489523Y937448D01*
D12*
X468538Y891748D02*
X468538Y886732D01*
X456022Y886732D01*
X456022Y891748D01*
X468538Y891748D01*
X468538Y888873D02*
X456022Y888873D01*
X456022Y891014D02*
X468538Y891014D01*
X468538Y896732D02*
X468538Y901748D01*
X468538Y896732D02*
X456022Y896732D01*
X456022Y901748D01*
X468538Y901748D01*
X468538Y898873D02*
X456022Y898873D01*
X456022Y901014D02*
X468538Y901014D01*
X468538Y906732D02*
X468538Y911748D01*
X468538Y906732D02*
X456022Y906732D01*
X456022Y911748D01*
X468538Y911748D01*
X468538Y908873D02*
X456022Y908873D01*
X456022Y911014D02*
X468538Y911014D01*
X468538Y916732D02*
X468538Y921748D01*
X468538Y916732D02*
X456022Y916732D01*
X456022Y921748D01*
X468538Y921748D01*
X468538Y918873D02*
X456022Y918873D01*
X456022Y921014D02*
X468538Y921014D01*
X291988Y862298D02*
X286972Y862298D01*
X291988Y862298D02*
X291988Y857282D01*
X286972Y857282D01*
X286972Y862298D01*
X286972Y859423D02*
X291988Y859423D01*
X291988Y861564D02*
X286972Y861564D01*
X281988Y862298D02*
X276972Y862298D01*
X281988Y862298D02*
X281988Y857282D01*
X276972Y857282D01*
X276972Y862298D01*
X276972Y859423D02*
X281988Y859423D01*
X281988Y861564D02*
X276972Y861564D01*
D15*
X279204Y850584D02*
X279204Y843596D01*
X272216Y843596D01*
X272216Y850584D01*
X279204Y850584D01*
X279204Y847665D02*
X272216Y847665D01*
X296744Y850584D02*
X296744Y843596D01*
X289756Y843596D01*
X289756Y850584D01*
X296744Y850584D01*
X296744Y847665D02*
X289756Y847665D01*
D10*
X487680Y802640D03*
X284480Y802640D03*
D16*
X370007Y887763D02*
X370007Y902717D01*
X370007Y887763D02*
X364053Y887763D01*
X364053Y902717D01*
X370007Y902717D01*
X370007Y889963D02*
X364053Y889963D01*
X364053Y892163D02*
X370007Y892163D01*
X370007Y894363D02*
X364053Y894363D01*
X364053Y896563D02*
X370007Y896563D01*
X370007Y898763D02*
X364053Y898763D01*
X364053Y900963D02*
X370007Y900963D01*
X382707Y902717D02*
X382707Y887763D01*
X376753Y887763D01*
X376753Y902717D01*
X382707Y902717D01*
X382707Y889963D02*
X376753Y889963D01*
X376753Y892163D02*
X382707Y892163D01*
X382707Y894363D02*
X376753Y894363D01*
X376753Y896563D02*
X382707Y896563D01*
X382707Y898763D02*
X376753Y898763D01*
X376753Y900963D02*
X382707Y900963D01*
X395407Y902717D02*
X395407Y887763D01*
X389453Y887763D01*
X389453Y902717D01*
X395407Y902717D01*
X395407Y889963D02*
X389453Y889963D01*
X389453Y892163D02*
X395407Y892163D01*
X395407Y894363D02*
X389453Y894363D01*
X389453Y896563D02*
X395407Y896563D01*
X395407Y898763D02*
X389453Y898763D01*
X389453Y900963D02*
X395407Y900963D01*
X408107Y902717D02*
X408107Y887763D01*
X402153Y887763D01*
X402153Y902717D01*
X408107Y902717D01*
X408107Y889963D02*
X402153Y889963D01*
X402153Y892163D02*
X408107Y892163D01*
X408107Y894363D02*
X402153Y894363D01*
X402153Y896563D02*
X408107Y896563D01*
X408107Y898763D02*
X402153Y898763D01*
X402153Y900963D02*
X408107Y900963D01*
D12*
X370872Y873648D02*
X370872Y868632D01*
X370872Y873648D02*
X375888Y873648D01*
X375888Y868632D01*
X370872Y868632D01*
X370872Y870773D02*
X375888Y870773D01*
X375888Y872914D02*
X370872Y872914D01*
X370872Y863648D02*
X370872Y858632D01*
X370872Y863648D02*
X375888Y863648D01*
X375888Y858632D01*
X370872Y858632D01*
X370872Y860773D02*
X375888Y860773D01*
X375888Y862914D02*
X370872Y862914D01*
X383572Y868632D02*
X383572Y873648D01*
X388588Y873648D01*
X388588Y868632D01*
X383572Y868632D01*
X383572Y870773D02*
X388588Y870773D01*
X388588Y872914D02*
X383572Y872914D01*
X383572Y863648D02*
X383572Y858632D01*
X383572Y863648D02*
X388588Y863648D01*
X388588Y858632D01*
X383572Y858632D01*
X383572Y860773D02*
X388588Y860773D01*
X388588Y862914D02*
X383572Y862914D01*
X358172Y868632D02*
X358172Y873648D01*
X363188Y873648D01*
X363188Y868632D01*
X358172Y868632D01*
X358172Y870773D02*
X363188Y870773D01*
X363188Y872914D02*
X358172Y872914D01*
X358172Y863648D02*
X358172Y858632D01*
X358172Y863648D02*
X363188Y863648D01*
X363188Y858632D01*
X358172Y858632D01*
X358172Y860773D02*
X363188Y860773D01*
X363188Y862914D02*
X358172Y862914D01*
D10*
X543560Y1005840D03*
X746760Y1005840D03*
D11*
X764540Y784860D03*
X525780Y1023620D03*
D12*
X655352Y873648D02*
X655352Y868632D01*
X655352Y873648D02*
X660368Y873648D01*
X660368Y868632D01*
X655352Y868632D01*
X655352Y870773D02*
X660368Y870773D01*
X660368Y872914D02*
X655352Y872914D01*
X655352Y863648D02*
X655352Y858632D01*
X655352Y863648D02*
X660368Y863648D01*
X660368Y858632D01*
X655352Y858632D01*
X655352Y860773D02*
X660368Y860773D01*
X660368Y862914D02*
X655352Y862914D01*
X668052Y868632D02*
X668052Y873648D01*
X673068Y873648D01*
X673068Y868632D01*
X668052Y868632D01*
X668052Y870773D02*
X673068Y870773D01*
X673068Y872914D02*
X668052Y872914D01*
X668052Y863648D02*
X668052Y858632D01*
X668052Y863648D02*
X673068Y863648D01*
X673068Y858632D01*
X668052Y858632D01*
X668052Y860773D02*
X673068Y860773D01*
X673068Y862914D02*
X668052Y862914D01*
D13*
X522703Y926733D02*
X522703Y937747D01*
X541717Y937747D01*
X541717Y926733D01*
X522703Y926733D01*
X522703Y928876D02*
X541717Y928876D01*
X541717Y931019D02*
X522703Y931019D01*
X522703Y933162D02*
X541717Y933162D01*
X541717Y935305D02*
X522703Y935305D01*
X522703Y937448D02*
X541717Y937448D01*
X522703Y881747D02*
X522703Y870733D01*
X522703Y881747D02*
X541717Y881747D01*
X541717Y870733D01*
X522703Y870733D01*
X522703Y872876D02*
X541717Y872876D01*
X541717Y875019D02*
X522703Y875019D01*
X522703Y877162D02*
X541717Y877162D01*
X541717Y879305D02*
X522703Y879305D01*
X522703Y881448D02*
X541717Y881448D01*
D12*
X562702Y916732D02*
X562702Y921748D01*
X575218Y921748D01*
X575218Y916732D01*
X562702Y916732D01*
X562702Y918873D02*
X575218Y918873D01*
X575218Y921014D02*
X562702Y921014D01*
X562702Y911748D02*
X562702Y906732D01*
X562702Y911748D02*
X575218Y911748D01*
X575218Y906732D01*
X562702Y906732D01*
X562702Y908873D02*
X575218Y908873D01*
X575218Y911014D02*
X562702Y911014D01*
X562702Y901748D02*
X562702Y896732D01*
X562702Y901748D02*
X575218Y901748D01*
X575218Y896732D01*
X562702Y896732D01*
X562702Y898873D02*
X575218Y898873D01*
X575218Y901014D02*
X562702Y901014D01*
X562702Y891748D02*
X562702Y886732D01*
X562702Y891748D02*
X575218Y891748D01*
X575218Y886732D01*
X562702Y886732D01*
X562702Y888873D02*
X575218Y888873D01*
X575218Y891014D02*
X562702Y891014D01*
D14*
X607060Y789940D03*
X632460Y789940D03*
X657860Y789940D03*
X683260Y789940D03*
D13*
X767617Y870733D02*
X767617Y881747D01*
X767617Y870733D02*
X748603Y870733D01*
X748603Y881747D01*
X767617Y881747D01*
X767617Y872876D02*
X748603Y872876D01*
X748603Y875019D02*
X767617Y875019D01*
X767617Y877162D02*
X748603Y877162D01*
X748603Y879305D02*
X767617Y879305D01*
X767617Y881448D02*
X748603Y881448D01*
X767617Y926733D02*
X767617Y937747D01*
X767617Y926733D02*
X748603Y926733D01*
X748603Y937747D01*
X767617Y937747D01*
X767617Y928876D02*
X748603Y928876D01*
X748603Y931019D02*
X767617Y931019D01*
X767617Y933162D02*
X748603Y933162D01*
X748603Y935305D02*
X767617Y935305D01*
X767617Y937448D02*
X748603Y937448D01*
D12*
X727618Y891748D02*
X727618Y886732D01*
X715102Y886732D01*
X715102Y891748D01*
X727618Y891748D01*
X727618Y888873D02*
X715102Y888873D01*
X715102Y891014D02*
X727618Y891014D01*
X727618Y896732D02*
X727618Y901748D01*
X727618Y896732D02*
X715102Y896732D01*
X715102Y901748D01*
X727618Y901748D01*
X727618Y898873D02*
X715102Y898873D01*
X715102Y901014D02*
X727618Y901014D01*
X727618Y906732D02*
X727618Y911748D01*
X727618Y906732D02*
X715102Y906732D01*
X715102Y911748D01*
X727618Y911748D01*
X727618Y908873D02*
X715102Y908873D01*
X715102Y911014D02*
X727618Y911014D01*
X727618Y916732D02*
X727618Y921748D01*
X727618Y916732D02*
X715102Y916732D01*
X715102Y921748D01*
X727618Y921748D01*
X727618Y918873D02*
X715102Y918873D01*
X715102Y921014D02*
X727618Y921014D01*
X551068Y862298D02*
X546052Y862298D01*
X551068Y862298D02*
X551068Y857282D01*
X546052Y857282D01*
X546052Y862298D01*
X546052Y859423D02*
X551068Y859423D01*
X551068Y861564D02*
X546052Y861564D01*
X541068Y862298D02*
X536052Y862298D01*
X541068Y862298D02*
X541068Y857282D01*
X536052Y857282D01*
X536052Y862298D01*
X536052Y859423D02*
X541068Y859423D01*
X541068Y861564D02*
X536052Y861564D01*
D15*
X538284Y850584D02*
X538284Y843596D01*
X531296Y843596D01*
X531296Y850584D01*
X538284Y850584D01*
X538284Y847665D02*
X531296Y847665D01*
X555824Y850584D02*
X555824Y843596D01*
X548836Y843596D01*
X548836Y850584D01*
X555824Y850584D01*
X555824Y847665D02*
X548836Y847665D01*
D10*
X746760Y802640D03*
X543560Y802640D03*
D16*
X629087Y887763D02*
X629087Y902717D01*
X629087Y887763D02*
X623133Y887763D01*
X623133Y902717D01*
X629087Y902717D01*
X629087Y889963D02*
X623133Y889963D01*
X623133Y892163D02*
X629087Y892163D01*
X629087Y894363D02*
X623133Y894363D01*
X623133Y896563D02*
X629087Y896563D01*
X629087Y898763D02*
X623133Y898763D01*
X623133Y900963D02*
X629087Y900963D01*
X641787Y902717D02*
X641787Y887763D01*
X635833Y887763D01*
X635833Y902717D01*
X641787Y902717D01*
X641787Y889963D02*
X635833Y889963D01*
X635833Y892163D02*
X641787Y892163D01*
X641787Y894363D02*
X635833Y894363D01*
X635833Y896563D02*
X641787Y896563D01*
X641787Y898763D02*
X635833Y898763D01*
X635833Y900963D02*
X641787Y900963D01*
X654487Y902717D02*
X654487Y887763D01*
X648533Y887763D01*
X648533Y902717D01*
X654487Y902717D01*
X654487Y889963D02*
X648533Y889963D01*
X648533Y892163D02*
X654487Y892163D01*
X654487Y894363D02*
X648533Y894363D01*
X648533Y896563D02*
X654487Y896563D01*
X654487Y898763D02*
X648533Y898763D01*
X648533Y900963D02*
X654487Y900963D01*
X667187Y902717D02*
X667187Y887763D01*
X661233Y887763D01*
X661233Y902717D01*
X667187Y902717D01*
X667187Y889963D02*
X661233Y889963D01*
X661233Y892163D02*
X667187Y892163D01*
X667187Y894363D02*
X661233Y894363D01*
X661233Y896563D02*
X667187Y896563D01*
X667187Y898763D02*
X661233Y898763D01*
X661233Y900963D02*
X667187Y900963D01*
D12*
X629952Y873648D02*
X629952Y868632D01*
X629952Y873648D02*
X634968Y873648D01*
X634968Y868632D01*
X629952Y868632D01*
X629952Y870773D02*
X634968Y870773D01*
X634968Y872914D02*
X629952Y872914D01*
X629952Y863648D02*
X629952Y858632D01*
X629952Y863648D02*
X634968Y863648D01*
X634968Y858632D01*
X629952Y858632D01*
X629952Y860773D02*
X634968Y860773D01*
X634968Y862914D02*
X629952Y862914D01*
X642652Y868632D02*
X642652Y873648D01*
X647668Y873648D01*
X647668Y868632D01*
X642652Y868632D01*
X642652Y870773D02*
X647668Y870773D01*
X647668Y872914D02*
X642652Y872914D01*
X642652Y863648D02*
X642652Y858632D01*
X642652Y863648D02*
X647668Y863648D01*
X647668Y858632D01*
X642652Y858632D01*
X642652Y860773D02*
X647668Y860773D01*
X647668Y862914D02*
X642652Y862914D01*
X617252Y868632D02*
X617252Y873648D01*
X622268Y873648D01*
X622268Y868632D01*
X617252Y868632D01*
X617252Y870773D02*
X622268Y870773D01*
X622268Y872914D02*
X617252Y872914D01*
X617252Y863648D02*
X617252Y858632D01*
X617252Y863648D02*
X622268Y863648D01*
X622268Y858632D01*
X617252Y858632D01*
X617252Y860773D02*
X622268Y860773D01*
X622268Y862914D02*
X617252Y862914D01*
D10*
X802640Y1005840D03*
X1005840Y1005840D03*
D11*
X1023620Y784860D03*
X784860Y1023620D03*
D12*
X914432Y873648D02*
X914432Y868632D01*
X914432Y873648D02*
X919448Y873648D01*
X919448Y868632D01*
X914432Y868632D01*
X914432Y870773D02*
X919448Y870773D01*
X919448Y872914D02*
X914432Y872914D01*
X914432Y863648D02*
X914432Y858632D01*
X914432Y863648D02*
X919448Y863648D01*
X919448Y858632D01*
X914432Y858632D01*
X914432Y860773D02*
X919448Y860773D01*
X919448Y862914D02*
X914432Y862914D01*
X927132Y868632D02*
X927132Y873648D01*
X932148Y873648D01*
X932148Y868632D01*
X927132Y868632D01*
X927132Y870773D02*
X932148Y870773D01*
X932148Y872914D02*
X927132Y872914D01*
X927132Y863648D02*
X927132Y858632D01*
X927132Y863648D02*
X932148Y863648D01*
X932148Y858632D01*
X927132Y858632D01*
X927132Y860773D02*
X932148Y860773D01*
X932148Y862914D02*
X927132Y862914D01*
D13*
X781783Y926733D02*
X781783Y937747D01*
X800797Y937747D01*
X800797Y926733D01*
X781783Y926733D01*
X781783Y928876D02*
X800797Y928876D01*
X800797Y931019D02*
X781783Y931019D01*
X781783Y933162D02*
X800797Y933162D01*
X800797Y935305D02*
X781783Y935305D01*
X781783Y937448D02*
X800797Y937448D01*
X781783Y881747D02*
X781783Y870733D01*
X781783Y881747D02*
X800797Y881747D01*
X800797Y870733D01*
X781783Y870733D01*
X781783Y872876D02*
X800797Y872876D01*
X800797Y875019D02*
X781783Y875019D01*
X781783Y877162D02*
X800797Y877162D01*
X800797Y879305D02*
X781783Y879305D01*
X781783Y881448D02*
X800797Y881448D01*
D12*
X821782Y916732D02*
X821782Y921748D01*
X834298Y921748D01*
X834298Y916732D01*
X821782Y916732D01*
X821782Y918873D02*
X834298Y918873D01*
X834298Y921014D02*
X821782Y921014D01*
X821782Y911748D02*
X821782Y906732D01*
X821782Y911748D02*
X834298Y911748D01*
X834298Y906732D01*
X821782Y906732D01*
X821782Y908873D02*
X834298Y908873D01*
X834298Y911014D02*
X821782Y911014D01*
X821782Y901748D02*
X821782Y896732D01*
X821782Y901748D02*
X834298Y901748D01*
X834298Y896732D01*
X821782Y896732D01*
X821782Y898873D02*
X834298Y898873D01*
X834298Y901014D02*
X821782Y901014D01*
X821782Y891748D02*
X821782Y886732D01*
X821782Y891748D02*
X834298Y891748D01*
X834298Y886732D01*
X821782Y886732D01*
X821782Y888873D02*
X834298Y888873D01*
X834298Y891014D02*
X821782Y891014D01*
D14*
X866140Y789940D03*
X891540Y789940D03*
X916940Y789940D03*
X942340Y789940D03*
D13*
X1026697Y870733D02*
X1026697Y881747D01*
X1026697Y870733D02*
X1007683Y870733D01*
X1007683Y881747D01*
X1026697Y881747D01*
X1026697Y872876D02*
X1007683Y872876D01*
X1007683Y875019D02*
X1026697Y875019D01*
X1026697Y877162D02*
X1007683Y877162D01*
X1007683Y879305D02*
X1026697Y879305D01*
X1026697Y881448D02*
X1007683Y881448D01*
X1026697Y926733D02*
X1026697Y937747D01*
X1026697Y926733D02*
X1007683Y926733D01*
X1007683Y937747D01*
X1026697Y937747D01*
X1026697Y928876D02*
X1007683Y928876D01*
X1007683Y931019D02*
X1026697Y931019D01*
X1026697Y933162D02*
X1007683Y933162D01*
X1007683Y935305D02*
X1026697Y935305D01*
X1026697Y937448D02*
X1007683Y937448D01*
D12*
X986698Y891748D02*
X986698Y886732D01*
X974182Y886732D01*
X974182Y891748D01*
X986698Y891748D01*
X986698Y888873D02*
X974182Y888873D01*
X974182Y891014D02*
X986698Y891014D01*
X986698Y896732D02*
X986698Y901748D01*
X986698Y896732D02*
X974182Y896732D01*
X974182Y901748D01*
X986698Y901748D01*
X986698Y898873D02*
X974182Y898873D01*
X974182Y901014D02*
X986698Y901014D01*
X986698Y906732D02*
X986698Y911748D01*
X986698Y906732D02*
X974182Y906732D01*
X974182Y911748D01*
X986698Y911748D01*
X986698Y908873D02*
X974182Y908873D01*
X974182Y911014D02*
X986698Y911014D01*
X986698Y916732D02*
X986698Y921748D01*
X986698Y916732D02*
X974182Y916732D01*
X974182Y921748D01*
X986698Y921748D01*
X986698Y918873D02*
X974182Y918873D01*
X974182Y921014D02*
X986698Y921014D01*
X810148Y862298D02*
X805132Y862298D01*
X810148Y862298D02*
X810148Y857282D01*
X805132Y857282D01*
X805132Y862298D01*
X805132Y859423D02*
X810148Y859423D01*
X810148Y861564D02*
X805132Y861564D01*
X800148Y862298D02*
X795132Y862298D01*
X800148Y862298D02*
X800148Y857282D01*
X795132Y857282D01*
X795132Y862298D01*
X795132Y859423D02*
X800148Y859423D01*
X800148Y861564D02*
X795132Y861564D01*
D15*
X797364Y850584D02*
X797364Y843596D01*
X790376Y843596D01*
X790376Y850584D01*
X797364Y850584D01*
X797364Y847665D02*
X790376Y847665D01*
X814904Y850584D02*
X814904Y843596D01*
X807916Y843596D01*
X807916Y850584D01*
X814904Y850584D01*
X814904Y847665D02*
X807916Y847665D01*
D10*
X1005840Y802640D03*
X802640Y802640D03*
D16*
X888167Y887763D02*
X888167Y902717D01*
X888167Y887763D02*
X882213Y887763D01*
X882213Y902717D01*
X888167Y902717D01*
X888167Y889963D02*
X882213Y889963D01*
X882213Y892163D02*
X888167Y892163D01*
X888167Y894363D02*
X882213Y894363D01*
X882213Y896563D02*
X888167Y896563D01*
X888167Y898763D02*
X882213Y898763D01*
X882213Y900963D02*
X888167Y900963D01*
X900867Y902717D02*
X900867Y887763D01*
X894913Y887763D01*
X894913Y902717D01*
X900867Y902717D01*
X900867Y889963D02*
X894913Y889963D01*
X894913Y892163D02*
X900867Y892163D01*
X900867Y894363D02*
X894913Y894363D01*
X894913Y896563D02*
X900867Y896563D01*
X900867Y898763D02*
X894913Y898763D01*
X894913Y900963D02*
X900867Y900963D01*
X913567Y902717D02*
X913567Y887763D01*
X907613Y887763D01*
X907613Y902717D01*
X913567Y902717D01*
X913567Y889963D02*
X907613Y889963D01*
X907613Y892163D02*
X913567Y892163D01*
X913567Y894363D02*
X907613Y894363D01*
X907613Y896563D02*
X913567Y896563D01*
X913567Y898763D02*
X907613Y898763D01*
X907613Y900963D02*
X913567Y900963D01*
X926267Y902717D02*
X926267Y887763D01*
X920313Y887763D01*
X920313Y902717D01*
X926267Y902717D01*
X926267Y889963D02*
X920313Y889963D01*
X920313Y892163D02*
X926267Y892163D01*
X926267Y894363D02*
X920313Y894363D01*
X920313Y896563D02*
X926267Y896563D01*
X926267Y898763D02*
X920313Y898763D01*
X920313Y900963D02*
X926267Y900963D01*
D12*
X889032Y873648D02*
X889032Y868632D01*
X889032Y873648D02*
X894048Y873648D01*
X894048Y868632D01*
X889032Y868632D01*
X889032Y870773D02*
X894048Y870773D01*
X894048Y872914D02*
X889032Y872914D01*
X889032Y863648D02*
X889032Y858632D01*
X889032Y863648D02*
X894048Y863648D01*
X894048Y858632D01*
X889032Y858632D01*
X889032Y860773D02*
X894048Y860773D01*
X894048Y862914D02*
X889032Y862914D01*
X901732Y868632D02*
X901732Y873648D01*
X906748Y873648D01*
X906748Y868632D01*
X901732Y868632D01*
X901732Y870773D02*
X906748Y870773D01*
X906748Y872914D02*
X901732Y872914D01*
X901732Y863648D02*
X901732Y858632D01*
X901732Y863648D02*
X906748Y863648D01*
X906748Y858632D01*
X901732Y858632D01*
X901732Y860773D02*
X906748Y860773D01*
X906748Y862914D02*
X901732Y862914D01*
X876332Y868632D02*
X876332Y873648D01*
X881348Y873648D01*
X881348Y868632D01*
X876332Y868632D01*
X876332Y870773D02*
X881348Y870773D01*
X881348Y872914D02*
X876332Y872914D01*
X876332Y863648D02*
X876332Y858632D01*
X876332Y863648D02*
X881348Y863648D01*
X881348Y858632D01*
X876332Y858632D01*
X876332Y860773D02*
X881348Y860773D01*
X881348Y862914D02*
X876332Y862914D01*
D10*
X1061720Y1005840D03*
X1264920Y1005840D03*
D11*
X1282700Y784860D03*
X1043940Y1023620D03*
D12*
X1173512Y873648D02*
X1173512Y868632D01*
X1173512Y873648D02*
X1178528Y873648D01*
X1178528Y868632D01*
X1173512Y868632D01*
X1173512Y870773D02*
X1178528Y870773D01*
X1178528Y872914D02*
X1173512Y872914D01*
X1173512Y863648D02*
X1173512Y858632D01*
X1173512Y863648D02*
X1178528Y863648D01*
X1178528Y858632D01*
X1173512Y858632D01*
X1173512Y860773D02*
X1178528Y860773D01*
X1178528Y862914D02*
X1173512Y862914D01*
X1186212Y868632D02*
X1186212Y873648D01*
X1191228Y873648D01*
X1191228Y868632D01*
X1186212Y868632D01*
X1186212Y870773D02*
X1191228Y870773D01*
X1191228Y872914D02*
X1186212Y872914D01*
X1186212Y863648D02*
X1186212Y858632D01*
X1186212Y863648D02*
X1191228Y863648D01*
X1191228Y858632D01*
X1186212Y858632D01*
X1186212Y860773D02*
X1191228Y860773D01*
X1191228Y862914D02*
X1186212Y862914D01*
D13*
X1040863Y926733D02*
X1040863Y937747D01*
X1059877Y937747D01*
X1059877Y926733D01*
X1040863Y926733D01*
X1040863Y928876D02*
X1059877Y928876D01*
X1059877Y931019D02*
X1040863Y931019D01*
X1040863Y933162D02*
X1059877Y933162D01*
X1059877Y935305D02*
X1040863Y935305D01*
X1040863Y937448D02*
X1059877Y937448D01*
X1040863Y881747D02*
X1040863Y870733D01*
X1040863Y881747D02*
X1059877Y881747D01*
X1059877Y870733D01*
X1040863Y870733D01*
X1040863Y872876D02*
X1059877Y872876D01*
X1059877Y875019D02*
X1040863Y875019D01*
X1040863Y877162D02*
X1059877Y877162D01*
X1059877Y879305D02*
X1040863Y879305D01*
X1040863Y881448D02*
X1059877Y881448D01*
D12*
X1080862Y916732D02*
X1080862Y921748D01*
X1093378Y921748D01*
X1093378Y916732D01*
X1080862Y916732D01*
X1080862Y918873D02*
X1093378Y918873D01*
X1093378Y921014D02*
X1080862Y921014D01*
X1080862Y911748D02*
X1080862Y906732D01*
X1080862Y911748D02*
X1093378Y911748D01*
X1093378Y906732D01*
X1080862Y906732D01*
X1080862Y908873D02*
X1093378Y908873D01*
X1093378Y911014D02*
X1080862Y911014D01*
X1080862Y901748D02*
X1080862Y896732D01*
X1080862Y901748D02*
X1093378Y901748D01*
X1093378Y896732D01*
X1080862Y896732D01*
X1080862Y898873D02*
X1093378Y898873D01*
X1093378Y901014D02*
X1080862Y901014D01*
X1080862Y891748D02*
X1080862Y886732D01*
X1080862Y891748D02*
X1093378Y891748D01*
X1093378Y886732D01*
X1080862Y886732D01*
X1080862Y888873D02*
X1093378Y888873D01*
X1093378Y891014D02*
X1080862Y891014D01*
D14*
X1125220Y789940D03*
X1150620Y789940D03*
X1176020Y789940D03*
X1201420Y789940D03*
D13*
X1285777Y870733D02*
X1285777Y881747D01*
X1285777Y870733D02*
X1266763Y870733D01*
X1266763Y881747D01*
X1285777Y881747D01*
X1285777Y872876D02*
X1266763Y872876D01*
X1266763Y875019D02*
X1285777Y875019D01*
X1285777Y877162D02*
X1266763Y877162D01*
X1266763Y879305D02*
X1285777Y879305D01*
X1285777Y881448D02*
X1266763Y881448D01*
X1285777Y926733D02*
X1285777Y937747D01*
X1285777Y926733D02*
X1266763Y926733D01*
X1266763Y937747D01*
X1285777Y937747D01*
X1285777Y928876D02*
X1266763Y928876D01*
X1266763Y931019D02*
X1285777Y931019D01*
X1285777Y933162D02*
X1266763Y933162D01*
X1266763Y935305D02*
X1285777Y935305D01*
X1285777Y937448D02*
X1266763Y937448D01*
D12*
X1245778Y891748D02*
X1245778Y886732D01*
X1233262Y886732D01*
X1233262Y891748D01*
X1245778Y891748D01*
X1245778Y888873D02*
X1233262Y888873D01*
X1233262Y891014D02*
X1245778Y891014D01*
X1245778Y896732D02*
X1245778Y901748D01*
X1245778Y896732D02*
X1233262Y896732D01*
X1233262Y901748D01*
X1245778Y901748D01*
X1245778Y898873D02*
X1233262Y898873D01*
X1233262Y901014D02*
X1245778Y901014D01*
X1245778Y906732D02*
X1245778Y911748D01*
X1245778Y906732D02*
X1233262Y906732D01*
X1233262Y911748D01*
X1245778Y911748D01*
X1245778Y908873D02*
X1233262Y908873D01*
X1233262Y911014D02*
X1245778Y911014D01*
X1245778Y916732D02*
X1245778Y921748D01*
X1245778Y916732D02*
X1233262Y916732D01*
X1233262Y921748D01*
X1245778Y921748D01*
X1245778Y918873D02*
X1233262Y918873D01*
X1233262Y921014D02*
X1245778Y921014D01*
X1069228Y862298D02*
X1064212Y862298D01*
X1069228Y862298D02*
X1069228Y857282D01*
X1064212Y857282D01*
X1064212Y862298D01*
X1064212Y859423D02*
X1069228Y859423D01*
X1069228Y861564D02*
X1064212Y861564D01*
X1059228Y862298D02*
X1054212Y862298D01*
X1059228Y862298D02*
X1059228Y857282D01*
X1054212Y857282D01*
X1054212Y862298D01*
X1054212Y859423D02*
X1059228Y859423D01*
X1059228Y861564D02*
X1054212Y861564D01*
D15*
X1056444Y850584D02*
X1056444Y843596D01*
X1049456Y843596D01*
X1049456Y850584D01*
X1056444Y850584D01*
X1056444Y847665D02*
X1049456Y847665D01*
X1073984Y850584D02*
X1073984Y843596D01*
X1066996Y843596D01*
X1066996Y850584D01*
X1073984Y850584D01*
X1073984Y847665D02*
X1066996Y847665D01*
D10*
X1264920Y802640D03*
X1061720Y802640D03*
D16*
X1147247Y887763D02*
X1147247Y902717D01*
X1147247Y887763D02*
X1141293Y887763D01*
X1141293Y902717D01*
X1147247Y902717D01*
X1147247Y889963D02*
X1141293Y889963D01*
X1141293Y892163D02*
X1147247Y892163D01*
X1147247Y894363D02*
X1141293Y894363D01*
X1141293Y896563D02*
X1147247Y896563D01*
X1147247Y898763D02*
X1141293Y898763D01*
X1141293Y900963D02*
X1147247Y900963D01*
X1159947Y902717D02*
X1159947Y887763D01*
X1153993Y887763D01*
X1153993Y902717D01*
X1159947Y902717D01*
X1159947Y889963D02*
X1153993Y889963D01*
X1153993Y892163D02*
X1159947Y892163D01*
X1159947Y894363D02*
X1153993Y894363D01*
X1153993Y896563D02*
X1159947Y896563D01*
X1159947Y898763D02*
X1153993Y898763D01*
X1153993Y900963D02*
X1159947Y900963D01*
X1172647Y902717D02*
X1172647Y887763D01*
X1166693Y887763D01*
X1166693Y902717D01*
X1172647Y902717D01*
X1172647Y889963D02*
X1166693Y889963D01*
X1166693Y892163D02*
X1172647Y892163D01*
X1172647Y894363D02*
X1166693Y894363D01*
X1166693Y896563D02*
X1172647Y896563D01*
X1172647Y898763D02*
X1166693Y898763D01*
X1166693Y900963D02*
X1172647Y900963D01*
X1185347Y902717D02*
X1185347Y887763D01*
X1179393Y887763D01*
X1179393Y902717D01*
X1185347Y902717D01*
X1185347Y889963D02*
X1179393Y889963D01*
X1179393Y892163D02*
X1185347Y892163D01*
X1185347Y894363D02*
X1179393Y894363D01*
X1179393Y896563D02*
X1185347Y896563D01*
X1185347Y898763D02*
X1179393Y898763D01*
X1179393Y900963D02*
X1185347Y900963D01*
D12*
X1148112Y873648D02*
X1148112Y868632D01*
X1148112Y873648D02*
X1153128Y873648D01*
X1153128Y868632D01*
X1148112Y868632D01*
X1148112Y870773D02*
X1153128Y870773D01*
X1153128Y872914D02*
X1148112Y872914D01*
X1148112Y863648D02*
X1148112Y858632D01*
X1148112Y863648D02*
X1153128Y863648D01*
X1153128Y858632D01*
X1148112Y858632D01*
X1148112Y860773D02*
X1153128Y860773D01*
X1153128Y862914D02*
X1148112Y862914D01*
X1160812Y868632D02*
X1160812Y873648D01*
X1165828Y873648D01*
X1165828Y868632D01*
X1160812Y868632D01*
X1160812Y870773D02*
X1165828Y870773D01*
X1165828Y872914D02*
X1160812Y872914D01*
X1160812Y863648D02*
X1160812Y858632D01*
X1160812Y863648D02*
X1165828Y863648D01*
X1165828Y858632D01*
X1160812Y858632D01*
X1160812Y860773D02*
X1165828Y860773D01*
X1165828Y862914D02*
X1160812Y862914D01*
X1135412Y868632D02*
X1135412Y873648D01*
X1140428Y873648D01*
X1140428Y868632D01*
X1135412Y868632D01*
X1135412Y870773D02*
X1140428Y870773D01*
X1140428Y872914D02*
X1135412Y872914D01*
X1135412Y863648D02*
X1135412Y858632D01*
X1135412Y863648D02*
X1140428Y863648D01*
X1140428Y858632D01*
X1135412Y858632D01*
X1135412Y860773D02*
X1140428Y860773D01*
X1140428Y862914D02*
X1135412Y862914D01*
D10*
X1320800Y1005840D03*
X1524000Y1005840D03*
D11*
X1541780Y784860D03*
X1303020Y1023620D03*
D12*
X1432592Y873648D02*
X1432592Y868632D01*
X1432592Y873648D02*
X1437608Y873648D01*
X1437608Y868632D01*
X1432592Y868632D01*
X1432592Y870773D02*
X1437608Y870773D01*
X1437608Y872914D02*
X1432592Y872914D01*
X1432592Y863648D02*
X1432592Y858632D01*
X1432592Y863648D02*
X1437608Y863648D01*
X1437608Y858632D01*
X1432592Y858632D01*
X1432592Y860773D02*
X1437608Y860773D01*
X1437608Y862914D02*
X1432592Y862914D01*
X1445292Y868632D02*
X1445292Y873648D01*
X1450308Y873648D01*
X1450308Y868632D01*
X1445292Y868632D01*
X1445292Y870773D02*
X1450308Y870773D01*
X1450308Y872914D02*
X1445292Y872914D01*
X1445292Y863648D02*
X1445292Y858632D01*
X1445292Y863648D02*
X1450308Y863648D01*
X1450308Y858632D01*
X1445292Y858632D01*
X1445292Y860773D02*
X1450308Y860773D01*
X1450308Y862914D02*
X1445292Y862914D01*
D13*
X1299943Y926733D02*
X1299943Y937747D01*
X1318957Y937747D01*
X1318957Y926733D01*
X1299943Y926733D01*
X1299943Y928876D02*
X1318957Y928876D01*
X1318957Y931019D02*
X1299943Y931019D01*
X1299943Y933162D02*
X1318957Y933162D01*
X1318957Y935305D02*
X1299943Y935305D01*
X1299943Y937448D02*
X1318957Y937448D01*
X1299943Y881747D02*
X1299943Y870733D01*
X1299943Y881747D02*
X1318957Y881747D01*
X1318957Y870733D01*
X1299943Y870733D01*
X1299943Y872876D02*
X1318957Y872876D01*
X1318957Y875019D02*
X1299943Y875019D01*
X1299943Y877162D02*
X1318957Y877162D01*
X1318957Y879305D02*
X1299943Y879305D01*
X1299943Y881448D02*
X1318957Y881448D01*
D12*
X1339942Y916732D02*
X1339942Y921748D01*
X1352458Y921748D01*
X1352458Y916732D01*
X1339942Y916732D01*
X1339942Y918873D02*
X1352458Y918873D01*
X1352458Y921014D02*
X1339942Y921014D01*
X1339942Y911748D02*
X1339942Y906732D01*
X1339942Y911748D02*
X1352458Y911748D01*
X1352458Y906732D01*
X1339942Y906732D01*
X1339942Y908873D02*
X1352458Y908873D01*
X1352458Y911014D02*
X1339942Y911014D01*
X1339942Y901748D02*
X1339942Y896732D01*
X1339942Y901748D02*
X1352458Y901748D01*
X1352458Y896732D01*
X1339942Y896732D01*
X1339942Y898873D02*
X1352458Y898873D01*
X1352458Y901014D02*
X1339942Y901014D01*
X1339942Y891748D02*
X1339942Y886732D01*
X1339942Y891748D02*
X1352458Y891748D01*
X1352458Y886732D01*
X1339942Y886732D01*
X1339942Y888873D02*
X1352458Y888873D01*
X1352458Y891014D02*
X1339942Y891014D01*
D14*
X1384300Y789940D03*
X1409700Y789940D03*
X1435100Y789940D03*
X1460500Y789940D03*
D13*
X1544857Y870733D02*
X1544857Y881747D01*
X1544857Y870733D02*
X1525843Y870733D01*
X1525843Y881747D01*
X1544857Y881747D01*
X1544857Y872876D02*
X1525843Y872876D01*
X1525843Y875019D02*
X1544857Y875019D01*
X1544857Y877162D02*
X1525843Y877162D01*
X1525843Y879305D02*
X1544857Y879305D01*
X1544857Y881448D02*
X1525843Y881448D01*
X1544857Y926733D02*
X1544857Y937747D01*
X1544857Y926733D02*
X1525843Y926733D01*
X1525843Y937747D01*
X1544857Y937747D01*
X1544857Y928876D02*
X1525843Y928876D01*
X1525843Y931019D02*
X1544857Y931019D01*
X1544857Y933162D02*
X1525843Y933162D01*
X1525843Y935305D02*
X1544857Y935305D01*
X1544857Y937448D02*
X1525843Y937448D01*
D12*
X1504858Y891748D02*
X1504858Y886732D01*
X1492342Y886732D01*
X1492342Y891748D01*
X1504858Y891748D01*
X1504858Y888873D02*
X1492342Y888873D01*
X1492342Y891014D02*
X1504858Y891014D01*
X1504858Y896732D02*
X1504858Y901748D01*
X1504858Y896732D02*
X1492342Y896732D01*
X1492342Y901748D01*
X1504858Y901748D01*
X1504858Y898873D02*
X1492342Y898873D01*
X1492342Y901014D02*
X1504858Y901014D01*
X1504858Y906732D02*
X1504858Y911748D01*
X1504858Y906732D02*
X1492342Y906732D01*
X1492342Y911748D01*
X1504858Y911748D01*
X1504858Y908873D02*
X1492342Y908873D01*
X1492342Y911014D02*
X1504858Y911014D01*
X1504858Y916732D02*
X1504858Y921748D01*
X1504858Y916732D02*
X1492342Y916732D01*
X1492342Y921748D01*
X1504858Y921748D01*
X1504858Y918873D02*
X1492342Y918873D01*
X1492342Y921014D02*
X1504858Y921014D01*
X1328308Y862298D02*
X1323292Y862298D01*
X1328308Y862298D02*
X1328308Y857282D01*
X1323292Y857282D01*
X1323292Y862298D01*
X1323292Y859423D02*
X1328308Y859423D01*
X1328308Y861564D02*
X1323292Y861564D01*
X1318308Y862298D02*
X1313292Y862298D01*
X1318308Y862298D02*
X1318308Y857282D01*
X1313292Y857282D01*
X1313292Y862298D01*
X1313292Y859423D02*
X1318308Y859423D01*
X1318308Y861564D02*
X1313292Y861564D01*
D15*
X1315524Y850584D02*
X1315524Y843596D01*
X1308536Y843596D01*
X1308536Y850584D01*
X1315524Y850584D01*
X1315524Y847665D02*
X1308536Y847665D01*
X1333064Y850584D02*
X1333064Y843596D01*
X1326076Y843596D01*
X1326076Y850584D01*
X1333064Y850584D01*
X1333064Y847665D02*
X1326076Y847665D01*
D10*
X1524000Y802640D03*
X1320800Y802640D03*
D16*
X1406327Y887763D02*
X1406327Y902717D01*
X1406327Y887763D02*
X1400373Y887763D01*
X1400373Y902717D01*
X1406327Y902717D01*
X1406327Y889963D02*
X1400373Y889963D01*
X1400373Y892163D02*
X1406327Y892163D01*
X1406327Y894363D02*
X1400373Y894363D01*
X1400373Y896563D02*
X1406327Y896563D01*
X1406327Y898763D02*
X1400373Y898763D01*
X1400373Y900963D02*
X1406327Y900963D01*
X1419027Y902717D02*
X1419027Y887763D01*
X1413073Y887763D01*
X1413073Y902717D01*
X1419027Y902717D01*
X1419027Y889963D02*
X1413073Y889963D01*
X1413073Y892163D02*
X1419027Y892163D01*
X1419027Y894363D02*
X1413073Y894363D01*
X1413073Y896563D02*
X1419027Y896563D01*
X1419027Y898763D02*
X1413073Y898763D01*
X1413073Y900963D02*
X1419027Y900963D01*
X1431727Y902717D02*
X1431727Y887763D01*
X1425773Y887763D01*
X1425773Y902717D01*
X1431727Y902717D01*
X1431727Y889963D02*
X1425773Y889963D01*
X1425773Y892163D02*
X1431727Y892163D01*
X1431727Y894363D02*
X1425773Y894363D01*
X1425773Y896563D02*
X1431727Y896563D01*
X1431727Y898763D02*
X1425773Y898763D01*
X1425773Y900963D02*
X1431727Y900963D01*
X1444427Y902717D02*
X1444427Y887763D01*
X1438473Y887763D01*
X1438473Y902717D01*
X1444427Y902717D01*
X1444427Y889963D02*
X1438473Y889963D01*
X1438473Y892163D02*
X1444427Y892163D01*
X1444427Y894363D02*
X1438473Y894363D01*
X1438473Y896563D02*
X1444427Y896563D01*
X1444427Y898763D02*
X1438473Y898763D01*
X1438473Y900963D02*
X1444427Y900963D01*
D12*
X1407192Y873648D02*
X1407192Y868632D01*
X1407192Y873648D02*
X1412208Y873648D01*
X1412208Y868632D01*
X1407192Y868632D01*
X1407192Y870773D02*
X1412208Y870773D01*
X1412208Y872914D02*
X1407192Y872914D01*
X1407192Y863648D02*
X1407192Y858632D01*
X1407192Y863648D02*
X1412208Y863648D01*
X1412208Y858632D01*
X1407192Y858632D01*
X1407192Y860773D02*
X1412208Y860773D01*
X1412208Y862914D02*
X1407192Y862914D01*
X1419892Y868632D02*
X1419892Y873648D01*
X1424908Y873648D01*
X1424908Y868632D01*
X1419892Y868632D01*
X1419892Y870773D02*
X1424908Y870773D01*
X1424908Y872914D02*
X1419892Y872914D01*
X1419892Y863648D02*
X1419892Y858632D01*
X1419892Y863648D02*
X1424908Y863648D01*
X1424908Y858632D01*
X1419892Y858632D01*
X1419892Y860773D02*
X1424908Y860773D01*
X1424908Y862914D02*
X1419892Y862914D01*
X1394492Y868632D02*
X1394492Y873648D01*
X1399508Y873648D01*
X1399508Y868632D01*
X1394492Y868632D01*
X1394492Y870773D02*
X1399508Y870773D01*
X1399508Y872914D02*
X1394492Y872914D01*
X1394492Y863648D02*
X1394492Y858632D01*
X1394492Y863648D02*
X1399508Y863648D01*
X1399508Y858632D01*
X1394492Y858632D01*
X1394492Y860773D02*
X1399508Y860773D01*
X1399508Y862914D02*
X1394492Y862914D01*
D11*
X68580Y1052195D03*
X1480185Y1052195D03*
D17*
X59525Y-20955D02*
X59528Y-20733D01*
X59536Y-20511D01*
X59550Y-20289D01*
X59569Y-20067D01*
X59593Y-19847D01*
X59623Y-19626D01*
X59658Y-19407D01*
X59699Y-19188D01*
X59745Y-18971D01*
X59796Y-18755D01*
X59853Y-18540D01*
X59915Y-18326D01*
X59982Y-18115D01*
X60054Y-17904D01*
X60132Y-17696D01*
X60214Y-17490D01*
X60302Y-17286D01*
X60394Y-17083D01*
X60492Y-16884D01*
X60594Y-16687D01*
X60701Y-16492D01*
X60813Y-16300D01*
X60930Y-16111D01*
X61051Y-15924D01*
X61177Y-15741D01*
X61307Y-15561D01*
X61442Y-15384D01*
X61580Y-15211D01*
X61723Y-15041D01*
X61871Y-14874D01*
X62022Y-14711D01*
X62177Y-14552D01*
X62336Y-14397D01*
X62499Y-14246D01*
X62666Y-14098D01*
X62836Y-13955D01*
X63009Y-13817D01*
X63186Y-13682D01*
X63366Y-13552D01*
X63549Y-13426D01*
X63736Y-13305D01*
X63925Y-13188D01*
X64117Y-13076D01*
X64312Y-12969D01*
X64509Y-12867D01*
X64708Y-12769D01*
X64911Y-12677D01*
X65115Y-12589D01*
X65321Y-12507D01*
X65529Y-12429D01*
X65740Y-12357D01*
X65951Y-12290D01*
X66165Y-12228D01*
X66380Y-12171D01*
X66596Y-12120D01*
X66813Y-12074D01*
X67032Y-12033D01*
X67251Y-11998D01*
X67472Y-11968D01*
X67692Y-11944D01*
X67914Y-11925D01*
X68136Y-11911D01*
X68358Y-11903D01*
X68580Y-11900D01*
X68802Y-11903D01*
X69024Y-11911D01*
X69246Y-11925D01*
X69468Y-11944D01*
X69688Y-11968D01*
X69909Y-11998D01*
X70128Y-12033D01*
X70347Y-12074D01*
X70564Y-12120D01*
X70780Y-12171D01*
X70995Y-12228D01*
X71209Y-12290D01*
X71420Y-12357D01*
X71631Y-12429D01*
X71839Y-12507D01*
X72045Y-12589D01*
X72249Y-12677D01*
X72452Y-12769D01*
X72651Y-12867D01*
X72848Y-12969D01*
X73043Y-13076D01*
X73235Y-13188D01*
X73424Y-13305D01*
X73611Y-13426D01*
X73794Y-13552D01*
X73974Y-13682D01*
X74151Y-13817D01*
X74324Y-13955D01*
X74494Y-14098D01*
X74661Y-14246D01*
X74824Y-14397D01*
X74983Y-14552D01*
X75138Y-14711D01*
X75289Y-14874D01*
X75437Y-15041D01*
X75580Y-15211D01*
X75718Y-15384D01*
X75853Y-15561D01*
X75983Y-15741D01*
X76109Y-15924D01*
X76230Y-16111D01*
X76347Y-16300D01*
X76459Y-16492D01*
X76566Y-16687D01*
X76668Y-16884D01*
X76766Y-17083D01*
X76858Y-17286D01*
X76946Y-17490D01*
X77028Y-17696D01*
X77106Y-17904D01*
X77178Y-18115D01*
X77245Y-18326D01*
X77307Y-18540D01*
X77364Y-18755D01*
X77415Y-18971D01*
X77461Y-19188D01*
X77502Y-19407D01*
X77537Y-19626D01*
X77567Y-19847D01*
X77591Y-20067D01*
X77610Y-20289D01*
X77624Y-20511D01*
X77632Y-20733D01*
X77635Y-20955D01*
X77632Y-21177D01*
X77624Y-21399D01*
X77610Y-21621D01*
X77591Y-21843D01*
X77567Y-22063D01*
X77537Y-22284D01*
X77502Y-22503D01*
X77461Y-22722D01*
X77415Y-22939D01*
X77364Y-23155D01*
X77307Y-23370D01*
X77245Y-23584D01*
X77178Y-23795D01*
X77106Y-24006D01*
X77028Y-24214D01*
X76946Y-24420D01*
X76858Y-24624D01*
X76766Y-24827D01*
X76668Y-25026D01*
X76566Y-25223D01*
X76459Y-25418D01*
X76347Y-25610D01*
X76230Y-25799D01*
X76109Y-25986D01*
X75983Y-26169D01*
X75853Y-26349D01*
X75718Y-26526D01*
X75580Y-26699D01*
X75437Y-26869D01*
X75289Y-27036D01*
X75138Y-27199D01*
X74983Y-27358D01*
X74824Y-27513D01*
X74661Y-27664D01*
X74494Y-27812D01*
X74324Y-27955D01*
X74151Y-28093D01*
X73974Y-28228D01*
X73794Y-28358D01*
X73611Y-28484D01*
X73424Y-28605D01*
X73235Y-28722D01*
X73043Y-28834D01*
X72848Y-28941D01*
X72651Y-29043D01*
X72452Y-29141D01*
X72249Y-29233D01*
X72045Y-29321D01*
X71839Y-29403D01*
X71631Y-29481D01*
X71420Y-29553D01*
X71209Y-29620D01*
X70995Y-29682D01*
X70780Y-29739D01*
X70564Y-29790D01*
X70347Y-29836D01*
X70128Y-29877D01*
X69909Y-29912D01*
X69688Y-29942D01*
X69468Y-29966D01*
X69246Y-29985D01*
X69024Y-29999D01*
X68802Y-30007D01*
X68580Y-30010D01*
X68358Y-30007D01*
X68136Y-29999D01*
X67914Y-29985D01*
X67692Y-29966D01*
X67472Y-29942D01*
X67251Y-29912D01*
X67032Y-29877D01*
X66813Y-29836D01*
X66596Y-29790D01*
X66380Y-29739D01*
X66165Y-29682D01*
X65951Y-29620D01*
X65740Y-29553D01*
X65529Y-29481D01*
X65321Y-29403D01*
X65115Y-29321D01*
X64911Y-29233D01*
X64708Y-29141D01*
X64509Y-29043D01*
X64312Y-28941D01*
X64117Y-28834D01*
X63925Y-28722D01*
X63736Y-28605D01*
X63549Y-28484D01*
X63366Y-28358D01*
X63186Y-28228D01*
X63009Y-28093D01*
X62836Y-27955D01*
X62666Y-27812D01*
X62499Y-27664D01*
X62336Y-27513D01*
X62177Y-27358D01*
X62022Y-27199D01*
X61871Y-27036D01*
X61723Y-26869D01*
X61580Y-26699D01*
X61442Y-26526D01*
X61307Y-26349D01*
X61177Y-26169D01*
X61051Y-25986D01*
X60930Y-25799D01*
X60813Y-25610D01*
X60701Y-25418D01*
X60594Y-25223D01*
X60492Y-25026D01*
X60394Y-24827D01*
X60302Y-24624D01*
X60214Y-24420D01*
X60132Y-24214D01*
X60054Y-24006D01*
X59982Y-23795D01*
X59915Y-23584D01*
X59853Y-23370D01*
X59796Y-23155D01*
X59745Y-22939D01*
X59699Y-22722D01*
X59658Y-22503D01*
X59623Y-22284D01*
X59593Y-22063D01*
X59569Y-21843D01*
X59550Y-21621D01*
X59536Y-21399D01*
X59528Y-21177D01*
X59525Y-20955D01*
D18*
X68580Y-20955D03*
M02*
